M48
; DRILL file {KiCad (5.99.0-9795-gc3c3649211)} date 06/10/21 22:06:12
; FORMAT={-:-/ absolute / inch / decimal}
; #@! TF.CreationDate,2021-06-10T22:06:12-05:00
; #@! TF.GenerationSoftware,Kicad,Pcbnew,(5.99.0-9795-gc3c3649211)
; #@! TF.FileFunction,NonPlated,1,2,NPTH
FMAT,2
INCH
; #@! TA.AperFunction,ComponentDrill,NonPlated,NPTH
T1C0.0689
; #@! TA.AperFunction,ComponentDrill,NonPlated,NPTH
T2C0.1570
%
G90
G05
T1
; not plated pad hole
X0.8625Y-2.7188
X0.8625Y-3.4688
X0.8625Y-4.2188
X1.2625Y-2.7188
X1.2625Y-3.4688
X1.2625Y-4.2188
X1.6125Y-2.7188
X1.6125Y-3.4688
X1.6125Y-4.2188
X2.0125Y-2.7188
X2.0125Y-3.4688
X2.0125Y-4.2188
X2.3625Y-2.7188
X2.3625Y-3.4688
X2.3625Y-4.2188
X2.3625Y-4.9688
X2.7625Y-2.7188
X2.7625Y-3.4688
X2.7625Y-4.2188
X2.7625Y-4.9688
X3.1125Y-2.7188
X3.1125Y-3.4688
X3.1125Y-4.2188
X3.1125Y-4.9688
X3.5125Y-2.7188
X3.5125Y-3.4688
X3.5125Y-4.2188
X3.5125Y-4.9688
X3.8625Y-2.7188
X3.8625Y-3.4688
X3.8625Y-4.2188
X3.8625Y-4.9688
X4.2625Y-2.7188
X4.2625Y-3.4688
X4.2625Y-4.2188
X4.2625Y-4.9688
X4.6125Y-2.7188
X4.6125Y-3.4688
X4.6125Y-4.2188
X4.6125Y-4.9688
X5.0125Y-2.7188
X5.0125Y-3.4688
X5.0125Y-4.2188
X5.0125Y-4.9688
X5.3625Y-2.7188
X5.3625Y-3.4688
X5.3625Y-4.2188
X5.3625Y-4.9688
X5.7625Y-2.7188
X5.7625Y-3.4688
X5.7625Y-4.2188
X5.7625Y-4.9688
X6.1125Y-2.7188
X6.1125Y-3.4688
X6.1125Y-4.2188
X6.1125Y-4.9688
X6.5125Y-2.7188
X6.5125Y-3.4688
X6.5125Y-4.2188
X6.5125Y-4.9688
X6.8625Y-2.7188
X6.8625Y-3.4688
X6.8625Y-4.2188
X7.2625Y-2.7188
X7.2625Y-3.4688
X7.2625Y-4.2188
X7.6125Y-2.7188
X7.6125Y-3.4688
X7.6125Y-4.2188
X8.0125Y-2.7188
X8.0125Y-3.4688
X8.0125Y-4.2188
T2
X1.0625Y-2.7188
X1.0625Y-3.4688
X1.0625Y-4.2188
X1.8125Y-2.7188
X1.8125Y-3.4688
X1.8125Y-4.2188
X2.5625Y-2.7188
X2.5625Y-3.4688
X2.5625Y-4.2188
X2.5625Y-4.9688
X3.3125Y-2.7188
X3.3125Y-3.4688
X3.3125Y-4.2188
X3.3125Y-4.9688
X4.0625Y-2.7188
X4.0625Y-3.4688
X4.0625Y-4.2188
X4.0625Y-4.9688
X4.8125Y-2.7188
X4.8125Y-3.4688
X4.8125Y-4.2188
X4.8125Y-4.9688
X5.5625Y-2.7188
X5.5625Y-3.4688
X5.5625Y-4.2188
X5.5625Y-4.9688
X6.3125Y-2.7188
X6.3125Y-3.4688
X6.3125Y-4.2188
X6.3125Y-4.9688
X7.0625Y-2.7188
X7.0625Y-3.4688
X7.0625Y-4.2188
X7.8125Y-2.7188
X7.8125Y-3.4688
X7.8125Y-4.2188
T0
M30
