%TF.GenerationSoftware,KiCad,Pcbnew,(5.99.0-9795-gc3c3649211)*%
%TF.CreationDate,2021-06-10T22:06:10-05:00*%
%TF.ProjectId,free10u,66726565-3130-4752-9e6b-696361645f70,rev?*%
%TF.SameCoordinates,Original*%
%TF.FileFunction,Legend,Bot*%
%TF.FilePolarity,Positive*%
%FSLAX46Y46*%
G04 Gerber Fmt 4.6, Leading zero omitted, Abs format (unit mm)*
G04 Created by KiCad (PCBNEW (5.99.0-9795-gc3c3649211)) date 2021-06-10 22:06:10*
%MOMM*%
%LPD*%
G01*
G04 APERTURE LIST*
%ADD10C,0.300000*%
%ADD11C,0.150000*%
%ADD12C,0.120000*%
%ADD13C,1.752600*%
%ADD14R,1.752600X1.752600*%
G04 APERTURE END LIST*
D10*
%TO.C,G\u002A\u002A\u002A*%
X163267571Y-93694250D02*
X163412714Y-93621678D01*
X163630428Y-93621678D01*
X163848142Y-93694250D01*
X163993285Y-93839392D01*
X164065857Y-93984535D01*
X164138428Y-94274821D01*
X164138428Y-94492535D01*
X164065857Y-94782821D01*
X163993285Y-94927964D01*
X163848142Y-95073107D01*
X163630428Y-95145678D01*
X163485285Y-95145678D01*
X163267571Y-95073107D01*
X163195000Y-95000535D01*
X163195000Y-94492535D01*
X163485285Y-94492535D01*
X162324142Y-93621678D02*
X162324142Y-93984535D01*
X162687000Y-93839392D02*
X162324142Y-93984535D01*
X161961285Y-93839392D01*
X162541857Y-94274821D02*
X162324142Y-93984535D01*
X162106428Y-94274821D01*
X161163000Y-93621678D02*
X161163000Y-93984535D01*
X161525857Y-93839392D02*
X161163000Y-93984535D01*
X160800142Y-93839392D01*
X161380714Y-94274821D02*
X161163000Y-93984535D01*
X160945285Y-94274821D01*
X160001857Y-93621678D02*
X160001857Y-93984535D01*
X160364714Y-93839392D02*
X160001857Y-93984535D01*
X159639000Y-93839392D01*
X160219571Y-94274821D02*
X160001857Y-93984535D01*
X159784142Y-94274821D01*
D11*
%TO.C,D36*%
X168314880Y-118641964D02*
X167314880Y-118641964D01*
X167314880Y-118880059D01*
X167362500Y-119022916D01*
X167457738Y-119118154D01*
X167552976Y-119165773D01*
X167743452Y-119213392D01*
X167886309Y-119213392D01*
X168076785Y-119165773D01*
X168172023Y-119118154D01*
X168267261Y-119022916D01*
X168314880Y-118880059D01*
X168314880Y-118641964D01*
X167314880Y-119546726D02*
X167314880Y-120165773D01*
X167695833Y-119832440D01*
X167695833Y-119975297D01*
X167743452Y-120070535D01*
X167791071Y-120118154D01*
X167886309Y-120165773D01*
X168124404Y-120165773D01*
X168219642Y-120118154D01*
X168267261Y-120070535D01*
X168314880Y-119975297D01*
X168314880Y-119689583D01*
X168267261Y-119594345D01*
X168219642Y-119546726D01*
X167314880Y-121022916D02*
X167314880Y-120832440D01*
X167362500Y-120737202D01*
X167410119Y-120689583D01*
X167552976Y-120594345D01*
X167743452Y-120546726D01*
X168124404Y-120546726D01*
X168219642Y-120594345D01*
X168267261Y-120641964D01*
X168314880Y-120737202D01*
X168314880Y-120927678D01*
X168267261Y-121022916D01*
X168219642Y-121070535D01*
X168124404Y-121118154D01*
X167886309Y-121118154D01*
X167791071Y-121070535D01*
X167743452Y-121022916D01*
X167695833Y-120927678D01*
X167695833Y-120737202D01*
X167743452Y-120641964D01*
X167791071Y-120594345D01*
X167886309Y-120546726D01*
%TO.C,D35*%
X149264880Y-118641964D02*
X148264880Y-118641964D01*
X148264880Y-118880059D01*
X148312500Y-119022916D01*
X148407738Y-119118154D01*
X148502976Y-119165773D01*
X148693452Y-119213392D01*
X148836309Y-119213392D01*
X149026785Y-119165773D01*
X149122023Y-119118154D01*
X149217261Y-119022916D01*
X149264880Y-118880059D01*
X149264880Y-118641964D01*
X148264880Y-119546726D02*
X148264880Y-120165773D01*
X148645833Y-119832440D01*
X148645833Y-119975297D01*
X148693452Y-120070535D01*
X148741071Y-120118154D01*
X148836309Y-120165773D01*
X149074404Y-120165773D01*
X149169642Y-120118154D01*
X149217261Y-120070535D01*
X149264880Y-119975297D01*
X149264880Y-119689583D01*
X149217261Y-119594345D01*
X149169642Y-119546726D01*
X148264880Y-121070535D02*
X148264880Y-120594345D01*
X148741071Y-120546726D01*
X148693452Y-120594345D01*
X148645833Y-120689583D01*
X148645833Y-120927678D01*
X148693452Y-121022916D01*
X148741071Y-121070535D01*
X148836309Y-121118154D01*
X149074404Y-121118154D01*
X149169642Y-121070535D01*
X149217261Y-121022916D01*
X149264880Y-120927678D01*
X149264880Y-120689583D01*
X149217261Y-120594345D01*
X149169642Y-120546726D01*
%TO.C,D34*%
X130214880Y-118641964D02*
X129214880Y-118641964D01*
X129214880Y-118880059D01*
X129262500Y-119022916D01*
X129357738Y-119118154D01*
X129452976Y-119165773D01*
X129643452Y-119213392D01*
X129786309Y-119213392D01*
X129976785Y-119165773D01*
X130072023Y-119118154D01*
X130167261Y-119022916D01*
X130214880Y-118880059D01*
X130214880Y-118641964D01*
X129214880Y-119546726D02*
X129214880Y-120165773D01*
X129595833Y-119832440D01*
X129595833Y-119975297D01*
X129643452Y-120070535D01*
X129691071Y-120118154D01*
X129786309Y-120165773D01*
X130024404Y-120165773D01*
X130119642Y-120118154D01*
X130167261Y-120070535D01*
X130214880Y-119975297D01*
X130214880Y-119689583D01*
X130167261Y-119594345D01*
X130119642Y-119546726D01*
X129548214Y-121022916D02*
X130214880Y-121022916D01*
X129167261Y-120784821D02*
X129881547Y-120546726D01*
X129881547Y-121165773D01*
%TO.C,D33*%
X111164880Y-118641964D02*
X110164880Y-118641964D01*
X110164880Y-118880059D01*
X110212500Y-119022916D01*
X110307738Y-119118154D01*
X110402976Y-119165773D01*
X110593452Y-119213392D01*
X110736309Y-119213392D01*
X110926785Y-119165773D01*
X111022023Y-119118154D01*
X111117261Y-119022916D01*
X111164880Y-118880059D01*
X111164880Y-118641964D01*
X110164880Y-119546726D02*
X110164880Y-120165773D01*
X110545833Y-119832440D01*
X110545833Y-119975297D01*
X110593452Y-120070535D01*
X110641071Y-120118154D01*
X110736309Y-120165773D01*
X110974404Y-120165773D01*
X111069642Y-120118154D01*
X111117261Y-120070535D01*
X111164880Y-119975297D01*
X111164880Y-119689583D01*
X111117261Y-119594345D01*
X111069642Y-119546726D01*
X110164880Y-120499107D02*
X110164880Y-121118154D01*
X110545833Y-120784821D01*
X110545833Y-120927678D01*
X110593452Y-121022916D01*
X110641071Y-121070535D01*
X110736309Y-121118154D01*
X110974404Y-121118154D01*
X111069642Y-121070535D01*
X111117261Y-121022916D01*
X111164880Y-120927678D01*
X111164880Y-120641964D01*
X111117261Y-120546726D01*
X111069642Y-120499107D01*
%TO.C,D32*%
X92114880Y-118641964D02*
X91114880Y-118641964D01*
X91114880Y-118880059D01*
X91162500Y-119022916D01*
X91257738Y-119118154D01*
X91352976Y-119165773D01*
X91543452Y-119213392D01*
X91686309Y-119213392D01*
X91876785Y-119165773D01*
X91972023Y-119118154D01*
X92067261Y-119022916D01*
X92114880Y-118880059D01*
X92114880Y-118641964D01*
X91114880Y-119546726D02*
X91114880Y-120165773D01*
X91495833Y-119832440D01*
X91495833Y-119975297D01*
X91543452Y-120070535D01*
X91591071Y-120118154D01*
X91686309Y-120165773D01*
X91924404Y-120165773D01*
X92019642Y-120118154D01*
X92067261Y-120070535D01*
X92114880Y-119975297D01*
X92114880Y-119689583D01*
X92067261Y-119594345D01*
X92019642Y-119546726D01*
X91210119Y-120546726D02*
X91162500Y-120594345D01*
X91114880Y-120689583D01*
X91114880Y-120927678D01*
X91162500Y-121022916D01*
X91210119Y-121070535D01*
X91305357Y-121118154D01*
X91400595Y-121118154D01*
X91543452Y-121070535D01*
X92114880Y-120499107D01*
X92114880Y-121118154D01*
%TO.C,D31*%
X73064880Y-118641964D02*
X72064880Y-118641964D01*
X72064880Y-118880059D01*
X72112500Y-119022916D01*
X72207738Y-119118154D01*
X72302976Y-119165773D01*
X72493452Y-119213392D01*
X72636309Y-119213392D01*
X72826785Y-119165773D01*
X72922023Y-119118154D01*
X73017261Y-119022916D01*
X73064880Y-118880059D01*
X73064880Y-118641964D01*
X72064880Y-119546726D02*
X72064880Y-120165773D01*
X72445833Y-119832440D01*
X72445833Y-119975297D01*
X72493452Y-120070535D01*
X72541071Y-120118154D01*
X72636309Y-120165773D01*
X72874404Y-120165773D01*
X72969642Y-120118154D01*
X73017261Y-120070535D01*
X73064880Y-119975297D01*
X73064880Y-119689583D01*
X73017261Y-119594345D01*
X72969642Y-119546726D01*
X73064880Y-121118154D02*
X73064880Y-120546726D01*
X73064880Y-120832440D02*
X72064880Y-120832440D01*
X72207738Y-120737202D01*
X72302976Y-120641964D01*
X72350595Y-120546726D01*
%TO.C,D30*%
X204827380Y-99591964D02*
X203827380Y-99591964D01*
X203827380Y-99830059D01*
X203875000Y-99972916D01*
X203970238Y-100068154D01*
X204065476Y-100115773D01*
X204255952Y-100163392D01*
X204398809Y-100163392D01*
X204589285Y-100115773D01*
X204684523Y-100068154D01*
X204779761Y-99972916D01*
X204827380Y-99830059D01*
X204827380Y-99591964D01*
X203827380Y-100496726D02*
X203827380Y-101115773D01*
X204208333Y-100782440D01*
X204208333Y-100925297D01*
X204255952Y-101020535D01*
X204303571Y-101068154D01*
X204398809Y-101115773D01*
X204636904Y-101115773D01*
X204732142Y-101068154D01*
X204779761Y-101020535D01*
X204827380Y-100925297D01*
X204827380Y-100639583D01*
X204779761Y-100544345D01*
X204732142Y-100496726D01*
X203827380Y-101734821D02*
X203827380Y-101830059D01*
X203875000Y-101925297D01*
X203922619Y-101972916D01*
X204017857Y-102020535D01*
X204208333Y-102068154D01*
X204446428Y-102068154D01*
X204636904Y-102020535D01*
X204732142Y-101972916D01*
X204779761Y-101925297D01*
X204827380Y-101830059D01*
X204827380Y-101734821D01*
X204779761Y-101639583D01*
X204732142Y-101591964D01*
X204636904Y-101544345D01*
X204446428Y-101496726D01*
X204208333Y-101496726D01*
X204017857Y-101544345D01*
X203922619Y-101591964D01*
X203875000Y-101639583D01*
X203827380Y-101734821D01*
%TO.C,D29*%
X187364880Y-99591964D02*
X186364880Y-99591964D01*
X186364880Y-99830059D01*
X186412500Y-99972916D01*
X186507738Y-100068154D01*
X186602976Y-100115773D01*
X186793452Y-100163392D01*
X186936309Y-100163392D01*
X187126785Y-100115773D01*
X187222023Y-100068154D01*
X187317261Y-99972916D01*
X187364880Y-99830059D01*
X187364880Y-99591964D01*
X186460119Y-100544345D02*
X186412500Y-100591964D01*
X186364880Y-100687202D01*
X186364880Y-100925297D01*
X186412500Y-101020535D01*
X186460119Y-101068154D01*
X186555357Y-101115773D01*
X186650595Y-101115773D01*
X186793452Y-101068154D01*
X187364880Y-100496726D01*
X187364880Y-101115773D01*
X187364880Y-101591964D02*
X187364880Y-101782440D01*
X187317261Y-101877678D01*
X187269642Y-101925297D01*
X187126785Y-102020535D01*
X186936309Y-102068154D01*
X186555357Y-102068154D01*
X186460119Y-102020535D01*
X186412500Y-101972916D01*
X186364880Y-101877678D01*
X186364880Y-101687202D01*
X186412500Y-101591964D01*
X186460119Y-101544345D01*
X186555357Y-101496726D01*
X186793452Y-101496726D01*
X186888690Y-101544345D01*
X186936309Y-101591964D01*
X186983928Y-101687202D01*
X186983928Y-101877678D01*
X186936309Y-101972916D01*
X186888690Y-102020535D01*
X186793452Y-102068154D01*
%TO.C,D28*%
X168314880Y-99591964D02*
X167314880Y-99591964D01*
X167314880Y-99830059D01*
X167362500Y-99972916D01*
X167457738Y-100068154D01*
X167552976Y-100115773D01*
X167743452Y-100163392D01*
X167886309Y-100163392D01*
X168076785Y-100115773D01*
X168172023Y-100068154D01*
X168267261Y-99972916D01*
X168314880Y-99830059D01*
X168314880Y-99591964D01*
X167410119Y-100544345D02*
X167362500Y-100591964D01*
X167314880Y-100687202D01*
X167314880Y-100925297D01*
X167362500Y-101020535D01*
X167410119Y-101068154D01*
X167505357Y-101115773D01*
X167600595Y-101115773D01*
X167743452Y-101068154D01*
X168314880Y-100496726D01*
X168314880Y-101115773D01*
X167743452Y-101687202D02*
X167695833Y-101591964D01*
X167648214Y-101544345D01*
X167552976Y-101496726D01*
X167505357Y-101496726D01*
X167410119Y-101544345D01*
X167362500Y-101591964D01*
X167314880Y-101687202D01*
X167314880Y-101877678D01*
X167362500Y-101972916D01*
X167410119Y-102020535D01*
X167505357Y-102068154D01*
X167552976Y-102068154D01*
X167648214Y-102020535D01*
X167695833Y-101972916D01*
X167743452Y-101877678D01*
X167743452Y-101687202D01*
X167791071Y-101591964D01*
X167838690Y-101544345D01*
X167933928Y-101496726D01*
X168124404Y-101496726D01*
X168219642Y-101544345D01*
X168267261Y-101591964D01*
X168314880Y-101687202D01*
X168314880Y-101877678D01*
X168267261Y-101972916D01*
X168219642Y-102020535D01*
X168124404Y-102068154D01*
X167933928Y-102068154D01*
X167838690Y-102020535D01*
X167791071Y-101972916D01*
X167743452Y-101877678D01*
%TO.C,D27*%
X149264880Y-99591964D02*
X148264880Y-99591964D01*
X148264880Y-99830059D01*
X148312500Y-99972916D01*
X148407738Y-100068154D01*
X148502976Y-100115773D01*
X148693452Y-100163392D01*
X148836309Y-100163392D01*
X149026785Y-100115773D01*
X149122023Y-100068154D01*
X149217261Y-99972916D01*
X149264880Y-99830059D01*
X149264880Y-99591964D01*
X148360119Y-100544345D02*
X148312500Y-100591964D01*
X148264880Y-100687202D01*
X148264880Y-100925297D01*
X148312500Y-101020535D01*
X148360119Y-101068154D01*
X148455357Y-101115773D01*
X148550595Y-101115773D01*
X148693452Y-101068154D01*
X149264880Y-100496726D01*
X149264880Y-101115773D01*
X148264880Y-101449107D02*
X148264880Y-102115773D01*
X149264880Y-101687202D01*
%TO.C,D26*%
X130214880Y-99591964D02*
X129214880Y-99591964D01*
X129214880Y-99830059D01*
X129262500Y-99972916D01*
X129357738Y-100068154D01*
X129452976Y-100115773D01*
X129643452Y-100163392D01*
X129786309Y-100163392D01*
X129976785Y-100115773D01*
X130072023Y-100068154D01*
X130167261Y-99972916D01*
X130214880Y-99830059D01*
X130214880Y-99591964D01*
X129310119Y-100544345D02*
X129262500Y-100591964D01*
X129214880Y-100687202D01*
X129214880Y-100925297D01*
X129262500Y-101020535D01*
X129310119Y-101068154D01*
X129405357Y-101115773D01*
X129500595Y-101115773D01*
X129643452Y-101068154D01*
X130214880Y-100496726D01*
X130214880Y-101115773D01*
X129214880Y-101972916D02*
X129214880Y-101782440D01*
X129262500Y-101687202D01*
X129310119Y-101639583D01*
X129452976Y-101544345D01*
X129643452Y-101496726D01*
X130024404Y-101496726D01*
X130119642Y-101544345D01*
X130167261Y-101591964D01*
X130214880Y-101687202D01*
X130214880Y-101877678D01*
X130167261Y-101972916D01*
X130119642Y-102020535D01*
X130024404Y-102068154D01*
X129786309Y-102068154D01*
X129691071Y-102020535D01*
X129643452Y-101972916D01*
X129595833Y-101877678D01*
X129595833Y-101687202D01*
X129643452Y-101591964D01*
X129691071Y-101544345D01*
X129786309Y-101496726D01*
%TO.C,D25*%
X111164880Y-99591964D02*
X110164880Y-99591964D01*
X110164880Y-99830059D01*
X110212500Y-99972916D01*
X110307738Y-100068154D01*
X110402976Y-100115773D01*
X110593452Y-100163392D01*
X110736309Y-100163392D01*
X110926785Y-100115773D01*
X111022023Y-100068154D01*
X111117261Y-99972916D01*
X111164880Y-99830059D01*
X111164880Y-99591964D01*
X110260119Y-100544345D02*
X110212500Y-100591964D01*
X110164880Y-100687202D01*
X110164880Y-100925297D01*
X110212500Y-101020535D01*
X110260119Y-101068154D01*
X110355357Y-101115773D01*
X110450595Y-101115773D01*
X110593452Y-101068154D01*
X111164880Y-100496726D01*
X111164880Y-101115773D01*
X110164880Y-102020535D02*
X110164880Y-101544345D01*
X110641071Y-101496726D01*
X110593452Y-101544345D01*
X110545833Y-101639583D01*
X110545833Y-101877678D01*
X110593452Y-101972916D01*
X110641071Y-102020535D01*
X110736309Y-102068154D01*
X110974404Y-102068154D01*
X111069642Y-102020535D01*
X111117261Y-101972916D01*
X111164880Y-101877678D01*
X111164880Y-101639583D01*
X111117261Y-101544345D01*
X111069642Y-101496726D01*
%TO.C,D24*%
X92114880Y-99591964D02*
X91114880Y-99591964D01*
X91114880Y-99830059D01*
X91162500Y-99972916D01*
X91257738Y-100068154D01*
X91352976Y-100115773D01*
X91543452Y-100163392D01*
X91686309Y-100163392D01*
X91876785Y-100115773D01*
X91972023Y-100068154D01*
X92067261Y-99972916D01*
X92114880Y-99830059D01*
X92114880Y-99591964D01*
X91210119Y-100544345D02*
X91162500Y-100591964D01*
X91114880Y-100687202D01*
X91114880Y-100925297D01*
X91162500Y-101020535D01*
X91210119Y-101068154D01*
X91305357Y-101115773D01*
X91400595Y-101115773D01*
X91543452Y-101068154D01*
X92114880Y-100496726D01*
X92114880Y-101115773D01*
X91448214Y-101972916D02*
X92114880Y-101972916D01*
X91067261Y-101734821D02*
X91781547Y-101496726D01*
X91781547Y-102115773D01*
%TO.C,D23*%
X73064880Y-99591964D02*
X72064880Y-99591964D01*
X72064880Y-99830059D01*
X72112500Y-99972916D01*
X72207738Y-100068154D01*
X72302976Y-100115773D01*
X72493452Y-100163392D01*
X72636309Y-100163392D01*
X72826785Y-100115773D01*
X72922023Y-100068154D01*
X73017261Y-99972916D01*
X73064880Y-99830059D01*
X73064880Y-99591964D01*
X72160119Y-100544345D02*
X72112500Y-100591964D01*
X72064880Y-100687202D01*
X72064880Y-100925297D01*
X72112500Y-101020535D01*
X72160119Y-101068154D01*
X72255357Y-101115773D01*
X72350595Y-101115773D01*
X72493452Y-101068154D01*
X73064880Y-100496726D01*
X73064880Y-101115773D01*
X72064880Y-101449107D02*
X72064880Y-102068154D01*
X72445833Y-101734821D01*
X72445833Y-101877678D01*
X72493452Y-101972916D01*
X72541071Y-102020535D01*
X72636309Y-102068154D01*
X72874404Y-102068154D01*
X72969642Y-102020535D01*
X73017261Y-101972916D01*
X73064880Y-101877678D01*
X73064880Y-101591964D01*
X73017261Y-101496726D01*
X72969642Y-101449107D01*
%TO.C,D22*%
X54014880Y-99591964D02*
X53014880Y-99591964D01*
X53014880Y-99830059D01*
X53062500Y-99972916D01*
X53157738Y-100068154D01*
X53252976Y-100115773D01*
X53443452Y-100163392D01*
X53586309Y-100163392D01*
X53776785Y-100115773D01*
X53872023Y-100068154D01*
X53967261Y-99972916D01*
X54014880Y-99830059D01*
X54014880Y-99591964D01*
X53110119Y-100544345D02*
X53062500Y-100591964D01*
X53014880Y-100687202D01*
X53014880Y-100925297D01*
X53062500Y-101020535D01*
X53110119Y-101068154D01*
X53205357Y-101115773D01*
X53300595Y-101115773D01*
X53443452Y-101068154D01*
X54014880Y-100496726D01*
X54014880Y-101115773D01*
X53110119Y-101496726D02*
X53062500Y-101544345D01*
X53014880Y-101639583D01*
X53014880Y-101877678D01*
X53062500Y-101972916D01*
X53110119Y-102020535D01*
X53205357Y-102068154D01*
X53300595Y-102068154D01*
X53443452Y-102020535D01*
X54014880Y-101449107D01*
X54014880Y-102068154D01*
%TO.C,D21*%
X34964880Y-99591964D02*
X33964880Y-99591964D01*
X33964880Y-99830059D01*
X34012500Y-99972916D01*
X34107738Y-100068154D01*
X34202976Y-100115773D01*
X34393452Y-100163392D01*
X34536309Y-100163392D01*
X34726785Y-100115773D01*
X34822023Y-100068154D01*
X34917261Y-99972916D01*
X34964880Y-99830059D01*
X34964880Y-99591964D01*
X34060119Y-100544345D02*
X34012500Y-100591964D01*
X33964880Y-100687202D01*
X33964880Y-100925297D01*
X34012500Y-101020535D01*
X34060119Y-101068154D01*
X34155357Y-101115773D01*
X34250595Y-101115773D01*
X34393452Y-101068154D01*
X34964880Y-100496726D01*
X34964880Y-101115773D01*
X34964880Y-102068154D02*
X34964880Y-101496726D01*
X34964880Y-101782440D02*
X33964880Y-101782440D01*
X34107738Y-101687202D01*
X34202976Y-101591964D01*
X34250595Y-101496726D01*
%TO.C,D20*%
X204827380Y-80541964D02*
X203827380Y-80541964D01*
X203827380Y-80780059D01*
X203875000Y-80922916D01*
X203970238Y-81018154D01*
X204065476Y-81065773D01*
X204255952Y-81113392D01*
X204398809Y-81113392D01*
X204589285Y-81065773D01*
X204684523Y-81018154D01*
X204779761Y-80922916D01*
X204827380Y-80780059D01*
X204827380Y-80541964D01*
X203922619Y-81494345D02*
X203875000Y-81541964D01*
X203827380Y-81637202D01*
X203827380Y-81875297D01*
X203875000Y-81970535D01*
X203922619Y-82018154D01*
X204017857Y-82065773D01*
X204113095Y-82065773D01*
X204255952Y-82018154D01*
X204827380Y-81446726D01*
X204827380Y-82065773D01*
X203827380Y-82684821D02*
X203827380Y-82780059D01*
X203875000Y-82875297D01*
X203922619Y-82922916D01*
X204017857Y-82970535D01*
X204208333Y-83018154D01*
X204446428Y-83018154D01*
X204636904Y-82970535D01*
X204732142Y-82922916D01*
X204779761Y-82875297D01*
X204827380Y-82780059D01*
X204827380Y-82684821D01*
X204779761Y-82589583D01*
X204732142Y-82541964D01*
X204636904Y-82494345D01*
X204446428Y-82446726D01*
X204208333Y-82446726D01*
X204017857Y-82494345D01*
X203922619Y-82541964D01*
X203875000Y-82589583D01*
X203827380Y-82684821D01*
%TO.C,D19*%
X187364880Y-80541964D02*
X186364880Y-80541964D01*
X186364880Y-80780059D01*
X186412500Y-80922916D01*
X186507738Y-81018154D01*
X186602976Y-81065773D01*
X186793452Y-81113392D01*
X186936309Y-81113392D01*
X187126785Y-81065773D01*
X187222023Y-81018154D01*
X187317261Y-80922916D01*
X187364880Y-80780059D01*
X187364880Y-80541964D01*
X187364880Y-82065773D02*
X187364880Y-81494345D01*
X187364880Y-81780059D02*
X186364880Y-81780059D01*
X186507738Y-81684821D01*
X186602976Y-81589583D01*
X186650595Y-81494345D01*
X187364880Y-82541964D02*
X187364880Y-82732440D01*
X187317261Y-82827678D01*
X187269642Y-82875297D01*
X187126785Y-82970535D01*
X186936309Y-83018154D01*
X186555357Y-83018154D01*
X186460119Y-82970535D01*
X186412500Y-82922916D01*
X186364880Y-82827678D01*
X186364880Y-82637202D01*
X186412500Y-82541964D01*
X186460119Y-82494345D01*
X186555357Y-82446726D01*
X186793452Y-82446726D01*
X186888690Y-82494345D01*
X186936309Y-82541964D01*
X186983928Y-82637202D01*
X186983928Y-82827678D01*
X186936309Y-82922916D01*
X186888690Y-82970535D01*
X186793452Y-83018154D01*
%TO.C,D18*%
X168314880Y-80541964D02*
X167314880Y-80541964D01*
X167314880Y-80780059D01*
X167362500Y-80922916D01*
X167457738Y-81018154D01*
X167552976Y-81065773D01*
X167743452Y-81113392D01*
X167886309Y-81113392D01*
X168076785Y-81065773D01*
X168172023Y-81018154D01*
X168267261Y-80922916D01*
X168314880Y-80780059D01*
X168314880Y-80541964D01*
X168314880Y-82065773D02*
X168314880Y-81494345D01*
X168314880Y-81780059D02*
X167314880Y-81780059D01*
X167457738Y-81684821D01*
X167552976Y-81589583D01*
X167600595Y-81494345D01*
X167743452Y-82637202D02*
X167695833Y-82541964D01*
X167648214Y-82494345D01*
X167552976Y-82446726D01*
X167505357Y-82446726D01*
X167410119Y-82494345D01*
X167362500Y-82541964D01*
X167314880Y-82637202D01*
X167314880Y-82827678D01*
X167362500Y-82922916D01*
X167410119Y-82970535D01*
X167505357Y-83018154D01*
X167552976Y-83018154D01*
X167648214Y-82970535D01*
X167695833Y-82922916D01*
X167743452Y-82827678D01*
X167743452Y-82637202D01*
X167791071Y-82541964D01*
X167838690Y-82494345D01*
X167933928Y-82446726D01*
X168124404Y-82446726D01*
X168219642Y-82494345D01*
X168267261Y-82541964D01*
X168314880Y-82637202D01*
X168314880Y-82827678D01*
X168267261Y-82922916D01*
X168219642Y-82970535D01*
X168124404Y-83018154D01*
X167933928Y-83018154D01*
X167838690Y-82970535D01*
X167791071Y-82922916D01*
X167743452Y-82827678D01*
%TO.C,D17*%
X149264880Y-80541964D02*
X148264880Y-80541964D01*
X148264880Y-80780059D01*
X148312500Y-80922916D01*
X148407738Y-81018154D01*
X148502976Y-81065773D01*
X148693452Y-81113392D01*
X148836309Y-81113392D01*
X149026785Y-81065773D01*
X149122023Y-81018154D01*
X149217261Y-80922916D01*
X149264880Y-80780059D01*
X149264880Y-80541964D01*
X149264880Y-82065773D02*
X149264880Y-81494345D01*
X149264880Y-81780059D02*
X148264880Y-81780059D01*
X148407738Y-81684821D01*
X148502976Y-81589583D01*
X148550595Y-81494345D01*
X148264880Y-82399107D02*
X148264880Y-83065773D01*
X149264880Y-82637202D01*
%TO.C,D16*%
X130214880Y-80541964D02*
X129214880Y-80541964D01*
X129214880Y-80780059D01*
X129262500Y-80922916D01*
X129357738Y-81018154D01*
X129452976Y-81065773D01*
X129643452Y-81113392D01*
X129786309Y-81113392D01*
X129976785Y-81065773D01*
X130072023Y-81018154D01*
X130167261Y-80922916D01*
X130214880Y-80780059D01*
X130214880Y-80541964D01*
X130214880Y-82065773D02*
X130214880Y-81494345D01*
X130214880Y-81780059D02*
X129214880Y-81780059D01*
X129357738Y-81684821D01*
X129452976Y-81589583D01*
X129500595Y-81494345D01*
X129214880Y-82922916D02*
X129214880Y-82732440D01*
X129262500Y-82637202D01*
X129310119Y-82589583D01*
X129452976Y-82494345D01*
X129643452Y-82446726D01*
X130024404Y-82446726D01*
X130119642Y-82494345D01*
X130167261Y-82541964D01*
X130214880Y-82637202D01*
X130214880Y-82827678D01*
X130167261Y-82922916D01*
X130119642Y-82970535D01*
X130024404Y-83018154D01*
X129786309Y-83018154D01*
X129691071Y-82970535D01*
X129643452Y-82922916D01*
X129595833Y-82827678D01*
X129595833Y-82637202D01*
X129643452Y-82541964D01*
X129691071Y-82494345D01*
X129786309Y-82446726D01*
%TO.C,D15*%
X111164880Y-80541964D02*
X110164880Y-80541964D01*
X110164880Y-80780059D01*
X110212500Y-80922916D01*
X110307738Y-81018154D01*
X110402976Y-81065773D01*
X110593452Y-81113392D01*
X110736309Y-81113392D01*
X110926785Y-81065773D01*
X111022023Y-81018154D01*
X111117261Y-80922916D01*
X111164880Y-80780059D01*
X111164880Y-80541964D01*
X111164880Y-82065773D02*
X111164880Y-81494345D01*
X111164880Y-81780059D02*
X110164880Y-81780059D01*
X110307738Y-81684821D01*
X110402976Y-81589583D01*
X110450595Y-81494345D01*
X110164880Y-82970535D02*
X110164880Y-82494345D01*
X110641071Y-82446726D01*
X110593452Y-82494345D01*
X110545833Y-82589583D01*
X110545833Y-82827678D01*
X110593452Y-82922916D01*
X110641071Y-82970535D01*
X110736309Y-83018154D01*
X110974404Y-83018154D01*
X111069642Y-82970535D01*
X111117261Y-82922916D01*
X111164880Y-82827678D01*
X111164880Y-82589583D01*
X111117261Y-82494345D01*
X111069642Y-82446726D01*
%TO.C,D14*%
X92114880Y-80541964D02*
X91114880Y-80541964D01*
X91114880Y-80780059D01*
X91162500Y-80922916D01*
X91257738Y-81018154D01*
X91352976Y-81065773D01*
X91543452Y-81113392D01*
X91686309Y-81113392D01*
X91876785Y-81065773D01*
X91972023Y-81018154D01*
X92067261Y-80922916D01*
X92114880Y-80780059D01*
X92114880Y-80541964D01*
X92114880Y-82065773D02*
X92114880Y-81494345D01*
X92114880Y-81780059D02*
X91114880Y-81780059D01*
X91257738Y-81684821D01*
X91352976Y-81589583D01*
X91400595Y-81494345D01*
X91448214Y-82922916D02*
X92114880Y-82922916D01*
X91067261Y-82684821D02*
X91781547Y-82446726D01*
X91781547Y-83065773D01*
%TO.C,D13*%
X73064880Y-80541964D02*
X72064880Y-80541964D01*
X72064880Y-80780059D01*
X72112500Y-80922916D01*
X72207738Y-81018154D01*
X72302976Y-81065773D01*
X72493452Y-81113392D01*
X72636309Y-81113392D01*
X72826785Y-81065773D01*
X72922023Y-81018154D01*
X73017261Y-80922916D01*
X73064880Y-80780059D01*
X73064880Y-80541964D01*
X73064880Y-82065773D02*
X73064880Y-81494345D01*
X73064880Y-81780059D02*
X72064880Y-81780059D01*
X72207738Y-81684821D01*
X72302976Y-81589583D01*
X72350595Y-81494345D01*
X72064880Y-82399107D02*
X72064880Y-83018154D01*
X72445833Y-82684821D01*
X72445833Y-82827678D01*
X72493452Y-82922916D01*
X72541071Y-82970535D01*
X72636309Y-83018154D01*
X72874404Y-83018154D01*
X72969642Y-82970535D01*
X73017261Y-82922916D01*
X73064880Y-82827678D01*
X73064880Y-82541964D01*
X73017261Y-82446726D01*
X72969642Y-82399107D01*
%TO.C,D12*%
X54014880Y-80541964D02*
X53014880Y-80541964D01*
X53014880Y-80780059D01*
X53062500Y-80922916D01*
X53157738Y-81018154D01*
X53252976Y-81065773D01*
X53443452Y-81113392D01*
X53586309Y-81113392D01*
X53776785Y-81065773D01*
X53872023Y-81018154D01*
X53967261Y-80922916D01*
X54014880Y-80780059D01*
X54014880Y-80541964D01*
X54014880Y-82065773D02*
X54014880Y-81494345D01*
X54014880Y-81780059D02*
X53014880Y-81780059D01*
X53157738Y-81684821D01*
X53252976Y-81589583D01*
X53300595Y-81494345D01*
X53110119Y-82446726D02*
X53062500Y-82494345D01*
X53014880Y-82589583D01*
X53014880Y-82827678D01*
X53062500Y-82922916D01*
X53110119Y-82970535D01*
X53205357Y-83018154D01*
X53300595Y-83018154D01*
X53443452Y-82970535D01*
X54014880Y-82399107D01*
X54014880Y-83018154D01*
%TO.C,D11*%
X34964880Y-80541964D02*
X33964880Y-80541964D01*
X33964880Y-80780059D01*
X34012500Y-80922916D01*
X34107738Y-81018154D01*
X34202976Y-81065773D01*
X34393452Y-81113392D01*
X34536309Y-81113392D01*
X34726785Y-81065773D01*
X34822023Y-81018154D01*
X34917261Y-80922916D01*
X34964880Y-80780059D01*
X34964880Y-80541964D01*
X34964880Y-82065773D02*
X34964880Y-81494345D01*
X34964880Y-81780059D02*
X33964880Y-81780059D01*
X34107738Y-81684821D01*
X34202976Y-81589583D01*
X34250595Y-81494345D01*
X34964880Y-83018154D02*
X34964880Y-82446726D01*
X34964880Y-82732440D02*
X33964880Y-82732440D01*
X34107738Y-82637202D01*
X34202976Y-82541964D01*
X34250595Y-82446726D01*
%TO.C,D10*%
X204827380Y-61491964D02*
X203827380Y-61491964D01*
X203827380Y-61730059D01*
X203875000Y-61872916D01*
X203970238Y-61968154D01*
X204065476Y-62015773D01*
X204255952Y-62063392D01*
X204398809Y-62063392D01*
X204589285Y-62015773D01*
X204684523Y-61968154D01*
X204779761Y-61872916D01*
X204827380Y-61730059D01*
X204827380Y-61491964D01*
X204827380Y-63015773D02*
X204827380Y-62444345D01*
X204827380Y-62730059D02*
X203827380Y-62730059D01*
X203970238Y-62634821D01*
X204065476Y-62539583D01*
X204113095Y-62444345D01*
X203827380Y-63634821D02*
X203827380Y-63730059D01*
X203875000Y-63825297D01*
X203922619Y-63872916D01*
X204017857Y-63920535D01*
X204208333Y-63968154D01*
X204446428Y-63968154D01*
X204636904Y-63920535D01*
X204732142Y-63872916D01*
X204779761Y-63825297D01*
X204827380Y-63730059D01*
X204827380Y-63634821D01*
X204779761Y-63539583D01*
X204732142Y-63491964D01*
X204636904Y-63444345D01*
X204446428Y-63396726D01*
X204208333Y-63396726D01*
X204017857Y-63444345D01*
X203922619Y-63491964D01*
X203875000Y-63539583D01*
X203827380Y-63634821D01*
%TO.C,D9*%
X187364880Y-61968154D02*
X186364880Y-61968154D01*
X186364880Y-62206250D01*
X186412500Y-62349107D01*
X186507738Y-62444345D01*
X186602976Y-62491964D01*
X186793452Y-62539583D01*
X186936309Y-62539583D01*
X187126785Y-62491964D01*
X187222023Y-62444345D01*
X187317261Y-62349107D01*
X187364880Y-62206250D01*
X187364880Y-61968154D01*
X187364880Y-63015773D02*
X187364880Y-63206250D01*
X187317261Y-63301488D01*
X187269642Y-63349107D01*
X187126785Y-63444345D01*
X186936309Y-63491964D01*
X186555357Y-63491964D01*
X186460119Y-63444345D01*
X186412500Y-63396726D01*
X186364880Y-63301488D01*
X186364880Y-63111011D01*
X186412500Y-63015773D01*
X186460119Y-62968154D01*
X186555357Y-62920535D01*
X186793452Y-62920535D01*
X186888690Y-62968154D01*
X186936309Y-63015773D01*
X186983928Y-63111011D01*
X186983928Y-63301488D01*
X186936309Y-63396726D01*
X186888690Y-63444345D01*
X186793452Y-63491964D01*
%TO.C,D8*%
X168314880Y-61968154D02*
X167314880Y-61968154D01*
X167314880Y-62206250D01*
X167362500Y-62349107D01*
X167457738Y-62444345D01*
X167552976Y-62491964D01*
X167743452Y-62539583D01*
X167886309Y-62539583D01*
X168076785Y-62491964D01*
X168172023Y-62444345D01*
X168267261Y-62349107D01*
X168314880Y-62206250D01*
X168314880Y-61968154D01*
X167743452Y-63111011D02*
X167695833Y-63015773D01*
X167648214Y-62968154D01*
X167552976Y-62920535D01*
X167505357Y-62920535D01*
X167410119Y-62968154D01*
X167362500Y-63015773D01*
X167314880Y-63111011D01*
X167314880Y-63301488D01*
X167362500Y-63396726D01*
X167410119Y-63444345D01*
X167505357Y-63491964D01*
X167552976Y-63491964D01*
X167648214Y-63444345D01*
X167695833Y-63396726D01*
X167743452Y-63301488D01*
X167743452Y-63111011D01*
X167791071Y-63015773D01*
X167838690Y-62968154D01*
X167933928Y-62920535D01*
X168124404Y-62920535D01*
X168219642Y-62968154D01*
X168267261Y-63015773D01*
X168314880Y-63111011D01*
X168314880Y-63301488D01*
X168267261Y-63396726D01*
X168219642Y-63444345D01*
X168124404Y-63491964D01*
X167933928Y-63491964D01*
X167838690Y-63444345D01*
X167791071Y-63396726D01*
X167743452Y-63301488D01*
%TO.C,D7*%
X149264880Y-61968154D02*
X148264880Y-61968154D01*
X148264880Y-62206250D01*
X148312500Y-62349107D01*
X148407738Y-62444345D01*
X148502976Y-62491964D01*
X148693452Y-62539583D01*
X148836309Y-62539583D01*
X149026785Y-62491964D01*
X149122023Y-62444345D01*
X149217261Y-62349107D01*
X149264880Y-62206250D01*
X149264880Y-61968154D01*
X148264880Y-62872916D02*
X148264880Y-63539583D01*
X149264880Y-63111011D01*
%TO.C,D6*%
X130214880Y-61968154D02*
X129214880Y-61968154D01*
X129214880Y-62206250D01*
X129262500Y-62349107D01*
X129357738Y-62444345D01*
X129452976Y-62491964D01*
X129643452Y-62539583D01*
X129786309Y-62539583D01*
X129976785Y-62491964D01*
X130072023Y-62444345D01*
X130167261Y-62349107D01*
X130214880Y-62206250D01*
X130214880Y-61968154D01*
X129214880Y-63396726D02*
X129214880Y-63206250D01*
X129262500Y-63111011D01*
X129310119Y-63063392D01*
X129452976Y-62968154D01*
X129643452Y-62920535D01*
X130024404Y-62920535D01*
X130119642Y-62968154D01*
X130167261Y-63015773D01*
X130214880Y-63111011D01*
X130214880Y-63301488D01*
X130167261Y-63396726D01*
X130119642Y-63444345D01*
X130024404Y-63491964D01*
X129786309Y-63491964D01*
X129691071Y-63444345D01*
X129643452Y-63396726D01*
X129595833Y-63301488D01*
X129595833Y-63111011D01*
X129643452Y-63015773D01*
X129691071Y-62968154D01*
X129786309Y-62920535D01*
%TO.C,D5*%
X111164880Y-61968154D02*
X110164880Y-61968154D01*
X110164880Y-62206250D01*
X110212500Y-62349107D01*
X110307738Y-62444345D01*
X110402976Y-62491964D01*
X110593452Y-62539583D01*
X110736309Y-62539583D01*
X110926785Y-62491964D01*
X111022023Y-62444345D01*
X111117261Y-62349107D01*
X111164880Y-62206250D01*
X111164880Y-61968154D01*
X110164880Y-63444345D02*
X110164880Y-62968154D01*
X110641071Y-62920535D01*
X110593452Y-62968154D01*
X110545833Y-63063392D01*
X110545833Y-63301488D01*
X110593452Y-63396726D01*
X110641071Y-63444345D01*
X110736309Y-63491964D01*
X110974404Y-63491964D01*
X111069642Y-63444345D01*
X111117261Y-63396726D01*
X111164880Y-63301488D01*
X111164880Y-63063392D01*
X111117261Y-62968154D01*
X111069642Y-62920535D01*
%TO.C,D4*%
X92114880Y-61968154D02*
X91114880Y-61968154D01*
X91114880Y-62206250D01*
X91162500Y-62349107D01*
X91257738Y-62444345D01*
X91352976Y-62491964D01*
X91543452Y-62539583D01*
X91686309Y-62539583D01*
X91876785Y-62491964D01*
X91972023Y-62444345D01*
X92067261Y-62349107D01*
X92114880Y-62206250D01*
X92114880Y-61968154D01*
X91448214Y-63396726D02*
X92114880Y-63396726D01*
X91067261Y-63158630D02*
X91781547Y-62920535D01*
X91781547Y-63539583D01*
%TO.C,D3*%
X73064880Y-61968154D02*
X72064880Y-61968154D01*
X72064880Y-62206250D01*
X72112500Y-62349107D01*
X72207738Y-62444345D01*
X72302976Y-62491964D01*
X72493452Y-62539583D01*
X72636309Y-62539583D01*
X72826785Y-62491964D01*
X72922023Y-62444345D01*
X73017261Y-62349107D01*
X73064880Y-62206250D01*
X73064880Y-61968154D01*
X72064880Y-62872916D02*
X72064880Y-63491964D01*
X72445833Y-63158630D01*
X72445833Y-63301488D01*
X72493452Y-63396726D01*
X72541071Y-63444345D01*
X72636309Y-63491964D01*
X72874404Y-63491964D01*
X72969642Y-63444345D01*
X73017261Y-63396726D01*
X73064880Y-63301488D01*
X73064880Y-63015773D01*
X73017261Y-62920535D01*
X72969642Y-62872916D01*
%TO.C,D2*%
X54014880Y-61968154D02*
X53014880Y-61968154D01*
X53014880Y-62206250D01*
X53062500Y-62349107D01*
X53157738Y-62444345D01*
X53252976Y-62491964D01*
X53443452Y-62539583D01*
X53586309Y-62539583D01*
X53776785Y-62491964D01*
X53872023Y-62444345D01*
X53967261Y-62349107D01*
X54014880Y-62206250D01*
X54014880Y-61968154D01*
X53110119Y-62920535D02*
X53062500Y-62968154D01*
X53014880Y-63063392D01*
X53014880Y-63301488D01*
X53062500Y-63396726D01*
X53110119Y-63444345D01*
X53205357Y-63491964D01*
X53300595Y-63491964D01*
X53443452Y-63444345D01*
X54014880Y-62872916D01*
X54014880Y-63491964D01*
%TO.C,D1*%
X34964880Y-61968154D02*
X33964880Y-61968154D01*
X33964880Y-62206250D01*
X34012500Y-62349107D01*
X34107738Y-62444345D01*
X34202976Y-62491964D01*
X34393452Y-62539583D01*
X34536309Y-62539583D01*
X34726785Y-62491964D01*
X34822023Y-62444345D01*
X34917261Y-62349107D01*
X34964880Y-62206250D01*
X34964880Y-61968154D01*
X34964880Y-63491964D02*
X34964880Y-62920535D01*
X34964880Y-63206250D02*
X33964880Y-63206250D01*
X34107738Y-63111011D01*
X34202976Y-63015773D01*
X34250595Y-62920535D01*
%TO.C,G\u002A\u002A\u002A*%
G36*
X129199154Y-91748646D02*
G01*
X129692637Y-92234946D01*
X130334266Y-92972968D01*
X131431426Y-94311908D01*
X129911064Y-96814326D01*
X129675712Y-97207775D01*
X128896864Y-98585473D01*
X128201706Y-99917611D01*
X127717727Y-100963040D01*
X127409841Y-101655671D01*
X127032511Y-102343225D01*
X126779679Y-102609337D01*
X126765275Y-102608599D01*
X126475867Y-102295246D01*
X126219826Y-101522268D01*
X126026385Y-100449428D01*
X125924774Y-99236494D01*
X125944227Y-98043230D01*
X126042899Y-97265157D01*
X126360036Y-95826260D01*
X126778468Y-94597754D01*
X127309347Y-93560790D01*
X127948547Y-92587374D01*
X128554036Y-91896616D01*
X129015961Y-91634028D01*
X129199154Y-91748646D01*
G37*
G36*
X169761563Y-100806250D02*
G01*
X169579411Y-101706588D01*
X168938680Y-102988259D01*
X167924561Y-104384190D01*
X166629315Y-105784866D01*
X165145198Y-107080774D01*
X163564470Y-108162401D01*
X162956320Y-108487731D01*
X161468268Y-109151224D01*
X159733654Y-109807853D01*
X157992445Y-110369921D01*
X156484609Y-110749732D01*
X155299353Y-110921156D01*
X153562043Y-111024198D01*
X151704036Y-111008971D01*
X149874257Y-110886399D01*
X148221630Y-110667406D01*
X146895078Y-110362916D01*
X146043524Y-109983852D01*
X145874555Y-109853659D01*
X145657021Y-109498944D01*
X145939641Y-109029016D01*
X146068475Y-108890413D01*
X146732116Y-108326446D01*
X147575352Y-107736038D01*
X147772345Y-107598000D01*
X148584828Y-106871067D01*
X149531449Y-105853825D01*
X150445593Y-104721279D01*
X150596751Y-104518994D01*
X151897085Y-102868555D01*
X152982411Y-101687272D01*
X153928585Y-100900657D01*
X154811463Y-100434224D01*
X154824282Y-100429575D01*
X155462464Y-100319747D01*
X156648343Y-100228731D01*
X158305639Y-100159742D01*
X160358072Y-100115992D01*
X162729364Y-100100695D01*
X169764506Y-100100695D01*
X169761563Y-100806250D01*
G37*
G36*
X201749642Y-104867614D02*
G01*
X201706567Y-105949444D01*
X201565449Y-106519691D01*
X201300452Y-106685880D01*
X201010133Y-106577376D01*
X200659123Y-106080657D01*
X200390478Y-105706149D01*
X199695521Y-105116187D01*
X198761260Y-104512756D01*
X198283130Y-104251804D01*
X197267382Y-103809870D01*
X196251922Y-103602004D01*
X194925450Y-103550077D01*
X193928171Y-103510467D01*
X192545624Y-103249377D01*
X191692799Y-102755681D01*
X191401056Y-102042790D01*
X191381580Y-101941925D01*
X191187368Y-102050151D01*
X190852290Y-102609337D01*
X190555772Y-103132091D01*
X190044889Y-103600798D01*
X189295288Y-103738225D01*
X188455610Y-103871431D01*
X187819518Y-104157197D01*
X187519242Y-104347777D01*
X187103551Y-104402754D01*
X187018936Y-104371817D01*
X186462678Y-104488290D01*
X185770596Y-104908764D01*
X185152212Y-105481763D01*
X184817044Y-106055813D01*
X184600978Y-106641636D01*
X184216127Y-106887365D01*
X183745804Y-106535738D01*
X183219163Y-105595160D01*
X183105657Y-105329254D01*
X182744328Y-104149299D01*
X182740662Y-103848085D01*
X183875617Y-103848085D01*
X183908620Y-104013138D01*
X184229917Y-104178223D01*
X184712169Y-104006016D01*
X185129938Y-103550077D01*
X185211956Y-103416451D01*
X185742471Y-103034269D01*
X186688458Y-102922917D01*
X187666740Y-102859565D01*
X189207155Y-102386533D01*
X190365213Y-101439912D01*
X191053575Y-100603894D01*
X189738053Y-99176368D01*
X189106685Y-98516533D01*
X188521582Y-97961943D01*
X188218062Y-97748843D01*
X188019842Y-97890319D01*
X187515956Y-98426667D01*
X186828765Y-99241081D01*
X186061635Y-100203199D01*
X185317932Y-101182659D01*
X184701022Y-102049100D01*
X184314273Y-102672159D01*
X184009794Y-103352682D01*
X183875617Y-103848085D01*
X182740662Y-103848085D01*
X182731280Y-103077235D01*
X183104038Y-101990910D01*
X183900127Y-100768172D01*
X185157074Y-99286869D01*
X185682893Y-98690429D01*
X186541275Y-97620420D01*
X187115594Y-96763928D01*
X187325000Y-96234779D01*
X187339960Y-96103880D01*
X187507384Y-96016350D01*
X187910982Y-96257846D01*
X188613292Y-96872797D01*
X189676852Y-97905633D01*
X190009511Y-98232816D01*
X191025476Y-99181238D01*
X191696733Y-99730541D01*
X191996028Y-99880054D01*
X191896103Y-99629107D01*
X191369704Y-98977030D01*
X190389574Y-97923153D01*
X188901234Y-96522358D01*
X191000488Y-96522358D01*
X191010835Y-96784505D01*
X191330338Y-97312172D01*
X191998102Y-98219213D01*
X192048262Y-98286045D01*
X192831794Y-99452554D01*
X193149590Y-100258771D01*
X193051498Y-100603894D01*
X193009026Y-100753327D01*
X192417475Y-100984850D01*
X191978617Y-101090604D01*
X191741555Y-101400679D01*
X192091420Y-101919460D01*
X192099854Y-101927490D01*
X192655115Y-102126527D01*
X193759729Y-102252060D01*
X195341723Y-102295756D01*
X195717208Y-102296671D01*
X197037384Y-102329537D01*
X197925835Y-102430089D01*
X198541163Y-102626183D01*
X199041970Y-102945677D01*
X199595755Y-103352224D01*
X199823856Y-103375914D01*
X199865267Y-103024072D01*
X199698712Y-102304932D01*
X199174854Y-101241396D01*
X198412117Y-100096364D01*
X197532433Y-99050075D01*
X196657736Y-98282765D01*
X196108702Y-97939411D01*
X194826809Y-97295406D01*
X193477405Y-96775713D01*
X192259221Y-96451356D01*
X191370988Y-96393357D01*
X191260192Y-96411873D01*
X191000488Y-96522358D01*
X188901234Y-96522358D01*
X188554807Y-96196308D01*
X185827501Y-94173745D01*
X183036948Y-92709953D01*
X182975649Y-92684483D01*
X181972096Y-92295940D01*
X181085501Y-92042875D01*
X180129904Y-91896112D01*
X178919346Y-91826474D01*
X177267868Y-91804783D01*
X173639131Y-91790818D01*
X170996263Y-93101299D01*
X170576320Y-93318720D01*
X168899484Y-94316370D01*
X167081907Y-95560968D01*
X165355801Y-96896278D01*
X162358207Y-99380777D01*
X158762702Y-99539446D01*
X158056771Y-99573766D01*
X156161233Y-99730798D01*
X154694979Y-100021274D01*
X153507854Y-100524482D01*
X152449705Y-101319712D01*
X151370379Y-102486252D01*
X150713694Y-103335365D01*
X150119720Y-104103392D01*
X149903177Y-104388194D01*
X148886570Y-105594137D01*
X147820483Y-106693467D01*
X146903104Y-107478246D01*
X146103157Y-108119204D01*
X145342017Y-109010811D01*
X145144690Y-109772373D01*
X145527028Y-110370567D01*
X145906838Y-110565945D01*
X146790973Y-110868631D01*
X147873987Y-111138863D01*
X148687583Y-111330413D01*
X149415073Y-111561104D01*
X149695370Y-111736845D01*
X149691056Y-111763015D01*
X149402325Y-112151540D01*
X149035386Y-112515245D01*
X148742456Y-112805594D01*
X147825774Y-113625934D01*
X146766602Y-114513316D01*
X145679265Y-115368499D01*
X144678086Y-116092241D01*
X144042649Y-116499527D01*
X142757340Y-117256710D01*
X141255933Y-118086939D01*
X139747984Y-118872058D01*
X138840380Y-119344854D01*
X137175054Y-120281536D01*
X135583630Y-121251208D01*
X134314031Y-122106308D01*
X134066096Y-122283705D01*
X132783160Y-123117435D01*
X131501027Y-123837555D01*
X130463887Y-124304637D01*
X129576636Y-124572899D01*
X128210071Y-124707193D01*
X127049925Y-124355333D01*
X126311045Y-123777610D01*
X128371913Y-123777610D01*
X128420506Y-123889800D01*
X128860485Y-123912031D01*
X129678175Y-123645126D01*
X130775232Y-123132629D01*
X132053311Y-122418086D01*
X133414065Y-121545041D01*
X134384244Y-120905941D01*
X136006895Y-119899051D01*
X137768196Y-118859353D01*
X139426871Y-117931834D01*
X140065152Y-117584294D01*
X142035964Y-116465930D01*
X143810461Y-115392344D01*
X145316395Y-114412008D01*
X146481513Y-113573398D01*
X147233568Y-112924985D01*
X147500309Y-112515245D01*
X147440634Y-112427128D01*
X147009675Y-112330324D01*
X146700595Y-112278035D01*
X145904861Y-112029551D01*
X144927148Y-111645510D01*
X143335255Y-110960696D01*
X142517164Y-111933892D01*
X142104741Y-112425281D01*
X141996723Y-112554257D01*
X141294825Y-113392341D01*
X140463297Y-114387050D01*
X139961139Y-114914178D01*
X138898848Y-115850041D01*
X137596279Y-116864406D01*
X136229964Y-117814351D01*
X135251228Y-118480303D01*
X133976627Y-119434081D01*
X132917191Y-120323393D01*
X132234123Y-121018957D01*
X131943722Y-121349718D01*
X130902504Y-122263632D01*
X129803876Y-122949324D01*
X129288848Y-123201855D01*
X128629726Y-123567863D01*
X128371913Y-123777610D01*
X126311045Y-123777610D01*
X125942774Y-123489663D01*
X125729382Y-123271769D01*
X125323237Y-122786317D01*
X125033429Y-122244844D01*
X124812191Y-121505682D01*
X124611757Y-120427164D01*
X124384361Y-118867620D01*
X124340813Y-118545858D01*
X124118560Y-116220307D01*
X124121758Y-114104365D01*
X124171416Y-113687732D01*
X136525000Y-113687732D01*
X136731651Y-113886652D01*
X137219806Y-113824431D01*
X137716605Y-113521929D01*
X138014160Y-113051063D01*
X138072120Y-112554257D01*
X137827922Y-112330324D01*
X137673503Y-112381616D01*
X137198966Y-112754142D01*
X136734372Y-113274693D01*
X136525000Y-113687732D01*
X124171416Y-113687732D01*
X124371469Y-112009292D01*
X124838553Y-109965980D01*
X136838580Y-109965980D01*
X136840534Y-110268920D01*
X136901485Y-110999823D01*
X137108808Y-111313460D01*
X137544136Y-111372575D01*
X137798485Y-111320241D01*
X138592533Y-110964586D01*
X139632276Y-110362376D01*
X140761530Y-109619201D01*
X141824114Y-108840653D01*
X142663843Y-108132325D01*
X143124536Y-107599806D01*
X143173610Y-107497908D01*
X143430175Y-106810687D01*
X143742106Y-105828794D01*
X144044844Y-104774257D01*
X144273831Y-103869104D01*
X144364506Y-103335365D01*
X144344227Y-103294505D01*
X143948037Y-103238046D01*
X143190939Y-103312663D01*
X142264315Y-103484666D01*
X141359547Y-103720366D01*
X140668016Y-103986073D01*
X140651189Y-103994809D01*
X139140682Y-105085724D01*
X137931741Y-106553874D01*
X137129371Y-108235284D01*
X136838580Y-109965980D01*
X124838553Y-109965980D01*
X124888759Y-109746347D01*
X125694693Y-107126789D01*
X126739576Y-104284022D01*
X128179225Y-101032365D01*
X129638088Y-98256670D01*
X160498347Y-98256670D01*
X160519283Y-98488110D01*
X161024406Y-98517881D01*
X161046423Y-98516921D01*
X161713186Y-98251432D01*
X162707712Y-97549868D01*
X163963271Y-96458978D01*
X166347220Y-94409998D01*
X169030993Y-92550875D01*
X171572127Y-91297836D01*
X172883311Y-90925961D01*
X174878503Y-90648912D01*
X177076066Y-90581321D01*
X179258970Y-90727801D01*
X181210185Y-91092966D01*
X181576752Y-91191777D01*
X182428234Y-91410151D01*
X182785071Y-91454792D01*
X182732297Y-91318292D01*
X182354943Y-90993244D01*
X181478377Y-90461287D01*
X180028503Y-89931332D01*
X178340618Y-89571558D01*
X176624863Y-89438966D01*
X175614105Y-89407969D01*
X174867074Y-89263750D01*
X174615362Y-88968552D01*
X174789235Y-88486180D01*
X175159099Y-88234326D01*
X176057857Y-88038454D01*
X177523347Y-87922245D01*
X177866216Y-87908571D01*
X179395062Y-87926476D01*
X180734299Y-88130514D01*
X182240297Y-88569591D01*
X182482952Y-88650229D01*
X183509446Y-88972780D01*
X184230537Y-89168922D01*
X184502778Y-89198763D01*
X184496746Y-89158298D01*
X184159724Y-88750234D01*
X183393000Y-88171469D01*
X182317311Y-87504809D01*
X181053395Y-86833059D01*
X180433323Y-86534626D01*
X179648958Y-86205356D01*
X178904772Y-85999267D01*
X178033943Y-85887629D01*
X176869651Y-85841714D01*
X175245073Y-85832793D01*
X174035557Y-85836371D01*
X172759787Y-85867876D01*
X171823902Y-85956992D01*
X171060206Y-86133229D01*
X170301005Y-86426095D01*
X169378605Y-86865099D01*
X168476329Y-87354286D01*
X166825700Y-88575533D01*
X165393641Y-90168780D01*
X164054692Y-92261188D01*
X163111247Y-93936468D01*
X162079220Y-95731524D01*
X161308079Y-97019103D01*
X160781338Y-97827238D01*
X160498347Y-98256670D01*
X129638088Y-98256670D01*
X129917275Y-97725476D01*
X132001695Y-94279387D01*
X134480451Y-90610129D01*
X137401511Y-86633735D01*
X140629875Y-82383411D01*
X140421468Y-75798226D01*
X140386377Y-74621837D01*
X140339506Y-72320738D01*
X140348811Y-70511920D01*
X140425237Y-69102263D01*
X140579730Y-67998644D01*
X140823237Y-67107940D01*
X141166705Y-66337029D01*
X141621078Y-65592789D01*
X141946706Y-65169918D01*
X142703078Y-64434324D01*
X143516289Y-63860104D01*
X144228513Y-63549724D01*
X144681922Y-63605645D01*
X144781105Y-63819696D01*
X144977858Y-64563983D01*
X145204018Y-65686177D01*
X145427817Y-67040015D01*
X145541542Y-67740758D01*
X145864177Y-69374552D01*
X146233838Y-70899010D01*
X146590983Y-72057299D01*
X146989964Y-72955733D01*
X147759714Y-74212570D01*
X148643091Y-75269233D01*
X149527085Y-75997362D01*
X150298685Y-76268596D01*
X150350268Y-76267563D01*
X150993977Y-76218852D01*
X152096687Y-76107970D01*
X153518039Y-75949757D01*
X155117676Y-75759054D01*
X159264547Y-75404248D01*
X164103228Y-75423203D01*
X168627978Y-75941281D01*
X172817250Y-76954437D01*
X176649496Y-78458624D01*
X180103167Y-80449797D01*
X181256525Y-81292748D01*
X183540054Y-83211786D01*
X185912401Y-85487170D01*
X188246986Y-87987219D01*
X189260990Y-89198763D01*
X190417231Y-90580253D01*
X192296556Y-93134591D01*
X192954532Y-94051571D01*
X193620886Y-94755542D01*
X194396851Y-95244117D01*
X195505706Y-95695470D01*
X197555805Y-96739090D01*
X199308096Y-98270541D01*
X200627856Y-100180785D01*
X201460062Y-102389449D01*
X201535804Y-103024072D01*
X201749691Y-104816162D01*
X201749642Y-104867614D01*
G37*
D12*
%TO.C,D36*%
X168862500Y-117606250D02*
X168862500Y-121506250D01*
X170862500Y-117606250D02*
X170862500Y-121506250D01*
X168862500Y-117606250D02*
X170862500Y-117606250D01*
%TO.C,D35*%
X149812500Y-117606250D02*
X149812500Y-121506250D01*
X151812500Y-117606250D02*
X151812500Y-121506250D01*
X149812500Y-117606250D02*
X151812500Y-117606250D01*
%TO.C,D34*%
X130762500Y-117606250D02*
X130762500Y-121506250D01*
X132762500Y-117606250D02*
X132762500Y-121506250D01*
X130762500Y-117606250D02*
X132762500Y-117606250D01*
%TO.C,D33*%
X111712500Y-117606250D02*
X111712500Y-121506250D01*
X113712500Y-117606250D02*
X113712500Y-121506250D01*
X111712500Y-117606250D02*
X113712500Y-117606250D01*
%TO.C,D32*%
X92662500Y-117606250D02*
X92662500Y-121506250D01*
X94662500Y-117606250D02*
X94662500Y-121506250D01*
X92662500Y-117606250D02*
X94662500Y-117606250D01*
%TO.C,D31*%
X73612500Y-117606250D02*
X73612500Y-121506250D01*
X75612500Y-117606250D02*
X75612500Y-121506250D01*
X73612500Y-117606250D02*
X75612500Y-117606250D01*
%TO.C,D30*%
X205375000Y-98556250D02*
X205375000Y-102456250D01*
X207375000Y-98556250D02*
X207375000Y-102456250D01*
X205375000Y-98556250D02*
X207375000Y-98556250D01*
%TO.C,D29*%
X187912500Y-98556250D02*
X187912500Y-102456250D01*
X189912500Y-98556250D02*
X189912500Y-102456250D01*
X187912500Y-98556250D02*
X189912500Y-98556250D01*
%TO.C,D28*%
X168862500Y-98556250D02*
X168862500Y-102456250D01*
X170862500Y-98556250D02*
X170862500Y-102456250D01*
X168862500Y-98556250D02*
X170862500Y-98556250D01*
%TO.C,D27*%
X149812500Y-98556250D02*
X149812500Y-102456250D01*
X151812500Y-98556250D02*
X151812500Y-102456250D01*
X149812500Y-98556250D02*
X151812500Y-98556250D01*
%TO.C,D26*%
X130762500Y-98556250D02*
X130762500Y-102456250D01*
X132762500Y-98556250D02*
X132762500Y-102456250D01*
X130762500Y-98556250D02*
X132762500Y-98556250D01*
%TO.C,D25*%
X111712500Y-98556250D02*
X111712500Y-102456250D01*
X113712500Y-98556250D02*
X113712500Y-102456250D01*
X111712500Y-98556250D02*
X113712500Y-98556250D01*
%TO.C,D24*%
X92662500Y-98556250D02*
X92662500Y-102456250D01*
X94662500Y-98556250D02*
X94662500Y-102456250D01*
X92662500Y-98556250D02*
X94662500Y-98556250D01*
%TO.C,D23*%
X73612500Y-98556250D02*
X73612500Y-102456250D01*
X75612500Y-98556250D02*
X75612500Y-102456250D01*
X73612500Y-98556250D02*
X75612500Y-98556250D01*
%TO.C,D22*%
X54562500Y-98556250D02*
X54562500Y-102456250D01*
X56562500Y-98556250D02*
X56562500Y-102456250D01*
X54562500Y-98556250D02*
X56562500Y-98556250D01*
%TO.C,D21*%
X35512500Y-98556250D02*
X35512500Y-102456250D01*
X37512500Y-98556250D02*
X37512500Y-102456250D01*
X35512500Y-98556250D02*
X37512500Y-98556250D01*
%TO.C,D20*%
X205375000Y-79506250D02*
X205375000Y-83406250D01*
X207375000Y-79506250D02*
X207375000Y-83406250D01*
X205375000Y-79506250D02*
X207375000Y-79506250D01*
%TO.C,D19*%
X187912500Y-79506250D02*
X187912500Y-83406250D01*
X189912500Y-79506250D02*
X189912500Y-83406250D01*
X187912500Y-79506250D02*
X189912500Y-79506250D01*
%TO.C,D18*%
X168862500Y-79506250D02*
X168862500Y-83406250D01*
X170862500Y-79506250D02*
X170862500Y-83406250D01*
X168862500Y-79506250D02*
X170862500Y-79506250D01*
%TO.C,D17*%
X149812500Y-79506250D02*
X149812500Y-83406250D01*
X151812500Y-79506250D02*
X151812500Y-83406250D01*
X149812500Y-79506250D02*
X151812500Y-79506250D01*
%TO.C,D16*%
X130762500Y-79506250D02*
X130762500Y-83406250D01*
X132762500Y-79506250D02*
X132762500Y-83406250D01*
X130762500Y-79506250D02*
X132762500Y-79506250D01*
%TO.C,D15*%
X111712500Y-79506250D02*
X111712500Y-83406250D01*
X113712500Y-79506250D02*
X113712500Y-83406250D01*
X111712500Y-79506250D02*
X113712500Y-79506250D01*
%TO.C,D14*%
X92662500Y-79506250D02*
X92662500Y-83406250D01*
X94662500Y-79506250D02*
X94662500Y-83406250D01*
X92662500Y-79506250D02*
X94662500Y-79506250D01*
%TO.C,D13*%
X73612500Y-79506250D02*
X73612500Y-83406250D01*
X75612500Y-79506250D02*
X75612500Y-83406250D01*
X73612500Y-79506250D02*
X75612500Y-79506250D01*
%TO.C,D12*%
X54562500Y-79506250D02*
X54562500Y-83406250D01*
X56562500Y-79506250D02*
X56562500Y-83406250D01*
X54562500Y-79506250D02*
X56562500Y-79506250D01*
%TO.C,D11*%
X35512500Y-79506250D02*
X35512500Y-83406250D01*
X37512500Y-79506250D02*
X37512500Y-83406250D01*
X35512500Y-79506250D02*
X37512500Y-79506250D01*
%TO.C,D10*%
X205375000Y-60456250D02*
X205375000Y-64356250D01*
X207375000Y-60456250D02*
X207375000Y-64356250D01*
X205375000Y-60456250D02*
X207375000Y-60456250D01*
%TO.C,D9*%
X187912500Y-60456250D02*
X187912500Y-64356250D01*
X189912500Y-60456250D02*
X189912500Y-64356250D01*
X187912500Y-60456250D02*
X189912500Y-60456250D01*
%TO.C,D8*%
X168862500Y-60456250D02*
X168862500Y-64356250D01*
X170862500Y-60456250D02*
X170862500Y-64356250D01*
X168862500Y-60456250D02*
X170862500Y-60456250D01*
%TO.C,D7*%
X149812500Y-60456250D02*
X149812500Y-64356250D01*
X151812500Y-60456250D02*
X151812500Y-64356250D01*
X149812500Y-60456250D02*
X151812500Y-60456250D01*
%TO.C,D6*%
X130762500Y-60456250D02*
X130762500Y-64356250D01*
X132762500Y-60456250D02*
X132762500Y-64356250D01*
X130762500Y-60456250D02*
X132762500Y-60456250D01*
%TO.C,D5*%
X111712500Y-60456250D02*
X111712500Y-64356250D01*
X113712500Y-60456250D02*
X113712500Y-64356250D01*
X111712500Y-60456250D02*
X113712500Y-60456250D01*
%TO.C,D4*%
X92662500Y-60456250D02*
X92662500Y-64356250D01*
X94662500Y-60456250D02*
X94662500Y-64356250D01*
X92662500Y-60456250D02*
X94662500Y-60456250D01*
%TO.C,D3*%
X73612500Y-60456250D02*
X73612500Y-64356250D01*
X75612500Y-60456250D02*
X75612500Y-64356250D01*
X73612500Y-60456250D02*
X75612500Y-60456250D01*
%TO.C,D2*%
X54562500Y-60456250D02*
X54562500Y-64356250D01*
X56562500Y-60456250D02*
X56562500Y-64356250D01*
X54562500Y-60456250D02*
X56562500Y-60456250D01*
%TO.C,D1*%
X35512500Y-60456250D02*
X35512500Y-64356250D01*
X37512500Y-60456250D02*
X37512500Y-64356250D01*
X35512500Y-60456250D02*
X37512500Y-60456250D01*
%TD*%
D13*
%TO.C,U1*%
X22542500Y-118586250D03*
X50482500Y-133826250D03*
X25082500Y-118586250D03*
X27622500Y-118586250D03*
X30162500Y-118586250D03*
X32702500Y-118586250D03*
X35242500Y-118586250D03*
X37782500Y-118586250D03*
X40322500Y-118586250D03*
X42862500Y-118586250D03*
X45402500Y-118586250D03*
X47942500Y-118586250D03*
X50482500Y-118586250D03*
X47942500Y-133826250D03*
X45402500Y-133826250D03*
X42862500Y-133826250D03*
X40322500Y-133826250D03*
X37782500Y-133826250D03*
X35242500Y-133826250D03*
X32702500Y-133826250D03*
X30162500Y-133826250D03*
X27622500Y-133826250D03*
X25082500Y-133826250D03*
D14*
X22542500Y-133826250D03*
%TD*%
M02*
