%TF.GenerationSoftware,KiCad,Pcbnew,(5.99.0-9795-gc3c3649211)*%
%TF.CreationDate,2021-06-10T22:06:10-05:00*%
%TF.ProjectId,free10u,66726565-3130-4752-9e6b-696361645f70,rev?*%
%TF.SameCoordinates,Original*%
%TF.FileFunction,Paste,Bot*%
%TF.FilePolarity,Positive*%
%FSLAX46Y46*%
G04 Gerber Fmt 4.6, Leading zero omitted, Abs format (unit mm)*
G04 Created by KiCad (PCBNEW (5.99.0-9795-gc3c3649211)) date 2021-06-10 22:06:10*
%MOMM*%
%LPD*%
G01*
G04 APERTURE LIST*
%ADD10R,1.200000X0.900000*%
G04 APERTURE END LIST*
D10*
%TO.C,D36*%
X169862500Y-121506250D03*
X169862500Y-118206250D03*
%TD*%
%TO.C,D35*%
X150812500Y-121506250D03*
X150812500Y-118206250D03*
%TD*%
%TO.C,D34*%
X131762500Y-121506250D03*
X131762500Y-118206250D03*
%TD*%
%TO.C,D33*%
X112712500Y-121506250D03*
X112712500Y-118206250D03*
%TD*%
%TO.C,D32*%
X93662500Y-121506250D03*
X93662500Y-118206250D03*
%TD*%
%TO.C,D31*%
X74612500Y-121506250D03*
X74612500Y-118206250D03*
%TD*%
%TO.C,D30*%
X206375000Y-102456250D03*
X206375000Y-99156250D03*
%TD*%
%TO.C,D29*%
X188912500Y-102456250D03*
X188912500Y-99156250D03*
%TD*%
%TO.C,D28*%
X169862500Y-102456250D03*
X169862500Y-99156250D03*
%TD*%
%TO.C,D27*%
X150812500Y-102456250D03*
X150812500Y-99156250D03*
%TD*%
%TO.C,D26*%
X131762500Y-102456250D03*
X131762500Y-99156250D03*
%TD*%
%TO.C,D25*%
X112712500Y-102456250D03*
X112712500Y-99156250D03*
%TD*%
%TO.C,D24*%
X93662500Y-102456250D03*
X93662500Y-99156250D03*
%TD*%
%TO.C,D23*%
X74612500Y-102456250D03*
X74612500Y-99156250D03*
%TD*%
%TO.C,D22*%
X55562500Y-102456250D03*
X55562500Y-99156250D03*
%TD*%
%TO.C,D21*%
X36512500Y-102456250D03*
X36512500Y-99156250D03*
%TD*%
%TO.C,D20*%
X206375000Y-83406250D03*
X206375000Y-80106250D03*
%TD*%
%TO.C,D19*%
X188912500Y-83406250D03*
X188912500Y-80106250D03*
%TD*%
%TO.C,D18*%
X169862500Y-83406250D03*
X169862500Y-80106250D03*
%TD*%
%TO.C,D17*%
X150812500Y-83406250D03*
X150812500Y-80106250D03*
%TD*%
%TO.C,D16*%
X131762500Y-83406250D03*
X131762500Y-80106250D03*
%TD*%
%TO.C,D15*%
X112712500Y-83406250D03*
X112712500Y-80106250D03*
%TD*%
%TO.C,D14*%
X93662500Y-83406250D03*
X93662500Y-80106250D03*
%TD*%
%TO.C,D13*%
X74612500Y-83406250D03*
X74612500Y-80106250D03*
%TD*%
%TO.C,D12*%
X55562500Y-83406250D03*
X55562500Y-80106250D03*
%TD*%
%TO.C,D11*%
X36512500Y-83406250D03*
X36512500Y-80106250D03*
%TD*%
%TO.C,D10*%
X206375000Y-64356250D03*
X206375000Y-61056250D03*
%TD*%
%TO.C,D9*%
X188912500Y-64356250D03*
X188912500Y-61056250D03*
%TD*%
%TO.C,D8*%
X169862500Y-64356250D03*
X169862500Y-61056250D03*
%TD*%
%TO.C,D7*%
X150812500Y-64356250D03*
X150812500Y-61056250D03*
%TD*%
%TO.C,D6*%
X131762500Y-64356250D03*
X131762500Y-61056250D03*
%TD*%
%TO.C,D5*%
X112712500Y-64356250D03*
X112712500Y-61056250D03*
%TD*%
%TO.C,D4*%
X93662500Y-64356250D03*
X93662500Y-61056250D03*
%TD*%
%TO.C,D3*%
X74612500Y-64356250D03*
X74612500Y-61056250D03*
%TD*%
%TO.C,D2*%
X55562500Y-64356250D03*
X55562500Y-61056250D03*
%TD*%
%TO.C,D1*%
X36512500Y-64356250D03*
X36512500Y-61056250D03*
%TD*%
M02*
