%TF.GenerationSoftware,KiCad,Pcbnew,(5.99.0-9795-gc3c3649211)*%
%TF.CreationDate,2021-06-10T22:06:10-05:00*%
%TF.ProjectId,free10u,66726565-3130-4752-9e6b-696361645f70,rev?*%
%TF.SameCoordinates,Original*%
%TF.FileFunction,Soldermask,Bot*%
%TF.FilePolarity,Negative*%
%FSLAX46Y46*%
G04 Gerber Fmt 4.6, Leading zero omitted, Abs format (unit mm)*
G04 Created by KiCad (PCBNEW (5.99.0-9795-gc3c3649211)) date 2021-06-10 22:06:10*
%MOMM*%
%LPD*%
G01*
G04 APERTURE LIST*
G04 Aperture macros list*
%AMHorizOval*
0 Thick line with rounded ends*
0 $1 width*
0 $2 $3 position (X,Y) of the first rounded end (center of the circle)*
0 $4 $5 position (X,Y) of the second rounded end (center of the circle)*
0 Add line between two ends*
20,1,$1,$2,$3,$4,$5,0*
0 Add two circle primitives to create the rounded ends*
1,1,$1,$2,$3*
1,1,$1,$4,$5*%
G04 Aperture macros list end*
%ADD10C,1.752600*%
%ADD11R,1.752600X1.752600*%
%ADD12C,1.750000*%
%ADD13C,2.250000*%
%ADD14C,3.987800*%
%ADD15HorizOval,2.250000X0.655001X0.730000X-0.655001X-0.730000X0*%
%ADD16HorizOval,2.250000X0.020000X0.290000X-0.020000X-0.290000X0*%
%ADD17R,1.200000X0.900000*%
G04 APERTURE END LIST*
D10*
%TO.C,U1*%
X22542500Y-118586250D03*
X50482500Y-133826250D03*
X25082500Y-118586250D03*
X27622500Y-118586250D03*
X30162500Y-118586250D03*
X32702500Y-118586250D03*
X35242500Y-118586250D03*
X37782500Y-118586250D03*
X40322500Y-118586250D03*
X42862500Y-118586250D03*
X45402500Y-118586250D03*
X47942500Y-118586250D03*
X50482500Y-118586250D03*
X47942500Y-133826250D03*
X45402500Y-133826250D03*
X42862500Y-133826250D03*
X40322500Y-133826250D03*
X37782500Y-133826250D03*
X35242500Y-133826250D03*
X32702500Y-133826250D03*
X30162500Y-133826250D03*
X27622500Y-133826250D03*
X25082500Y-133826250D03*
D11*
X22542500Y-133826250D03*
%TD*%
D12*
%TO.C,MX36*%
X165417500Y-126206250D03*
X155257500Y-126206250D03*
D13*
X157837500Y-122206250D03*
D14*
X160337500Y-126206250D03*
D15*
X157182501Y-122936250D03*
D13*
X162877500Y-121126250D03*
D16*
X162857500Y-121416250D03*
%TD*%
D12*
%TO.C,MX35*%
X146367500Y-126206250D03*
X136207500Y-126206250D03*
D13*
X138787500Y-122206250D03*
D14*
X141287500Y-126206250D03*
D15*
X138132501Y-122936250D03*
D13*
X143827500Y-121126250D03*
D16*
X143807500Y-121416250D03*
%TD*%
D12*
%TO.C,MX34*%
X127317500Y-126206250D03*
X117157500Y-126206250D03*
D13*
X119737500Y-122206250D03*
D14*
X122237500Y-126206250D03*
D15*
X119082501Y-122936250D03*
D13*
X124777500Y-121126250D03*
D16*
X124757500Y-121416250D03*
%TD*%
D12*
%TO.C,MX33*%
X108267500Y-126206250D03*
X98107500Y-126206250D03*
D13*
X100687500Y-122206250D03*
D14*
X103187500Y-126206250D03*
D15*
X100032501Y-122936250D03*
D13*
X105727500Y-121126250D03*
D16*
X105707500Y-121416250D03*
%TD*%
D12*
%TO.C,MX32*%
X89217500Y-126206250D03*
X79057500Y-126206250D03*
D13*
X81637500Y-122206250D03*
D14*
X84137500Y-126206250D03*
D15*
X80982501Y-122936250D03*
D13*
X86677500Y-121126250D03*
D16*
X86657500Y-121416250D03*
%TD*%
D12*
%TO.C,MX31*%
X70167500Y-126206250D03*
X60007500Y-126206250D03*
D13*
X62587500Y-122206250D03*
D14*
X65087500Y-126206250D03*
D15*
X61932501Y-122936250D03*
D13*
X67627500Y-121126250D03*
D16*
X67607500Y-121416250D03*
%TD*%
D12*
%TO.C,MX30*%
X203517500Y-107156250D03*
X193357500Y-107156250D03*
D13*
X195937500Y-103156250D03*
D14*
X198437500Y-107156250D03*
D15*
X195282501Y-103886250D03*
D13*
X200977500Y-102076250D03*
D16*
X200957500Y-102366250D03*
%TD*%
D12*
%TO.C,MX29*%
X184467500Y-107156250D03*
X174307500Y-107156250D03*
D13*
X176887500Y-103156250D03*
D14*
X179387500Y-107156250D03*
D15*
X176232501Y-103886250D03*
D13*
X181927500Y-102076250D03*
D16*
X181907500Y-102366250D03*
%TD*%
D12*
%TO.C,MX28*%
X165417500Y-107156250D03*
X155257500Y-107156250D03*
D13*
X157837500Y-103156250D03*
D14*
X160337500Y-107156250D03*
D15*
X157182501Y-103886250D03*
D13*
X162877500Y-102076250D03*
D16*
X162857500Y-102366250D03*
%TD*%
D12*
%TO.C,MX27*%
X146367500Y-107156250D03*
X136207500Y-107156250D03*
D13*
X138787500Y-103156250D03*
D14*
X141287500Y-107156250D03*
D15*
X138132501Y-103886250D03*
D13*
X143827500Y-102076250D03*
D16*
X143807500Y-102366250D03*
%TD*%
D12*
%TO.C,MX26*%
X127317500Y-107156250D03*
X117157500Y-107156250D03*
D13*
X119737500Y-103156250D03*
D14*
X122237500Y-107156250D03*
D15*
X119082501Y-103886250D03*
D13*
X124777500Y-102076250D03*
D16*
X124757500Y-102366250D03*
%TD*%
D12*
%TO.C,MX25*%
X108267500Y-107156250D03*
X98107500Y-107156250D03*
D13*
X100687500Y-103156250D03*
D14*
X103187500Y-107156250D03*
D15*
X100032501Y-103886250D03*
D13*
X105727500Y-102076250D03*
D16*
X105707500Y-102366250D03*
%TD*%
D12*
%TO.C,MX24*%
X89217500Y-107156250D03*
X79057500Y-107156250D03*
D13*
X81637500Y-103156250D03*
D14*
X84137500Y-107156250D03*
D15*
X80982501Y-103886250D03*
D13*
X86677500Y-102076250D03*
D16*
X86657500Y-102366250D03*
%TD*%
D12*
%TO.C,MX23*%
X70167500Y-107156250D03*
X60007500Y-107156250D03*
D13*
X62587500Y-103156250D03*
D14*
X65087500Y-107156250D03*
D15*
X61932501Y-103886250D03*
D13*
X67627500Y-102076250D03*
D16*
X67607500Y-102366250D03*
%TD*%
D12*
%TO.C,MX22*%
X51117500Y-107156250D03*
X40957500Y-107156250D03*
D13*
X43537500Y-103156250D03*
D14*
X46037500Y-107156250D03*
D15*
X42882501Y-103886250D03*
D13*
X48577500Y-102076250D03*
D16*
X48557500Y-102366250D03*
%TD*%
D12*
%TO.C,MX21*%
X32067500Y-107156250D03*
X21907500Y-107156250D03*
D13*
X24487500Y-103156250D03*
D14*
X26987500Y-107156250D03*
D15*
X23832501Y-103886250D03*
D13*
X29527500Y-102076250D03*
D16*
X29507500Y-102366250D03*
%TD*%
D12*
%TO.C,MX20*%
X203517500Y-88106250D03*
X193357500Y-88106250D03*
D13*
X195937500Y-84106250D03*
D14*
X198437500Y-88106250D03*
D15*
X195282501Y-84836250D03*
D13*
X200977500Y-83026250D03*
D16*
X200957500Y-83316250D03*
%TD*%
D12*
%TO.C,MX19*%
X184467500Y-88106250D03*
X174307500Y-88106250D03*
D13*
X176887500Y-84106250D03*
D14*
X179387500Y-88106250D03*
D15*
X176232501Y-84836250D03*
D13*
X181927500Y-83026250D03*
D16*
X181907500Y-83316250D03*
%TD*%
D12*
%TO.C,MX18*%
X165417500Y-88106250D03*
X155257500Y-88106250D03*
D13*
X157837500Y-84106250D03*
D14*
X160337500Y-88106250D03*
D15*
X157182501Y-84836250D03*
D13*
X162877500Y-83026250D03*
D16*
X162857500Y-83316250D03*
%TD*%
D12*
%TO.C,MX17*%
X146367500Y-88106250D03*
X136207500Y-88106250D03*
D13*
X138787500Y-84106250D03*
D14*
X141287500Y-88106250D03*
D15*
X138132501Y-84836250D03*
D13*
X143827500Y-83026250D03*
D16*
X143807500Y-83316250D03*
%TD*%
D12*
%TO.C,MX16*%
X127317500Y-88106250D03*
X117157500Y-88106250D03*
D13*
X119737500Y-84106250D03*
D14*
X122237500Y-88106250D03*
D15*
X119082501Y-84836250D03*
D13*
X124777500Y-83026250D03*
D16*
X124757500Y-83316250D03*
%TD*%
D12*
%TO.C,MX15*%
X108267500Y-88106250D03*
X98107500Y-88106250D03*
D13*
X100687500Y-84106250D03*
D14*
X103187500Y-88106250D03*
D15*
X100032501Y-84836250D03*
D13*
X105727500Y-83026250D03*
D16*
X105707500Y-83316250D03*
%TD*%
D12*
%TO.C,MX14*%
X89217500Y-88106250D03*
X79057500Y-88106250D03*
D13*
X81637500Y-84106250D03*
D14*
X84137500Y-88106250D03*
D15*
X80982501Y-84836250D03*
D13*
X86677500Y-83026250D03*
D16*
X86657500Y-83316250D03*
%TD*%
D12*
%TO.C,MX13*%
X70167500Y-88106250D03*
X60007500Y-88106250D03*
D13*
X62587500Y-84106250D03*
D14*
X65087500Y-88106250D03*
D15*
X61932501Y-84836250D03*
D13*
X67627500Y-83026250D03*
D16*
X67607500Y-83316250D03*
%TD*%
D12*
%TO.C,MX12*%
X51117500Y-88106250D03*
X40957500Y-88106250D03*
D13*
X43537500Y-84106250D03*
D14*
X46037500Y-88106250D03*
D15*
X42882501Y-84836250D03*
D13*
X48577500Y-83026250D03*
D16*
X48557500Y-83316250D03*
%TD*%
D12*
%TO.C,MX11*%
X32067500Y-88106250D03*
X21907500Y-88106250D03*
D13*
X24487500Y-84106250D03*
D14*
X26987500Y-88106250D03*
D15*
X23832501Y-84836250D03*
D13*
X29527500Y-83026250D03*
D16*
X29507500Y-83316250D03*
%TD*%
D12*
%TO.C,MX10*%
X203517500Y-69056250D03*
X193357500Y-69056250D03*
D13*
X195937500Y-65056250D03*
D14*
X198437500Y-69056250D03*
D15*
X195282501Y-65786250D03*
D13*
X200977500Y-63976250D03*
D16*
X200957500Y-64266250D03*
%TD*%
D12*
%TO.C,MX9*%
X184467500Y-69056250D03*
X174307500Y-69056250D03*
D13*
X176887500Y-65056250D03*
D14*
X179387500Y-69056250D03*
D15*
X176232501Y-65786250D03*
D13*
X181927500Y-63976250D03*
D16*
X181907500Y-64266250D03*
%TD*%
D12*
%TO.C,MX8*%
X165417500Y-69056250D03*
X155257500Y-69056250D03*
D13*
X157837500Y-65056250D03*
D14*
X160337500Y-69056250D03*
D15*
X157182501Y-65786250D03*
D13*
X162877500Y-63976250D03*
D16*
X162857500Y-64266250D03*
%TD*%
D12*
%TO.C,MX7*%
X146367500Y-69056250D03*
X136207500Y-69056250D03*
D13*
X138787500Y-65056250D03*
D14*
X141287500Y-69056250D03*
D15*
X138132501Y-65786250D03*
D13*
X143827500Y-63976250D03*
D16*
X143807500Y-64266250D03*
%TD*%
D12*
%TO.C,MX6*%
X127317500Y-69056250D03*
X117157500Y-69056250D03*
D13*
X119737500Y-65056250D03*
D14*
X122237500Y-69056250D03*
D15*
X119082501Y-65786250D03*
D13*
X124777500Y-63976250D03*
D16*
X124757500Y-64266250D03*
%TD*%
D12*
%TO.C,MX5*%
X108267500Y-69056250D03*
X98107500Y-69056250D03*
D13*
X100687500Y-65056250D03*
D14*
X103187500Y-69056250D03*
D15*
X100032501Y-65786250D03*
D13*
X105727500Y-63976250D03*
D16*
X105707500Y-64266250D03*
%TD*%
D12*
%TO.C,MX4*%
X89217500Y-69056250D03*
X79057500Y-69056250D03*
D13*
X81637500Y-65056250D03*
D14*
X84137500Y-69056250D03*
D15*
X80982501Y-65786250D03*
D13*
X86677500Y-63976250D03*
D16*
X86657500Y-64266250D03*
%TD*%
D12*
%TO.C,MX3*%
X70167500Y-69056250D03*
X60007500Y-69056250D03*
D13*
X62587500Y-65056250D03*
D14*
X65087500Y-69056250D03*
D15*
X61932501Y-65786250D03*
D13*
X67627500Y-63976250D03*
D16*
X67607500Y-64266250D03*
%TD*%
D12*
%TO.C,MX2*%
X51117500Y-69056250D03*
X40957500Y-69056250D03*
D13*
X43537500Y-65056250D03*
D14*
X46037500Y-69056250D03*
D15*
X42882501Y-65786250D03*
D13*
X48577500Y-63976250D03*
D16*
X48557500Y-64266250D03*
%TD*%
D12*
%TO.C,MX1*%
X32067500Y-69056250D03*
X21907500Y-69056250D03*
D13*
X24487500Y-65056250D03*
D14*
X26987500Y-69056250D03*
D15*
X23832501Y-65786250D03*
D13*
X29527500Y-63976250D03*
D16*
X29507500Y-64266250D03*
%TD*%
D17*
%TO.C,D36*%
X169862500Y-121506250D03*
X169862500Y-118206250D03*
%TD*%
%TO.C,D35*%
X150812500Y-121506250D03*
X150812500Y-118206250D03*
%TD*%
%TO.C,D34*%
X131762500Y-121506250D03*
X131762500Y-118206250D03*
%TD*%
%TO.C,D33*%
X112712500Y-121506250D03*
X112712500Y-118206250D03*
%TD*%
%TO.C,D32*%
X93662500Y-121506250D03*
X93662500Y-118206250D03*
%TD*%
%TO.C,D31*%
X74612500Y-121506250D03*
X74612500Y-118206250D03*
%TD*%
%TO.C,D30*%
X206375000Y-102456250D03*
X206375000Y-99156250D03*
%TD*%
%TO.C,D29*%
X188912500Y-102456250D03*
X188912500Y-99156250D03*
%TD*%
%TO.C,D28*%
X169862500Y-102456250D03*
X169862500Y-99156250D03*
%TD*%
%TO.C,D27*%
X150812500Y-102456250D03*
X150812500Y-99156250D03*
%TD*%
%TO.C,D26*%
X131762500Y-102456250D03*
X131762500Y-99156250D03*
%TD*%
%TO.C,D25*%
X112712500Y-102456250D03*
X112712500Y-99156250D03*
%TD*%
%TO.C,D24*%
X93662500Y-102456250D03*
X93662500Y-99156250D03*
%TD*%
%TO.C,D23*%
X74612500Y-102456250D03*
X74612500Y-99156250D03*
%TD*%
%TO.C,D22*%
X55562500Y-102456250D03*
X55562500Y-99156250D03*
%TD*%
%TO.C,D21*%
X36512500Y-102456250D03*
X36512500Y-99156250D03*
%TD*%
%TO.C,D20*%
X206375000Y-83406250D03*
X206375000Y-80106250D03*
%TD*%
%TO.C,D19*%
X188912500Y-83406250D03*
X188912500Y-80106250D03*
%TD*%
%TO.C,D18*%
X169862500Y-83406250D03*
X169862500Y-80106250D03*
%TD*%
%TO.C,D17*%
X150812500Y-83406250D03*
X150812500Y-80106250D03*
%TD*%
%TO.C,D16*%
X131762500Y-83406250D03*
X131762500Y-80106250D03*
%TD*%
%TO.C,D15*%
X112712500Y-83406250D03*
X112712500Y-80106250D03*
%TD*%
%TO.C,D14*%
X93662500Y-83406250D03*
X93662500Y-80106250D03*
%TD*%
%TO.C,D13*%
X74612500Y-83406250D03*
X74612500Y-80106250D03*
%TD*%
%TO.C,D12*%
X55562500Y-83406250D03*
X55562500Y-80106250D03*
%TD*%
%TO.C,D11*%
X36512500Y-83406250D03*
X36512500Y-80106250D03*
%TD*%
%TO.C,D10*%
X206375000Y-64356250D03*
X206375000Y-61056250D03*
%TD*%
%TO.C,D9*%
X188912500Y-64356250D03*
X188912500Y-61056250D03*
%TD*%
%TO.C,D8*%
X169862500Y-64356250D03*
X169862500Y-61056250D03*
%TD*%
%TO.C,D7*%
X150812500Y-64356250D03*
X150812500Y-61056250D03*
%TD*%
%TO.C,D6*%
X131762500Y-64356250D03*
X131762500Y-61056250D03*
%TD*%
%TO.C,D5*%
X112712500Y-64356250D03*
X112712500Y-61056250D03*
%TD*%
%TO.C,D4*%
X93662500Y-64356250D03*
X93662500Y-61056250D03*
%TD*%
%TO.C,D3*%
X74612500Y-64356250D03*
X74612500Y-61056250D03*
%TD*%
%TO.C,D2*%
X55562500Y-64356250D03*
X55562500Y-61056250D03*
%TD*%
%TO.C,D1*%
X36512500Y-64356250D03*
X36512500Y-61056250D03*
%TD*%
M02*
