M48
; DRILL file {KiCad (5.99.0-9795-gc3c3649211)} date 06/10/21 22:06:12
; FORMAT={-:-/ absolute / inch / decimal}
; #@! TF.CreationDate,2021-06-10T22:06:12-05:00
; #@! TF.GenerationSoftware,Kicad,Pcbnew,(5.99.0-9795-gc3c3649211)
; #@! TF.FileFunction,Plated,1,2,PTH
FMAT,2
INCH
; #@! TA.AperFunction,ComponentDrill,Plated,PTH
T1C0.0430
; #@! TA.AperFunction,ComponentDrill,Plated,PTH
T2C0.0579
%
G90
G05
T1
; plated pad hole
X0.8875Y-4.6688
X0.8875Y-5.2687
X0.9875Y-4.6688
X0.9875Y-5.2687
X1.0875Y-4.6688
X1.0875Y-5.2687
X1.1875Y-4.6688
X1.1875Y-5.2687
X1.2875Y-4.6688
X1.2875Y-5.2687
X1.3875Y-4.6688
X1.3875Y-5.2687
X1.4875Y-4.6688
X1.4875Y-5.2687
X1.5875Y-4.6688
X1.5875Y-5.2687
X1.6875Y-4.6688
X1.6875Y-5.2687
X1.7875Y-4.6688
X1.7875Y-5.2687
X1.8875Y-4.6688
X1.8875Y-5.2687
X1.9875Y-4.6688
X1.9875Y-5.2687
T2
X0.9125Y-2.6187
X0.9125Y-3.3687
X0.9125Y-4.1187
X0.9641Y-2.5613
X0.9641Y-3.3113
X0.9641Y-4.0613
X1.1609Y-2.5416
X1.1609Y-3.2916
X1.1609Y-4.0416
X1.1625Y-2.5187
X1.1625Y-3.2687
X1.1625Y-4.0187
X1.6625Y-2.6187
X1.6625Y-3.3687
X1.6625Y-4.1187
X1.7141Y-2.5613
X1.7141Y-3.3113
X1.7141Y-4.0613
X1.9109Y-2.5416
X1.9109Y-3.2916
X1.9109Y-4.0416
X1.9125Y-2.5187
X1.9125Y-3.2687
X1.9125Y-4.0187
X2.4125Y-2.6187
X2.4125Y-3.3687
X2.4125Y-4.1187
X2.4125Y-4.8687
X2.4641Y-2.5613
X2.4641Y-3.3113
X2.4641Y-4.0613
X2.4641Y-4.8113
X2.6609Y-2.5416
X2.6609Y-3.2916
X2.6609Y-4.0416
X2.6609Y-4.7916
X2.6625Y-2.5187
X2.6625Y-3.2687
X2.6625Y-4.0187
X2.6625Y-4.7687
X3.1625Y-2.6187
X3.1625Y-3.3687
X3.1625Y-4.1187
X3.1625Y-4.8687
X3.2141Y-2.5613
X3.2141Y-3.3113
X3.2141Y-4.0613
X3.2141Y-4.8113
X3.4109Y-2.5416
X3.4109Y-3.2916
X3.4109Y-4.0416
X3.4109Y-4.7916
X3.4125Y-2.5187
X3.4125Y-3.2687
X3.4125Y-4.0187
X3.4125Y-4.7687
X3.9125Y-2.6187
X3.9125Y-3.3687
X3.9125Y-4.1187
X3.9125Y-4.8687
X3.9641Y-2.5613
X3.9641Y-3.3113
X3.9641Y-4.0613
X3.9641Y-4.8113
X4.1609Y-2.5416
X4.1609Y-3.2916
X4.1609Y-4.0416
X4.1609Y-4.7916
X4.1625Y-2.5187
X4.1625Y-3.2687
X4.1625Y-4.0187
X4.1625Y-4.7687
X4.6625Y-2.6187
X4.6625Y-3.3687
X4.6625Y-4.1187
X4.6625Y-4.8687
X4.7141Y-2.5613
X4.7141Y-3.3113
X4.7141Y-4.0613
X4.7141Y-4.8113
X4.9109Y-2.5416
X4.9109Y-3.2916
X4.9109Y-4.0416
X4.9109Y-4.7916
X4.9125Y-2.5187
X4.9125Y-3.2687
X4.9125Y-4.0187
X4.9125Y-4.7687
X5.4125Y-2.6187
X5.4125Y-3.3687
X5.4125Y-4.1187
X5.4125Y-4.8687
X5.4641Y-2.5613
X5.4641Y-3.3113
X5.4641Y-4.0613
X5.4641Y-4.8113
X5.6609Y-2.5416
X5.6609Y-3.2916
X5.6609Y-4.0416
X5.6609Y-4.7916
X5.6625Y-2.5187
X5.6625Y-3.2687
X5.6625Y-4.0187
X5.6625Y-4.7687
X6.1625Y-2.6187
X6.1625Y-3.3687
X6.1625Y-4.1187
X6.1625Y-4.8687
X6.2141Y-2.5613
X6.2141Y-3.3113
X6.2141Y-4.0613
X6.2141Y-4.8113
X6.4109Y-2.5416
X6.4109Y-3.2916
X6.4109Y-4.0416
X6.4109Y-4.7916
X6.4125Y-2.5187
X6.4125Y-3.2687
X6.4125Y-4.0187
X6.4125Y-4.7687
X6.9125Y-2.6187
X6.9125Y-3.3687
X6.9125Y-4.1187
X6.9641Y-2.5613
X6.9641Y-3.3113
X6.9641Y-4.0613
X7.1609Y-2.5416
X7.1609Y-3.2916
X7.1609Y-4.0416
X7.1625Y-2.5187
X7.1625Y-3.2687
X7.1625Y-4.0187
X7.6625Y-2.6187
X7.6625Y-3.3687
X7.6625Y-4.1187
X7.7141Y-2.5613
X7.7141Y-3.3113
X7.7141Y-4.0613
X7.9109Y-2.5416
X7.9109Y-3.2916
X7.9109Y-4.0416
X7.9125Y-2.5187
X7.9125Y-3.2687
X7.9125Y-4.0187
T0
M30
