%TF.GenerationSoftware,KiCad,Pcbnew,(5.99.0-9795-gc3c3649211)*%
%TF.CreationDate,2021-06-20T23:13:27-05:00*%
%TF.ProjectId,_autosave-free10u,5f617574-6f73-4617-9665-2d6672656531,rev?*%
%TF.SameCoordinates,Original*%
%TF.FileFunction,Soldermask,Top*%
%TF.FilePolarity,Negative*%
%FSLAX46Y46*%
G04 Gerber Fmt 4.6, Leading zero omitted, Abs format (unit mm)*
G04 Created by KiCad (PCBNEW (5.99.0-9795-gc3c3649211)) date 2021-06-20 23:13:27*
%MOMM*%
%LPD*%
G01*
G04 APERTURE LIST*
%ADD10C,1.700000*%
%ADD11C,3.400000*%
%ADD12C,2.000000*%
%ADD13C,4.400000*%
%ADD14R,1.700000X1.700000*%
%ADD15O,1.700000X1.700000*%
%ADD16R,1.752600X1.752600*%
%ADD17C,1.752600*%
%ADD18R,1.778000X1.778000*%
%ADD19C,1.778000*%
G04 APERTURE END LIST*
D10*
%TO.C,MX20*%
X184390400Y-86055200D03*
D11*
X189890400Y-86055200D03*
D10*
X195390400Y-86055200D03*
D12*
X189890400Y-91955200D03*
X184890400Y-89855200D03*
%TD*%
D11*
%TO.C,MX16*%
X117957600Y-86055200D03*
D10*
X112457600Y-86055200D03*
X123457600Y-86055200D03*
D12*
X117957600Y-91955200D03*
X112957600Y-89855200D03*
%TD*%
D10*
%TO.C,MX29*%
X177407200Y-103073200D03*
X166407200Y-103073200D03*
D11*
X171907200Y-103073200D03*
D12*
X171907200Y-108973200D03*
X166907200Y-106873200D03*
%TD*%
D10*
%TO.C,MX12*%
X40537500Y-86055200D03*
X51537500Y-86055200D03*
D11*
X46037500Y-86055200D03*
D12*
X46037500Y-91955200D03*
X41037500Y-89855200D03*
%TD*%
D10*
%TO.C,MX13*%
X58508000Y-86055200D03*
X69508000Y-86055200D03*
D11*
X64008000Y-86055200D03*
D12*
X64008000Y-91955200D03*
X59008000Y-89855200D03*
%TD*%
D10*
%TO.C,MX19*%
X177407200Y-86055200D03*
D11*
X171907200Y-86055200D03*
D10*
X166407200Y-86055200D03*
D12*
X171907200Y-91955200D03*
X166907200Y-89855200D03*
%TD*%
D13*
%TO.C,REF\u002A\u002A*%
X180898800Y-77571600D03*
%TD*%
D10*
%TO.C,MX21*%
X22541600Y-103022400D03*
X33541600Y-103022400D03*
D11*
X28041600Y-103022400D03*
D12*
X28041600Y-108922400D03*
X23041600Y-106822400D03*
%TD*%
D10*
%TO.C,MX9*%
X166407200Y-69037200D03*
D11*
X171907200Y-69037200D03*
D10*
X177407200Y-69037200D03*
D12*
X171907200Y-74937200D03*
X166907200Y-72837200D03*
%TD*%
D10*
%TO.C,MX35*%
X130440800Y-120040400D03*
X141440800Y-120040400D03*
D11*
X135940800Y-120040400D03*
D12*
X135940800Y-125940400D03*
X130940800Y-123840400D03*
%TD*%
D14*
%TO.C,REF\u002A\u002A*%
X18618200Y-96809800D03*
D15*
X18618200Y-94269800D03*
X18618200Y-91729800D03*
%TD*%
D11*
%TO.C,MX3*%
X64008000Y-69056250D03*
D10*
X58508000Y-69056250D03*
X69508000Y-69056250D03*
D12*
X64008000Y-74956250D03*
X59008000Y-72856250D03*
%TD*%
D10*
%TO.C,MX27*%
X141440800Y-103022400D03*
X130440800Y-103022400D03*
D11*
X135940800Y-103022400D03*
D12*
X135940800Y-108922400D03*
X130940800Y-106822400D03*
%TD*%
D10*
%TO.C,MX34*%
X112457600Y-120040400D03*
X123457600Y-120040400D03*
D11*
X117957600Y-120040400D03*
D12*
X117957600Y-125940400D03*
X112957600Y-123840400D03*
%TD*%
D10*
%TO.C,MX24*%
X87491200Y-103022400D03*
X76491200Y-103022400D03*
D11*
X81991200Y-103022400D03*
D12*
X81991200Y-108922400D03*
X76991200Y-106822400D03*
%TD*%
D10*
%TO.C,MX15*%
X105474400Y-86055200D03*
X94474400Y-86055200D03*
D11*
X99974400Y-86055200D03*
D12*
X99974400Y-91955200D03*
X94974400Y-89855200D03*
%TD*%
D13*
%TO.C,REF\u002A\u002A*%
X37007800Y-77546200D03*
%TD*%
D10*
%TO.C,MX8*%
X148424000Y-69037200D03*
D11*
X153924000Y-69037200D03*
D10*
X159424000Y-69037200D03*
D12*
X153924000Y-74937200D03*
X148924000Y-72837200D03*
%TD*%
D13*
%TO.C,REF\u002A\u002A*%
X145034000Y-111633000D03*
%TD*%
D11*
%TO.C,MX22*%
X46024800Y-103022400D03*
D10*
X40524800Y-103022400D03*
X51524800Y-103022400D03*
D12*
X46024800Y-108922400D03*
X41024800Y-106822400D03*
%TD*%
D16*
%TO.C,U1*%
X22453600Y-128879600D03*
D17*
X24993600Y-128879600D03*
X27533600Y-128879600D03*
X30073600Y-128879600D03*
X32613600Y-128879600D03*
X35153600Y-128879600D03*
X37693600Y-128879600D03*
X40233600Y-128879600D03*
X42773600Y-128879600D03*
X45313600Y-128879600D03*
X47853600Y-128879600D03*
X50393600Y-128879600D03*
X50393600Y-113639600D03*
X47853600Y-113639600D03*
X45313600Y-113639600D03*
X42773600Y-113639600D03*
X40233600Y-113639600D03*
X37693600Y-113639600D03*
X35153600Y-113639600D03*
X32613600Y-113639600D03*
X30073600Y-113639600D03*
X27533600Y-113639600D03*
X24993600Y-113639600D03*
X22453600Y-113639600D03*
%TD*%
D10*
%TO.C,MX1*%
X22541600Y-69056250D03*
X33541600Y-69056250D03*
D11*
X28041600Y-69056250D03*
D12*
X28041600Y-74956250D03*
X23041600Y-72856250D03*
%TD*%
D10*
%TO.C,MX30*%
X184390400Y-103022400D03*
D11*
X189890400Y-103022400D03*
D10*
X195390400Y-103022400D03*
D12*
X189890400Y-108922400D03*
X184890400Y-106822400D03*
%TD*%
D11*
%TO.C,MX33*%
X99974400Y-120040400D03*
D10*
X105474400Y-120040400D03*
X94474400Y-120040400D03*
D12*
X99974400Y-125940400D03*
X94974400Y-123840400D03*
%TD*%
D10*
%TO.C,MX26*%
X123457600Y-103022400D03*
X112457600Y-103022400D03*
D11*
X117957600Y-103022400D03*
D12*
X117957600Y-108922400D03*
X112957600Y-106822400D03*
%TD*%
D10*
%TO.C,MX25*%
X105474400Y-103022400D03*
D11*
X99974400Y-103022400D03*
D10*
X94474400Y-103022400D03*
D12*
X99974400Y-108922400D03*
X94974400Y-106822400D03*
%TD*%
D13*
%TO.C,REF\u002A\u002A*%
X73075800Y-111531400D03*
%TD*%
D11*
%TO.C,MX36*%
X153924000Y-120040400D03*
D10*
X148424000Y-120040400D03*
X159424000Y-120040400D03*
D12*
X153924000Y-125940400D03*
X148924000Y-123840400D03*
%TD*%
D10*
%TO.C,MX28*%
X148424000Y-103073200D03*
X159424000Y-103073200D03*
D11*
X153924000Y-103073200D03*
D12*
X153924000Y-108973200D03*
X148924000Y-106873200D03*
%TD*%
D11*
%TO.C,MX4*%
X81991200Y-69056250D03*
D10*
X87491200Y-69056250D03*
X76491200Y-69056250D03*
D12*
X81991200Y-74956250D03*
X76991200Y-72856250D03*
%TD*%
D10*
%TO.C,MX5*%
X94474400Y-69056250D03*
X105474400Y-69056250D03*
D11*
X99974400Y-69056250D03*
D12*
X99974400Y-74956250D03*
X94974400Y-72856250D03*
%TD*%
D10*
%TO.C,MX32*%
X87491200Y-120040400D03*
X76491200Y-120040400D03*
D11*
X81991200Y-120040400D03*
D12*
X81991200Y-125940400D03*
X76991200Y-123840400D03*
%TD*%
D11*
%TO.C,MX18*%
X153924000Y-86055200D03*
D10*
X148424000Y-86055200D03*
X159424000Y-86055200D03*
D12*
X153924000Y-91955200D03*
X148924000Y-89855200D03*
%TD*%
D10*
%TO.C,MX6*%
X123457600Y-69056250D03*
X112457600Y-69056250D03*
D11*
X117957600Y-69056250D03*
D12*
X117957600Y-74956250D03*
X112957600Y-72856250D03*
%TD*%
D11*
%TO.C,MX31*%
X64008000Y-120040400D03*
D10*
X69508000Y-120040400D03*
X58508000Y-120040400D03*
D12*
X64008000Y-125940400D03*
X59008000Y-123840400D03*
%TD*%
D10*
%TO.C,MX17*%
X141440800Y-86055200D03*
D11*
X135940800Y-86055200D03*
D10*
X130440800Y-86055200D03*
D12*
X135940800Y-91955200D03*
X130940800Y-89855200D03*
%TD*%
D11*
%TO.C,2u*%
X126949200Y-120040400D03*
D10*
X121449200Y-120040400D03*
X132449200Y-120040400D03*
D12*
X126949200Y-125940400D03*
X121949200Y-123840400D03*
%TD*%
D10*
%TO.C,MX2*%
X40537500Y-69056250D03*
D11*
X46037500Y-69056250D03*
D10*
X51537500Y-69056250D03*
D12*
X46037500Y-74956250D03*
X41037500Y-72856250D03*
%TD*%
D11*
%TO.C,MX14*%
X81991200Y-86055200D03*
D10*
X87491200Y-86055200D03*
X76491200Y-86055200D03*
D12*
X81991200Y-91955200D03*
X76991200Y-89855200D03*
%TD*%
D11*
%TO.C,2u*%
X90932000Y-120040400D03*
D10*
X85432000Y-120040400D03*
X96432000Y-120040400D03*
D12*
X90932000Y-125940400D03*
X85932000Y-123840400D03*
%TD*%
D10*
%TO.C,MX11*%
X33541600Y-86055200D03*
X22541600Y-86055200D03*
D11*
X28041600Y-86055200D03*
D12*
X28041600Y-91955200D03*
X23041600Y-89855200D03*
%TD*%
D10*
%TO.C,MX23*%
X69508000Y-103022400D03*
D11*
X64008000Y-103022400D03*
D10*
X58508000Y-103022400D03*
D12*
X64008000Y-108922400D03*
X59008000Y-106822400D03*
%TD*%
D11*
%TO.C,MX7*%
X135940800Y-69056250D03*
D10*
X141440800Y-69056250D03*
X130440800Y-69056250D03*
D12*
X135940800Y-74956250D03*
X130940800Y-72856250D03*
%TD*%
D11*
%TO.C,MX10*%
X189941200Y-69037200D03*
D10*
X195441200Y-69037200D03*
X184441200Y-69037200D03*
D12*
X189941200Y-74937200D03*
X184941200Y-72837200D03*
%TD*%
D18*
%TO.C,D27*%
X144968500Y-99314000D03*
D19*
X144968500Y-106934000D03*
%TD*%
D18*
%TO.C,D17*%
X144968500Y-82296000D03*
D19*
X144968500Y-89916000D03*
%TD*%
D18*
%TO.C,D28*%
X163002500Y-99314000D03*
D19*
X163002500Y-106934000D03*
%TD*%
D18*
%TO.C,D4*%
X91120500Y-65278000D03*
D19*
X91120500Y-72898000D03*
%TD*%
D18*
%TO.C,D6*%
X127000000Y-65278000D03*
D19*
X127000000Y-72898000D03*
%TD*%
D18*
%TO.C,D1*%
X37018500Y-65278000D03*
D19*
X37018500Y-72898000D03*
%TD*%
D18*
%TO.C,D25*%
X109154500Y-99314000D03*
D19*
X109154500Y-106934000D03*
%TD*%
D18*
%TO.C,D11*%
X37018500Y-82296000D03*
D19*
X37018500Y-89916000D03*
%TD*%
D18*
%TO.C,D7*%
X144968500Y-65278000D03*
D19*
X144968500Y-72898000D03*
%TD*%
D18*
%TO.C,D23*%
X73086500Y-99314000D03*
D19*
X73086500Y-106934000D03*
%TD*%
D18*
%TO.C,D14*%
X91120500Y-82296000D03*
D19*
X91120500Y-89916000D03*
%TD*%
D18*
%TO.C,D20*%
X198816500Y-82296000D03*
D19*
X198816500Y-89916000D03*
%TD*%
D18*
%TO.C,D15*%
X109154500Y-82296000D03*
D19*
X109154500Y-89916000D03*
%TD*%
D18*
%TO.C,D36*%
X163002500Y-116332000D03*
D19*
X163002500Y-123952000D03*
%TD*%
D18*
%TO.C,D9*%
X181036500Y-65278000D03*
D19*
X181036500Y-72898000D03*
%TD*%
D18*
%TO.C,D31*%
X73086500Y-116332000D03*
D19*
X73086500Y-123952000D03*
%TD*%
D18*
%TO.C,D24*%
X90866500Y-99314000D03*
D19*
X90866500Y-106934000D03*
%TD*%
D18*
%TO.C,D2*%
X55052500Y-65278000D03*
D19*
X55052500Y-72898000D03*
%TD*%
D18*
%TO.C,D19*%
X181036500Y-82296000D03*
D19*
X181036500Y-89916000D03*
%TD*%
D18*
%TO.C,D26*%
X126934500Y-99314000D03*
D19*
X126934500Y-106934000D03*
%TD*%
D18*
%TO.C,D30*%
X199070500Y-99314000D03*
D19*
X199070500Y-106934000D03*
%TD*%
D18*
%TO.C,D22*%
X55052500Y-99314000D03*
D19*
X55052500Y-106934000D03*
%TD*%
D18*
%TO.C,D5*%
X108900500Y-65278000D03*
D19*
X108900500Y-72898000D03*
%TD*%
D18*
%TO.C,D3*%
X73086500Y-65278000D03*
D19*
X73086500Y-72898000D03*
%TD*%
D18*
%TO.C,D18*%
X163002500Y-82296000D03*
D19*
X163002500Y-89916000D03*
%TD*%
D18*
%TO.C,D35*%
X144968500Y-116332000D03*
D19*
X144968500Y-123952000D03*
%TD*%
D18*
%TO.C,D29*%
X181036500Y-99314000D03*
D19*
X181036500Y-106934000D03*
%TD*%
D18*
%TO.C,D34*%
X130462500Y-111556550D03*
D19*
X122842500Y-111556550D03*
%TD*%
D18*
%TO.C,D8*%
X163002500Y-65278000D03*
D19*
X163002500Y-72898000D03*
%TD*%
D18*
%TO.C,D16*%
X126934500Y-82296000D03*
D19*
X126934500Y-89916000D03*
%TD*%
D18*
%TO.C,D33*%
X109067350Y-116222300D03*
D19*
X109067350Y-123842300D03*
%TD*%
D18*
%TO.C,D32*%
X94699300Y-111505750D03*
D19*
X87079300Y-111505750D03*
%TD*%
D18*
%TO.C,D10*%
X199070500Y-65278000D03*
D19*
X199070500Y-72898000D03*
%TD*%
D18*
%TO.C,D13*%
X73086500Y-82296000D03*
D19*
X73086500Y-89916000D03*
%TD*%
D18*
%TO.C,D21*%
X37018500Y-99314000D03*
D19*
X37018500Y-106934000D03*
%TD*%
D18*
%TO.C,D12*%
X55052500Y-82296000D03*
D19*
X55052500Y-89916000D03*
%TD*%
M02*
