M48
; DRILL file {KiCad (5.99.0-9795-gc3c3649211)} date 06/20/21 23:13:29
; FORMAT={-:-/ absolute / inch / decimal}
; #@! TF.CreationDate,2021-06-20T23:13:29-05:00
; #@! TF.GenerationSoftware,Kicad,Pcbnew,(5.99.0-9795-gc3c3649211)
; #@! TF.FileFunction,NonPlated,1,2,NPTH
FMAT,2
INCH
; #@! TA.AperFunction,ComponentDrill,NonPlated,NPTH
T1C0.0669
; #@! TA.AperFunction,ComponentDrill,NonPlated,NPTH
T2C0.1339
%
G90
G05
T1
; not plated pad hole
X0.8875Y-2.7188
X0.8875Y-3.388
X0.8875Y-4.056
X1.3205Y-2.7188
X1.3205Y-3.388
X1.3205Y-4.056
X1.5955Y-4.056
X1.596Y-2.7188
X1.596Y-3.388
X2.0285Y-4.056
X2.029Y-2.7188
X2.029Y-3.388
X2.3035Y-2.7188
X2.3035Y-3.388
X2.3035Y-4.056
X2.3035Y-4.726
X2.7365Y-2.7188
X2.7365Y-3.388
X2.7365Y-4.056
X2.7365Y-4.726
X3.0115Y-2.7188
X3.0115Y-3.388
X3.0115Y-4.056
X3.0115Y-4.726
X3.3635Y-4.726
X3.4445Y-2.7188
X3.4445Y-3.388
X3.4445Y-4.056
X3.4445Y-4.726
X3.7195Y-2.7188
X3.7195Y-3.388
X3.7195Y-4.056
X3.7195Y-4.726
X3.7965Y-4.726
X4.1525Y-2.7188
X4.1525Y-3.388
X4.1525Y-4.056
X4.1525Y-4.726
X4.4275Y-2.7188
X4.4275Y-3.388
X4.4275Y-4.056
X4.4275Y-4.726
X4.7815Y-4.726
X4.8605Y-2.7188
X4.8605Y-3.388
X4.8605Y-4.056
X4.8605Y-4.726
X5.1355Y-2.7188
X5.1355Y-3.388
X5.1355Y-4.056
X5.1355Y-4.726
X5.2145Y-4.726
X5.5685Y-2.7188
X5.5685Y-3.388
X5.5685Y-4.056
X5.5685Y-4.726
X5.8435Y-2.718
X5.8435Y-3.388
X5.8435Y-4.058
X5.8435Y-4.726
X6.2765Y-2.718
X6.2765Y-3.388
X6.2765Y-4.058
X6.2765Y-4.726
X6.5515Y-2.718
X6.5515Y-3.388
X6.5515Y-4.058
X6.9845Y-2.718
X6.9845Y-3.388
X6.9845Y-4.058
X7.2595Y-3.388
X7.2595Y-4.056
X7.2615Y-2.718
X7.6925Y-3.388
X7.6925Y-4.056
X7.6945Y-2.718
T2
X1.104Y-2.7188
X1.104Y-3.388
X1.104Y-4.056
X1.812Y-4.056
X1.8125Y-2.7188
X1.8125Y-3.388
X2.52Y-2.7188
X2.52Y-3.388
X2.52Y-4.056
X2.52Y-4.726
X3.228Y-2.7188
X3.228Y-3.388
X3.228Y-4.056
X3.228Y-4.726
X3.58Y-4.726
X3.936Y-2.7188
X3.936Y-3.388
X3.936Y-4.056
X3.936Y-4.726
X4.644Y-2.7188
X4.644Y-3.388
X4.644Y-4.056
X4.644Y-4.726
X4.998Y-4.726
X5.352Y-2.7188
X5.352Y-3.388
X5.352Y-4.056
X5.352Y-4.726
X6.06Y-2.718
X6.06Y-3.388
X6.06Y-4.058
X6.06Y-4.726
X6.768Y-2.718
X6.768Y-3.388
X6.768Y-4.058
X7.476Y-3.388
X7.476Y-4.056
X7.478Y-2.718
T0
M30
