M48
; DRILL file {KiCad (5.99.0-9795-gc3c3649211)} date 06/20/21 23:13:29
; FORMAT={-:-/ absolute / inch / decimal}
; #@! TF.CreationDate,2021-06-20T23:13:29-05:00
; #@! TF.GenerationSoftware,Kicad,Pcbnew,(5.99.0-9795-gc3c3649211)
; #@! TF.FileFunction,Plated,1,2,PTH
FMAT,2
INCH
; #@! TA.AperFunction,ViaDrill
T1C0.0157
; #@! TA.AperFunction,ComponentDrill,Plated,PTH
T2C0.0390
; #@! TA.AperFunction,ComponentDrill,Plated,PTH
T3C0.0394
; #@! TA.AperFunction,ComponentDrill,Plated,PTH
T4C0.0430
; #@! TA.AperFunction,ComponentDrill,Plated,PTH
T5C0.0472
; #@! TA.AperFunction,ComponentDrill,Plated,PTH
T6C0.0866
%
G90
G05
T1
; via hole
X0.982Y-4.614
X1.0319Y-4.5101
X1.087Y-4.614
T2
; plated pad hole
X1.4574Y-2.57
X1.4574Y-2.87
X1.4574Y-3.24
X1.4574Y-3.54
X1.4574Y-3.91
X1.4574Y-4.21
X2.1674Y-2.57
X2.1674Y-2.87
X2.1674Y-3.24
X2.1674Y-3.54
X2.1674Y-3.91
X2.1674Y-4.21
X2.8774Y-2.57
X2.8774Y-2.87
X2.8774Y-3.24
X2.8774Y-3.54
X2.8774Y-3.91
X2.8774Y-4.21
X2.8774Y-4.58
X2.8774Y-4.88
X3.4283Y-4.39
X3.5774Y-3.91
X3.5774Y-4.21
X3.5874Y-2.57
X3.5874Y-2.87
X3.5874Y-3.24
X3.5874Y-3.54
X3.7283Y-4.39
X4.2874Y-2.57
X4.2874Y-2.87
X4.294Y-4.5757
X4.294Y-4.8757
X4.2974Y-3.24
X4.2974Y-3.54
X4.2974Y-3.91
X4.2974Y-4.21
X4.8363Y-4.392
X4.9974Y-3.24
X4.9974Y-3.54
X4.9974Y-3.91
X4.9974Y-4.21
X5.0Y-2.57
X5.0Y-2.87
X5.1363Y-4.392
X5.7074Y-2.57
X5.7074Y-2.87
X5.7074Y-3.24
X5.7074Y-3.54
X5.7074Y-3.91
X5.7074Y-4.21
X5.7074Y-4.58
X5.7074Y-4.88
X6.4174Y-2.57
X6.4174Y-2.87
X6.4174Y-3.24
X6.4174Y-3.54
X6.4174Y-3.91
X6.4174Y-4.21
X6.4174Y-4.58
X6.4174Y-4.88
X7.1274Y-2.57
X7.1274Y-2.87
X7.1274Y-3.24
X7.1274Y-3.54
X7.1274Y-3.91
X7.1274Y-4.21
X7.8274Y-3.24
X7.8274Y-3.54
X7.8374Y-2.57
X7.8374Y-2.87
X7.8374Y-3.91
X7.8374Y-4.21
T3
X0.733Y-3.6114
X0.733Y-3.7114
X0.733Y-3.8114
T4
X0.884Y-4.474
X0.884Y-5.074
X0.984Y-4.474
X0.984Y-5.074
X1.084Y-4.474
X1.084Y-5.074
X1.184Y-4.474
X1.184Y-5.074
X1.284Y-4.474
X1.284Y-5.074
X1.384Y-4.474
X1.384Y-5.074
X1.484Y-4.474
X1.484Y-5.074
X1.584Y-4.474
X1.584Y-5.074
X1.684Y-4.474
X1.684Y-5.074
X1.784Y-4.474
X1.784Y-5.074
X1.884Y-4.474
X1.884Y-5.074
X1.984Y-4.474
X1.984Y-5.074
T5
X0.9071Y-2.8684
X0.9071Y-3.5376
X0.9071Y-4.2056
X1.104Y-2.951
X1.104Y-3.6203
X1.104Y-4.2883
X1.6151Y-4.2056
X1.6156Y-2.8684
X1.6156Y-3.5376
X1.812Y-4.2883
X1.8125Y-2.951
X1.8125Y-3.6203
X2.3231Y-2.8684
X2.3231Y-3.5376
X2.3231Y-4.2056
X2.3231Y-4.8756
X2.52Y-2.951
X2.52Y-3.6203
X2.52Y-4.2883
X2.52Y-4.9583
X3.0311Y-2.8684
X3.0311Y-3.5376
X3.0311Y-4.2056
X3.0311Y-4.8756
X3.228Y-2.951
X3.228Y-3.6203
X3.228Y-4.2883
X3.228Y-4.9583
X3.3831Y-4.8756
X3.58Y-4.9583
X3.7391Y-2.8684
X3.7391Y-3.5376
X3.7391Y-4.2056
X3.7391Y-4.8756
X3.936Y-2.951
X3.936Y-3.6203
X3.936Y-4.2883
X3.936Y-4.9583
X4.4471Y-2.8684
X4.4471Y-3.5376
X4.4471Y-4.2056
X4.4471Y-4.8756
X4.644Y-2.951
X4.644Y-3.6203
X4.644Y-4.2883
X4.644Y-4.9583
X4.8011Y-4.8756
X4.998Y-4.9583
X5.1551Y-2.8684
X5.1551Y-3.5376
X5.1551Y-4.2056
X5.1551Y-4.8756
X5.352Y-2.951
X5.352Y-3.6203
X5.352Y-4.2883
X5.352Y-4.9583
X5.8631Y-2.8676
X5.8631Y-3.5376
X5.8631Y-4.2076
X5.8631Y-4.8756
X6.06Y-2.9503
X6.06Y-3.6203
X6.06Y-4.2903
X6.06Y-4.9583
X6.5711Y-2.8676
X6.5711Y-3.5376
X6.5711Y-4.2076
X6.768Y-2.9503
X6.768Y-3.6203
X6.768Y-4.2903
X7.2791Y-3.5376
X7.2791Y-4.2056
X7.2811Y-2.8676
X7.476Y-3.6203
X7.476Y-4.2883
X7.478Y-2.9503
T6
X1.457Y-3.053
X2.877Y-4.391
X5.71Y-4.395
X7.122Y-3.054
T0
M30
