%TF.GenerationSoftware,KiCad,Pcbnew,(5.99.0-9795-gc3c3649211)*%
%TF.CreationDate,2021-06-20T23:13:27-05:00*%
%TF.ProjectId,_autosave-free10u,5f617574-6f73-4617-9665-2d6672656531,rev?*%
%TF.SameCoordinates,Original*%
%TF.FileFunction,Legend,Bot*%
%TF.FilePolarity,Positive*%
%FSLAX46Y46*%
G04 Gerber Fmt 4.6, Leading zero omitted, Abs format (unit mm)*
G04 Created by KiCad (PCBNEW (5.99.0-9795-gc3c3649211)) date 2021-06-20 23:13:27*
%MOMM*%
%LPD*%
G01*
G04 APERTURE LIST*
%ADD10C,0.250000*%
%ADD11C,0.120000*%
%ADD12R,1.752600X1.752600*%
%ADD13C,1.752600*%
%ADD14R,1.778000X1.778000*%
%ADD15C,1.778000*%
G04 APERTURE END LIST*
D10*
X21996304Y-96299400D02*
X22091542Y-96251780D01*
X22234400Y-96251780D01*
X22377257Y-96299400D01*
X22472495Y-96394638D01*
X22520114Y-96489876D01*
X22567733Y-96680352D01*
X22567733Y-96823209D01*
X22520114Y-97013685D01*
X22472495Y-97108923D01*
X22377257Y-97204161D01*
X22234400Y-97251780D01*
X22139161Y-97251780D01*
X21996304Y-97204161D01*
X21948685Y-97156542D01*
X21948685Y-96823209D01*
X22139161Y-96823209D01*
X21520114Y-97251780D02*
X21520114Y-96251780D01*
X20948685Y-97251780D01*
X20948685Y-96251780D01*
X20472495Y-97251780D02*
X20472495Y-96251780D01*
X20234400Y-96251780D01*
X20091542Y-96299400D01*
X19996304Y-96394638D01*
X19948685Y-96489876D01*
X19901066Y-96680352D01*
X19901066Y-96823209D01*
X19948685Y-97013685D01*
X19996304Y-97108923D01*
X20091542Y-97204161D01*
X20234400Y-97251780D01*
X20472495Y-97251780D01*
X125172695Y-124337819D02*
X125125076Y-124290200D01*
X125029838Y-124242580D01*
X124791742Y-124242580D01*
X124696504Y-124290200D01*
X124648885Y-124337819D01*
X124601266Y-124433057D01*
X124601266Y-124528295D01*
X124648885Y-124671152D01*
X125220314Y-125242580D01*
X124601266Y-125242580D01*
X123744123Y-124575914D02*
X123744123Y-125242580D01*
X124172695Y-124575914D02*
X124172695Y-125099723D01*
X124125076Y-125194961D01*
X124029838Y-125242580D01*
X123886980Y-125242580D01*
X123791742Y-125194961D01*
X123744123Y-125147342D01*
X20942276Y-91273380D02*
X21418466Y-91273380D01*
X21466085Y-91749571D01*
X21418466Y-91701952D01*
X21323228Y-91654333D01*
X21085133Y-91654333D01*
X20989895Y-91701952D01*
X20942276Y-91749571D01*
X20894657Y-91844809D01*
X20894657Y-92082904D01*
X20942276Y-92178142D01*
X20989895Y-92225761D01*
X21085133Y-92273380D01*
X21323228Y-92273380D01*
X21418466Y-92225761D01*
X21466085Y-92178142D01*
X20608942Y-91273380D02*
X20275609Y-92273380D01*
X19942276Y-91273380D01*
X88901495Y-124388619D02*
X88853876Y-124341000D01*
X88758638Y-124293380D01*
X88520542Y-124293380D01*
X88425304Y-124341000D01*
X88377685Y-124388619D01*
X88330066Y-124483857D01*
X88330066Y-124579095D01*
X88377685Y-124721952D01*
X88949114Y-125293380D01*
X88330066Y-125293380D01*
X87472923Y-124626714D02*
X87472923Y-125293380D01*
X87901495Y-124626714D02*
X87901495Y-125150523D01*
X87853876Y-125245761D01*
X87758638Y-125293380D01*
X87615780Y-125293380D01*
X87520542Y-125245761D01*
X87472923Y-125198142D01*
X22963000Y-94762580D02*
X22963000Y-93762580D01*
X22724904Y-93762580D01*
X22582047Y-93810200D01*
X22486809Y-93905438D01*
X22439190Y-94000676D01*
X22391571Y-94191152D01*
X22391571Y-94334009D01*
X22439190Y-94524485D01*
X22486809Y-94619723D01*
X22582047Y-94714961D01*
X22724904Y-94762580D01*
X22963000Y-94762580D01*
X22010619Y-94476866D02*
X21534428Y-94476866D01*
X22105857Y-94762580D02*
X21772523Y-93762580D01*
X21439190Y-94762580D01*
X21248714Y-93762580D02*
X20677285Y-93762580D01*
X20963000Y-94762580D02*
X20963000Y-93762580D01*
X20391571Y-94476866D02*
X19915380Y-94476866D01*
X20486809Y-94762580D02*
X20153476Y-93762580D01*
X19820142Y-94762580D01*
X55693871Y-121330980D02*
X55693871Y-120330980D01*
X55693871Y-121283361D02*
X55789109Y-121330980D01*
X55979585Y-121330980D01*
X56074823Y-121283361D01*
X56122442Y-121235742D01*
X56170061Y-121140504D01*
X56170061Y-120854790D01*
X56122442Y-120759552D01*
X56074823Y-120711933D01*
X55979585Y-120664314D01*
X55789109Y-120664314D01*
X55693871Y-120711933D01*
X54836728Y-121283361D02*
X54931966Y-121330980D01*
X55122442Y-121330980D01*
X55217680Y-121283361D01*
X55265300Y-121188123D01*
X55265300Y-120807171D01*
X55217680Y-120711933D01*
X55122442Y-120664314D01*
X54931966Y-120664314D01*
X54836728Y-120711933D01*
X54789109Y-120807171D01*
X54789109Y-120902409D01*
X55265300Y-120997647D01*
X54408157Y-121283361D02*
X54312919Y-121330980D01*
X54122442Y-121330980D01*
X54027204Y-121283361D01*
X53979585Y-121188123D01*
X53979585Y-121140504D01*
X54027204Y-121045266D01*
X54122442Y-120997647D01*
X54265300Y-120997647D01*
X54360538Y-120950028D01*
X54408157Y-120854790D01*
X54408157Y-120807171D01*
X54360538Y-120711933D01*
X54265300Y-120664314D01*
X54122442Y-120664314D01*
X54027204Y-120711933D01*
X53551014Y-121330980D02*
X53551014Y-120664314D01*
X53551014Y-120330980D02*
X53598633Y-120378600D01*
X53551014Y-120426219D01*
X53503395Y-120378600D01*
X53551014Y-120330980D01*
X53551014Y-120426219D01*
X52646252Y-120664314D02*
X52646252Y-121473838D01*
X52693871Y-121569076D01*
X52741490Y-121616695D01*
X52836728Y-121664314D01*
X52979585Y-121664314D01*
X53074823Y-121616695D01*
X52646252Y-121283361D02*
X52741490Y-121330980D01*
X52931966Y-121330980D01*
X53027204Y-121283361D01*
X53074823Y-121235742D01*
X53122442Y-121140504D01*
X53122442Y-120854790D01*
X53074823Y-120759552D01*
X53027204Y-120711933D01*
X52931966Y-120664314D01*
X52741490Y-120664314D01*
X52646252Y-120711933D01*
X52170061Y-120664314D02*
X52170061Y-121330980D01*
X52170061Y-120759552D02*
X52122442Y-120711933D01*
X52027204Y-120664314D01*
X51884347Y-120664314D01*
X51789109Y-120711933D01*
X51741490Y-120807171D01*
X51741490Y-121330980D01*
X50503395Y-121330980D02*
X50503395Y-120330980D01*
X50503395Y-120711933D02*
X50408157Y-120664314D01*
X50217680Y-120664314D01*
X50122442Y-120711933D01*
X50074823Y-120759552D01*
X50027204Y-120854790D01*
X50027204Y-121140504D01*
X50074823Y-121235742D01*
X50122442Y-121283361D01*
X50217680Y-121330980D01*
X50408157Y-121330980D01*
X50503395Y-121283361D01*
X49693871Y-120664314D02*
X49455776Y-121330980D01*
X49217680Y-120664314D02*
X49455776Y-121330980D01*
X49551014Y-121569076D01*
X49598633Y-121616695D01*
X49693871Y-121664314D01*
X48122442Y-121283361D02*
X48027204Y-121330980D01*
X47836728Y-121330980D01*
X47741490Y-121283361D01*
X47693871Y-121188123D01*
X47693871Y-121140504D01*
X47741490Y-121045266D01*
X47836728Y-120997647D01*
X47979585Y-120997647D01*
X48074823Y-120950028D01*
X48122442Y-120854790D01*
X48122442Y-120807171D01*
X48074823Y-120711933D01*
X47979585Y-120664314D01*
X47836728Y-120664314D01*
X47741490Y-120711933D01*
X46836728Y-120664314D02*
X46836728Y-121664314D01*
X46836728Y-121283361D02*
X46931966Y-121330980D01*
X47122442Y-121330980D01*
X47217680Y-121283361D01*
X47265300Y-121235742D01*
X47312919Y-121140504D01*
X47312919Y-120854790D01*
X47265300Y-120759552D01*
X47217680Y-120711933D01*
X47122442Y-120664314D01*
X46931966Y-120664314D01*
X46836728Y-120711933D01*
X45931966Y-120664314D02*
X45931966Y-121330980D01*
X46360538Y-120664314D02*
X46360538Y-121188123D01*
X46312919Y-121283361D01*
X46217680Y-121330980D01*
X46074823Y-121330980D01*
X45979585Y-121283361D01*
X45931966Y-121235742D01*
X45027204Y-121330980D02*
X45027204Y-120807171D01*
X45074823Y-120711933D01*
X45170061Y-120664314D01*
X45360538Y-120664314D01*
X45455776Y-120711933D01*
X45027204Y-121283361D02*
X45122442Y-121330980D01*
X45360538Y-121330980D01*
X45455776Y-121283361D01*
X45503395Y-121188123D01*
X45503395Y-121092885D01*
X45455776Y-120997647D01*
X45360538Y-120950028D01*
X45122442Y-120950028D01*
X45027204Y-120902409D01*
X44598633Y-121283361D02*
X44503395Y-121330980D01*
X44312919Y-121330980D01*
X44217680Y-121283361D01*
X44170061Y-121188123D01*
X44170061Y-121140504D01*
X44217680Y-121045266D01*
X44312919Y-120997647D01*
X44455776Y-120997647D01*
X44551014Y-120950028D01*
X44598633Y-120854790D01*
X44598633Y-120807171D01*
X44551014Y-120711933D01*
X44455776Y-120664314D01*
X44312919Y-120664314D01*
X44217680Y-120711933D01*
X43741490Y-121330980D02*
X43741490Y-120330980D01*
X43312919Y-121330980D02*
X43312919Y-120807171D01*
X43360538Y-120711933D01*
X43455776Y-120664314D01*
X43598633Y-120664314D01*
X43693871Y-120711933D01*
X43741490Y-120759552D01*
X42836728Y-121330980D02*
X42836728Y-120330980D01*
X42741490Y-120950028D02*
X42455776Y-121330980D01*
X42455776Y-120664314D02*
X42836728Y-121045266D01*
X42027204Y-121330980D02*
X42027204Y-120330980D01*
X42027204Y-120711933D02*
X41931966Y-120664314D01*
X41741490Y-120664314D01*
X41646252Y-120711933D01*
X41598633Y-120759552D01*
X41551014Y-120854790D01*
X41551014Y-121140504D01*
X41598633Y-121235742D01*
X41646252Y-121283361D01*
X41741490Y-121330980D01*
X41931966Y-121330980D01*
X42027204Y-121283361D01*
X38884347Y-120426219D02*
X38836728Y-120378600D01*
X38741490Y-120330980D01*
X38503395Y-120330980D01*
X38408157Y-120378600D01*
X38360538Y-120426219D01*
X38312919Y-120521457D01*
X38312919Y-120616695D01*
X38360538Y-120759552D01*
X38931966Y-121330980D01*
X38312919Y-121330980D01*
X37693871Y-120330980D02*
X37598633Y-120330980D01*
X37503395Y-120378600D01*
X37455776Y-120426219D01*
X37408157Y-120521457D01*
X37360538Y-120711933D01*
X37360538Y-120950028D01*
X37408157Y-121140504D01*
X37455776Y-121235742D01*
X37503395Y-121283361D01*
X37598633Y-121330980D01*
X37693871Y-121330980D01*
X37789109Y-121283361D01*
X37836728Y-121235742D01*
X37884347Y-121140504D01*
X37931966Y-120950028D01*
X37931966Y-120711933D01*
X37884347Y-120521457D01*
X37836728Y-120426219D01*
X37789109Y-120378600D01*
X37693871Y-120330980D01*
X36979585Y-120426219D02*
X36931966Y-120378600D01*
X36836728Y-120330980D01*
X36598633Y-120330980D01*
X36503395Y-120378600D01*
X36455776Y-120426219D01*
X36408157Y-120521457D01*
X36408157Y-120616695D01*
X36455776Y-120759552D01*
X37027204Y-121330980D01*
X36408157Y-121330980D01*
X35455776Y-121330980D02*
X36027204Y-121330980D01*
X35741490Y-121330980D02*
X35741490Y-120330980D01*
X35836728Y-120473838D01*
X35931966Y-120569076D01*
X36027204Y-120616695D01*
D11*
%TO.C,D27*%
X144066800Y-97891600D02*
X145971800Y-97891600D01*
%TO.C,D17*%
X144066800Y-80873600D02*
X145971800Y-80873600D01*
%TO.C,D28*%
X162100800Y-97891600D02*
X164005800Y-97891600D01*
%TO.C,D4*%
X90218800Y-63855600D02*
X92123800Y-63855600D01*
%TO.C,D6*%
X126098300Y-63855600D02*
X128003300Y-63855600D01*
%TO.C,D1*%
X36116800Y-63855600D02*
X38021800Y-63855600D01*
%TO.C,D25*%
X108252800Y-97891600D02*
X110157800Y-97891600D01*
%TO.C,D11*%
X36116800Y-80873600D02*
X38021800Y-80873600D01*
%TO.C,D7*%
X144066800Y-63855600D02*
X145971800Y-63855600D01*
%TO.C,D23*%
X72184800Y-97891600D02*
X74089800Y-97891600D01*
%TO.C,D14*%
X90218800Y-80873600D02*
X92123800Y-80873600D01*
%TO.C,D20*%
X197914800Y-80873600D02*
X199819800Y-80873600D01*
%TO.C,D15*%
X108252800Y-80873600D02*
X110157800Y-80873600D01*
%TO.C,D36*%
X162100800Y-114909600D02*
X164005800Y-114909600D01*
%TO.C,D9*%
X180134800Y-63855600D02*
X182039800Y-63855600D01*
%TO.C,D31*%
X72184800Y-114909600D02*
X74089800Y-114909600D01*
%TO.C,D24*%
X89964800Y-97891600D02*
X91869800Y-97891600D01*
%TO.C,D2*%
X54150800Y-63855600D02*
X56055800Y-63855600D01*
%TO.C,D19*%
X180134800Y-80873600D02*
X182039800Y-80873600D01*
%TO.C,D26*%
X126032800Y-97891600D02*
X127937800Y-97891600D01*
%TO.C,D30*%
X198168800Y-97891600D02*
X200073800Y-97891600D01*
%TO.C,D22*%
X54150800Y-97891600D02*
X56055800Y-97891600D01*
%TO.C,D5*%
X107998800Y-63855600D02*
X109903800Y-63855600D01*
%TO.C,D3*%
X72184800Y-63855600D02*
X74089800Y-63855600D01*
%TO.C,D18*%
X162100800Y-80873600D02*
X164005800Y-80873600D01*
%TO.C,D35*%
X144066800Y-114909600D02*
X145971800Y-114909600D01*
%TO.C,D29*%
X180134800Y-97891600D02*
X182039800Y-97891600D01*
%TO.C,D34*%
X131884900Y-110654850D02*
X131884900Y-112559850D01*
%TO.C,D8*%
X162100800Y-63855600D02*
X164005800Y-63855600D01*
%TO.C,G\u002A\u002A\u002A*%
G36*
X169567788Y-103160083D02*
G01*
X169636839Y-103214951D01*
X169761707Y-103362077D01*
X169900803Y-103561334D01*
X169904483Y-103567085D01*
X170071525Y-103808809D01*
X170285313Y-104093193D01*
X170500524Y-104359892D01*
X170554334Y-104423994D01*
X170714842Y-104620593D01*
X170826986Y-104766349D01*
X170869168Y-104833511D01*
X170820639Y-104870665D01*
X170711321Y-104852923D01*
X170605219Y-104789188D01*
X170529104Y-104752958D01*
X170343566Y-104715227D01*
X170104908Y-104695992D01*
X169829312Y-104673876D01*
X169624979Y-104612557D01*
X169435653Y-104493276D01*
X169363311Y-104436812D01*
X169235709Y-104328752D01*
X169185190Y-104272153D01*
X169197383Y-104257177D01*
X169297568Y-104190784D01*
X169465853Y-104098883D01*
X169617182Y-104005385D01*
X169732390Y-103854461D01*
X169727024Y-103664918D01*
X169605922Y-103413071D01*
X169540646Y-103303987D01*
X169478087Y-103180439D01*
X169488239Y-103139800D01*
X169567788Y-103160083D01*
G37*
G36*
X184411156Y-124482032D02*
G01*
X184376074Y-124517115D01*
X184340991Y-124482032D01*
X184376074Y-124446950D01*
X184411156Y-124482032D01*
G37*
G36*
X152268176Y-124474841D02*
G01*
X152370754Y-124591344D01*
X152415576Y-124741646D01*
X152405659Y-124816894D01*
X152338868Y-124862779D01*
X152219112Y-124783745D01*
X152191043Y-124748294D01*
X152142998Y-124621849D01*
X152141291Y-124500917D01*
X152191046Y-124446950D01*
X152268176Y-124474841D01*
G37*
G36*
X151867094Y-90190843D02*
G01*
X151894326Y-90286905D01*
X151839141Y-90444849D01*
X151712185Y-90618742D01*
X151534620Y-90771615D01*
X151366892Y-90865935D01*
X151220085Y-90883394D01*
X151134683Y-90779132D01*
X151096413Y-90545795D01*
X151075316Y-90220212D01*
X151436249Y-90170571D01*
X151541755Y-90158727D01*
X151753357Y-90156458D01*
X151867094Y-90190843D01*
G37*
G36*
X193054878Y-84670888D02*
G01*
X193111709Y-84733137D01*
X193099835Y-84765416D01*
X193006460Y-84803303D01*
X192958043Y-84795387D01*
X192901212Y-84733137D01*
X192913086Y-84700859D01*
X193006460Y-84662972D01*
X193054878Y-84670888D01*
G37*
G36*
X160637032Y-76456514D02*
G01*
X161053594Y-76490725D01*
X161395666Y-76583198D01*
X161633610Y-76726011D01*
X161675319Y-76760712D01*
X161866156Y-76877901D01*
X162090819Y-76977130D01*
X162144353Y-76997751D01*
X162406227Y-77132732D01*
X162635047Y-77295248D01*
X162840824Y-77438764D01*
X163102657Y-77506066D01*
X163314788Y-77550611D01*
X163565349Y-77720879D01*
X163618393Y-77768373D01*
X163808364Y-77927082D01*
X163966296Y-78044300D01*
X164069782Y-78138115D01*
X164091349Y-78218764D01*
X164041839Y-78242769D01*
X163870760Y-78249529D01*
X163604134Y-78225549D01*
X163265621Y-78175006D01*
X162878885Y-78102076D01*
X162467590Y-78010935D01*
X162055397Y-77905759D01*
X161665969Y-77790724D01*
X161490036Y-77736455D01*
X161193279Y-77654063D01*
X160948767Y-77597344D01*
X160796747Y-77576231D01*
X160767321Y-77574877D01*
X160581144Y-77545200D01*
X160320260Y-77484622D01*
X160031467Y-77403694D01*
X159748118Y-77310824D01*
X159551325Y-77224506D01*
X159425290Y-77131106D01*
X159336025Y-77011455D01*
X159332726Y-77005830D01*
X159258474Y-76831654D01*
X159271003Y-76726993D01*
X159358293Y-76681700D01*
X159557131Y-76621380D01*
X159822598Y-76560829D01*
X160115314Y-76507915D01*
X160395898Y-76470507D01*
X160624969Y-76456472D01*
X160637032Y-76456514D01*
G37*
G36*
X154079138Y-112470171D02*
G01*
X154128882Y-112606480D01*
X154164837Y-112802317D01*
X154201453Y-113081987D01*
X154209504Y-113288635D01*
X154186656Y-113390603D01*
X154154813Y-113400147D01*
X154090760Y-113328604D01*
X154029151Y-113172366D01*
X153982267Y-112966685D01*
X153962388Y-112746811D01*
X153979003Y-112555982D01*
X154023544Y-112458087D01*
X154079138Y-112470171D01*
G37*
G36*
X144118373Y-97728151D02*
G01*
X144114818Y-97859688D01*
X143983456Y-98042565D01*
X143868686Y-98144296D01*
X143718502Y-98202426D01*
X143613419Y-98140690D01*
X143612983Y-98139958D01*
X143633866Y-98054536D01*
X143729231Y-97927019D01*
X143860031Y-97796452D01*
X143987219Y-97701884D01*
X144071748Y-97682361D01*
X144118373Y-97728151D01*
G37*
G36*
X170614672Y-73011110D02*
G01*
X170453127Y-73157546D01*
X170237676Y-73312683D01*
X169934780Y-73527479D01*
X169730596Y-73701421D01*
X169609286Y-73857357D01*
X169551032Y-74020841D01*
X169536018Y-74217424D01*
X169544274Y-74397996D01*
X169589992Y-74555346D01*
X169691033Y-74659724D01*
X169694990Y-74662510D01*
X169793709Y-74762213D01*
X169768860Y-74845489D01*
X169706545Y-74886653D01*
X169519396Y-74970165D01*
X169249853Y-75069428D01*
X168930518Y-75173959D01*
X168593995Y-75273274D01*
X168272885Y-75356891D01*
X167999793Y-75414326D01*
X167738891Y-75452144D01*
X167529391Y-75456524D01*
X167315002Y-75421551D01*
X167032373Y-75342522D01*
X166667247Y-75241306D01*
X166400312Y-75196827D01*
X166204496Y-75211948D01*
X166050756Y-75288935D01*
X165910049Y-75430053D01*
X165801277Y-75539388D01*
X165581939Y-75674042D01*
X165352998Y-75735253D01*
X165146000Y-75721854D01*
X164992491Y-75632676D01*
X164924017Y-75466553D01*
X164915899Y-75400271D01*
X164856838Y-75266027D01*
X164719231Y-75178978D01*
X164472187Y-75115097D01*
X164466620Y-75114035D01*
X164190692Y-75081270D01*
X163803707Y-75061752D01*
X163333479Y-75054523D01*
X162807820Y-75058625D01*
X162254541Y-75073100D01*
X161701456Y-75096990D01*
X161176376Y-75129336D01*
X160707115Y-75169181D01*
X160321483Y-75215566D01*
X160047294Y-75267533D01*
X160035014Y-75270854D01*
X159831292Y-75363775D01*
X159702546Y-75491184D01*
X159630509Y-75601594D01*
X159508397Y-75732149D01*
X159359602Y-75791673D01*
X159112331Y-75811152D01*
X158754605Y-75790541D01*
X158274416Y-75729817D01*
X157713090Y-75646673D01*
X157728341Y-75436176D01*
X157732101Y-75375931D01*
X157736982Y-75257157D01*
X158885043Y-75257157D01*
X158981812Y-75358503D01*
X159020672Y-75373532D01*
X159093367Y-75392213D01*
X159161840Y-75370178D01*
X159261859Y-75289260D01*
X159429197Y-75131294D01*
X159455693Y-75105987D01*
X159625502Y-74930225D01*
X159696547Y-74808140D01*
X159677620Y-74708167D01*
X159577511Y-74598738D01*
X159540358Y-74568558D01*
X159364788Y-74513312D01*
X159187978Y-74595195D01*
X159016252Y-74811806D01*
X159013375Y-74816697D01*
X158895728Y-75073951D01*
X158885043Y-75257157D01*
X157736982Y-75257157D01*
X157741623Y-75144236D01*
X157747116Y-74891080D01*
X157748901Y-74832848D01*
X157781810Y-74531798D01*
X157846142Y-74198854D01*
X157921456Y-73920020D01*
X163630682Y-73920020D01*
X163637607Y-74138364D01*
X163683551Y-74342251D01*
X163763295Y-74471397D01*
X163850535Y-74530225D01*
X163957871Y-74546803D01*
X164062452Y-74454625D01*
X164089939Y-74411420D01*
X164119612Y-74251752D01*
X164089599Y-74064471D01*
X164016108Y-73882837D01*
X163915350Y-73740113D01*
X163803533Y-73669561D01*
X163696868Y-73704442D01*
X163667998Y-73747502D01*
X163662266Y-73774002D01*
X163630682Y-73920020D01*
X157921456Y-73920020D01*
X157929194Y-73891371D01*
X158018264Y-73666704D01*
X158098058Y-73565785D01*
X158251846Y-73448532D01*
X158270523Y-73437435D01*
X158364206Y-73327319D01*
X158754377Y-73327319D01*
X158806793Y-73462946D01*
X158954177Y-73603226D01*
X159190478Y-73725578D01*
X159439880Y-73811689D01*
X159641247Y-73851540D01*
X159750235Y-73821749D01*
X159782980Y-73722224D01*
X159756760Y-73629315D01*
X159632880Y-73469237D01*
X159444219Y-73316028D01*
X159232079Y-73201081D01*
X159037759Y-73155789D01*
X158958660Y-73160346D01*
X158802982Y-73218925D01*
X158754377Y-73327319D01*
X158364206Y-73327319D01*
X158414418Y-73268300D01*
X158465122Y-73145415D01*
X160695134Y-73145415D01*
X160711958Y-73206070D01*
X160794661Y-73361664D01*
X160923173Y-73550206D01*
X160962261Y-73600582D01*
X161083548Y-73722224D01*
X161152853Y-73791732D01*
X161318265Y-73855277D01*
X161427001Y-73842665D01*
X161462344Y-73774002D01*
X161445000Y-73608989D01*
X161434119Y-73552909D01*
X161354148Y-73314050D01*
X161236392Y-73095835D01*
X161104996Y-72936711D01*
X160984108Y-72875126D01*
X160902649Y-72888300D01*
X160756133Y-72988694D01*
X160695134Y-73145415D01*
X158465122Y-73145415D01*
X158541564Y-72960149D01*
X158598968Y-72780594D01*
X158616018Y-72729278D01*
X162611269Y-72729278D01*
X162660256Y-72981833D01*
X162754648Y-73168928D01*
X162916801Y-73300472D01*
X162966932Y-73319555D01*
X163064915Y-73350470D01*
X163157619Y-73353901D01*
X163292095Y-73327305D01*
X163515390Y-73268143D01*
X163703418Y-73211371D01*
X163912071Y-73115646D01*
X164097837Y-72972052D01*
X164312203Y-72746907D01*
X164358705Y-72695197D01*
X164481072Y-72579195D01*
X164571390Y-72552016D01*
X164671279Y-72596194D01*
X164686463Y-72605228D01*
X164856657Y-72651313D01*
X164990871Y-72602735D01*
X165045148Y-72473875D01*
X165044646Y-72462445D01*
X165002173Y-72311967D01*
X164912287Y-72131432D01*
X164859284Y-72051652D01*
X164759546Y-71957755D01*
X164612505Y-71905268D01*
X164371666Y-71871869D01*
X164333035Y-71868069D01*
X164047696Y-71860418D01*
X163876194Y-71909434D01*
X163801292Y-72025717D01*
X163805754Y-72219866D01*
X163806558Y-72224878D01*
X163812242Y-72382960D01*
X163751708Y-72510490D01*
X163599678Y-72661657D01*
X163425126Y-72805197D01*
X163300894Y-72860874D01*
X163191153Y-72824697D01*
X163052066Y-72699712D01*
X162929613Y-72595252D01*
X162761388Y-72524870D01*
X162650127Y-72573251D01*
X162611269Y-72729278D01*
X158616018Y-72729278D01*
X158666763Y-72576552D01*
X158710049Y-72456167D01*
X158711675Y-72433645D01*
X158649694Y-72452577D01*
X158521656Y-72547217D01*
X158420405Y-72624463D01*
X158232945Y-72709888D01*
X158104588Y-72676127D01*
X158043459Y-72523581D01*
X158017428Y-72393732D01*
X157947611Y-72197954D01*
X157941815Y-72185847D01*
X157920692Y-72094113D01*
X157950303Y-71983723D01*
X158043630Y-71824916D01*
X158213651Y-71587930D01*
X158409381Y-71341206D01*
X158644361Y-71105460D01*
X158835206Y-70998294D01*
X158985159Y-71018149D01*
X159097462Y-71163469D01*
X159114100Y-71201423D01*
X159139400Y-71313063D01*
X159089677Y-71409277D01*
X158945283Y-71538474D01*
X158942768Y-71540532D01*
X158779144Y-71726818D01*
X158750456Y-71921307D01*
X158852842Y-72149517D01*
X158943551Y-72202924D01*
X159110775Y-72187167D01*
X159305428Y-72099300D01*
X159486938Y-71951965D01*
X159657720Y-71812347D01*
X159853145Y-71757496D01*
X159980504Y-71761983D01*
X160116267Y-71759909D01*
X160144756Y-71750430D01*
X160196437Y-71660285D01*
X160194059Y-71532287D01*
X160133808Y-71436729D01*
X160075192Y-71352670D01*
X160078923Y-71190061D01*
X160164604Y-71011603D01*
X160216700Y-70946833D01*
X160282408Y-70913722D01*
X160385032Y-70941816D01*
X160568057Y-71033470D01*
X160665499Y-71081517D01*
X160857725Y-71160315D01*
X160985832Y-71191343D01*
X161096165Y-71158165D01*
X161137221Y-71049477D01*
X161090709Y-70888004D01*
X160964209Y-70697455D01*
X160765300Y-70501534D01*
X160589886Y-70357708D01*
X160914180Y-70033414D01*
X161043943Y-70191287D01*
X161153772Y-70299767D01*
X161248813Y-70349160D01*
X161288357Y-70373064D01*
X161379969Y-70492623D01*
X161483146Y-70678914D01*
X161532326Y-70776016D01*
X161658428Y-70968639D01*
X161757207Y-71023817D01*
X161828401Y-70941752D01*
X161871751Y-70722646D01*
X161886994Y-70366701D01*
X161890063Y-70244293D01*
X161918337Y-70058459D01*
X161977820Y-69998331D01*
X162023056Y-70029492D01*
X162101142Y-70163277D01*
X162176003Y-70366701D01*
X162260073Y-70598073D01*
X162384313Y-70777794D01*
X162584966Y-70937816D01*
X162614024Y-70958049D01*
X162843118Y-71167487D01*
X162990566Y-71393894D01*
X163010360Y-71440942D01*
X163082194Y-71599644D01*
X163127042Y-71680277D01*
X163164812Y-71687407D01*
X163223258Y-71607486D01*
X163270372Y-71455189D01*
X163290193Y-71270601D01*
X163304232Y-71143632D01*
X163386345Y-70966263D01*
X163563675Y-70761899D01*
X163676998Y-70654019D01*
X163819509Y-70535543D01*
X163902273Y-70489491D01*
X163905740Y-70489696D01*
X163999142Y-70541702D01*
X164126518Y-70657733D01*
X164224236Y-70748878D01*
X164346992Y-70791719D01*
X164525603Y-70759423D01*
X164631802Y-70732974D01*
X164792285Y-70727504D01*
X164881067Y-70814605D01*
X164935982Y-71018131D01*
X164976181Y-71154949D01*
X165091570Y-71294426D01*
X165290900Y-71354809D01*
X165596311Y-71347128D01*
X165661300Y-71342447D01*
X165889786Y-71353566D01*
X166060375Y-71400340D01*
X166122586Y-71429345D01*
X166259758Y-71443021D01*
X166435686Y-71373306D01*
X166521871Y-71329507D01*
X166658035Y-71272246D01*
X166716769Y-71282892D01*
X166729389Y-71360029D01*
X166687546Y-71441909D01*
X166562133Y-71584403D01*
X166382356Y-71749296D01*
X166295091Y-71824132D01*
X166127462Y-71993630D01*
X166035918Y-72151479D01*
X165989660Y-72344353D01*
X165979787Y-72441525D01*
X165983873Y-72473875D01*
X166016174Y-72729600D01*
X166150144Y-72943605D01*
X166369628Y-73060789D01*
X166380878Y-73063485D01*
X166565264Y-73124592D01*
X166686701Y-73218948D01*
X166757813Y-73373185D01*
X166791223Y-73613936D01*
X166799554Y-73967832D01*
X166800164Y-74137739D01*
X166803321Y-74251752D01*
X166808817Y-74450203D01*
X166833207Y-74654223D01*
X166880272Y-74772132D01*
X166931278Y-74808140D01*
X166956951Y-74826264D01*
X167070183Y-74838954D01*
X167147674Y-74825693D01*
X167293201Y-74747689D01*
X167486575Y-74587246D01*
X167746792Y-74330076D01*
X168042180Y-74023558D01*
X168263211Y-73789542D01*
X168409663Y-73624605D01*
X168493442Y-73512782D01*
X168526452Y-73438107D01*
X168520600Y-73384613D01*
X168487790Y-73336334D01*
X168462806Y-73305759D01*
X168437568Y-73258445D01*
X168441925Y-73198167D01*
X168486452Y-73104808D01*
X168581723Y-72958253D01*
X168738312Y-72738386D01*
X168903890Y-72511342D01*
X169207559Y-72511342D01*
X169284341Y-72700254D01*
X169376575Y-72801079D01*
X169537113Y-72872418D01*
X169687448Y-72849523D01*
X169783194Y-72729767D01*
X169793601Y-72668785D01*
X169743178Y-72500139D01*
X169605325Y-72367527D01*
X169417693Y-72313800D01*
X169387210Y-72314960D01*
X169244441Y-72375395D01*
X169207559Y-72511342D01*
X168903890Y-72511342D01*
X168966792Y-72425090D01*
X169131277Y-72193382D01*
X169311107Y-71908580D01*
X169420079Y-71679471D01*
X169473274Y-71477852D01*
X169486591Y-71396243D01*
X169531772Y-71162878D01*
X169574854Y-70989770D01*
X169603145Y-70884806D01*
X169575260Y-70863730D01*
X169458018Y-70934167D01*
X169424492Y-70955204D01*
X169263992Y-71018618D01*
X169186574Y-70980249D01*
X169200189Y-70855189D01*
X169312790Y-70658532D01*
X169518606Y-70395439D01*
X169552367Y-70356835D01*
X170347668Y-70356835D01*
X170356522Y-70369350D01*
X170441439Y-70419325D01*
X170519871Y-70379992D01*
X170621376Y-70279909D01*
X170699156Y-70169010D01*
X170711105Y-70097543D01*
X170695380Y-70089392D01*
X170597476Y-70113177D01*
X170472395Y-70190289D01*
X170371879Y-70283813D01*
X170347668Y-70356835D01*
X169552367Y-70356835D01*
X169792883Y-70081813D01*
X170084525Y-69777067D01*
X170360109Y-69515984D01*
X170586213Y-69333345D01*
X170686069Y-69260558D01*
X170806413Y-69157585D01*
X170839764Y-69103550D01*
X170826283Y-69103631D01*
X170725420Y-69156093D01*
X170551906Y-69270407D01*
X170333365Y-69428828D01*
X169858911Y-69786051D01*
X169697465Y-69634380D01*
X169660930Y-69598189D01*
X169553281Y-69425337D01*
X169569904Y-69244697D01*
X169711433Y-69028806D01*
X169819213Y-68863022D01*
X169886847Y-68576808D01*
X169888404Y-68530409D01*
X169943955Y-68299486D01*
X170060050Y-68115284D01*
X170210590Y-67999449D01*
X170369477Y-67973627D01*
X170510613Y-68059463D01*
X170551040Y-68145441D01*
X170484121Y-68243469D01*
X170470915Y-68255038D01*
X170388308Y-68396206D01*
X170403160Y-68535677D01*
X170496657Y-68629284D01*
X170649985Y-68632855D01*
X170822367Y-68524230D01*
X170897817Y-68357536D01*
X170853742Y-68175395D01*
X170809434Y-68046405D01*
X170864505Y-67874258D01*
X171049271Y-67722633D01*
X171135614Y-67665032D01*
X171241024Y-67560071D01*
X171315335Y-67501125D01*
X171466726Y-67473327D01*
X171593605Y-67518532D01*
X171607736Y-67540871D01*
X171582796Y-67630825D01*
X171483069Y-67715499D01*
X171351736Y-67753027D01*
X171288097Y-67765010D01*
X171224871Y-67849847D01*
X171250682Y-67983228D01*
X171364217Y-68125988D01*
X171457801Y-68241670D01*
X171460750Y-68404703D01*
X171413063Y-68559933D01*
X171579651Y-68410268D01*
X171760340Y-68273165D01*
X171969787Y-68147667D01*
X172122768Y-68079245D01*
X172217656Y-68078093D01*
X172306159Y-68147556D01*
X172342467Y-68191011D01*
X172388781Y-68333489D01*
X172374265Y-68558587D01*
X172365567Y-68619428D01*
X172358289Y-68790013D01*
X172410891Y-68900317D01*
X172546595Y-69011346D01*
X172580998Y-69036963D01*
X172711013Y-69159346D01*
X172763643Y-69254509D01*
X172763631Y-69255422D01*
X172710224Y-69357658D01*
X172571334Y-69517549D01*
X172374163Y-69709989D01*
X172145915Y-69909873D01*
X171913790Y-70092094D01*
X171905632Y-70097543D01*
X171704992Y-70231549D01*
X171587393Y-70293112D01*
X171353875Y-70383699D01*
X171165905Y-70419325D01*
X171018601Y-70442676D01*
X170872527Y-70535655D01*
X170698451Y-70724756D01*
X170613172Y-70835662D01*
X170477020Y-71083917D01*
X170466246Y-71271537D01*
X170581006Y-71397632D01*
X170603324Y-71408626D01*
X170733934Y-71421241D01*
X170890277Y-71329935D01*
X171059940Y-71234267D01*
X171240011Y-71191148D01*
X171367983Y-71154714D01*
X171530416Y-71027427D01*
X171740845Y-70793290D01*
X171752836Y-70778703D01*
X171920921Y-70569589D01*
X172054882Y-70394951D01*
X172126664Y-70291290D01*
X172165694Y-70242687D01*
X172269956Y-70223953D01*
X172374063Y-70310301D01*
X172446429Y-70482810D01*
X172449685Y-70498678D01*
X172453379Y-70659630D01*
X172396620Y-70852813D01*
X172268069Y-71118642D01*
X172209337Y-71225614D01*
X171950315Y-71618142D01*
X171694355Y-71874050D01*
X171438706Y-71996251D01*
X171425349Y-71999357D01*
X171282160Y-72064321D01*
X171149463Y-72201208D01*
X170997603Y-72439841D01*
X170910682Y-72589700D01*
X170860745Y-72668785D01*
X170755971Y-72834714D01*
X170614672Y-73011110D01*
G37*
G36*
X193813366Y-115500817D02*
G01*
X193778284Y-115535900D01*
X193743201Y-115500817D01*
X193778284Y-115465734D01*
X193813366Y-115500817D01*
G37*
G36*
X181113366Y-70724544D02*
G01*
X181086474Y-70813439D01*
X180986961Y-70986308D01*
X180842616Y-71185802D01*
X180683928Y-71370615D01*
X180541385Y-71499443D01*
X180519024Y-71514768D01*
X180343225Y-71602798D01*
X180242478Y-71592644D01*
X180215847Y-71502198D01*
X180262396Y-71349352D01*
X180381189Y-71151997D01*
X180571288Y-70928027D01*
X180579101Y-70920052D01*
X180781853Y-70742469D01*
X180952254Y-70645520D01*
X181069645Y-70636960D01*
X181113366Y-70724544D01*
G37*
G36*
X150846557Y-89693973D02*
G01*
X150887782Y-89832287D01*
X150917002Y-89987980D01*
X150949164Y-90126017D01*
X150951196Y-90137726D01*
X150891594Y-90227067D01*
X150717488Y-90314112D01*
X150667678Y-90333232D01*
X150425042Y-90448942D01*
X150192498Y-90587116D01*
X149948698Y-90729269D01*
X149789673Y-90770011D01*
X149726559Y-90709873D01*
X149764227Y-90553657D01*
X149907546Y-90306162D01*
X150116535Y-90034750D01*
X150384550Y-89799966D01*
X150670217Y-89677580D01*
X150758981Y-89661722D01*
X150846557Y-89693973D01*
G37*
G36*
X184621654Y-120763248D02*
G01*
X184586571Y-120798331D01*
X184551488Y-120763248D01*
X184586571Y-120728165D01*
X184621654Y-120763248D01*
G37*
G36*
X155451602Y-78725689D02*
G01*
X155564787Y-78916157D01*
X155572422Y-78933749D01*
X155617480Y-79113573D01*
X155552134Y-79219261D01*
X155362538Y-79275407D01*
X155201739Y-79282588D01*
X155093232Y-79221832D01*
X155089510Y-79076100D01*
X155187677Y-78838145D01*
X155231737Y-78763750D01*
X155341284Y-78675031D01*
X155451602Y-78725689D01*
G37*
G36*
X169110143Y-97541115D02*
G01*
X169134617Y-97598419D01*
X169174179Y-97774625D01*
X169215614Y-98034403D01*
X169253150Y-98345292D01*
X169274257Y-98570529D01*
X169292496Y-98900484D01*
X169288916Y-99220411D01*
X169262291Y-99579651D01*
X169211397Y-100027545D01*
X169169704Y-100380990D01*
X169139581Y-100712224D01*
X169131311Y-100966243D01*
X169144036Y-101176619D01*
X169176898Y-101376924D01*
X169199274Y-101490662D01*
X169225520Y-101699998D01*
X169208332Y-101852627D01*
X169144880Y-102004019D01*
X169084234Y-102163499D01*
X169064964Y-102492066D01*
X169070509Y-102538052D01*
X169078913Y-102706875D01*
X169063445Y-102793924D01*
X169018425Y-102802778D01*
X168899914Y-102763265D01*
X168787786Y-102722485D01*
X168596573Y-102695568D01*
X168522696Y-102687306D01*
X168458152Y-102649047D01*
X168410769Y-102564965D01*
X168378444Y-102419321D01*
X168359076Y-102196376D01*
X168350563Y-101880390D01*
X168350806Y-101455625D01*
X168357702Y-100906342D01*
X168378284Y-99573193D01*
X168588781Y-99549443D01*
X168754894Y-99521022D01*
X168881591Y-99456478D01*
X168947683Y-99332934D01*
X168965975Y-99123868D01*
X168949270Y-98802759D01*
X168946135Y-98763867D01*
X168914467Y-98459871D01*
X168874900Y-98185532D01*
X168835243Y-97996081D01*
X168804217Y-97866059D01*
X168814401Y-97731715D01*
X168904078Y-97612898D01*
X169012729Y-97532149D01*
X169110143Y-97541115D01*
G37*
G36*
X188621101Y-120552751D02*
G01*
X188586018Y-120587834D01*
X188550935Y-120552751D01*
X188586018Y-120517668D01*
X188621101Y-120552751D01*
G37*
G36*
X182681454Y-79573526D02*
G01*
X182692506Y-79615613D01*
X182675567Y-79709427D01*
X182609316Y-79747009D01*
X182499348Y-79735695D01*
X182446516Y-79653628D01*
X182447837Y-79634685D01*
X182506402Y-79540900D01*
X182605618Y-79513237D01*
X182681454Y-79573526D01*
G37*
G36*
X180090464Y-89187944D02*
G01*
X180230089Y-89281458D01*
X180420553Y-89439688D01*
X180636918Y-89639336D01*
X180854242Y-89857101D01*
X181047586Y-90069686D01*
X181192009Y-90253791D01*
X181251249Y-90341215D01*
X181352647Y-90520605D01*
X181379931Y-90671568D01*
X181334694Y-90844247D01*
X181218526Y-91088787D01*
X181152369Y-91231876D01*
X181088250Y-91416204D01*
X181077698Y-91526118D01*
X181078461Y-91528326D01*
X181067185Y-91644104D01*
X181007277Y-91817666D01*
X180923325Y-91989612D01*
X180839919Y-92100541D01*
X180824651Y-92116431D01*
X180744211Y-92240842D01*
X180635772Y-92442401D01*
X180519422Y-92680514D01*
X180415248Y-92914590D01*
X180343338Y-93104036D01*
X180322210Y-93163028D01*
X180246725Y-93301524D01*
X180177030Y-93343847D01*
X180146391Y-93303680D01*
X180087831Y-93149409D01*
X180020451Y-92908616D01*
X179953544Y-92611742D01*
X179909722Y-92408387D01*
X179838959Y-92125711D01*
X179773042Y-91910934D01*
X179721976Y-91799163D01*
X179672186Y-91760697D01*
X179502092Y-91691689D01*
X179279530Y-91643153D01*
X178990007Y-91571098D01*
X178694930Y-91391474D01*
X178638556Y-91345660D01*
X178454035Y-91233338D01*
X178301245Y-91188386D01*
X178251772Y-91182450D01*
X178071595Y-91117785D01*
X177874023Y-91004850D01*
X177791740Y-90951165D01*
X177605892Y-90870419D01*
X177426072Y-90874136D01*
X177217947Y-90967975D01*
X176947185Y-91157593D01*
X176792268Y-91264424D01*
X176621474Y-91353664D01*
X176516400Y-91373083D01*
X176440177Y-91299684D01*
X176327126Y-91133847D01*
X176204719Y-90913577D01*
X176044227Y-90630923D01*
X175890200Y-90456849D01*
X175713453Y-90370009D01*
X175483460Y-90346397D01*
X175385601Y-90335407D01*
X175187526Y-90268832D01*
X174990041Y-90161422D01*
X174825790Y-90035862D01*
X174727413Y-89914838D01*
X174727552Y-89821036D01*
X174748215Y-89804440D01*
X174876991Y-89736553D01*
X175082728Y-89645129D01*
X175325315Y-89546169D01*
X175564643Y-89455674D01*
X175760600Y-89389643D01*
X175873076Y-89364077D01*
X175901978Y-89388385D01*
X175989591Y-89502281D01*
X176106763Y-89677913D01*
X176303473Y-89923005D01*
X176497219Y-90033900D01*
X176535812Y-90045000D01*
X176722649Y-90139594D01*
X176908943Y-90281389D01*
X177132169Y-90426071D01*
X177444601Y-90487995D01*
X177775660Y-90423797D01*
X177861676Y-90410404D01*
X178062429Y-90421058D01*
X178301903Y-90463552D01*
X178585212Y-90517201D01*
X178830819Y-90518300D01*
X179038975Y-90447271D01*
X179233557Y-90290205D01*
X179438444Y-90033195D01*
X179677512Y-89662335D01*
X179705835Y-89616440D01*
X179847877Y-89400070D01*
X179965557Y-89241966D01*
X180035772Y-89173643D01*
X180090464Y-89187944D01*
G37*
G36*
X189813919Y-129112972D02*
G01*
X189778836Y-129148055D01*
X189743753Y-129112972D01*
X189778836Y-129077889D01*
X189813919Y-129112972D01*
G37*
G36*
X180343151Y-79502337D02*
G01*
X180496020Y-79606582D01*
X180681605Y-79758379D01*
X180883664Y-79925145D01*
X181168761Y-80140918D01*
X181446654Y-80334587D01*
X181636687Y-80461972D01*
X181790306Y-80584238D01*
X181861965Y-80692819D01*
X181872025Y-80822497D01*
X181840842Y-81008054D01*
X181802698Y-81125714D01*
X181688019Y-81268634D01*
X181472471Y-81411817D01*
X181427153Y-81439117D01*
X181209388Y-81599699D01*
X180958483Y-81818253D01*
X180720102Y-82055701D01*
X180675915Y-82103329D01*
X180485354Y-82304526D01*
X180354758Y-82422866D01*
X180254229Y-82475281D01*
X180153868Y-82478706D01*
X180023774Y-82450073D01*
X179928647Y-82422135D01*
X179773042Y-82330124D01*
X179688418Y-82172088D01*
X179594488Y-81944179D01*
X179478445Y-81821244D01*
X179317762Y-81786176D01*
X179211188Y-81815019D01*
X179059790Y-81937869D01*
X178868063Y-82172088D01*
X178711514Y-82366396D01*
X178574931Y-82505093D01*
X178487998Y-82557999D01*
X178389749Y-82517784D01*
X178220022Y-82410556D01*
X178016593Y-82259795D01*
X177818044Y-82106644D01*
X177626311Y-81966776D01*
X177500170Y-81883992D01*
X177438946Y-81834249D01*
X177311632Y-81676840D01*
X177187403Y-81470659D01*
X177067713Y-81280772D01*
X176773379Y-80958931D01*
X176387258Y-80654980D01*
X175938643Y-80394170D01*
X175777381Y-80310978D01*
X175629129Y-80223905D01*
X175573009Y-80175289D01*
X175603823Y-80137519D01*
X175721227Y-80036034D01*
X175895845Y-79901674D01*
X176057076Y-79789828D01*
X176222317Y-79709839D01*
X176407384Y-79676761D01*
X176672293Y-79672913D01*
X176890510Y-79683021D01*
X177186859Y-79714242D01*
X177418571Y-79757829D01*
X177509779Y-79777278D01*
X177801201Y-79802814D01*
X178108551Y-79790638D01*
X178335156Y-79769554D01*
X178474364Y-79780717D01*
X178568923Y-79839037D01*
X178666445Y-79958871D01*
X178778005Y-80086063D01*
X178917507Y-80155716D01*
X179131038Y-80172364D01*
X179302715Y-80161719D01*
X179446893Y-80114403D01*
X179601369Y-80008359D01*
X179808739Y-79821535D01*
X179826768Y-79804580D01*
X180018606Y-79635725D01*
X180176351Y-79516119D01*
X180267390Y-79470707D01*
X180343151Y-79502337D01*
G37*
G36*
X184481322Y-122517392D02*
G01*
X184446239Y-122552474D01*
X184411156Y-122517392D01*
X184446239Y-122482309D01*
X184481322Y-122517392D01*
G37*
G36*
X161851556Y-78806168D02*
G01*
X161902353Y-78834425D01*
X162081870Y-78954724D01*
X162196256Y-79062302D01*
X162288482Y-79146149D01*
X162458136Y-79224814D01*
X162461540Y-79225690D01*
X162639432Y-79307157D01*
X162817703Y-79437849D01*
X162952635Y-79553110D01*
X163197629Y-79724715D01*
X163427115Y-79845584D01*
X163599262Y-79891439D01*
X163603418Y-79891775D01*
X163700373Y-79944509D01*
X163861940Y-80068701D01*
X164059133Y-80237773D01*
X164262964Y-80425150D01*
X164444446Y-80604254D01*
X164574592Y-80748509D01*
X164624416Y-80831339D01*
X164623769Y-80833951D01*
X164551609Y-80863057D01*
X164396377Y-80887117D01*
X164291046Y-80902808D01*
X164185304Y-80965545D01*
X164145543Y-81108210D01*
X164173312Y-81317670D01*
X164307782Y-81586921D01*
X164399115Y-81737399D01*
X164444729Y-81871675D01*
X164412849Y-81962879D01*
X164410056Y-81966212D01*
X164365742Y-82005609D01*
X164304700Y-82020402D01*
X164208854Y-82004127D01*
X164060124Y-81950319D01*
X163840433Y-81852510D01*
X163531701Y-81704238D01*
X163115853Y-81499036D01*
X162761857Y-81314677D01*
X162397786Y-81109334D01*
X162075597Y-80912638D01*
X161838055Y-80749670D01*
X161684481Y-80632632D01*
X161391879Y-80409232D01*
X161065124Y-80159404D01*
X160750486Y-79918507D01*
X160526255Y-79751644D01*
X160218655Y-79536050D01*
X159938905Y-79353680D01*
X159727758Y-79231893D01*
X159610679Y-79169374D01*
X159446084Y-79053642D01*
X159416927Y-78972042D01*
X159522707Y-78924706D01*
X159762921Y-78911766D01*
X160137066Y-78933356D01*
X160644640Y-78989609D01*
X161270225Y-79069837D01*
X161430482Y-78868855D01*
X161590740Y-78667873D01*
X161851556Y-78806168D01*
G37*
G36*
X187632843Y-87899616D02*
G01*
X187753220Y-87976035D01*
X187868176Y-88087642D01*
X187919444Y-88182134D01*
X187898010Y-88214456D01*
X187786893Y-88241085D01*
X187630332Y-88235603D01*
X187484655Y-88202115D01*
X187406191Y-88144726D01*
X187401781Y-88067063D01*
X187472110Y-87946004D01*
X187594665Y-87890596D01*
X187632843Y-87899616D01*
G37*
G36*
X191427731Y-129183137D02*
G01*
X191392648Y-129218220D01*
X191357565Y-129183137D01*
X191392648Y-129148055D01*
X191427731Y-129183137D01*
G37*
G36*
X196970825Y-123640044D02*
G01*
X196935742Y-123675126D01*
X196900659Y-123640044D01*
X196935742Y-123604961D01*
X196970825Y-123640044D01*
G37*
G36*
X151173810Y-122067612D02*
G01*
X151249330Y-122157225D01*
X151334627Y-122313291D01*
X151404378Y-122484711D01*
X151433256Y-122620387D01*
X151426580Y-122654993D01*
X151355459Y-122692975D01*
X151247710Y-122656416D01*
X151155062Y-122557087D01*
X151109015Y-122434624D01*
X151084911Y-122261671D01*
X151100669Y-122120014D01*
X151156173Y-122061314D01*
X151173810Y-122067612D01*
G37*
G36*
X194164195Y-128621811D02*
G01*
X194129112Y-128656894D01*
X194094029Y-128621811D01*
X194129112Y-128586729D01*
X194164195Y-128621811D01*
G37*
G36*
X190342758Y-90478833D02*
G01*
X190575755Y-90576238D01*
X190712526Y-90653282D01*
X190840863Y-90771876D01*
X190838684Y-90885655D01*
X190710461Y-91008993D01*
X190606300Y-91068901D01*
X190358777Y-91110309D01*
X190114243Y-91011829D01*
X190047603Y-90959101D01*
X189997900Y-90858743D01*
X190033368Y-90701708D01*
X190086026Y-90579419D01*
X190189073Y-90477682D01*
X190342758Y-90478833D01*
G37*
G36*
X185042648Y-125113524D02*
G01*
X185007565Y-125148607D01*
X184972482Y-125113524D01*
X185007565Y-125078441D01*
X185042648Y-125113524D01*
G37*
G36*
X187384135Y-121297421D02*
G01*
X187449253Y-121392611D01*
X187479972Y-121550627D01*
X187462097Y-121714484D01*
X187449763Y-121747592D01*
X187366985Y-121829564D01*
X187199651Y-121837274D01*
X187196530Y-121836957D01*
X187038723Y-121800856D01*
X186959893Y-121745041D01*
X186961833Y-121713532D01*
X187025562Y-121597197D01*
X187139289Y-121456997D01*
X187262887Y-121339054D01*
X187356229Y-121289491D01*
X187384135Y-121297421D01*
G37*
G36*
X187568615Y-122377060D02*
G01*
X187533532Y-122412143D01*
X187498449Y-122377060D01*
X187533532Y-122341977D01*
X187568615Y-122377060D01*
G37*
G36*
X170619678Y-74282002D02*
G01*
X170654141Y-74323491D01*
X170616080Y-74448117D01*
X170612908Y-74456124D01*
X170531049Y-74553722D01*
X170429619Y-74517162D01*
X170407919Y-74435128D01*
X170460803Y-74329244D01*
X170560929Y-74278441D01*
X170619678Y-74282002D01*
G37*
G36*
X186586295Y-127569325D02*
G01*
X186551212Y-127604408D01*
X186516129Y-127569325D01*
X186551212Y-127534242D01*
X186586295Y-127569325D01*
G37*
G36*
X179254773Y-71475593D02*
G01*
X179325804Y-71551615D01*
X179326009Y-71685678D01*
X179251609Y-71825254D01*
X179157554Y-71908819D01*
X179012664Y-71960759D01*
X178908242Y-71901053D01*
X178903539Y-71886340D01*
X178936180Y-71780825D01*
X179025803Y-71642858D01*
X179134955Y-71523000D01*
X179226186Y-71471811D01*
X179254773Y-71475593D01*
G37*
G36*
X187964153Y-81010510D02*
G01*
X188007273Y-81112289D01*
X188030718Y-81228128D01*
X187979309Y-81323778D01*
X187837134Y-81454919D01*
X187563058Y-81695690D01*
X187356472Y-81886125D01*
X187231153Y-82016915D01*
X187172753Y-82103154D01*
X187166925Y-82159934D01*
X187168927Y-82165564D01*
X187269729Y-82252532D01*
X187459798Y-82253413D01*
X187718227Y-82167903D01*
X187789362Y-82137730D01*
X187948417Y-82086129D01*
X188030345Y-82084186D01*
X188033055Y-82088221D01*
X188036496Y-82188159D01*
X188012856Y-82382116D01*
X187969644Y-82632994D01*
X187914365Y-82903694D01*
X187854526Y-83157117D01*
X187797635Y-83356162D01*
X187751197Y-83463732D01*
X187725767Y-83489985D01*
X187585231Y-83588891D01*
X187393201Y-83690230D01*
X187290208Y-83735043D01*
X187057330Y-83806304D01*
X186863445Y-83798674D01*
X186652976Y-83713932D01*
X186561171Y-83656734D01*
X186459717Y-83514237D01*
X186491468Y-83340875D01*
X186656460Y-83130120D01*
X186769608Y-83008162D01*
X186850526Y-82860271D01*
X186832446Y-82705965D01*
X186720523Y-82494075D01*
X186605243Y-82316625D01*
X186383869Y-82026648D01*
X186162333Y-81791324D01*
X185963232Y-81633423D01*
X185809161Y-81575713D01*
X185636180Y-81526702D01*
X185463643Y-81400265D01*
X185462090Y-81398615D01*
X185261150Y-81253204D01*
X185059666Y-81247637D01*
X184849679Y-81381674D01*
X184682748Y-81538497D01*
X184407538Y-81380107D01*
X184177083Y-81277352D01*
X183956185Y-81265925D01*
X183922026Y-81274321D01*
X183840777Y-81282514D01*
X183800785Y-81237893D01*
X183790255Y-81111327D01*
X183797394Y-80873683D01*
X183798683Y-80671196D01*
X183764101Y-80441140D01*
X183678068Y-80336564D01*
X183534005Y-80352010D01*
X183325333Y-80482021D01*
X183244245Y-80540445D01*
X183102818Y-80623246D01*
X183029131Y-80638036D01*
X183021334Y-80617367D01*
X183049970Y-80490437D01*
X183143363Y-80277481D01*
X183291118Y-80000428D01*
X183355219Y-79893696D01*
X184411156Y-79893696D01*
X184423740Y-79961788D01*
X184524195Y-80123232D01*
X184682103Y-80256954D01*
X184845382Y-80312695D01*
X184921527Y-80334205D01*
X184972482Y-80451225D01*
X185028301Y-80578384D01*
X185192312Y-80703433D01*
X185315169Y-80759592D01*
X185436935Y-80781580D01*
X185592870Y-80761528D01*
X185832728Y-80699100D01*
X185976731Y-80663466D01*
X186265339Y-80619947D01*
X186485231Y-80624597D01*
X186563112Y-80643894D01*
X186793230Y-80728195D01*
X187028362Y-80842046D01*
X187100861Y-80881916D01*
X187262240Y-80957513D01*
X187357308Y-80965650D01*
X187424810Y-80913289D01*
X187466508Y-80842695D01*
X187463450Y-80687127D01*
X187347075Y-80493433D01*
X187111431Y-80249001D01*
X186984317Y-80134110D01*
X186851190Y-80035363D01*
X186716716Y-79984135D01*
X186534566Y-79964835D01*
X186258414Y-79961867D01*
X186186657Y-79961707D01*
X185927589Y-79954264D01*
X185758610Y-79928198D01*
X185638508Y-79873220D01*
X185526073Y-79779042D01*
X185521845Y-79774996D01*
X185382892Y-79660137D01*
X185261685Y-79633609D01*
X185085070Y-79678782D01*
X185047307Y-79690494D01*
X184871510Y-79725656D01*
X184762729Y-79716746D01*
X184747011Y-79708287D01*
X184603680Y-79700564D01*
X184470101Y-79773252D01*
X184411156Y-79893696D01*
X183355219Y-79893696D01*
X183482837Y-79681204D01*
X183521681Y-79619489D01*
X183648044Y-79419787D01*
X183732986Y-79303817D01*
X183806739Y-79245303D01*
X183899533Y-79217971D01*
X184041598Y-79195542D01*
X184064399Y-79191693D01*
X184202393Y-79154086D01*
X184309529Y-79079021D01*
X184416325Y-78936809D01*
X184553302Y-78697760D01*
X184596362Y-78619355D01*
X184716317Y-78416001D01*
X184807559Y-78306026D01*
X184896559Y-78264397D01*
X185009792Y-78266079D01*
X185075989Y-78271489D01*
X185291109Y-78281141D01*
X185581036Y-78288288D01*
X185902179Y-78291678D01*
X186586295Y-78294003D01*
X186586295Y-78602340D01*
X186592025Y-78763469D01*
X186630290Y-78888936D01*
X186731016Y-78992068D01*
X186924079Y-79118519D01*
X186970407Y-79147378D01*
X187111336Y-79246221D01*
X187220120Y-79355530D01*
X187317380Y-79505435D01*
X187423733Y-79726069D01*
X187559799Y-80047566D01*
X187656621Y-80281167D01*
X187785115Y-80588938D01*
X187892090Y-80842695D01*
X187893096Y-80845081D01*
X187964153Y-81010510D01*
G37*
G36*
X186743397Y-104942911D02*
G01*
X186796792Y-105011038D01*
X186794753Y-105027809D01*
X186726626Y-105081204D01*
X186709855Y-105079165D01*
X186656460Y-105011038D01*
X186658499Y-104994267D01*
X186726626Y-104940872D01*
X186743397Y-104942911D01*
G37*
G36*
X153134005Y-111819154D02*
G01*
X153187400Y-111887281D01*
X153185361Y-111904052D01*
X153117234Y-111957447D01*
X153100462Y-111955408D01*
X153047068Y-111887281D01*
X153049107Y-111870510D01*
X153117234Y-111817115D01*
X153134005Y-111819154D01*
G37*
G36*
X188831598Y-128691977D02*
G01*
X188796516Y-128727060D01*
X188761433Y-128691977D01*
X188796516Y-128656894D01*
X188831598Y-128691977D01*
G37*
G36*
X194585190Y-128411314D02*
G01*
X194550107Y-128446397D01*
X194515024Y-128411314D01*
X194550107Y-128376231D01*
X194585190Y-128411314D01*
G37*
G36*
X190445411Y-115220154D02*
G01*
X190410328Y-115255237D01*
X190375245Y-115220154D01*
X190410328Y-115185071D01*
X190445411Y-115220154D01*
G37*
G36*
X188768541Y-87055445D02*
G01*
X188884740Y-87171397D01*
X188910854Y-87213794D01*
X188935703Y-87309232D01*
X188852903Y-87320246D01*
X188659486Y-87247842D01*
X188538280Y-87166243D01*
X188480770Y-87067547D01*
X188522573Y-86996246D01*
X188633114Y-86993281D01*
X188768541Y-87055445D01*
G37*
G36*
X176321744Y-95868629D02*
G01*
X176333335Y-96064182D01*
X176322533Y-96362167D01*
X176290981Y-96743366D01*
X176240322Y-97188560D01*
X176172195Y-97678530D01*
X176088245Y-98194059D01*
X175987893Y-98863232D01*
X175935922Y-99497408D01*
X175947611Y-100017310D01*
X176023128Y-100428718D01*
X176162642Y-100737410D01*
X176185511Y-100773610D01*
X176297328Y-101016792D01*
X176339278Y-101238125D01*
X176309366Y-101449666D01*
X176224375Y-101719793D01*
X176104544Y-101985234D01*
X175970208Y-102201594D01*
X175841699Y-102324479D01*
X175719827Y-102368377D01*
X175630274Y-102359562D01*
X175611265Y-102283355D01*
X175590754Y-102093516D01*
X175572564Y-101821038D01*
X175559155Y-101495795D01*
X175552910Y-101322164D01*
X175527793Y-100943767D01*
X175489896Y-100694208D01*
X175438169Y-100565428D01*
X175419926Y-100540743D01*
X175374384Y-100388565D01*
X175395819Y-100151389D01*
X175448139Y-99679290D01*
X175410045Y-99214481D01*
X175268544Y-98731204D01*
X175198198Y-98530729D01*
X175107737Y-98144273D01*
X175080592Y-97727857D01*
X175080564Y-97702977D01*
X175091932Y-97407878D01*
X175135883Y-97165787D01*
X175227875Y-96937499D01*
X175383370Y-96683808D01*
X175617829Y-96365509D01*
X175760913Y-96186157D01*
X175994112Y-95934599D01*
X176172527Y-95804088D01*
X176293011Y-95797271D01*
X176321744Y-95868629D01*
G37*
G36*
X198015658Y-84525198D02*
G01*
X198166316Y-84547680D01*
X198198726Y-84592806D01*
X198191973Y-84602092D01*
X198075163Y-84654129D01*
X197903233Y-84651034D01*
X197742648Y-84592806D01*
X197709735Y-84560513D01*
X197760853Y-84532664D01*
X197939745Y-84523715D01*
X198015658Y-84525198D01*
G37*
G36*
X195637676Y-124832861D02*
G01*
X195602593Y-124867944D01*
X195567510Y-124832861D01*
X195602593Y-124797778D01*
X195637676Y-124832861D01*
G37*
G36*
X190515576Y-129042806D02*
G01*
X190480493Y-129077889D01*
X190445411Y-129042806D01*
X190480493Y-129007723D01*
X190515576Y-129042806D01*
G37*
G36*
X198444306Y-121464905D02*
G01*
X198409223Y-121499988D01*
X198374140Y-121464905D01*
X198409223Y-121429823D01*
X198444306Y-121464905D01*
G37*
G36*
X141539886Y-94100265D02*
G01*
X141504803Y-94135347D01*
X141469720Y-94100265D01*
X141504803Y-94065182D01*
X141539886Y-94100265D01*
G37*
G36*
X191918891Y-129323469D02*
G01*
X191883808Y-129358552D01*
X191848726Y-129323469D01*
X191883808Y-129288386D01*
X191918891Y-129323469D01*
G37*
G36*
X190689268Y-121942203D02*
G01*
X190768681Y-122097499D01*
X190796239Y-122372048D01*
X190795545Y-122458809D01*
X190780468Y-122613616D01*
X190730512Y-122679211D01*
X190625918Y-122692806D01*
X190475211Y-122648484D01*
X190311716Y-122509893D01*
X190298717Y-122492871D01*
X190218086Y-122308413D01*
X190268988Y-122137083D01*
X190455332Y-121964031D01*
X190562892Y-121912015D01*
X190689268Y-121942203D01*
G37*
G36*
X194828575Y-123301820D02*
G01*
X194883620Y-123410224D01*
X194918328Y-123585222D01*
X194924702Y-123766974D01*
X194894745Y-123895641D01*
X194852911Y-123934614D01*
X194723431Y-123944419D01*
X194576921Y-123875394D01*
X194464215Y-123745292D01*
X194418767Y-123635638D01*
X194435881Y-123534142D01*
X194551101Y-123414566D01*
X194563180Y-123404173D01*
X194706953Y-123312042D01*
X194814164Y-123292707D01*
X194828575Y-123301820D01*
G37*
G36*
X187745342Y-84373313D02*
G01*
X187815788Y-84440706D01*
X187884537Y-84585931D01*
X187974575Y-84836655D01*
X188026284Y-84987808D01*
X188088025Y-85196771D01*
X188107268Y-85354920D01*
X188087398Y-85515113D01*
X188031800Y-85730209D01*
X188021126Y-85768959D01*
X187946307Y-86088027D01*
X187927721Y-86317619D01*
X187966640Y-86493780D01*
X188064335Y-86652555D01*
X188075626Y-86667239D01*
X188158560Y-86806518D01*
X188172311Y-86896485D01*
X188102722Y-86907526D01*
X187921821Y-86894066D01*
X187659103Y-86857514D01*
X187343304Y-86801173D01*
X187076726Y-86748236D01*
X186726333Y-86672966D01*
X186491047Y-86609460D01*
X186356265Y-86550260D01*
X186307380Y-86487905D01*
X186329788Y-86414934D01*
X186408883Y-86323888D01*
X186464699Y-86280726D01*
X186593342Y-86253952D01*
X186802605Y-86285902D01*
X187032659Y-86316591D01*
X187182887Y-86276632D01*
X187198795Y-86261915D01*
X187288562Y-86084449D01*
X187323874Y-85811324D01*
X187303609Y-85472745D01*
X187226646Y-85098917D01*
X187184344Y-84944638D01*
X187136476Y-84746802D01*
X187126614Y-84628395D01*
X187154317Y-84553530D01*
X187219149Y-84486324D01*
X187373872Y-84401628D01*
X187576935Y-84358074D01*
X187650212Y-84356088D01*
X187745342Y-84373313D01*
G37*
G36*
X191217234Y-129183137D02*
G01*
X191182151Y-129218220D01*
X191147068Y-129183137D01*
X191182151Y-129148055D01*
X191217234Y-129183137D01*
G37*
G36*
X193361344Y-123888781D02*
G01*
X193427455Y-123955789D01*
X193440524Y-123980632D01*
X193435737Y-124025955D01*
X193423400Y-124022798D01*
X193357289Y-123955789D01*
X193344220Y-123930947D01*
X193349007Y-123885624D01*
X193361344Y-123888781D01*
G37*
G36*
X186726626Y-120131756D02*
G01*
X186691543Y-120166839D01*
X186656460Y-120131756D01*
X186691543Y-120096673D01*
X186726626Y-120131756D01*
G37*
G36*
X157989197Y-77636401D02*
G01*
X158209297Y-77758313D01*
X158259728Y-77788343D01*
X158425596Y-77906038D01*
X158501715Y-78018448D01*
X158519996Y-78167613D01*
X158519968Y-78175481D01*
X158505482Y-78345174D01*
X158472447Y-78442381D01*
X158459282Y-78452427D01*
X158360519Y-78462941D01*
X158176969Y-78418549D01*
X157888505Y-78314855D01*
X157864253Y-78305492D01*
X157667244Y-78231922D01*
X157520134Y-78180791D01*
X157518545Y-78180284D01*
X157411790Y-78099184D01*
X157430680Y-77962865D01*
X157575598Y-77768470D01*
X157613612Y-77727937D01*
X157734020Y-77620530D01*
X157844993Y-77590246D01*
X157989197Y-77636401D01*
G37*
G36*
X142430679Y-94770845D02*
G01*
X142452512Y-94839559D01*
X142392408Y-94970225D01*
X142262430Y-95132485D01*
X142256883Y-95138246D01*
X142086132Y-95277258D01*
X141967911Y-95288744D01*
X141904643Y-95172433D01*
X141910320Y-95139114D01*
X141991808Y-95030933D01*
X142132014Y-94908521D01*
X142285718Y-94808336D01*
X142407698Y-94766839D01*
X142430679Y-94770845D01*
G37*
G36*
X137136446Y-70872042D02*
G01*
X137319704Y-70960539D01*
X137540438Y-71085900D01*
X137749023Y-71208724D01*
X137912314Y-71297569D01*
X137992088Y-71331480D01*
X137993813Y-71331538D01*
X138092666Y-71365405D01*
X138276110Y-71449090D01*
X138508023Y-71564169D01*
X138752281Y-71692219D01*
X138972763Y-71814818D01*
X139133345Y-71913541D01*
X139302362Y-72071286D01*
X139399913Y-72314287D01*
X139404056Y-72337852D01*
X139446796Y-72520438D01*
X139490984Y-72634255D01*
X139495058Y-72639944D01*
X139608255Y-72750130D01*
X139810662Y-72908722D01*
X140076957Y-73099335D01*
X140381814Y-73305581D01*
X140699910Y-73511074D01*
X141005920Y-73699427D01*
X141274520Y-73854253D01*
X141480385Y-73959166D01*
X141598191Y-73997778D01*
X141647441Y-74014731D01*
X141750383Y-74103027D01*
X141814034Y-74157523D01*
X141964386Y-74208276D01*
X141992007Y-74212459D01*
X142125093Y-74289302D01*
X142266420Y-74432369D01*
X142289238Y-74461299D01*
X142403585Y-74585096D01*
X142498669Y-74615570D01*
X142625636Y-74572700D01*
X142694244Y-74542550D01*
X142850763Y-74496316D01*
X142924644Y-74536750D01*
X142943201Y-74672431D01*
X142976795Y-74787215D01*
X143089327Y-74963468D01*
X143245508Y-75140225D01*
X143408111Y-75276405D01*
X143539910Y-75330928D01*
X143614659Y-75350958D01*
X143751006Y-75428157D01*
X143807101Y-75473006D01*
X143836261Y-75535375D01*
X143790372Y-75625365D01*
X143659599Y-75780936D01*
X143478474Y-76014921D01*
X143313045Y-76283242D01*
X143197285Y-76531291D01*
X143153698Y-76717414D01*
X143165346Y-76799966D01*
X143268728Y-76953597D01*
X143443020Y-77014905D01*
X143523706Y-76991890D01*
X143693402Y-76901089D01*
X143891459Y-76764907D01*
X144038208Y-76656580D01*
X144306756Y-76483660D01*
X144499609Y-76398972D01*
X144605256Y-76408268D01*
X144617871Y-76444168D01*
X144569877Y-76538948D01*
X144539567Y-76577739D01*
X144492083Y-76725725D01*
X144503984Y-76875864D01*
X144574554Y-76963175D01*
X144695720Y-76967255D01*
X144872295Y-76933940D01*
X144979554Y-76905145D01*
X145148820Y-76882017D01*
X145276051Y-76924773D01*
X145423163Y-77046011D01*
X145428037Y-77050553D01*
X145548265Y-77201211D01*
X145552414Y-77334264D01*
X145433600Y-77466105D01*
X145184936Y-77613123D01*
X145174429Y-77618484D01*
X144923595Y-77783661D01*
X144801441Y-77962096D01*
X144808199Y-78163925D01*
X144944103Y-78399281D01*
X145209384Y-78678300D01*
X145372977Y-78815571D01*
X145680028Y-78988552D01*
X145966272Y-79027576D01*
X146239022Y-78934465D01*
X146358400Y-78869785D01*
X146457359Y-78849026D01*
X146518339Y-78904017D01*
X146528165Y-78932658D01*
X146543023Y-79081114D01*
X146546012Y-79305809D01*
X146538790Y-79563438D01*
X146523018Y-79810697D01*
X146500356Y-80004279D01*
X146472463Y-80100881D01*
X146467361Y-80104047D01*
X146379224Y-80085369D01*
X146230775Y-80013174D01*
X146215271Y-80004408D01*
X145962335Y-79909428D01*
X145764540Y-79940725D01*
X145616542Y-80101132D01*
X145512999Y-80393478D01*
X145452000Y-80533560D01*
X145324369Y-80739437D01*
X145159932Y-80960114D01*
X145005852Y-81164044D01*
X144824475Y-81437951D01*
X144692884Y-81674742D01*
X144618674Y-81816652D01*
X144458798Y-82013319D01*
X144230697Y-82157033D01*
X144129499Y-82209393D01*
X143983072Y-82300785D01*
X143925521Y-82361484D01*
X143910702Y-82389165D01*
X143812098Y-82417668D01*
X143763929Y-82408130D01*
X143729407Y-82350337D01*
X143725149Y-82213640D01*
X143746814Y-81968160D01*
X143751764Y-81921437D01*
X143769966Y-81689534D01*
X143756375Y-81539450D01*
X143699406Y-81421611D01*
X143587470Y-81286441D01*
X143568150Y-81264946D01*
X143438395Y-81137105D01*
X143350529Y-81103588D01*
X143266843Y-81148131D01*
X143202964Y-81216819D01*
X143153698Y-81331183D01*
X143109167Y-81427571D01*
X142977400Y-81461243D01*
X142795380Y-81409389D01*
X142693258Y-81337274D01*
X142640547Y-81217606D01*
X142627455Y-81007219D01*
X142601826Y-80759224D01*
X142503118Y-80564482D01*
X142502115Y-80563474D01*
X142429208Y-80458017D01*
X142406390Y-80312139D01*
X142426100Y-80078098D01*
X142462995Y-79841418D01*
X142582715Y-79324354D01*
X142744743Y-78842094D01*
X142936168Y-78429799D01*
X143144081Y-78122628D01*
X143147448Y-78118759D01*
X143338237Y-77852190D01*
X143410563Y-77632102D01*
X143361401Y-77467616D01*
X143288596Y-77403577D01*
X143119274Y-77376004D01*
X142933797Y-77479493D01*
X142920340Y-77491232D01*
X142766748Y-77559239D01*
X142641335Y-77495156D01*
X142559618Y-77306171D01*
X142551605Y-77273627D01*
X142459429Y-77100699D01*
X142323518Y-77047797D01*
X142165943Y-77125072D01*
X142051254Y-77192469D01*
X141833942Y-77193261D01*
X141706032Y-77180889D01*
X141553582Y-77233757D01*
X141411135Y-77385209D01*
X141255488Y-77653717D01*
X141215903Y-77727707D01*
X141125702Y-77870393D01*
X141066962Y-77927060D01*
X141016310Y-77901186D01*
X140900983Y-77788452D01*
X140764384Y-77621500D01*
X140637479Y-77439165D01*
X140551235Y-77280285D01*
X140542362Y-77257991D01*
X140510960Y-77116514D01*
X140533051Y-76953344D01*
X140614392Y-76717144D01*
X140695991Y-76471728D01*
X140767075Y-76160164D01*
X140807910Y-75854000D01*
X140819944Y-75572305D01*
X140804629Y-75334148D01*
X140763415Y-75158598D01*
X140697752Y-75064725D01*
X140609090Y-75071598D01*
X140498880Y-75198287D01*
X140384718Y-75295554D01*
X140187746Y-75301903D01*
X139915703Y-75196510D01*
X139564858Y-74978498D01*
X139341944Y-74834610D01*
X139109380Y-74729963D01*
X138897518Y-74698361D01*
X138855282Y-74697585D01*
X138668860Y-74679653D01*
X138556221Y-74645737D01*
X138547229Y-74638970D01*
X138415875Y-74484596D01*
X138292890Y-74257577D01*
X138211564Y-74018498D01*
X138191759Y-73889159D01*
X138229349Y-73780296D01*
X138368858Y-73689049D01*
X138524491Y-73575038D01*
X138613533Y-73402022D01*
X138582891Y-73223008D01*
X138438777Y-73063352D01*
X138187403Y-72948410D01*
X138080222Y-72924625D01*
X137813992Y-72889504D01*
X137536878Y-72875518D01*
X137147407Y-72875126D01*
X136995279Y-72562002D01*
X136944252Y-72466086D01*
X136775462Y-72203879D01*
X136590798Y-71969552D01*
X136502423Y-71869295D01*
X136405146Y-71734472D01*
X136384380Y-71634584D01*
X136424587Y-71528395D01*
X136478648Y-71434866D01*
X136624797Y-71225114D01*
X136785956Y-71033722D01*
X136932375Y-70894266D01*
X137034301Y-70840320D01*
X137136446Y-70872042D01*
G37*
G36*
X149686623Y-122226216D02*
G01*
X149852872Y-122309367D01*
X149934973Y-122354093D01*
X150097054Y-122458514D01*
X150156918Y-122540401D01*
X150135190Y-122622640D01*
X150122549Y-122635535D01*
X150003775Y-122676354D01*
X149817771Y-122692806D01*
X149669614Y-122678612D01*
X149498702Y-122599608D01*
X149436724Y-122467662D01*
X149498952Y-122301518D01*
X149530714Y-122259668D01*
X149595210Y-122210004D01*
X149686623Y-122226216D01*
G37*
G36*
X191256371Y-114907565D02*
G01*
X191322482Y-114974574D01*
X191335552Y-114999416D01*
X191330764Y-115044740D01*
X191318428Y-115041582D01*
X191252317Y-114974574D01*
X191239247Y-114949732D01*
X191244035Y-114904408D01*
X191256371Y-114907565D01*
G37*
G36*
X197040991Y-123780375D02*
G01*
X197005908Y-123815458D01*
X196970825Y-123780375D01*
X197005908Y-123745292D01*
X197040991Y-123780375D01*
G37*
G36*
X194515024Y-115570983D02*
G01*
X194479941Y-115606066D01*
X194444858Y-115570983D01*
X194479941Y-115535900D01*
X194515024Y-115570983D01*
G37*
G36*
X150860244Y-102993773D02*
G01*
X150871345Y-103000216D01*
X151044834Y-103082603D01*
X151176819Y-103116563D01*
X151226997Y-103123069D01*
X151326160Y-103183740D01*
X151298364Y-103257384D01*
X151154610Y-103360933D01*
X150912779Y-103482850D01*
X150591267Y-103612402D01*
X150487405Y-103647798D01*
X150314467Y-103693615D01*
X150222897Y-103698690D01*
X150186043Y-103663739D01*
X150174107Y-103530192D01*
X150252232Y-103343740D01*
X150410882Y-103133074D01*
X150651492Y-102870983D01*
X150860244Y-102993773D01*
G37*
G36*
X155983981Y-128235326D02*
G01*
X156031610Y-128399951D01*
X156053062Y-128536846D01*
X156048194Y-128746479D01*
X155963339Y-128878891D01*
X155783532Y-128968366D01*
X155667025Y-129006173D01*
X155525979Y-129028585D01*
X155454980Y-128974785D01*
X155415124Y-128830181D01*
X155431173Y-128643182D01*
X155527787Y-128434731D01*
X155673275Y-128262863D01*
X155834571Y-128178919D01*
X155906876Y-128177060D01*
X155983981Y-128235326D01*
G37*
G36*
X171395048Y-105930437D02*
G01*
X171466165Y-106001355D01*
X171451975Y-106088820D01*
X171430128Y-106107871D01*
X171333253Y-106125210D01*
X171290162Y-106028441D01*
X171297591Y-105980086D01*
X171356187Y-105923193D01*
X171395048Y-105930437D01*
G37*
G36*
X188168576Y-94398042D02*
G01*
X188325770Y-94644049D01*
X188429455Y-94820524D01*
X188665754Y-95182771D01*
X188895735Y-95485713D01*
X189101478Y-95706844D01*
X189265062Y-95823660D01*
X189412530Y-95903464D01*
X189554272Y-96018692D01*
X189646102Y-96148198D01*
X189780256Y-96373299D01*
X189927384Y-96644279D01*
X190064296Y-96918288D01*
X190167805Y-97152474D01*
X190223108Y-97279582D01*
X190367237Y-97569012D01*
X190553616Y-97912789D01*
X190759826Y-98271294D01*
X190963445Y-98604910D01*
X191142052Y-98874018D01*
X191365883Y-99197353D01*
X191627396Y-99610913D01*
X191833746Y-99997501D01*
X192008397Y-100402492D01*
X192174811Y-100871259D01*
X192230304Y-101032743D01*
X192394281Y-101466799D01*
X192580917Y-101917472D01*
X192759675Y-102309657D01*
X192874790Y-102548005D01*
X193004023Y-102821052D01*
X193101357Y-103033069D01*
X193151701Y-103151646D01*
X193178009Y-103235357D01*
X193230681Y-103483431D01*
X193261331Y-103747368D01*
X193265434Y-103976632D01*
X193238466Y-104120688D01*
X193209255Y-104167112D01*
X193111971Y-104221866D01*
X193011451Y-104165338D01*
X192921855Y-104018010D01*
X192857345Y-103800363D01*
X192832080Y-103532881D01*
X192830551Y-103481862D01*
X192808444Y-103326848D01*
X192753126Y-103140353D01*
X192655748Y-102899644D01*
X192507457Y-102581987D01*
X192299405Y-102164648D01*
X192191229Y-101953624D01*
X191991082Y-101573250D01*
X191801024Y-101223674D01*
X191638412Y-100936569D01*
X191520603Y-100743606D01*
X191481175Y-100680310D01*
X191338499Y-100406036D01*
X191193951Y-100072405D01*
X191073491Y-99737815D01*
X191049640Y-99664248D01*
X190914279Y-99306159D01*
X190740763Y-98942762D01*
X190515133Y-98549331D01*
X190223432Y-98101142D01*
X189851703Y-97573469D01*
X189656474Y-97294805D01*
X189410299Y-96926678D01*
X189147429Y-96520044D01*
X188883811Y-96100655D01*
X188635389Y-95694260D01*
X188418111Y-95326609D01*
X188247921Y-95023454D01*
X188140767Y-94810544D01*
X188067643Y-94632297D01*
X187998988Y-94404230D01*
X187997829Y-94284752D01*
X188056810Y-94280482D01*
X188168576Y-94398042D01*
G37*
G36*
X158569612Y-80912759D02*
G01*
X158590162Y-81033013D01*
X158579915Y-81148171D01*
X158543385Y-81248239D01*
X158436310Y-81294039D01*
X158289103Y-81272551D01*
X158192731Y-81185051D01*
X158177681Y-81108791D01*
X158241141Y-80998208D01*
X158432289Y-80912262D01*
X158481074Y-80899236D01*
X158569612Y-80912759D01*
G37*
G36*
X198323373Y-122847231D02*
G01*
X198396190Y-122857865D01*
X198417071Y-122851737D01*
X198483204Y-122909476D01*
X198502863Y-122953698D01*
X198455147Y-122945086D01*
X198418392Y-122930636D01*
X198374140Y-122970463D01*
X198369904Y-122986429D01*
X198286027Y-123070260D01*
X198128560Y-123163014D01*
X198082572Y-123186088D01*
X197940293Y-123276023D01*
X197882980Y-123344706D01*
X197886764Y-123362287D01*
X197949589Y-123473689D01*
X198065218Y-123625866D01*
X198106119Y-123674905D01*
X198192427Y-123795193D01*
X198195042Y-123867124D01*
X198121973Y-123934200D01*
X198030064Y-123985774D01*
X197873710Y-124025955D01*
X197832559Y-124027923D01*
X197724957Y-124080784D01*
X197717385Y-124213777D01*
X197808117Y-124437742D01*
X197949058Y-124714011D01*
X197662896Y-124828510D01*
X197646702Y-124835028D01*
X197477604Y-124915902D01*
X197413177Y-124992963D01*
X197425024Y-125098433D01*
X197464335Y-125226418D01*
X197511300Y-125415161D01*
X197499710Y-125518876D01*
X197418525Y-125570709D01*
X197256706Y-125603803D01*
X196967698Y-125652630D01*
X197013384Y-125997028D01*
X197059070Y-126341425D01*
X196461187Y-126341425D01*
X196498830Y-126622074D01*
X196511238Y-126785892D01*
X196471932Y-126923597D01*
X196345433Y-126981184D01*
X196107467Y-126980907D01*
X195836607Y-126961350D01*
X195857125Y-127265338D01*
X195877644Y-127569325D01*
X195556022Y-127549201D01*
X195373487Y-127550475D01*
X195233611Y-127607468D01*
X195166089Y-127750179D01*
X195147474Y-128004749D01*
X195145470Y-128066093D01*
X195119601Y-128121373D01*
X195034260Y-128115922D01*
X194853272Y-128056047D01*
X194764437Y-128027272D01*
X194576225Y-128002008D01*
X194476422Y-128070052D01*
X194445933Y-128240031D01*
X194431002Y-128319321D01*
X194357151Y-128468852D01*
X194333767Y-128499277D01*
X194268754Y-128547449D01*
X194174294Y-128530706D01*
X194004539Y-128446088D01*
X193889583Y-128388620D01*
X193763058Y-128352151D01*
X193708417Y-128392681D01*
X193619962Y-128633678D01*
X193537131Y-128802060D01*
X193454611Y-128863922D01*
X193350031Y-128834008D01*
X193201021Y-128727060D01*
X193100897Y-128651891D01*
X192981868Y-128599764D01*
X192895806Y-128656219D01*
X192800666Y-128832309D01*
X192744536Y-128935168D01*
X192616854Y-129056742D01*
X192469719Y-129042341D01*
X192290339Y-128893498D01*
X192119452Y-128709108D01*
X191946476Y-128963664D01*
X191897984Y-129032311D01*
X191789796Y-129165609D01*
X191723406Y-129218853D01*
X191706854Y-129212924D01*
X191614841Y-129134815D01*
X191488707Y-128994881D01*
X191304103Y-128770277D01*
X191088915Y-129005878D01*
X190962571Y-129132257D01*
X190858413Y-129189956D01*
X190775903Y-129160293D01*
X190714551Y-129124966D01*
X190620661Y-129131122D01*
X190599038Y-129146091D01*
X190609200Y-129102739D01*
X190607343Y-129007181D01*
X190531820Y-128870028D01*
X190408485Y-128717716D01*
X190239303Y-128897802D01*
X190142486Y-128991960D01*
X190003444Y-129065108D01*
X189882982Y-129012332D01*
X189751375Y-128829470D01*
X189650592Y-128678551D01*
X189566635Y-128624871D01*
X189467689Y-128654433D01*
X189380429Y-128709787D01*
X189287443Y-128797603D01*
X189269733Y-128822140D01*
X189161967Y-128867836D01*
X189040617Y-128796664D01*
X188932325Y-128621811D01*
X188876130Y-128499741D01*
X188788828Y-128399085D01*
X188666485Y-128399151D01*
X188467974Y-128488097D01*
X188284205Y-128547085D01*
X188170338Y-128492198D01*
X188131015Y-128318994D01*
X188117537Y-128242630D01*
X188057346Y-128091029D01*
X188057137Y-128090639D01*
X187995861Y-128005808D01*
X187910901Y-127995384D01*
X187751080Y-128053018D01*
X187664966Y-128084767D01*
X187470655Y-128104732D01*
X187364269Y-128015567D01*
X187346334Y-127817578D01*
X187349663Y-127765773D01*
X187307751Y-127604049D01*
X187172848Y-127546322D01*
X186943387Y-127591711D01*
X186818289Y-127622478D01*
X186718185Y-127590491D01*
X186669341Y-127460252D01*
X186656460Y-127211485D01*
X186655224Y-127115677D01*
X186630972Y-127015413D01*
X186545038Y-126982981D01*
X186358256Y-126989185D01*
X186060052Y-127007999D01*
X186094042Y-126341773D01*
X185814590Y-126363879D01*
X185664202Y-126365083D01*
X185525510Y-126310448D01*
X185484732Y-126172168D01*
X185530294Y-125932686D01*
X185562089Y-125796776D01*
X185542672Y-125702774D01*
X185436934Y-125652346D01*
X185218063Y-125618511D01*
X185185342Y-125613597D01*
X185024986Y-125537728D01*
X184986115Y-125397446D01*
X185072838Y-125204466D01*
X185166116Y-125031397D01*
X185161195Y-124910280D01*
X185045950Y-124867944D01*
X184919318Y-124849850D01*
X184735042Y-124788720D01*
X184596074Y-124725402D01*
X195309900Y-124725402D01*
X195354592Y-124840306D01*
X195511303Y-124906093D01*
X195527071Y-124909466D01*
X195676106Y-124920992D01*
X195798536Y-124865073D01*
X195948590Y-124718438D01*
X195956003Y-124710363D01*
X196181449Y-124523797D01*
X196386358Y-124455444D01*
X196550582Y-124500072D01*
X196653973Y-124652453D01*
X196676383Y-124907357D01*
X196674529Y-124934742D01*
X196685909Y-125112720D01*
X196736544Y-125197605D01*
X196824141Y-125173965D01*
X196950571Y-125080158D01*
X197062754Y-124959659D01*
X197111156Y-124857447D01*
X197149242Y-124785256D01*
X197254389Y-124669803D01*
X197353256Y-124545198D01*
X197428090Y-124368865D01*
X197502464Y-124016777D01*
X197599329Y-123651457D01*
X197704452Y-123325539D01*
X197807144Y-123071987D01*
X197896714Y-122923766D01*
X197978410Y-122816775D01*
X197985512Y-122710833D01*
X197867155Y-122643736D01*
X197616981Y-122608312D01*
X197316490Y-122587557D01*
X197118306Y-123031398D01*
X196968316Y-123340177D01*
X196830612Y-123551921D01*
X196706939Y-123651266D01*
X196586775Y-123650467D01*
X196579049Y-123647280D01*
X196521433Y-123605397D01*
X196457753Y-123517239D01*
X196376852Y-123361662D01*
X196267569Y-123117521D01*
X196118746Y-122763673D01*
X196070506Y-122657513D01*
X196022391Y-122635987D01*
X195945921Y-122728590D01*
X195870852Y-122829700D01*
X195757298Y-122973469D01*
X195742358Y-122991465D01*
X195675503Y-123091678D01*
X195670592Y-123186444D01*
X195736445Y-123313908D01*
X195881882Y-123512213D01*
X195972409Y-123630772D01*
X196130150Y-123837358D01*
X195848830Y-123963309D01*
X195772882Y-124000146D01*
X195625893Y-124092929D01*
X195567510Y-124165325D01*
X195532691Y-124271905D01*
X195447469Y-124424595D01*
X195374977Y-124544408D01*
X195309900Y-124725402D01*
X184596074Y-124725402D01*
X184561164Y-124709496D01*
X184728759Y-124444008D01*
X184808000Y-124303338D01*
X184836874Y-124157632D01*
X184749366Y-124062087D01*
X184533554Y-123988907D01*
X184486214Y-123975328D01*
X184364834Y-123897362D01*
X184363894Y-123772858D01*
X184481322Y-123585814D01*
X184532503Y-123517502D01*
X184610308Y-123360508D01*
X184571350Y-123254584D01*
X184411156Y-123173452D01*
X184379005Y-123158783D01*
X189283068Y-123158783D01*
X189290826Y-123236166D01*
X189366079Y-123303915D01*
X189526563Y-123376714D01*
X189749883Y-123379534D01*
X189934975Y-123283431D01*
X189982957Y-123249168D01*
X190155774Y-123211322D01*
X190368497Y-123231584D01*
X190576141Y-123297686D01*
X190733717Y-123397356D01*
X190796239Y-123518327D01*
X190813178Y-123565801D01*
X190932089Y-123645154D01*
X191132233Y-123701978D01*
X191375032Y-123732598D01*
X191621905Y-123733339D01*
X191834274Y-123700525D01*
X191973559Y-123630483D01*
X192124233Y-123561730D01*
X192338976Y-123565739D01*
X192564657Y-123632395D01*
X192752528Y-123747049D01*
X192853841Y-123895049D01*
X192945245Y-123996134D01*
X193139010Y-124064207D01*
X193178713Y-124072749D01*
X193330792Y-124131003D01*
X193392372Y-124200211D01*
X193437862Y-124259412D01*
X193578134Y-124313673D01*
X193763487Y-124344062D01*
X193942653Y-124342804D01*
X194064362Y-124302124D01*
X194208691Y-124257246D01*
X194446007Y-124271729D01*
X194496399Y-124281881D01*
X194708347Y-124356017D01*
X194857838Y-124454511D01*
X194930456Y-124527079D01*
X195002782Y-124547240D01*
X195087790Y-124465281D01*
X195098292Y-124452731D01*
X195226856Y-124274474D01*
X195343182Y-124074858D01*
X195435202Y-123882174D01*
X195490845Y-123724714D01*
X195498041Y-123630772D01*
X195444720Y-123628637D01*
X195430276Y-123626364D01*
X195399923Y-123538838D01*
X195384148Y-123366520D01*
X195384133Y-123365960D01*
X195373278Y-123144904D01*
X195352532Y-122848486D01*
X195326372Y-122540712D01*
X195320764Y-122482017D01*
X195290214Y-122227587D01*
X195251997Y-122073354D01*
X195193718Y-121985423D01*
X195102980Y-121929898D01*
X194973334Y-121877461D01*
X194871875Y-121850817D01*
X194859712Y-121854269D01*
X194776917Y-121932627D01*
X194663580Y-122082352D01*
X194547817Y-122260826D01*
X194457742Y-122425434D01*
X194421470Y-122533558D01*
X194418056Y-122566709D01*
X194374204Y-122622640D01*
X194352522Y-122633830D01*
X194262757Y-122726216D01*
X194142753Y-122881506D01*
X194092746Y-122955193D01*
X194012033Y-123122709D01*
X194029706Y-123226088D01*
X194061520Y-123282511D01*
X194016430Y-123363975D01*
X193975412Y-123382577D01*
X193979084Y-123339987D01*
X193991917Y-123307769D01*
X193958795Y-123222199D01*
X193918138Y-123230972D01*
X193820898Y-123327827D01*
X193705403Y-123498014D01*
X193633000Y-123619804D01*
X193545627Y-123760610D01*
X193505989Y-123815458D01*
X193500848Y-123811865D01*
X193492694Y-123781125D01*
X193482851Y-123700027D01*
X193469191Y-123546169D01*
X193449587Y-123297152D01*
X193421909Y-122930576D01*
X193374017Y-122291273D01*
X193701542Y-122340979D01*
X193860885Y-122361967D01*
X194000287Y-122352413D01*
X194109677Y-122278386D01*
X194246455Y-122116210D01*
X194341470Y-121987792D01*
X194402757Y-121851812D01*
X194361187Y-121760639D01*
X194204371Y-121696228D01*
X193919923Y-121640533D01*
X193782928Y-121612164D01*
X193488155Y-121516457D01*
X193254751Y-121396618D01*
X193025237Y-121267362D01*
X192785133Y-121225171D01*
X192518250Y-121288370D01*
X192448514Y-121318553D01*
X192369934Y-121401657D01*
X192382774Y-121551491D01*
X192433833Y-121703549D01*
X192515300Y-121850817D01*
X192582479Y-121965723D01*
X192647545Y-122149021D01*
X192698175Y-122281942D01*
X192762217Y-122341977D01*
X192787009Y-122365650D01*
X192818665Y-122492675D01*
X192831046Y-122692806D01*
X192829610Y-122822512D01*
X192812842Y-122969163D01*
X192763373Y-123030968D01*
X192664223Y-123043635D01*
X192545836Y-123021717D01*
X192407265Y-122935028D01*
X192382053Y-122909433D01*
X192244951Y-122855141D01*
X192012716Y-122859897D01*
X191820321Y-122894774D01*
X191604123Y-123002489D01*
X191483458Y-123185219D01*
X191464724Y-123201678D01*
X191436128Y-123116780D01*
X191406823Y-122919721D01*
X191378628Y-122626996D01*
X191353366Y-122255101D01*
X191332855Y-121820535D01*
X191321324Y-121562132D01*
X191301834Y-121322036D01*
X191271157Y-121168173D01*
X191222421Y-121069779D01*
X191148758Y-120996087D01*
X191111521Y-120968597D01*
X190893489Y-120881699D01*
X190673110Y-120889131D01*
X190503148Y-120991287D01*
X190431360Y-121090540D01*
X190325625Y-121267258D01*
X190219299Y-121468131D01*
X190130340Y-121656897D01*
X190076709Y-121797291D01*
X190076365Y-121853049D01*
X190085511Y-121872013D01*
X190017129Y-121940993D01*
X189973188Y-121984483D01*
X189860542Y-122139860D01*
X189744581Y-122342215D01*
X189686525Y-122453581D01*
X189595748Y-122614492D01*
X189541372Y-122692859D01*
X189531580Y-122703060D01*
X189462744Y-122806231D01*
X189370210Y-122970681D01*
X189343422Y-123021906D01*
X189283068Y-123158783D01*
X184379005Y-123158783D01*
X184324070Y-123133719D01*
X184212234Y-123006946D01*
X184229082Y-122848956D01*
X184376074Y-122680270D01*
X184451463Y-122618482D01*
X184536053Y-122514095D01*
X184500447Y-122426525D01*
X184340991Y-122318056D01*
X184233386Y-122245048D01*
X184144579Y-122121480D01*
X184185608Y-121987750D01*
X184357123Y-121823956D01*
X184583752Y-121646592D01*
X184392205Y-121446661D01*
X184277033Y-121315855D01*
X184214633Y-121180025D01*
X184271213Y-121065655D01*
X184451041Y-120935695D01*
X184701423Y-120780950D01*
X184521207Y-120592845D01*
X184495599Y-120565425D01*
X184385630Y-120427918D01*
X184340991Y-120336466D01*
X184343315Y-120324044D01*
X184402390Y-120235223D01*
X184507609Y-120125878D01*
X184613860Y-120038964D01*
X184676032Y-120017437D01*
X184689098Y-120022493D01*
X184781281Y-120006683D01*
X184802607Y-119995502D01*
X184817370Y-119919264D01*
X184744444Y-119762556D01*
X184672419Y-119624695D01*
X184665974Y-119599774D01*
X184902317Y-119599774D01*
X184913737Y-119777434D01*
X184972162Y-119961551D01*
X185074363Y-120026508D01*
X185164411Y-120062386D01*
X185289666Y-120168428D01*
X185297988Y-120177656D01*
X185362717Y-120262205D01*
X185382977Y-120350788D01*
X185358817Y-120486445D01*
X185290286Y-120712213D01*
X185209293Y-120974517D01*
X185127209Y-121281336D01*
X185088296Y-121513430D01*
X185087708Y-121704362D01*
X185120599Y-121887698D01*
X185191711Y-122170160D01*
X185785886Y-122327562D01*
X186028623Y-122388588D01*
X186264159Y-122433641D01*
X186420289Y-122438366D01*
X186527611Y-122405998D01*
X186688748Y-122357974D01*
X186954249Y-122370928D01*
X187221994Y-122463001D01*
X187437304Y-122621254D01*
X187469784Y-122653823D01*
X187679110Y-122801580D01*
X187915240Y-122902171D01*
X188013811Y-122925976D01*
X188257175Y-122969656D01*
X188512805Y-123000681D01*
X188743102Y-123016026D01*
X188910466Y-123012668D01*
X188977298Y-122987582D01*
X188981606Y-122957796D01*
X189005911Y-122833137D01*
X189026203Y-122728291D01*
X189062844Y-122523470D01*
X189106102Y-122271811D01*
X189148393Y-122050408D01*
X189216087Y-121759820D01*
X189281809Y-121535071D01*
X189348950Y-121374872D01*
X189440608Y-121274728D01*
X189579702Y-121243314D01*
X189734014Y-121234294D01*
X189864741Y-121225773D01*
X189878180Y-121223085D01*
X189973172Y-121142071D01*
X190065744Y-120992273D01*
X190126044Y-120831950D01*
X190124223Y-120719360D01*
X190033733Y-120675798D01*
X189872686Y-120674639D01*
X189719036Y-120678966D01*
X189631274Y-120646301D01*
X189588894Y-120614260D01*
X189457997Y-120587834D01*
X189377201Y-120580320D01*
X189199017Y-120526902D01*
X189164191Y-120510589D01*
X189003838Y-120446373D01*
X188801087Y-120374237D01*
X188599368Y-120308534D01*
X188442107Y-120263616D01*
X188372734Y-120253835D01*
X188371598Y-120255497D01*
X188345950Y-120338154D01*
X188308635Y-120497130D01*
X188305476Y-120512064D01*
X188290119Y-120658880D01*
X188345850Y-120745450D01*
X188503770Y-120823843D01*
X188511927Y-120827271D01*
X188719370Y-120940286D01*
X188820303Y-121077119D01*
X188825225Y-121269365D01*
X188744637Y-121548619D01*
X188692176Y-121714599D01*
X188646076Y-121927865D01*
X188642722Y-122066248D01*
X188651500Y-122140883D01*
X188616615Y-122163790D01*
X188561025Y-122194097D01*
X188513054Y-122321566D01*
X188442158Y-122582009D01*
X188344252Y-122766604D01*
X188217742Y-122848856D01*
X188137982Y-122854521D01*
X188080021Y-122805969D01*
X188067934Y-122522984D01*
X188044674Y-122050550D01*
X188019808Y-121620920D01*
X187994923Y-121258456D01*
X187971606Y-120987519D01*
X187951444Y-120832472D01*
X187918361Y-120617612D01*
X187896452Y-120376395D01*
X187890286Y-120298367D01*
X187849939Y-120171113D01*
X187761571Y-120141501D01*
X187696314Y-120138429D01*
X187638781Y-120097648D01*
X187602571Y-120063896D01*
X187477588Y-120044049D01*
X187438541Y-120048919D01*
X187348572Y-120093990D01*
X187236947Y-120196682D01*
X187093668Y-120369604D01*
X186908736Y-120625364D01*
X186672154Y-120976571D01*
X186373923Y-121435833D01*
X186360393Y-121456872D01*
X186158622Y-121760838D01*
X186007551Y-121960363D01*
X185889798Y-122072195D01*
X185787980Y-122113076D01*
X185684714Y-122099753D01*
X185684591Y-122099714D01*
X185593376Y-122009248D01*
X185590676Y-121853184D01*
X185677259Y-121675403D01*
X185679151Y-121672705D01*
X185722869Y-121566004D01*
X185784482Y-121366135D01*
X185851286Y-121114077D01*
X185858278Y-121085769D01*
X185942271Y-120767366D01*
X186014732Y-120561084D01*
X186090498Y-120443160D01*
X186184405Y-120389832D01*
X186311290Y-120377336D01*
X186359588Y-120373429D01*
X186538486Y-120309783D01*
X186706729Y-120193678D01*
X186823805Y-120058292D01*
X186849196Y-119936807D01*
X186828030Y-119908865D01*
X186703016Y-119836775D01*
X186510726Y-119771695D01*
X186354560Y-119728367D01*
X186067100Y-119639735D01*
X185781820Y-119543657D01*
X185582077Y-119480521D01*
X185324759Y-119418863D01*
X185132787Y-119395016D01*
X184994223Y-119403711D01*
X184918061Y-119459045D01*
X184902317Y-119599774D01*
X184665974Y-119599774D01*
X184628703Y-119455662D01*
X184690923Y-119353092D01*
X184864772Y-119294858D01*
X184975818Y-119270799D01*
X185117401Y-119205648D01*
X185143268Y-119095776D01*
X185070170Y-118909780D01*
X185027484Y-118806606D01*
X185020417Y-118627454D01*
X185134276Y-118519186D01*
X185368322Y-118482861D01*
X185375406Y-118482857D01*
X185529843Y-118472811D01*
X185579151Y-118420048D01*
X185557273Y-118289905D01*
X185550556Y-118263436D01*
X185502944Y-118026565D01*
X185519006Y-117889288D01*
X185613353Y-117821859D01*
X185800597Y-117794532D01*
X186102469Y-117772777D01*
X186055752Y-117461244D01*
X186009035Y-117149712D01*
X186648392Y-117149712D01*
X186669967Y-116851508D01*
X186691543Y-116553303D01*
X187029339Y-116577083D01*
X187194750Y-116583373D01*
X187323517Y-116563859D01*
X187354313Y-116506918D01*
X187347905Y-116393328D01*
X187349804Y-116212207D01*
X187351003Y-116185861D01*
X187371065Y-116069809D01*
X187442771Y-116035764D01*
X187608681Y-116058448D01*
X187630842Y-116062679D01*
X187824544Y-116105181D01*
X187957597Y-116143196D01*
X187991689Y-116148346D01*
X188055460Y-116082653D01*
X188101914Y-115893502D01*
X188141721Y-115733517D01*
X188233599Y-115619410D01*
X188387849Y-115614924D01*
X188624586Y-115713116D01*
X188717718Y-115757568D01*
X188812235Y-115769789D01*
X188849383Y-115685845D01*
X188850574Y-115484031D01*
X188854893Y-115451512D01*
X188909686Y-115435547D01*
X188951348Y-115424035D01*
X188983532Y-115322316D01*
X188980892Y-115169489D01*
X189010470Y-115168583D01*
X189128089Y-115224920D01*
X189305870Y-115331169D01*
X189638505Y-115543513D01*
X189743753Y-115294484D01*
X189802879Y-115175256D01*
X189916289Y-115064591D01*
X190056420Y-115082993D01*
X190242934Y-115227838D01*
X190434047Y-115410936D01*
X190597602Y-115158541D01*
X190640787Y-115095099D01*
X190751272Y-114959657D01*
X190826212Y-114905277D01*
X190848670Y-114912284D01*
X190952854Y-114992084D01*
X191088063Y-115132447D01*
X191284858Y-115360486D01*
X191479085Y-115131814D01*
X191528819Y-115075856D01*
X191658884Y-114952629D01*
X191745062Y-114903776D01*
X191762191Y-114908923D01*
X191848641Y-114993879D01*
X191949067Y-115149988D01*
X191977662Y-115201348D01*
X192066672Y-115339508D01*
X192122896Y-115394356D01*
X192127449Y-115393499D01*
X192207253Y-115336807D01*
X192329709Y-115218942D01*
X192410598Y-115140560D01*
X192561192Y-115057004D01*
X192684200Y-115105861D01*
X192800666Y-115290320D01*
X192860494Y-115409777D01*
X192945289Y-115513487D01*
X193046878Y-115503380D01*
X193208169Y-115389946D01*
X193280580Y-115337086D01*
X193434670Y-115275855D01*
X193546255Y-115339566D01*
X193637952Y-115535900D01*
X193646907Y-115561132D01*
X193727641Y-115721700D01*
X193810426Y-115803888D01*
X193853168Y-115809797D01*
X193854572Y-115756304D01*
X193841586Y-115715728D01*
X193907873Y-115716901D01*
X193960343Y-115726415D01*
X194055990Y-115681015D01*
X194067531Y-115665680D01*
X194183135Y-115611793D01*
X194322958Y-115622065D01*
X194411161Y-115693773D01*
X194437126Y-115786283D01*
X194471183Y-115956894D01*
X194504955Y-116070146D01*
X194559706Y-116120937D01*
X194640230Y-116105766D01*
X194889694Y-116060286D01*
X195038510Y-116043853D01*
X195116931Y-116060975D01*
X195155206Y-116116162D01*
X195183587Y-116213921D01*
X195222380Y-116374806D01*
X195245348Y-116518220D01*
X195283725Y-116586447D01*
X195427179Y-116595282D01*
X195523254Y-116580153D01*
X195727157Y-116558475D01*
X195831976Y-116584995D01*
X195866866Y-116676933D01*
X195860980Y-116851508D01*
X195838703Y-117149712D01*
X196141643Y-117150786D01*
X196340712Y-117163123D01*
X196512801Y-117201978D01*
X196593088Y-117257736D01*
X196557322Y-117320497D01*
X196503703Y-117411064D01*
X196479665Y-117574847D01*
X196480335Y-117626612D01*
X196502479Y-117731300D01*
X196585624Y-117773429D01*
X196769367Y-117781204D01*
X197059070Y-117781204D01*
X197012531Y-118132032D01*
X197008540Y-118162735D01*
X196991838Y-118362451D01*
X197011708Y-118461282D01*
X197073657Y-118491632D01*
X197120839Y-118496403D01*
X197251488Y-118517944D01*
X197291385Y-118526105D01*
X197435082Y-118544256D01*
X197440845Y-118544775D01*
X197514770Y-118591721D01*
X197505248Y-118728441D01*
X197472083Y-118862720D01*
X197419593Y-119074719D01*
X197406738Y-119186274D01*
X197465105Y-119250555D01*
X197630090Y-119293025D01*
X197747278Y-119324746D01*
X197865937Y-119418955D01*
X197874590Y-119576592D01*
X197778192Y-119815120D01*
X197751922Y-119866502D01*
X197712762Y-119977961D01*
X197760765Y-120042294D01*
X197918523Y-120106394D01*
X197984529Y-120133133D01*
X198133048Y-120245794D01*
X198145493Y-120389831D01*
X198023311Y-120571669D01*
X197940661Y-120667167D01*
X197896600Y-120772650D01*
X197933699Y-120831950D01*
X197956273Y-120868034D01*
X198129428Y-120991932D01*
X198259069Y-121081986D01*
X198355412Y-121190184D01*
X198333559Y-121291282D01*
X198198726Y-121417287D01*
X198108392Y-121494872D01*
X198036322Y-121610257D01*
X198080717Y-121725347D01*
X198244989Y-121873803D01*
X198466666Y-122047292D01*
X198266144Y-122233130D01*
X198233327Y-122264642D01*
X198109067Y-122407597D01*
X198051619Y-122514370D01*
X198053016Y-122538577D01*
X198109675Y-122645607D01*
X198167801Y-122710833D01*
X198213831Y-122762485D01*
X198323373Y-122847231D01*
G37*
G36*
X150904587Y-85839931D02*
G01*
X150926642Y-85885230D01*
X150839244Y-85963170D01*
X150633070Y-86072352D01*
X150298800Y-86211375D01*
X149954462Y-86352575D01*
X149453994Y-86579040D01*
X148892331Y-86851193D01*
X148301090Y-87153217D01*
X147711887Y-87469292D01*
X147156339Y-87783600D01*
X147001304Y-87872443D01*
X146704346Y-88028314D01*
X146512634Y-88103069D01*
X146421176Y-88098848D01*
X146392054Y-87997389D01*
X146471475Y-87843985D01*
X146653842Y-87655553D01*
X146924822Y-87441045D01*
X147270083Y-87209414D01*
X147675291Y-86969612D01*
X148126114Y-86730591D01*
X148608220Y-86501303D01*
X149107275Y-86290702D01*
X149608947Y-86107739D01*
X149908280Y-86013164D01*
X150274926Y-85913891D01*
X150569407Y-85852861D01*
X150782401Y-85828674D01*
X150904587Y-85839931D01*
G37*
G36*
X153064027Y-90026655D02*
G01*
X153092964Y-90132032D01*
X153025901Y-90293967D01*
X152866820Y-90491679D01*
X152714291Y-90640898D01*
X152578762Y-90745080D01*
X152506858Y-90748209D01*
X152485742Y-90655812D01*
X152519137Y-90540803D01*
X152614560Y-90368949D01*
X152741030Y-90192073D01*
X152867160Y-90053628D01*
X152961563Y-89997067D01*
X153064027Y-90026655D01*
G37*
G36*
X195076350Y-122166563D02*
G01*
X195041267Y-122201646D01*
X195006184Y-122166563D01*
X195041267Y-122131480D01*
X195076350Y-122166563D01*
G37*
G36*
X143775707Y-82829180D02*
G01*
X143874830Y-82982135D01*
X143875159Y-83168699D01*
X143755996Y-83335163D01*
X143527343Y-83456266D01*
X143306453Y-83562291D01*
X143164800Y-83719388D01*
X143140221Y-83764525D01*
X143009215Y-83873739D01*
X142858471Y-83872027D01*
X142735172Y-83755430D01*
X142684865Y-83653134D01*
X142680788Y-83570545D01*
X142759271Y-83498680D01*
X142941755Y-83400726D01*
X143002381Y-83366581D01*
X143195281Y-83217918D01*
X143323040Y-83060902D01*
X143388272Y-82943706D01*
X143519142Y-82781140D01*
X143643469Y-82745431D01*
X143775707Y-82829180D01*
G37*
G36*
X193041543Y-114939491D02*
G01*
X193006460Y-114974574D01*
X192971377Y-114939491D01*
X193006460Y-114904408D01*
X193041543Y-114939491D01*
G37*
G36*
X194725521Y-128621811D02*
G01*
X194690438Y-128656894D01*
X194655355Y-128621811D01*
X194690438Y-128586729D01*
X194725521Y-128621811D01*
G37*
G36*
X138917938Y-78153351D02*
G01*
X139013257Y-78295430D01*
X139057722Y-78391074D01*
X139167057Y-78552852D01*
X139333943Y-78710320D01*
X139591734Y-78898237D01*
X139631221Y-78925477D01*
X139868630Y-79113537D01*
X140000565Y-79290738D01*
X140047283Y-79497696D01*
X140029043Y-79775029D01*
X140009159Y-79910211D01*
X139975494Y-80095122D01*
X139948993Y-80189905D01*
X139893201Y-80222727D01*
X139752481Y-80242530D01*
X139584119Y-80190158D01*
X139385708Y-80024281D01*
X139190234Y-79770722D01*
X139012473Y-79456038D01*
X138867204Y-79106789D01*
X138769206Y-78749534D01*
X138733256Y-78410829D01*
X138754235Y-78244246D01*
X138823501Y-78139626D01*
X138917938Y-78153351D01*
G37*
G36*
X147111646Y-93985275D02*
G01*
X147126953Y-94091385D01*
X147053633Y-94285082D01*
X146889561Y-94571598D01*
X146632612Y-94956165D01*
X146414913Y-95267488D01*
X146177487Y-95604716D01*
X145996128Y-95857035D01*
X145856999Y-96041954D01*
X145746263Y-96176986D01*
X145650084Y-96279644D01*
X145554624Y-96367439D01*
X145446047Y-96457882D01*
X145358039Y-96530795D01*
X145104959Y-96748624D01*
X144872759Y-96957764D01*
X144757375Y-97061336D01*
X144616140Y-97175703D01*
X144539471Y-97220886D01*
X144496921Y-97208696D01*
X144489537Y-97127215D01*
X144560840Y-96996289D01*
X144697344Y-96847786D01*
X144739591Y-96808665D01*
X144859607Y-96676731D01*
X144907842Y-96587646D01*
X144914770Y-96548515D01*
X144979844Y-96430314D01*
X145006712Y-96397200D01*
X145112523Y-96261678D01*
X145268249Y-96059054D01*
X145450771Y-95819325D01*
X145526092Y-95720473D01*
X145810920Y-95354803D01*
X146096801Y-94999018D01*
X146369314Y-94670020D01*
X146614037Y-94384710D01*
X146816550Y-94159991D01*
X146962431Y-94012764D01*
X147037258Y-93959933D01*
X147111646Y-93985275D01*
G37*
G36*
X185719306Y-97952435D02*
G01*
X185767881Y-98122877D01*
X185797590Y-98386799D01*
X185810450Y-98585255D01*
X185805138Y-98771205D01*
X185765507Y-98895281D01*
X185683252Y-99002167D01*
X185668354Y-99018396D01*
X185571539Y-99183659D01*
X185571679Y-99188899D01*
X185576927Y-99385331D01*
X185589908Y-99472996D01*
X185561798Y-99658604D01*
X185427968Y-99777456D01*
X185172867Y-99847334D01*
X185118014Y-99856386D01*
X184859397Y-99916327D01*
X184708891Y-100003422D01*
X184638856Y-100143494D01*
X184621654Y-100362370D01*
X184622722Y-100436964D01*
X184648466Y-100627319D01*
X184658952Y-100648044D01*
X184728778Y-100786055D01*
X184890318Y-100973852D01*
X185057364Y-101190810D01*
X185251292Y-101515182D01*
X185444534Y-101899807D01*
X185617795Y-102306124D01*
X185751779Y-102695568D01*
X185776388Y-102775888D01*
X185857137Y-103007380D01*
X185931059Y-103181698D01*
X185972184Y-103281706D01*
X185974903Y-103417616D01*
X185882541Y-103467392D01*
X185853338Y-103460084D01*
X185725181Y-103368499D01*
X185541909Y-103187871D01*
X185320755Y-102938271D01*
X185078954Y-102639773D01*
X184833740Y-102312448D01*
X184602347Y-101976369D01*
X184574423Y-101933829D01*
X184369526Y-101628739D01*
X184218698Y-101423436D01*
X184105506Y-101299611D01*
X184013518Y-101238956D01*
X183926300Y-101223162D01*
X183918442Y-101223229D01*
X183744750Y-101246179D01*
X183616047Y-101332241D01*
X183482133Y-101514323D01*
X183360312Y-101647693D01*
X183221758Y-101664307D01*
X183027682Y-101649707D01*
X182798959Y-101723074D01*
X182641245Y-101881069D01*
X182621881Y-101913315D01*
X182490939Y-102076169D01*
X182321044Y-102239499D01*
X182090324Y-102431893D01*
X181684949Y-102318150D01*
X181570873Y-102287283D01*
X181216854Y-102214826D01*
X180953672Y-102210923D01*
X180755105Y-102277985D01*
X180594929Y-102418425D01*
X180509082Y-102532692D01*
X180449971Y-102667885D01*
X180425397Y-102848549D01*
X180423884Y-103121875D01*
X180423988Y-103127565D01*
X180422310Y-103398425D01*
X180395406Y-103585230D01*
X180328428Y-103742951D01*
X180206528Y-103926558D01*
X180150405Y-104009789D01*
X180030327Y-104288405D01*
X180039503Y-104555464D01*
X180176922Y-104842249D01*
X180228739Y-104962966D01*
X180230379Y-105106400D01*
X180189101Y-105175945D01*
X180106254Y-105216846D01*
X179950696Y-105230036D01*
X179688934Y-105222710D01*
X179642464Y-105221643D01*
X179393869Y-105265076D01*
X179246296Y-105376581D01*
X179208138Y-105529205D01*
X179287785Y-105695997D01*
X179493628Y-105850004D01*
X179665295Y-105961471D01*
X179804116Y-106155537D01*
X179817901Y-106400043D01*
X179709665Y-106706955D01*
X179669520Y-106798330D01*
X179576339Y-107087949D01*
X179520516Y-107375001D01*
X179497350Y-107531871D01*
X179420905Y-107754640D01*
X179279667Y-107931913D01*
X179125410Y-108136435D01*
X179082706Y-108336898D01*
X179160507Y-108503040D01*
X179189993Y-108543487D01*
X179204530Y-108664045D01*
X179157241Y-108869400D01*
X179151270Y-108889030D01*
X179092101Y-109038544D01*
X179003009Y-109149867D01*
X178850740Y-109253603D01*
X178602041Y-109380353D01*
X178405150Y-109479627D01*
X178228878Y-109590099D01*
X178132799Y-109694339D01*
X178087423Y-109817392D01*
X178083330Y-109835769D01*
X178018998Y-110053641D01*
X177931923Y-110282203D01*
X177886286Y-110395703D01*
X177856738Y-110535505D01*
X177872087Y-110693813D01*
X177932374Y-110927839D01*
X177992660Y-111181188D01*
X178001369Y-111388963D01*
X177936061Y-111502182D01*
X177793166Y-111536452D01*
X177584364Y-111560542D01*
X177201944Y-111703798D01*
X176773863Y-111974407D01*
X176632893Y-112082458D01*
X176490894Y-112213319D01*
X176431600Y-112319041D01*
X176432513Y-112429630D01*
X176438134Y-112502608D01*
X176386448Y-112664120D01*
X176233776Y-112863761D01*
X176224752Y-112873802D01*
X176040305Y-113122303D01*
X175939246Y-113384753D01*
X175897735Y-113722033D01*
X175888117Y-113836506D01*
X175848269Y-113923456D01*
X175743101Y-113966107D01*
X175535334Y-113992253D01*
X175184649Y-114027336D01*
X175111620Y-114373224D01*
X175081126Y-114495788D01*
X175018681Y-114666871D01*
X174960269Y-114745220D01*
X174928052Y-114734913D01*
X174819058Y-114640309D01*
X174663338Y-114467988D01*
X174483155Y-114241459D01*
X174253499Y-113955907D01*
X174068138Y-113780444D01*
X173913134Y-113712944D01*
X173770241Y-113745555D01*
X173621211Y-113870421D01*
X173537115Y-113976359D01*
X173398881Y-114217369D01*
X173295474Y-114476142D01*
X173254803Y-114690231D01*
X173188460Y-114828723D01*
X172986987Y-114968020D01*
X172930916Y-114997922D01*
X172747483Y-115113074D01*
X172629101Y-115213178D01*
X172505393Y-115275311D01*
X172285949Y-115303601D01*
X172014742Y-115298784D01*
X171733858Y-115263947D01*
X171485383Y-115202176D01*
X171311407Y-115116556D01*
X171249935Y-115071371D01*
X171051324Y-114986186D01*
X170861334Y-115022973D01*
X170647625Y-115185071D01*
X170449026Y-115332971D01*
X170204417Y-115395568D01*
X170042251Y-115421727D01*
X169816681Y-115570983D01*
X169630769Y-115705652D01*
X169383456Y-115746397D01*
X169331319Y-115745015D01*
X169177081Y-115720126D01*
X169115024Y-115673893D01*
X169100746Y-115635310D01*
X169012168Y-115512126D01*
X168869444Y-115355808D01*
X168786735Y-115269195D01*
X168669787Y-115128259D01*
X168623864Y-115043738D01*
X168577404Y-114987610D01*
X168443883Y-114932075D01*
X168375256Y-114920445D01*
X168227152Y-114952342D01*
X168057971Y-115084197D01*
X168018223Y-115124404D01*
X167899727Y-115276667D01*
X167852040Y-115394409D01*
X167837922Y-115438777D01*
X167754736Y-115493126D01*
X167576946Y-115541076D01*
X167281839Y-115590435D01*
X167199234Y-115601955D01*
X166938774Y-115631077D01*
X166741892Y-115642256D01*
X166646019Y-115632988D01*
X166589962Y-115569347D01*
X166517390Y-115426701D01*
X166491694Y-115377552D01*
X166361749Y-115225826D01*
X166181079Y-115080108D01*
X166160022Y-115066162D01*
X166043444Y-114992851D01*
X165940712Y-114949827D01*
X165821658Y-114937121D01*
X165656116Y-114954763D01*
X165413917Y-115002781D01*
X165064894Y-115081207D01*
X165020612Y-115094236D01*
X164830967Y-115210947D01*
X164683670Y-115386733D01*
X164624416Y-115570803D01*
X164644633Y-115685781D01*
X164727433Y-115855776D01*
X164784688Y-115960978D01*
X164827499Y-116232485D01*
X164781626Y-116570899D01*
X164648938Y-116950164D01*
X164462962Y-117364572D01*
X164236022Y-117116811D01*
X164161056Y-117040391D01*
X164012129Y-116917529D01*
X163907611Y-116869049D01*
X163818261Y-116900237D01*
X163716821Y-117040037D01*
X163659601Y-117261906D01*
X163659084Y-117532517D01*
X163667323Y-117630663D01*
X163665119Y-117804195D01*
X163638426Y-117888720D01*
X163611498Y-117891397D01*
X163489662Y-117846505D01*
X163321383Y-117747280D01*
X163213637Y-117676826D01*
X163039698Y-117590061D01*
X162911218Y-117586187D01*
X162787392Y-117658414D01*
X162657092Y-117842681D01*
X162641386Y-118096866D01*
X162744918Y-118408551D01*
X162781716Y-118493058D01*
X162861489Y-118746885D01*
X162874407Y-118787990D01*
X162925638Y-119077163D01*
X162955188Y-119433500D01*
X162596874Y-119595438D01*
X162384169Y-119709208D01*
X162227914Y-119866515D01*
X162182784Y-120069612D01*
X162232834Y-120351621D01*
X162246273Y-120401403D01*
X162290510Y-120590089D01*
X162308555Y-120710624D01*
X162304176Y-120742702D01*
X162229022Y-120794438D01*
X162081141Y-120760968D01*
X161887218Y-120646362D01*
X161797524Y-120584125D01*
X161678483Y-120534041D01*
X161534797Y-120534502D01*
X161311192Y-120579047D01*
X161190985Y-120610335D01*
X160876256Y-120714947D01*
X160589886Y-120835623D01*
X160444001Y-120904777D01*
X160271980Y-120979073D01*
X160181551Y-121008187D01*
X160132360Y-120950037D01*
X160038971Y-120788406D01*
X159915178Y-120548252D01*
X159774468Y-120254546D01*
X159664164Y-120017308D01*
X159479591Y-119626621D01*
X159336133Y-119335817D01*
X159223262Y-119125925D01*
X159130450Y-118977970D01*
X159047168Y-118872979D01*
X158962888Y-118791979D01*
X158932941Y-118766289D01*
X158889039Y-118723758D01*
X158849291Y-118670186D01*
X158810434Y-118592934D01*
X158769204Y-118479367D01*
X158722337Y-118316847D01*
X158666568Y-118092738D01*
X158598633Y-117794402D01*
X158515269Y-117409204D01*
X158413212Y-116924507D01*
X158378974Y-116759734D01*
X159229088Y-116759734D01*
X159278860Y-117072989D01*
X159389583Y-117500541D01*
X159450810Y-117785389D01*
X159457005Y-118222716D01*
X159452490Y-118258555D01*
X159440711Y-118466122D01*
X159478579Y-118605815D01*
X159580590Y-118738085D01*
X159751090Y-118890948D01*
X159937368Y-119015771D01*
X160044887Y-119070860D01*
X160152831Y-119103695D01*
X160246674Y-119066223D01*
X160387945Y-118949377D01*
X160579741Y-118784401D01*
X160352407Y-118124930D01*
X160307258Y-117992157D01*
X160192331Y-117640290D01*
X160088594Y-117305163D01*
X160014110Y-117044463D01*
X159968797Y-116898152D01*
X160574434Y-116898152D01*
X160628449Y-117135452D01*
X160740634Y-117448971D01*
X160913731Y-117863130D01*
X161013092Y-118128223D01*
X161087632Y-118398958D01*
X161116129Y-118604181D01*
X161137570Y-118784401D01*
X161139782Y-118802997D01*
X161259194Y-119030957D01*
X161375459Y-119138051D01*
X161460123Y-119184519D01*
X161484992Y-119177704D01*
X161594515Y-119100122D01*
X161727859Y-118972101D01*
X161840510Y-118839177D01*
X161887952Y-118746885D01*
X161879060Y-118683439D01*
X161833461Y-118494634D01*
X161757746Y-118224444D01*
X161661626Y-117904157D01*
X161554814Y-117565060D01*
X161447024Y-117238442D01*
X161347968Y-116955590D01*
X161267359Y-116747791D01*
X161235122Y-116673895D01*
X161101393Y-116416483D01*
X160982790Y-116287200D01*
X160868444Y-116278408D01*
X160747483Y-116382468D01*
X160733984Y-116399326D01*
X160629943Y-116554512D01*
X160575846Y-116712646D01*
X160574434Y-116898152D01*
X159968797Y-116898152D01*
X159924692Y-116755743D01*
X159810834Y-116532684D01*
X159672001Y-116413303D01*
X159492779Y-116377889D01*
X159457129Y-116379115D01*
X159317059Y-116425459D01*
X159241433Y-116548111D01*
X159229088Y-116759734D01*
X158378974Y-116759734D01*
X158289196Y-116327673D01*
X158139958Y-115606066D01*
X158135275Y-115583465D01*
X158060609Y-115237231D01*
X157989626Y-114931501D01*
X157930148Y-114698667D01*
X157889999Y-114571121D01*
X157864822Y-114524089D01*
X157735677Y-114425977D01*
X157578819Y-114443139D01*
X157434788Y-114575212D01*
X157419453Y-114599387D01*
X157376781Y-114694858D01*
X157369864Y-114810246D01*
X157400765Y-114983551D01*
X157471544Y-115252774D01*
X157482937Y-115294600D01*
X157543864Y-115549828D01*
X157578276Y-115752075D01*
X157578990Y-115860708D01*
X157570789Y-115945156D01*
X157590507Y-116163944D01*
X157642526Y-116487758D01*
X157723646Y-116899348D01*
X157830668Y-117381464D01*
X157960391Y-117916856D01*
X158073424Y-118424922D01*
X158138887Y-118906823D01*
X158134551Y-119288205D01*
X158060139Y-119580595D01*
X157996094Y-119675679D01*
X157915375Y-119795519D01*
X157811720Y-119926060D01*
X157756145Y-120081693D01*
X157760998Y-120270683D01*
X157831018Y-120508825D01*
X157970940Y-120811913D01*
X158185504Y-121195741D01*
X158479445Y-121676102D01*
X158598522Y-121870431D01*
X158739123Y-122114563D01*
X158835230Y-122300127D01*
X158870825Y-122397594D01*
X158896460Y-122515641D01*
X159012125Y-122698819D01*
X159179552Y-122844135D01*
X159352730Y-122903303D01*
X159487044Y-122919527D01*
X159653064Y-123019996D01*
X159712814Y-123198269D01*
X159702899Y-123246527D01*
X159606395Y-123334411D01*
X159390263Y-123411105D01*
X159306753Y-123437148D01*
X159073255Y-123542832D01*
X158899637Y-123665451D01*
X158825435Y-123734461D01*
X158720174Y-123788243D01*
X158628407Y-123747916D01*
X158620438Y-123740467D01*
X158539594Y-123615420D01*
X158435176Y-123397139D01*
X158321559Y-123122235D01*
X158213119Y-122827320D01*
X158124231Y-122549006D01*
X158069271Y-122323905D01*
X158022365Y-122174843D01*
X157896877Y-121990825D01*
X157735690Y-121880820D01*
X157573300Y-121875983D01*
X157550794Y-121888070D01*
X157484879Y-122015667D01*
X157480495Y-122250142D01*
X157535393Y-122576796D01*
X157647320Y-122980929D01*
X157814026Y-123447840D01*
X157871293Y-123600350D01*
X157943509Y-123844081D01*
X157947486Y-123982308D01*
X157884559Y-124025955D01*
X157836186Y-123995741D01*
X157745817Y-123859737D01*
X157645323Y-123644783D01*
X157549821Y-123384539D01*
X157474425Y-123112665D01*
X157439292Y-122982863D01*
X157341168Y-122701106D01*
X157224705Y-122429684D01*
X157113347Y-122233681D01*
X156959830Y-122081754D01*
X156797673Y-122063125D01*
X156617485Y-122173836D01*
X156604704Y-122185290D01*
X156522892Y-122238490D01*
X156461936Y-122200193D01*
X156385232Y-122051045D01*
X156377956Y-122035315D01*
X156262037Y-121802732D01*
X156135671Y-121571249D01*
X156113136Y-121530577D01*
X156027977Y-121336626D01*
X155992955Y-121185337D01*
X155976123Y-121053462D01*
X155887788Y-120910615D01*
X155740042Y-120879709D01*
X155729489Y-120882039D01*
X155622546Y-120975639D01*
X155590757Y-121184098D01*
X155634135Y-121508624D01*
X155682496Y-121688838D01*
X155752694Y-121950426D01*
X155760260Y-121974599D01*
X155868012Y-122285746D01*
X155965991Y-122474235D01*
X156071807Y-122553935D01*
X156203068Y-122538716D01*
X156377384Y-122442449D01*
X156476786Y-122383020D01*
X156555586Y-122379774D01*
X156620496Y-122472919D01*
X156653584Y-122564523D01*
X156683535Y-122804146D01*
X156680300Y-123111582D01*
X156648814Y-123452148D01*
X156594007Y-123791162D01*
X156520815Y-124093940D01*
X156434168Y-124325798D01*
X156339002Y-124452054D01*
X156313455Y-124464560D01*
X156156056Y-124500897D01*
X155947252Y-124516041D01*
X155946269Y-124516045D01*
X155753583Y-124529241D01*
X155651542Y-124584264D01*
X155591516Y-124707252D01*
X155566491Y-124878059D01*
X155602818Y-125192770D01*
X155719021Y-125612850D01*
X155916078Y-126142616D01*
X155933721Y-126186278D01*
X156055836Y-126509712D01*
X156116082Y-126735277D01*
X156114809Y-126888041D01*
X156052367Y-126993076D01*
X155929107Y-127075454D01*
X155810233Y-127158557D01*
X155702789Y-127314192D01*
X155611401Y-127568416D01*
X155557020Y-127734108D01*
X155487395Y-127893592D01*
X155434884Y-127955237D01*
X155398829Y-127945226D01*
X155306363Y-127850527D01*
X155250110Y-127706973D01*
X155234172Y-127638020D01*
X155186872Y-127454754D01*
X155116543Y-127190548D01*
X155031255Y-126875207D01*
X154939081Y-126538536D01*
X154848090Y-126210342D01*
X154766353Y-125920430D01*
X154698218Y-125682506D01*
X154595802Y-125333055D01*
X154518812Y-125089720D01*
X154459550Y-124933513D01*
X154410314Y-124845446D01*
X154363407Y-124806531D01*
X154311128Y-124797778D01*
X154221659Y-124832575D01*
X154140901Y-124973216D01*
X154136322Y-124997604D01*
X154132161Y-125176931D01*
X154150670Y-125432659D01*
X154185912Y-125715085D01*
X154231947Y-125974505D01*
X154282838Y-126161215D01*
X154256937Y-126253508D01*
X154142095Y-126339017D01*
X153988356Y-126390830D01*
X153846243Y-126383250D01*
X153803824Y-126351658D01*
X153731040Y-126218248D01*
X153658315Y-125976590D01*
X153582742Y-125616077D01*
X153501411Y-125126106D01*
X153477107Y-124970360D01*
X153420985Y-124631440D01*
X153367000Y-124329310D01*
X153324105Y-124115023D01*
X153316533Y-124079929D01*
X153288124Y-123847520D01*
X153319795Y-123725162D01*
X153340491Y-123696537D01*
X153342470Y-123552191D01*
X153243281Y-123355958D01*
X153053181Y-123130708D01*
X152925743Y-123012354D01*
X152855515Y-122979625D01*
X152836571Y-123038157D01*
X152799167Y-123154545D01*
X152689902Y-123294950D01*
X152591466Y-123376852D01*
X152519978Y-123382013D01*
X152436468Y-123288283D01*
X152349346Y-123153865D01*
X152192542Y-122823100D01*
X152028116Y-122374911D01*
X151860520Y-121823224D01*
X151694207Y-121181960D01*
X151533629Y-120465044D01*
X151522843Y-120380281D01*
X151550581Y-120305751D01*
X151624523Y-120331835D01*
X151725275Y-120447186D01*
X151833444Y-120640458D01*
X151934668Y-120835284D01*
X152092035Y-121029239D01*
X152266750Y-121103833D01*
X152477282Y-121071429D01*
X152479757Y-121070559D01*
X152633997Y-120984327D01*
X152711733Y-120880603D01*
X152713366Y-120825943D01*
X152691065Y-120635938D01*
X152641303Y-120351331D01*
X152570128Y-119998449D01*
X152483586Y-119603616D01*
X152387725Y-119193155D01*
X152288590Y-118793392D01*
X152192230Y-118430652D01*
X152104690Y-118131258D01*
X152032019Y-117921535D01*
X152005161Y-117833791D01*
X151960624Y-117567139D01*
X151926762Y-117185012D01*
X151905260Y-116703602D01*
X151886924Y-116050611D01*
X152227128Y-116050611D01*
X152227873Y-116312456D01*
X152301136Y-116683970D01*
X152445909Y-117160225D01*
X152661183Y-117736296D01*
X152661371Y-117736764D01*
X152798644Y-118083330D01*
X152890068Y-118334353D01*
X152942865Y-118524154D01*
X152964258Y-118687055D01*
X152961468Y-118857378D01*
X152941719Y-119069445D01*
X152910956Y-119384397D01*
X152891026Y-119729542D01*
X152902416Y-120003797D01*
X152950528Y-120246502D01*
X153040762Y-120496996D01*
X153178515Y-120794619D01*
X153225368Y-120892053D01*
X153367942Y-121224528D01*
X153444968Y-121488055D01*
X153468063Y-121719748D01*
X153470258Y-121808937D01*
X153494358Y-122050388D01*
X153536492Y-122232161D01*
X153571890Y-122302797D01*
X153702994Y-122397918D01*
X153905877Y-122385329D01*
X154190211Y-122265521D01*
X154369561Y-122144877D01*
X154511539Y-121952979D01*
X154573665Y-121688838D01*
X154567106Y-121324574D01*
X154565827Y-121311166D01*
X154529738Y-121101143D01*
X154464348Y-120840619D01*
X154380279Y-120560683D01*
X154288154Y-120292426D01*
X154198596Y-120066938D01*
X154122226Y-119915311D01*
X154069667Y-119868635D01*
X154068717Y-119869041D01*
X153967110Y-119886176D01*
X153944359Y-119912938D01*
X153919938Y-120043906D01*
X153914486Y-120247271D01*
X153915172Y-120286746D01*
X153896623Y-120518564D01*
X153841743Y-120630474D01*
X153758323Y-120615870D01*
X153654150Y-120468142D01*
X153607269Y-120365248D01*
X153589581Y-120221214D01*
X153647258Y-120041218D01*
X153659905Y-120008760D01*
X153711247Y-119735563D01*
X153709589Y-119675679D01*
X154310052Y-119675679D01*
X154312907Y-119694911D01*
X154384358Y-119745845D01*
X154409737Y-119740335D01*
X154415300Y-119675679D01*
X154400899Y-119654681D01*
X154340993Y-119605513D01*
X154333991Y-119607337D01*
X154310052Y-119675679D01*
X153709589Y-119675679D01*
X153700844Y-119359806D01*
X153691698Y-119240183D01*
X153701139Y-118870558D01*
X153781909Y-118514209D01*
X153822803Y-118378613D01*
X153861497Y-118203878D01*
X153869365Y-118034612D01*
X153847043Y-117823219D01*
X153795167Y-117522103D01*
X153773789Y-117408961D01*
X153720259Y-117151889D01*
X153674062Y-116964299D01*
X153643348Y-116880614D01*
X153575727Y-116859250D01*
X153473717Y-116925814D01*
X153381823Y-117069107D01*
X153327731Y-117256180D01*
X153326543Y-117265187D01*
X153298174Y-117425086D01*
X153261517Y-117466573D01*
X153199276Y-117410414D01*
X153182413Y-117385081D01*
X153113079Y-117231725D01*
X153028490Y-116995030D01*
X152943257Y-116714702D01*
X152916626Y-116620038D01*
X152838122Y-116348687D01*
X152772553Y-116132744D01*
X152731943Y-116012190D01*
X152729973Y-116007455D01*
X152611567Y-115877057D01*
X152444386Y-115841476D01*
X152288138Y-115913931D01*
X152227128Y-116050611D01*
X151886924Y-116050611D01*
X151877957Y-115731248D01*
X152168713Y-115606616D01*
X152241123Y-115574023D01*
X152434605Y-115472328D01*
X152560313Y-115385242D01*
X152684577Y-115283372D01*
X152854112Y-115165002D01*
X152979470Y-115054034D01*
X153047068Y-114867708D01*
X153064311Y-114753908D01*
X153117234Y-114693911D01*
X153134669Y-114696152D01*
X153187400Y-114765156D01*
X153219501Y-114848000D01*
X153311522Y-115013171D01*
X153442462Y-115220554D01*
X153609369Y-115447122D01*
X153772266Y-115596263D01*
X153951164Y-115676316D01*
X154125116Y-115713159D01*
X154242304Y-115683691D01*
X154362847Y-115567635D01*
X154432504Y-115478056D01*
X154489858Y-115322729D01*
X154476670Y-115110793D01*
X154457665Y-114947055D01*
X154478103Y-114856465D01*
X154552958Y-114834242D01*
X154659238Y-114869031D01*
X154790830Y-114979177D01*
X154850723Y-115044756D01*
X154954859Y-115087771D01*
X155112382Y-115046479D01*
X155226746Y-115008747D01*
X155378022Y-115004448D01*
X155479282Y-115101123D01*
X155562557Y-115318099D01*
X155564683Y-115325172D01*
X155632818Y-115506144D01*
X155715169Y-115587315D01*
X155848908Y-115606066D01*
X155889376Y-115604248D01*
X156028446Y-115547290D01*
X156096510Y-115401469D01*
X156096301Y-115154575D01*
X156030551Y-114794400D01*
X155977035Y-114559470D01*
X155938549Y-114382478D01*
X155923864Y-114303645D01*
X155925672Y-114299900D01*
X156005389Y-114280726D01*
X156166739Y-114272916D01*
X156204566Y-114272638D01*
X156346698Y-114252717D01*
X156425082Y-114173188D01*
X156484482Y-113994882D01*
X156501014Y-113930879D01*
X156525892Y-113796237D01*
X156528269Y-113657346D01*
X156504606Y-113481401D01*
X156451365Y-113235601D01*
X156365008Y-112887143D01*
X156359013Y-112863554D01*
X156295461Y-112635467D01*
X156238087Y-112510968D01*
X156164868Y-112459025D01*
X156053781Y-112448607D01*
X155998443Y-112449524D01*
X155900620Y-112473542D01*
X155861076Y-112559798D01*
X155853698Y-112747275D01*
X155853051Y-112792105D01*
X155831936Y-113047886D01*
X155790275Y-113267083D01*
X155762720Y-113448946D01*
X155825358Y-113678094D01*
X155869842Y-113765599D01*
X155914186Y-113883581D01*
X155874871Y-113916931D01*
X155741738Y-113891590D01*
X155709775Y-113884479D01*
X155517294Y-113898949D01*
X155401334Y-114030777D01*
X155362538Y-114279306D01*
X155357561Y-114409738D01*
X155328643Y-114526531D01*
X155277830Y-114524952D01*
X155209600Y-114416868D01*
X155128436Y-114214145D01*
X155038817Y-113928649D01*
X154945223Y-113572247D01*
X154852135Y-113156804D01*
X154764034Y-112694187D01*
X154749023Y-112609724D01*
X154682574Y-112262088D01*
X154612655Y-111928887D01*
X154552136Y-111672181D01*
X154525137Y-111565155D01*
X156990568Y-111565155D01*
X156999244Y-111606257D01*
X157077193Y-111713260D01*
X157196980Y-111726460D01*
X157324618Y-111660915D01*
X157426123Y-111531683D01*
X157467510Y-111353824D01*
X157441559Y-111234646D01*
X157351333Y-111136638D01*
X157238446Y-111146559D01*
X157110471Y-111247697D01*
X157015625Y-111401744D01*
X156990568Y-111565155D01*
X154525137Y-111565155D01*
X154512694Y-111515831D01*
X154464735Y-111274472D01*
X154465604Y-111123259D01*
X154518387Y-111033121D01*
X154626172Y-110974984D01*
X154641165Y-110968623D01*
X154791006Y-110850653D01*
X154913523Y-110674202D01*
X154915848Y-110669316D01*
X154963918Y-110552818D01*
X154985362Y-110437186D01*
X154978781Y-110288059D01*
X154942774Y-110071074D01*
X154875941Y-109751870D01*
X154795812Y-109394839D01*
X154722955Y-109120508D01*
X154654263Y-108945410D01*
X154582032Y-108853595D01*
X155152040Y-108853595D01*
X155155227Y-108916840D01*
X155182407Y-109133441D01*
X155231333Y-109426225D01*
X155294686Y-109759401D01*
X155365147Y-110097176D01*
X155435398Y-110403757D01*
X155498118Y-110643354D01*
X155545990Y-110780173D01*
X155546208Y-110780594D01*
X155653099Y-110917997D01*
X155768510Y-110975126D01*
X155892325Y-110939167D01*
X156076135Y-110803718D01*
X156259680Y-110602079D01*
X156415031Y-110371172D01*
X156514258Y-110147917D01*
X156529432Y-109969236D01*
X156455691Y-109789894D01*
X156292454Y-109521423D01*
X156065224Y-109214993D01*
X155794965Y-108901090D01*
X155636117Y-108735930D01*
X155516968Y-108640271D01*
X155423372Y-108617532D01*
X155321346Y-108649673D01*
X155209954Y-108731931D01*
X155152040Y-108853595D01*
X154582032Y-108853595D01*
X154578682Y-108849337D01*
X154485159Y-108812081D01*
X154362639Y-108813432D01*
X154244064Y-108844909D01*
X154111228Y-108979676D01*
X154054949Y-109222812D01*
X154072943Y-109580362D01*
X154075863Y-109603457D01*
X154089143Y-109829619D01*
X154062871Y-109927268D01*
X154004827Y-109899533D01*
X153922796Y-109749547D01*
X153824559Y-109480439D01*
X153818660Y-109461915D01*
X153725821Y-109192385D01*
X153634446Y-108960860D01*
X153563516Y-108815677D01*
X153509990Y-108689638D01*
X153508062Y-108412547D01*
X153518624Y-108221213D01*
X153434830Y-107871998D01*
X153315936Y-107574852D01*
X153540264Y-107374414D01*
X153598794Y-107324090D01*
X153737062Y-107237822D01*
X153831109Y-107258017D01*
X153896972Y-107395946D01*
X153950687Y-107662881D01*
X154024348Y-107970230D01*
X154136149Y-108170826D01*
X154280259Y-108238662D01*
X154308819Y-108237845D01*
X154555516Y-108155749D01*
X154769742Y-107945125D01*
X154945117Y-107614530D01*
X155075261Y-107172519D01*
X155102351Y-107038293D01*
X155119055Y-106903666D01*
X155822878Y-106903666D01*
X155872627Y-107042004D01*
X155995331Y-107197654D01*
X156169601Y-107331835D01*
X156228009Y-107363648D01*
X156520063Y-107482336D01*
X156732509Y-107490504D01*
X156862249Y-107388798D01*
X156906184Y-107177866D01*
X156891657Y-107089770D01*
X156777028Y-106919937D01*
X156581184Y-106788670D01*
X156343831Y-106711614D01*
X156104675Y-106704416D01*
X155903422Y-106782723D01*
X155864518Y-106814808D01*
X155822878Y-106903666D01*
X155119055Y-106903666D01*
X155126055Y-106847254D01*
X155107168Y-106715775D01*
X155042885Y-106593652D01*
X155041765Y-106591946D01*
X154949468Y-106466460D01*
X154891459Y-106414353D01*
X154878486Y-106419936D01*
X154791161Y-106493394D01*
X154660880Y-106624850D01*
X154549640Y-106722236D01*
X154383914Y-106812277D01*
X154235991Y-106844377D01*
X154139559Y-106812986D01*
X154128307Y-106712557D01*
X154142462Y-106640228D01*
X154093284Y-106489168D01*
X153915868Y-106357183D01*
X153799637Y-106240103D01*
X153723491Y-106060140D01*
X153647765Y-105880260D01*
X153471179Y-105762560D01*
X153455597Y-105756367D01*
X153256745Y-105602972D01*
X153145087Y-105362100D01*
X153136632Y-105092826D01*
X154671602Y-105092826D01*
X154698743Y-105248174D01*
X154846003Y-105396859D01*
X154861789Y-105406745D01*
X155068600Y-105497381D01*
X155302081Y-105554499D01*
X155472284Y-105568881D01*
X155554164Y-105540493D01*
X155573035Y-105453502D01*
X155572300Y-105438305D01*
X155499955Y-105275374D01*
X155331700Y-105100302D01*
X155099416Y-104947172D01*
X154974639Y-104904010D01*
X154801212Y-104940872D01*
X154767578Y-104961311D01*
X154671602Y-105092826D01*
X153136632Y-105092826D01*
X153135766Y-105065237D01*
X153185834Y-104834003D01*
X153323464Y-104448938D01*
X153509458Y-104090087D01*
X153717304Y-103814470D01*
X153746809Y-103783946D01*
X153886514Y-103615961D01*
X153944762Y-103468581D01*
X153946493Y-103284092D01*
X153943189Y-103250292D01*
X153885556Y-103055860D01*
X153771237Y-102988875D01*
X153599400Y-103049270D01*
X153369217Y-103236976D01*
X153292586Y-103315587D01*
X153008895Y-103710140D01*
X152823433Y-104155735D01*
X152747003Y-104618274D01*
X152790409Y-105063662D01*
X152802451Y-105119466D01*
X152800523Y-105261310D01*
X152740266Y-105294818D01*
X152643944Y-105221719D01*
X152533821Y-105043740D01*
X152485666Y-104934998D01*
X152432227Y-104748720D01*
X152429552Y-104553957D01*
X152479529Y-104310709D01*
X152584045Y-103978974D01*
X152647962Y-103798077D01*
X152798836Y-103438590D01*
X152963617Y-103154437D01*
X153166590Y-102900667D01*
X153203789Y-102859130D01*
X153282959Y-102745666D01*
X153286579Y-102635045D01*
X153223034Y-102462132D01*
X153211147Y-102434921D01*
X153104894Y-102267652D01*
X152995888Y-102204408D01*
X152934711Y-102229615D01*
X152785572Y-102337979D01*
X152585456Y-102512154D01*
X152360319Y-102730651D01*
X152195823Y-102895578D01*
X152001488Y-103082275D01*
X151858588Y-103209731D01*
X151789941Y-103256894D01*
X151719254Y-103219198D01*
X151605831Y-103113426D01*
X151585033Y-103089809D01*
X151520925Y-102985874D01*
X151514385Y-102859756D01*
X151559874Y-102656342D01*
X151580425Y-102574574D01*
X151625696Y-102348641D01*
X151643753Y-102181446D01*
X151646927Y-102150196D01*
X151716834Y-101988419D01*
X151849577Y-101822974D01*
X151937346Y-101745402D01*
X152098289Y-101660589D01*
X152283653Y-101659283D01*
X152393003Y-101665819D01*
X152499101Y-101638421D01*
X152624218Y-101559936D01*
X152794561Y-101413795D01*
X153036337Y-101183431D01*
X153162812Y-101060274D01*
X153352294Y-100869861D01*
X153463069Y-100739780D01*
X153510192Y-100645264D01*
X153508714Y-100561544D01*
X153473691Y-100463853D01*
X153422872Y-100356272D01*
X153261407Y-100133611D01*
X153077143Y-100008435D01*
X152895165Y-100000819D01*
X152776044Y-100037673D01*
X152637461Y-100072303D01*
X152557120Y-100104168D01*
X152421439Y-100199379D01*
X152418414Y-100202054D01*
X152261746Y-100278807D01*
X152059223Y-100311493D01*
X151840785Y-100352027D01*
X151643753Y-100450265D01*
X151512573Y-100544754D01*
X151415534Y-100571711D01*
X151372703Y-100485437D01*
X151363090Y-100272648D01*
X151358321Y-100149806D01*
X151307867Y-99967018D01*
X151188673Y-99894389D01*
X150983885Y-99916069D01*
X150881712Y-99960800D01*
X150669893Y-100113425D01*
X150412167Y-100347416D01*
X150127601Y-100640846D01*
X149835266Y-100971787D01*
X149554232Y-101318314D01*
X149303566Y-101658500D01*
X149102338Y-101970419D01*
X148969618Y-102232144D01*
X148882341Y-102410542D01*
X148791563Y-102524428D01*
X148723561Y-102539740D01*
X148696792Y-102442262D01*
X148697041Y-102432931D01*
X148740539Y-102259737D01*
X148845170Y-102011941D01*
X148991256Y-101725743D01*
X149159118Y-101437343D01*
X149329080Y-101182943D01*
X149481463Y-100998742D01*
X149573413Y-100897924D01*
X149759281Y-100647098D01*
X149893898Y-100405177D01*
X149940192Y-100307167D01*
X150095024Y-100038476D01*
X150266886Y-99795591D01*
X150352081Y-99684349D01*
X150480850Y-99489972D01*
X150552353Y-99345154D01*
X150564424Y-99320165D01*
X153091269Y-99320165D01*
X153161589Y-99459889D01*
X153240979Y-99542720D01*
X153420681Y-99596681D01*
X153636302Y-99531906D01*
X153876486Y-99355485D01*
X154129875Y-99074509D01*
X154385112Y-98696067D01*
X154524415Y-98451761D01*
X154602589Y-98280096D01*
X154622093Y-98163121D01*
X154593334Y-98069524D01*
X154592610Y-98068174D01*
X154506982Y-97949437D01*
X154410976Y-97917730D01*
X154288836Y-97981196D01*
X154124803Y-98147976D01*
X153903122Y-98426215D01*
X153731864Y-98633392D01*
X153529828Y-98844103D01*
X153360614Y-98987541D01*
X153244124Y-99071476D01*
X153114329Y-99201259D01*
X153091269Y-99320165D01*
X150564424Y-99320165D01*
X150600791Y-99244883D01*
X150683702Y-99179281D01*
X150832389Y-99163532D01*
X151062459Y-99122453D01*
X151232750Y-99048544D01*
X151373243Y-98918315D01*
X151513918Y-98708275D01*
X151684755Y-98394936D01*
X151848167Y-98098514D01*
X152019484Y-97838927D01*
X152171937Y-97682890D01*
X152321653Y-97614757D01*
X152484764Y-97618881D01*
X152564865Y-97629735D01*
X152654788Y-97617119D01*
X152757515Y-97562333D01*
X152893883Y-97450363D01*
X153084727Y-97266198D01*
X153350881Y-96994825D01*
X153644015Y-96687525D01*
X153877207Y-96425446D01*
X154026041Y-96228245D01*
X154100504Y-96080202D01*
X154110580Y-95965598D01*
X154066255Y-95868714D01*
X153967137Y-95782711D01*
X153823142Y-95752829D01*
X153713643Y-95819325D01*
X153708872Y-95826687D01*
X153603962Y-95890088D01*
X153485379Y-95841073D01*
X153392994Y-95695089D01*
X153311664Y-95543842D01*
X153179425Y-95409634D01*
X153149059Y-95391420D01*
X153027982Y-95357044D01*
X152912032Y-95428622D01*
X152813654Y-95492679D01*
X152643776Y-95538662D01*
X152635285Y-95538851D01*
X152469279Y-95577025D01*
X152278670Y-95661452D01*
X152235954Y-95685330D01*
X152105398Y-95744092D01*
X152021607Y-95721599D01*
X151923716Y-95608828D01*
X151863589Y-95520614D01*
X151798707Y-95339771D01*
X151799399Y-95112178D01*
X151847759Y-94871677D01*
X154310052Y-94871677D01*
X154335864Y-94946240D01*
X154432842Y-95066161D01*
X154517222Y-95128471D01*
X154603037Y-95121789D01*
X154731046Y-95023577D01*
X154763855Y-94992132D01*
X154902072Y-94832772D01*
X155076193Y-94606109D01*
X155256391Y-94350366D01*
X155314333Y-94266811D01*
X155505886Y-94018962D01*
X155690566Y-93815944D01*
X155835258Y-93695236D01*
X155986304Y-93586502D01*
X156059999Y-93471983D01*
X156008256Y-93392978D01*
X155831245Y-93363524D01*
X155763012Y-93367777D01*
X155547449Y-93441052D01*
X155299926Y-93618917D01*
X155229503Y-93682780D01*
X155042384Y-93875317D01*
X154838792Y-94108096D01*
X154641245Y-94352619D01*
X154472260Y-94580389D01*
X154354357Y-94762908D01*
X154310052Y-94871677D01*
X151847759Y-94871677D01*
X151862641Y-94797668D01*
X151885319Y-94692046D01*
X151888023Y-94456785D01*
X151795299Y-94319969D01*
X151604220Y-94275679D01*
X151545453Y-94273131D01*
X151422270Y-94224611D01*
X151397908Y-94100909D01*
X151466107Y-93884287D01*
X151555359Y-93613101D01*
X151557066Y-93417427D01*
X151461678Y-93316176D01*
X151359438Y-93334324D01*
X151216956Y-93433871D01*
X151081186Y-93579441D01*
X150994189Y-93733489D01*
X150989081Y-93747308D01*
X150934068Y-93797347D01*
X150875274Y-93749099D01*
X150835692Y-93637423D01*
X150838314Y-93497176D01*
X150845748Y-93456476D01*
X150836164Y-93323212D01*
X150773185Y-93293950D01*
X150682461Y-93386846D01*
X150616069Y-93450691D01*
X150454033Y-93562130D01*
X150241061Y-93685051D01*
X150135366Y-93745249D01*
X149896835Y-93921128D01*
X149759929Y-94090409D01*
X149706838Y-94228443D01*
X149720278Y-94346384D01*
X149817612Y-94498705D01*
X149875331Y-94579149D01*
X149930764Y-94693113D01*
X149922332Y-94812706D01*
X149854597Y-94999720D01*
X149729628Y-95256679D01*
X149511111Y-95517521D01*
X149248073Y-95646117D01*
X149171373Y-95678132D01*
X148982978Y-95806710D01*
X148737196Y-96012086D01*
X148454104Y-96274613D01*
X148153780Y-96574645D01*
X147856301Y-96892535D01*
X147581743Y-97208637D01*
X147350183Y-97503303D01*
X147289175Y-97586121D01*
X147079583Y-97865808D01*
X146879611Y-98126423D01*
X146725478Y-98320582D01*
X146641948Y-98428380D01*
X146455030Y-98699901D01*
X146295071Y-98967043D01*
X146139464Y-99209958D01*
X145966755Y-99400099D01*
X145806681Y-99505485D01*
X145683093Y-99505146D01*
X145678128Y-99430705D01*
X145734108Y-99268149D01*
X145836110Y-99048418D01*
X145967948Y-98801744D01*
X146113434Y-98558363D01*
X146256380Y-98348507D01*
X146380599Y-98202409D01*
X146386873Y-98196271D01*
X146507181Y-98035579D01*
X146642364Y-97794628D01*
X146764337Y-97523138D01*
X146943278Y-97122637D01*
X147155534Y-96786850D01*
X147374710Y-96587066D01*
X147602733Y-96520983D01*
X147625727Y-96520495D01*
X147795393Y-96480310D01*
X147964994Y-96363509D01*
X148153822Y-96153007D01*
X148381172Y-95831720D01*
X148451252Y-95736914D01*
X148631837Y-95542455D01*
X148836081Y-95365782D01*
X149026767Y-95237406D01*
X149166675Y-95187834D01*
X149189632Y-95185384D01*
X149272869Y-95104741D01*
X149295209Y-94934827D01*
X149250727Y-94709363D01*
X149217591Y-94597120D01*
X149208631Y-94466798D01*
X149266362Y-94385383D01*
X149347467Y-94301683D01*
X149484846Y-94096486D01*
X149658062Y-93775024D01*
X149772451Y-93629657D01*
X149950952Y-93507510D01*
X150125433Y-93400323D01*
X150292024Y-93228021D01*
X150427374Y-93021360D01*
X150523143Y-92805130D01*
X150527560Y-92786574D01*
X153011261Y-92786574D01*
X153045117Y-93112033D01*
X153051116Y-93129601D01*
X153136873Y-93315507D01*
X153230921Y-93440693D01*
X153276936Y-93494513D01*
X153309092Y-93630273D01*
X153291994Y-93859440D01*
X153279123Y-94126945D01*
X153339106Y-94337985D01*
X153429073Y-94430814D01*
X153575795Y-94486176D01*
X153602742Y-94483092D01*
X153763085Y-94403880D01*
X153983521Y-94229453D01*
X154247284Y-93975658D01*
X154537608Y-93658344D01*
X154837726Y-93293358D01*
X154908139Y-93203990D01*
X155134051Y-92925834D01*
X155353251Y-92666657D01*
X155526734Y-92472906D01*
X155546058Y-92452456D01*
X155691592Y-92291946D01*
X155754553Y-92189034D01*
X155748231Y-92103992D01*
X155685916Y-91997094D01*
X155566925Y-91815490D01*
X155251255Y-92074157D01*
X155126847Y-92182542D01*
X154927849Y-92379852D01*
X154785995Y-92549970D01*
X154706558Y-92661390D01*
X154528274Y-92892902D01*
X154339514Y-93119820D01*
X154163948Y-93315229D01*
X154025249Y-93452213D01*
X153947087Y-93503856D01*
X153938494Y-93503061D01*
X153827041Y-93456040D01*
X153671850Y-93358746D01*
X153627337Y-93324186D01*
X153481187Y-93120582D01*
X153463083Y-92870964D01*
X153571243Y-92580664D01*
X153803888Y-92255011D01*
X154159237Y-91899337D01*
X154330348Y-91743549D01*
X154537129Y-91531670D01*
X154639031Y-91380602D01*
X154642874Y-91278545D01*
X154555475Y-91213700D01*
X154434802Y-91191220D01*
X154213058Y-91247111D01*
X153948601Y-91420290D01*
X153632702Y-91715501D01*
X153352263Y-92040326D01*
X153113715Y-92429168D01*
X153011261Y-92786574D01*
X150527560Y-92786574D01*
X150570989Y-92604125D01*
X150562574Y-92443136D01*
X150489555Y-92346956D01*
X150343593Y-92340377D01*
X150304395Y-92348403D01*
X150103953Y-92336007D01*
X149950694Y-92247583D01*
X149889610Y-92106327D01*
X149891321Y-92082705D01*
X149954327Y-91934913D01*
X150088074Y-91769583D01*
X150265119Y-91607015D01*
X150458018Y-91467510D01*
X150639327Y-91371371D01*
X150781605Y-91338898D01*
X150857406Y-91390394D01*
X150862203Y-91402405D01*
X150935069Y-91520496D01*
X151054056Y-91674726D01*
X151171296Y-91870086D01*
X151222759Y-92090659D01*
X151223330Y-92114572D01*
X151289022Y-92311552D01*
X151448127Y-92415300D01*
X151678307Y-92410150D01*
X151811294Y-92399911D01*
X151956548Y-92448920D01*
X152104792Y-92520993D01*
X152273486Y-92483775D01*
X152460513Y-92322046D01*
X152675197Y-92030375D01*
X152902052Y-91689554D01*
X153102688Y-91418923D01*
X153272605Y-91234234D01*
X153430203Y-91115723D01*
X153593884Y-91043625D01*
X153610549Y-91038246D01*
X153734668Y-90993687D01*
X153845495Y-90938208D01*
X153960591Y-90855978D01*
X154097518Y-90731167D01*
X154273835Y-90547945D01*
X154507104Y-90290481D01*
X154814886Y-89942944D01*
X154933972Y-89809635D01*
X155175025Y-89550503D01*
X155381681Y-89342386D01*
X155535064Y-89203880D01*
X155616293Y-89153579D01*
X155700325Y-89189519D01*
X155853918Y-89303836D01*
X156032779Y-89469325D01*
X156156792Y-89586735D01*
X156387789Y-89743518D01*
X156587364Y-89778050D01*
X156771218Y-89695132D01*
X156781464Y-89686787D01*
X156883828Y-89546892D01*
X156935528Y-89378208D01*
X156915125Y-89247433D01*
X156878091Y-89205345D01*
X156713035Y-89084444D01*
X156510195Y-88984623D01*
X156339883Y-88943082D01*
X156271657Y-88933143D01*
X156073978Y-88839039D01*
X155862560Y-88674177D01*
X155678354Y-88473833D01*
X155562316Y-88273286D01*
X155548180Y-88235935D01*
X155477717Y-88090033D01*
X155421900Y-88030928D01*
X155409544Y-88035549D01*
X155339006Y-88120163D01*
X155252049Y-88277640D01*
X155171340Y-88433737D01*
X155069217Y-88550883D01*
X154946873Y-88561836D01*
X154766762Y-88482439D01*
X154736997Y-88466504D01*
X154587568Y-88399490D01*
X154481040Y-88403429D01*
X154349759Y-88477523D01*
X154273504Y-88521773D01*
X154131352Y-88561047D01*
X154066725Y-88510780D01*
X154100845Y-88379344D01*
X154115047Y-88345796D01*
X154149320Y-88166025D01*
X154153659Y-87945066D01*
X154134637Y-87645016D01*
X154731046Y-87623011D01*
X154774888Y-87621639D01*
X155116817Y-87624102D01*
X155452697Y-87645550D01*
X155715601Y-87681975D01*
X155927432Y-87720511D01*
X156098066Y-87723853D01*
X156267162Y-87678671D01*
X156497547Y-87576488D01*
X156682970Y-87492621D01*
X156858135Y-87435922D01*
X157008447Y-87431347D01*
X157189623Y-87470349D01*
X157296464Y-87492848D01*
X157641267Y-87518823D01*
X158075649Y-87501707D01*
X158173390Y-87493264D01*
X158437607Y-87463199D01*
X158607244Y-87423880D01*
X158717823Y-87364164D01*
X158804864Y-87272905D01*
X158811077Y-87264940D01*
X158914328Y-87075334D01*
X158888902Y-86916269D01*
X158730493Y-86757940D01*
X158678446Y-86721236D01*
X158582772Y-86675078D01*
X158463423Y-86661399D01*
X158282406Y-86678456D01*
X158001723Y-86724507D01*
X157735929Y-86766453D01*
X157490418Y-86786004D01*
X157272446Y-86771193D01*
X157022540Y-86721860D01*
X156750126Y-86668984D01*
X156556910Y-86662995D01*
X156400619Y-86703745D01*
X156262259Y-86779125D01*
X156204527Y-86846622D01*
X156154725Y-86882837D01*
X156005322Y-86904332D01*
X155798398Y-86906864D01*
X155576892Y-86891871D01*
X155383739Y-86860790D01*
X155261878Y-86815059D01*
X155254006Y-86809276D01*
X155183500Y-86741567D01*
X155204040Y-86676067D01*
X155326874Y-86570439D01*
X155419735Y-86492002D01*
X155462992Y-86422335D01*
X155405862Y-86382993D01*
X155352108Y-86365942D01*
X155182676Y-86312362D01*
X155154615Y-86302351D01*
X155101490Y-86251203D01*
X155168360Y-86185985D01*
X155361237Y-86102948D01*
X155686130Y-85998341D01*
X155991790Y-85917972D01*
X156318697Y-85869659D01*
X156630621Y-85874936D01*
X156760337Y-85883067D01*
X157062685Y-85855972D01*
X157268010Y-85747497D01*
X157394091Y-85550077D01*
X157414859Y-85366004D01*
X157310052Y-85202442D01*
X157071657Y-85080685D01*
X156938542Y-85047606D01*
X156660880Y-85028083D01*
X156305489Y-85056968D01*
X155855082Y-85136074D01*
X155292372Y-85267213D01*
X155106314Y-85312185D01*
X154658912Y-85402110D01*
X154277086Y-85452388D01*
X153977802Y-85462078D01*
X153778028Y-85430238D01*
X153694734Y-85355926D01*
X153709362Y-85276206D01*
X153832990Y-85202490D01*
X153840930Y-85200522D01*
X153981044Y-85163896D01*
X154221418Y-85099480D01*
X154530485Y-85015780D01*
X154876677Y-84921300D01*
X155243403Y-84826138D01*
X155625042Y-84736817D01*
X155962157Y-84667221D01*
X156209697Y-84627289D01*
X156328383Y-84612096D01*
X156564021Y-84562399D01*
X156736130Y-84480005D01*
X156900250Y-84341967D01*
X156965353Y-84282141D01*
X157164555Y-84127577D01*
X157338915Y-84026619D01*
X157409602Y-83993309D01*
X157515145Y-83893966D01*
X157518850Y-83749050D01*
X157426057Y-83528002D01*
X157393480Y-83455934D01*
X157357750Y-83321116D01*
X157342266Y-83138712D01*
X157345182Y-82878066D01*
X157364652Y-82508519D01*
X157383355Y-82247918D01*
X157417607Y-81933766D01*
X157458215Y-81744222D01*
X157506819Y-81669597D01*
X157561985Y-81672190D01*
X157728919Y-81719659D01*
X157969545Y-81809369D01*
X158252341Y-81930298D01*
X158272274Y-81939323D01*
X158856085Y-82200812D01*
X159335637Y-82408399D01*
X159731963Y-82569845D01*
X160066093Y-82692910D01*
X160359061Y-82785357D01*
X160631896Y-82854946D01*
X160905632Y-82909439D01*
X161052623Y-82942391D01*
X161366118Y-83036645D01*
X161721610Y-83164799D01*
X162066979Y-83308923D01*
X162258804Y-83396245D01*
X162507821Y-83516059D01*
X162671858Y-83613112D01*
X162778497Y-83708956D01*
X162855318Y-83825144D01*
X162929904Y-83983229D01*
X162986074Y-84125559D01*
X163050413Y-84352740D01*
X163066623Y-84518222D01*
X163058188Y-84576341D01*
X163031352Y-84636253D01*
X162964563Y-84675095D01*
X162832759Y-84699660D01*
X162610880Y-84716743D01*
X162273864Y-84733137D01*
X162067444Y-84745093D01*
X161737118Y-84776352D01*
X161483569Y-84816570D01*
X161338574Y-84861390D01*
X161211915Y-84907312D01*
X160991965Y-84925544D01*
X160666578Y-84906906D01*
X160451999Y-84889715D01*
X160251680Y-84888159D01*
X160126753Y-84915771D01*
X160040680Y-84976621D01*
X159943372Y-85114707D01*
X159947384Y-85256721D01*
X160081184Y-85357721D01*
X160329115Y-85420970D01*
X160698778Y-85462838D01*
X161122705Y-85473002D01*
X161557087Y-85450597D01*
X161958118Y-85394760D01*
X162255669Y-85338685D01*
X162527970Y-85299175D01*
X162752981Y-85288401D01*
X162979465Y-85304521D01*
X163256184Y-85345692D01*
X163607013Y-85404237D01*
X163289200Y-85549057D01*
X163190691Y-85597998D01*
X162970852Y-85764856D01*
X162801604Y-86013923D01*
X162774693Y-86065290D01*
X162693190Y-86245631D01*
X162678947Y-86358593D01*
X162724555Y-86445708D01*
X162749451Y-86471040D01*
X162936116Y-86544814D01*
X163224912Y-86537824D01*
X163605337Y-86450020D01*
X163773816Y-86403665D01*
X163984579Y-86371089D01*
X164075233Y-86402108D01*
X164043260Y-86494948D01*
X163886144Y-86647837D01*
X163763948Y-86741871D01*
X163600640Y-86830014D01*
X163403436Y-86879461D01*
X163119131Y-86908276D01*
X163010398Y-86916267D01*
X162795154Y-86938605D01*
X162676744Y-86972128D01*
X162623422Y-87030267D01*
X162603442Y-87126453D01*
X162604409Y-87194562D01*
X162687601Y-87401603D01*
X162866767Y-87619466D01*
X163113629Y-87826679D01*
X163399906Y-88001772D01*
X163697318Y-88123276D01*
X163977585Y-88169718D01*
X164107077Y-88182746D01*
X164230304Y-88256800D01*
X164228695Y-88389040D01*
X164099721Y-88571152D01*
X164019250Y-88659958D01*
X163812561Y-88957960D01*
X163739709Y-89220658D01*
X163800295Y-89452159D01*
X163993918Y-89656569D01*
X164025829Y-89680816D01*
X164152209Y-89793046D01*
X164203422Y-89867552D01*
X164188951Y-89894426D01*
X164088113Y-89985593D01*
X163922759Y-90100817D01*
X163745954Y-90229113D01*
X163662559Y-90350718D01*
X163642096Y-90512446D01*
X163664843Y-90666210D01*
X163780023Y-90890769D01*
X163961540Y-91054718D01*
X164174389Y-91118220D01*
X164199965Y-91117586D01*
X164406376Y-91090813D01*
X164634269Y-91036813D01*
X164694659Y-91019714D01*
X164856972Y-90985232D01*
X164937309Y-90986730D01*
X164931089Y-91042115D01*
X164875618Y-91191608D01*
X164781422Y-91396340D01*
X164752114Y-91457393D01*
X164631868Y-91800309D01*
X164599590Y-92146715D01*
X164601488Y-92189034D01*
X164605898Y-92287351D01*
X164658612Y-92543545D01*
X164770885Y-92687198D01*
X164950956Y-92732032D01*
X165074261Y-92756540D01*
X165148336Y-92846678D01*
X165136228Y-92976297D01*
X165050039Y-93116800D01*
X164901869Y-93239590D01*
X164703820Y-93316069D01*
X164635992Y-93335463D01*
X164408952Y-93470904D01*
X164407938Y-93471983D01*
X164213557Y-93678725D01*
X164099656Y-93909928D01*
X164085922Y-93959123D01*
X163975167Y-94174984D01*
X163776607Y-94353276D01*
X163464248Y-94518912D01*
X163353637Y-94572432D01*
X163012598Y-94813881D01*
X162743336Y-95146954D01*
X162536625Y-95585517D01*
X162383236Y-96143437D01*
X162332524Y-96465413D01*
X162344786Y-96695655D01*
X162429025Y-96867125D01*
X162593759Y-97015098D01*
X162627544Y-97039377D01*
X162710885Y-97109907D01*
X162762023Y-97193572D01*
X162788996Y-97322171D01*
X162799840Y-97527504D01*
X162802593Y-97841368D01*
X162810859Y-98163121D01*
X162811060Y-98170933D01*
X162844781Y-98500719D01*
X162903711Y-98696121D01*
X162968388Y-98916874D01*
X162966740Y-99257447D01*
X162965079Y-99275504D01*
X162952703Y-99458864D01*
X162966186Y-99596675D01*
X163021225Y-99727520D01*
X163133520Y-99889981D01*
X163318769Y-100122642D01*
X163385118Y-100206066D01*
X163557860Y-100437117D01*
X163688189Y-100631546D01*
X163751948Y-100754133D01*
X163786603Y-100855454D01*
X163878516Y-101092829D01*
X164005658Y-101403069D01*
X164153909Y-101753376D01*
X164309148Y-102110956D01*
X164457255Y-102443010D01*
X164584108Y-102716744D01*
X164675588Y-102899361D01*
X164735625Y-103003296D01*
X164884171Y-103229760D01*
X165018828Y-103400911D01*
X165044282Y-103431484D01*
X165154296Y-103632750D01*
X165273462Y-103959314D01*
X165404486Y-104418314D01*
X165445567Y-104575636D01*
X165545732Y-104964754D01*
X165621887Y-105281428D01*
X165657167Y-105453502D01*
X165678190Y-105556040D01*
X165718806Y-105818974D01*
X165747894Y-106100612D01*
X165769616Y-106431339D01*
X165788134Y-106841537D01*
X165800729Y-107177866D01*
X165807609Y-107361590D01*
X165813639Y-107523836D01*
X165836812Y-108059085D01*
X165864272Y-108480357D01*
X165901201Y-108808506D01*
X165952785Y-109064387D01*
X166024206Y-109268854D01*
X166120648Y-109442760D01*
X166247296Y-109606960D01*
X166409332Y-109782309D01*
X166543311Y-109931398D01*
X166572745Y-109969236D01*
X166717958Y-110155914D01*
X166835299Y-110343635D01*
X166932669Y-110524864D01*
X167104427Y-110750173D01*
X167297239Y-110869800D01*
X167537651Y-110904961D01*
X167788445Y-110937761D01*
X167960035Y-111048326D01*
X168026368Y-111109745D01*
X168209030Y-111243240D01*
X168391649Y-111353824D01*
X168426987Y-111375223D01*
X168562450Y-111452929D01*
X168707766Y-111549070D01*
X168764195Y-111605700D01*
X168766220Y-111608223D01*
X168854464Y-111620843D01*
X169057344Y-111629913D01*
X169352956Y-111635639D01*
X169719395Y-111638223D01*
X170134756Y-111637869D01*
X170577133Y-111634782D01*
X171024622Y-111629165D01*
X171455317Y-111621222D01*
X171847315Y-111611156D01*
X172178709Y-111599172D01*
X172427594Y-111585474D01*
X172572067Y-111570264D01*
X172632819Y-111561291D01*
X172832458Y-111563170D01*
X173087912Y-111612537D01*
X173434826Y-111715387D01*
X174033083Y-111909998D01*
X174440855Y-111715100D01*
X174442994Y-111714079D01*
X174676472Y-111610562D01*
X174862801Y-111558660D01*
X175063914Y-111548379D01*
X175341746Y-111569725D01*
X175834865Y-111619247D01*
X176091714Y-111282861D01*
X176208751Y-111143784D01*
X176414760Y-110941886D01*
X176601078Y-110802928D01*
X176765586Y-110684389D01*
X176879482Y-110523902D01*
X176975221Y-110273469D01*
X177053438Y-110050086D01*
X177180195Y-109731108D01*
X177313447Y-109429837D01*
X177422427Y-109178361D01*
X177537824Y-108866221D01*
X177615004Y-108604054D01*
X177629219Y-108540776D01*
X177663731Y-108323675D01*
X177649577Y-108161814D01*
X177583490Y-107991747D01*
X177506243Y-107853456D01*
X177397452Y-107767512D01*
X177224417Y-107747502D01*
X177203262Y-107747609D01*
X177074962Y-107761240D01*
X176978502Y-107817377D01*
X176882905Y-107943964D01*
X176757192Y-108168942D01*
X176576208Y-108480716D01*
X176384266Y-108727598D01*
X176162611Y-108913097D01*
X175874209Y-109075225D01*
X175762180Y-109132529D01*
X175512151Y-109274809D01*
X175311833Y-109406271D01*
X175284551Y-109426449D01*
X175155250Y-109514021D01*
X175042744Y-109555221D01*
X174909872Y-109549629D01*
X174719474Y-109496827D01*
X174434386Y-109396397D01*
X174039442Y-109275674D01*
X173663970Y-109223405D01*
X173362737Y-109265700D01*
X173119855Y-109402634D01*
X172980413Y-109567419D01*
X172948820Y-109604754D01*
X172914780Y-109807316D01*
X173020098Y-110004822D01*
X173047312Y-110031679D01*
X173135784Y-110083143D01*
X173275447Y-110114063D01*
X173495965Y-110129155D01*
X173827004Y-110133137D01*
X174021112Y-110135743D01*
X174277089Y-110148794D01*
X174452624Y-110170337D01*
X174517786Y-110197581D01*
X174504239Y-110230317D01*
X174398288Y-110327633D01*
X174219658Y-110442630D01*
X174007529Y-110551621D01*
X173801077Y-110630917D01*
X173745010Y-110641969D01*
X173544601Y-110663094D01*
X173239470Y-110683718D01*
X172852833Y-110702610D01*
X172407905Y-110718537D01*
X171927902Y-110730270D01*
X171625803Y-110735735D01*
X171163568Y-110742281D01*
X170810722Y-110743289D01*
X170547204Y-110737709D01*
X170352956Y-110724491D01*
X170207920Y-110702583D01*
X170092035Y-110670935D01*
X169985244Y-110628496D01*
X169969682Y-110621506D01*
X169714782Y-110455442D01*
X169537806Y-110206807D01*
X169491320Y-110109978D01*
X169432855Y-109919004D01*
X169470910Y-109814249D01*
X169607693Y-109782309D01*
X169697696Y-109769264D01*
X169895340Y-109716461D01*
X170129795Y-109636936D01*
X170136747Y-109634038D01*
X171023899Y-109634038D01*
X171132289Y-109801050D01*
X171337005Y-109930977D01*
X171586678Y-109952820D01*
X171853245Y-109835783D01*
X171960589Y-109751066D01*
X172083738Y-109567419D01*
X172071200Y-109383272D01*
X171921654Y-109210688D01*
X171853015Y-109164067D01*
X171702087Y-109115589D01*
X171508532Y-109148366D01*
X171425038Y-109175322D01*
X171180694Y-109303095D01*
X171043507Y-109462027D01*
X171023899Y-109634038D01*
X170136747Y-109634038D01*
X170271520Y-109577854D01*
X170459588Y-109461662D01*
X170520402Y-109352091D01*
X170448173Y-109256066D01*
X170414561Y-109221132D01*
X170375673Y-109094052D01*
X170374488Y-109076149D01*
X170302648Y-108902408D01*
X170153627Y-108735591D01*
X169974486Y-108630120D01*
X169949580Y-108624170D01*
X169756494Y-108639652D01*
X169497929Y-108731192D01*
X169331547Y-108801698D01*
X169134385Y-108850382D01*
X169024688Y-108801332D01*
X168985663Y-108642010D01*
X169000518Y-108359882D01*
X169117673Y-107835389D01*
X169363842Y-107313517D01*
X169722476Y-106847584D01*
X170030639Y-106525968D01*
X170352228Y-106893592D01*
X170531155Y-107078596D01*
X170755395Y-107272338D01*
X170946907Y-107400537D01*
X170990468Y-107423104D01*
X171142101Y-107521471D01*
X171206552Y-107634465D01*
X171219996Y-107817292D01*
X171229954Y-107979497D01*
X171288200Y-108107003D01*
X171427009Y-108201778D01*
X171493735Y-108234665D01*
X171705019Y-108299418D01*
X171892888Y-108265425D01*
X172112135Y-108126678D01*
X172241985Y-108037629D01*
X172420294Y-107974690D01*
X172645001Y-107982285D01*
X172950020Y-108021171D01*
X173273292Y-108059569D01*
X173502651Y-108079420D01*
X173664425Y-108080443D01*
X173784945Y-108062358D01*
X173890541Y-108024882D01*
X174007541Y-107967736D01*
X174140805Y-107901311D01*
X174264792Y-107858680D01*
X174356139Y-107878566D01*
X174469390Y-107960063D01*
X174597467Y-108035624D01*
X174797308Y-108084276D01*
X175091469Y-108098331D01*
X175302568Y-108094728D01*
X175469229Y-108073427D01*
X175568811Y-108021717D01*
X175641728Y-107927018D01*
X175647980Y-107917264D01*
X175746812Y-107792420D01*
X175919676Y-107596727D01*
X176144051Y-107355063D01*
X176397416Y-107092303D01*
X176544139Y-106944429D01*
X176795017Y-106703184D01*
X176976018Y-106550760D01*
X177102014Y-106475357D01*
X177187874Y-106465179D01*
X177271408Y-106495798D01*
X177364733Y-106563154D01*
X177404676Y-106595680D01*
X177534013Y-106624850D01*
X177598884Y-106606231D01*
X177697451Y-106491622D01*
X177802008Y-106256480D01*
X177882725Y-106031300D01*
X177965429Y-105749913D01*
X177993980Y-105531228D01*
X177971891Y-105335716D01*
X177902674Y-105123850D01*
X177899212Y-105115014D01*
X177834348Y-104926733D01*
X177808215Y-104761814D01*
X177818190Y-104566838D01*
X177861651Y-104288386D01*
X177902976Y-104010255D01*
X177938429Y-103672725D01*
X177953123Y-103392847D01*
X177966561Y-103204227D01*
X178039998Y-102816413D01*
X178169354Y-102375443D01*
X178200684Y-102279877D01*
X178301073Y-101925908D01*
X178380603Y-101575490D01*
X178424298Y-101292253D01*
X178455127Y-101066363D01*
X178506912Y-100849188D01*
X178564680Y-100722089D01*
X178578394Y-100704229D01*
X178653128Y-100544017D01*
X178705546Y-100336177D01*
X178709852Y-100310016D01*
X178765136Y-100078817D01*
X178818702Y-99934413D01*
X181052127Y-99934413D01*
X181098672Y-100096108D01*
X181277464Y-100270976D01*
X181379667Y-100364794D01*
X181557182Y-100578908D01*
X181710479Y-100818331D01*
X181803483Y-100982136D01*
X181912591Y-101152270D01*
X181984917Y-101238555D01*
X182142987Y-101294977D01*
X182319986Y-101245506D01*
X182465701Y-101088065D01*
X182555732Y-100839705D01*
X182565391Y-100784456D01*
X182574350Y-100648044D01*
X182541598Y-100528126D01*
X182450432Y-100398337D01*
X182284146Y-100232312D01*
X182026038Y-100003688D01*
X181897429Y-99895119D01*
X181642329Y-99709646D01*
X181447228Y-99625391D01*
X181292701Y-99636368D01*
X181159324Y-99736591D01*
X181133560Y-99766572D01*
X181052127Y-99934413D01*
X178818702Y-99934413D01*
X178835570Y-99888939D01*
X178851691Y-99853607D01*
X178920847Y-99674103D01*
X179014769Y-99406603D01*
X179108409Y-99126936D01*
X183580196Y-99126936D01*
X183680155Y-99214857D01*
X183818398Y-99247613D01*
X183995150Y-99255863D01*
X184140378Y-99235403D01*
X184200659Y-99188899D01*
X184159121Y-99105128D01*
X184027396Y-99008053D01*
X183859797Y-98943608D01*
X183712935Y-98940611D01*
X183596543Y-99018319D01*
X183580196Y-99126936D01*
X179108409Y-99126936D01*
X179122221Y-99085684D01*
X179231966Y-98745925D01*
X179332769Y-98421903D01*
X179413392Y-98148196D01*
X179462599Y-97959381D01*
X179476398Y-97908890D01*
X179547077Y-97712442D01*
X179622336Y-97530342D01*
X183917757Y-97530342D01*
X183939887Y-97663882D01*
X184082391Y-97841901D01*
X184208993Y-97935618D01*
X184429860Y-97989200D01*
X184642017Y-97906756D01*
X184667812Y-97885565D01*
X184716309Y-97785168D01*
X184639799Y-97676180D01*
X184432182Y-97548176D01*
X184407686Y-97535928D01*
X184168249Y-97452432D01*
X183999409Y-97455214D01*
X183917757Y-97530342D01*
X179622336Y-97530342D01*
X179655673Y-97449677D01*
X179784963Y-97163133D01*
X179849359Y-97025582D01*
X179957959Y-96789090D01*
X180032922Y-96619568D01*
X180060880Y-96546873D01*
X180061032Y-96545713D01*
X180094502Y-96467087D01*
X180178173Y-96289978D01*
X180299985Y-96039504D01*
X180447877Y-95740785D01*
X180546863Y-95547883D01*
X180914794Y-94919689D01*
X181293221Y-94406397D01*
X181673158Y-94020623D01*
X181820722Y-93921953D01*
X181998570Y-93863595D01*
X182231892Y-93844908D01*
X182547638Y-93863764D01*
X182972759Y-93918036D01*
X183222626Y-93939928D01*
X183461313Y-93905580D01*
X183596624Y-93793091D01*
X183639333Y-93597277D01*
X183637845Y-93570209D01*
X183574899Y-93362760D01*
X183429543Y-93084372D01*
X183215928Y-92759318D01*
X183063909Y-92562027D01*
X183658469Y-92562027D01*
X183670576Y-92694996D01*
X183745291Y-92825991D01*
X183903073Y-93003371D01*
X184024166Y-93124220D01*
X184164477Y-93246138D01*
X184245928Y-93293358D01*
X184322338Y-93269942D01*
X184433102Y-93156726D01*
X184481322Y-93004787D01*
X184508864Y-92907839D01*
X184597812Y-92725795D01*
X184726902Y-92511718D01*
X184871086Y-92261779D01*
X184959960Y-91977714D01*
X184934218Y-91721950D01*
X184795660Y-91467141D01*
X184710919Y-91357574D01*
X184552525Y-91200091D01*
X184416107Y-91152084D01*
X184276929Y-91200858D01*
X184224622Y-91248375D01*
X184104778Y-91419033D01*
X183971169Y-91664103D01*
X183842323Y-91944965D01*
X183736769Y-92223000D01*
X183673035Y-92459587D01*
X183658469Y-92562027D01*
X183063909Y-92562027D01*
X182948206Y-92411867D01*
X182905665Y-92357619D01*
X182763141Y-92114460D01*
X182656054Y-91806497D01*
X182577360Y-91408799D01*
X182520014Y-90896433D01*
X182475754Y-90542719D01*
X182328677Y-89982541D01*
X182084908Y-89497297D01*
X181733769Y-89072281D01*
X181264582Y-88692791D01*
X180666670Y-88344120D01*
X180656080Y-88338630D01*
X180462452Y-88216905D01*
X180220459Y-88037784D01*
X179979901Y-87837972D01*
X179906464Y-87772760D01*
X179717268Y-87608111D01*
X179589197Y-87516385D01*
X179486921Y-87483800D01*
X179375108Y-87496573D01*
X179218428Y-87540921D01*
X179071422Y-87575413D01*
X178952875Y-87558894D01*
X178850521Y-87462982D01*
X178799674Y-87393752D01*
X178724318Y-87183604D01*
X178780683Y-87004323D01*
X178965661Y-86871867D01*
X179149608Y-86744116D01*
X179302333Y-86507577D01*
X179359223Y-86220698D01*
X179367975Y-86183699D01*
X179435557Y-86036306D01*
X179555399Y-85820418D01*
X179710052Y-85568476D01*
X179791687Y-85439874D01*
X179929890Y-85214948D01*
X180025295Y-85049641D01*
X180060880Y-84972856D01*
X180091568Y-84924406D01*
X180202222Y-84791825D01*
X180374581Y-84600011D01*
X180588674Y-84371710D01*
X180916473Y-84016493D01*
X181164921Y-83712567D01*
X181319177Y-83468065D01*
X181386663Y-83267854D01*
X181374800Y-83096804D01*
X181291012Y-82939780D01*
X181223269Y-82830149D01*
X181197878Y-82644873D01*
X181308737Y-82485886D01*
X181387313Y-82420981D01*
X181780446Y-82093121D01*
X182068978Y-81846164D01*
X182258125Y-81675568D01*
X182353106Y-81576792D01*
X182417543Y-81492611D01*
X182535062Y-81337407D01*
X182558933Y-81306175D01*
X182625883Y-81246370D01*
X182706333Y-81263921D01*
X182849259Y-81362783D01*
X183003311Y-81461228D01*
X183137481Y-81483016D01*
X183322796Y-81435608D01*
X183346367Y-81428013D01*
X183548452Y-81387750D01*
X183636185Y-81427744D01*
X183608265Y-81545204D01*
X183463391Y-81737335D01*
X183298125Y-81939096D01*
X183191813Y-82134883D01*
X183183521Y-82302911D01*
X183265021Y-82473728D01*
X183314411Y-82553287D01*
X183431009Y-82770411D01*
X183543839Y-83010470D01*
X183592803Y-83116636D01*
X183729180Y-83323960D01*
X183897606Y-83430727D01*
X184134840Y-83465222D01*
X184290362Y-83512995D01*
X184475347Y-83687575D01*
X184500296Y-83722121D01*
X184582930Y-83871879D01*
X184608853Y-84034795D01*
X184590170Y-84272549D01*
X184569610Y-84471239D01*
X184583926Y-84617094D01*
X184659360Y-84735979D01*
X184817944Y-84887369D01*
X184903265Y-84959374D01*
X185149303Y-85133886D01*
X185382890Y-85263136D01*
X185482205Y-85310823D01*
X185630243Y-85420736D01*
X185674140Y-85544955D01*
X185644872Y-85686653D01*
X185519343Y-85806961D01*
X185275804Y-85887221D01*
X185265275Y-85889622D01*
X185078621Y-85969406D01*
X184892279Y-86101251D01*
X184749071Y-86249216D01*
X184691819Y-86377361D01*
X184712821Y-86429190D01*
X184811357Y-86561478D01*
X184963338Y-86723932D01*
X185124658Y-86901357D01*
X185226638Y-87092280D01*
X185276258Y-87338635D01*
X185336289Y-87608219D01*
X185495900Y-87900034D01*
X185500466Y-87905480D01*
X185630440Y-88099312D01*
X185658282Y-88273061D01*
X185579543Y-88459999D01*
X185389771Y-88693396D01*
X185105402Y-89001900D01*
X185185396Y-89902187D01*
X185240787Y-90405027D01*
X185312946Y-90805156D01*
X185407712Y-91110463D01*
X185532249Y-91343869D01*
X185693722Y-91528296D01*
X185853249Y-91637645D01*
X186018999Y-91646358D01*
X186088466Y-91612798D01*
X186138743Y-91535894D01*
X186163663Y-91386617D01*
X186173394Y-91131033D01*
X186179457Y-90892433D01*
X186188321Y-90694016D01*
X186197789Y-90591977D01*
X186209349Y-90520972D01*
X186224779Y-90363939D01*
X186252760Y-90265663D01*
X186332941Y-90206066D01*
X186443538Y-90170465D01*
X186592194Y-90075066D01*
X186597993Y-90070369D01*
X186685754Y-89990942D01*
X186718634Y-89911755D01*
X186700457Y-89788245D01*
X186635050Y-89575849D01*
X186544274Y-89252001D01*
X186519637Y-89033047D01*
X186562566Y-88902804D01*
X186674002Y-88843589D01*
X186801248Y-88818569D01*
X187099549Y-88771877D01*
X187306147Y-88767338D01*
X187453063Y-88806661D01*
X187572318Y-88891556D01*
X187595322Y-88912749D01*
X187803765Y-89093499D01*
X188079077Y-89319855D01*
X188380798Y-89559592D01*
X188668469Y-89780484D01*
X188901631Y-89950309D01*
X189011667Y-90032335D01*
X189142017Y-90172344D01*
X189168801Y-90301138D01*
X189160768Y-90343083D01*
X189120190Y-90411634D01*
X189026859Y-90438374D01*
X188852702Y-90427067D01*
X188569644Y-90381479D01*
X188381458Y-90357220D01*
X188277068Y-90378211D01*
X188224039Y-90455404D01*
X188214142Y-90514445D01*
X188269196Y-90639791D01*
X188433368Y-90804908D01*
X188467234Y-90834923D01*
X188637798Y-91033739D01*
X188691267Y-91220295D01*
X188718456Y-91341988D01*
X188849296Y-91548706D01*
X189062759Y-91754955D01*
X189330218Y-91928984D01*
X189394481Y-91977714D01*
X189424553Y-92000517D01*
X189593552Y-92168627D01*
X189798196Y-92399813D01*
X190012850Y-92666383D01*
X190477019Y-93207160D01*
X191052636Y-93722389D01*
X191542735Y-94105838D01*
X192209422Y-94668277D01*
X192871253Y-95278984D01*
X193567786Y-95973363D01*
X193745971Y-96156632D01*
X194130649Y-96552075D01*
X194551903Y-96984896D01*
X194969832Y-97414107D01*
X195344540Y-97798719D01*
X195487195Y-97945469D01*
X195781423Y-98252640D01*
X195992789Y-98483366D01*
X196133645Y-98653306D01*
X196216346Y-98778122D01*
X196253245Y-98873471D01*
X196256695Y-98955015D01*
X196209856Y-99102881D01*
X196084750Y-99173501D01*
X196053386Y-99173345D01*
X195895847Y-99105083D01*
X195689182Y-98946158D01*
X195455374Y-98717509D01*
X195216405Y-98440075D01*
X194994260Y-98134795D01*
X194961936Y-98086477D01*
X194754599Y-97803569D01*
X194510492Y-97519305D01*
X194204452Y-97206066D01*
X193811319Y-96836232D01*
X193570923Y-96607686D01*
X193290401Y-96327531D01*
X193039048Y-96064409D01*
X193007464Y-96030588D01*
X192791249Y-95809387D01*
X192509598Y-95532970D01*
X192195453Y-95233277D01*
X191881757Y-94942253D01*
X191712263Y-94785886D01*
X191352940Y-94447251D01*
X190954227Y-94064424D01*
X190553664Y-93673582D01*
X190188795Y-93310900D01*
X189893998Y-93019177D01*
X189626634Y-92763824D01*
X189405566Y-92562204D01*
X189247952Y-92429963D01*
X189170948Y-92382745D01*
X189124232Y-92390795D01*
X188964953Y-92442943D01*
X188761433Y-92527213D01*
X188746320Y-92534127D01*
X188383909Y-92750135D01*
X188100245Y-93016907D01*
X187915358Y-93310712D01*
X187849278Y-93607822D01*
X187830094Y-93740632D01*
X187745653Y-93818240D01*
X187600707Y-93776023D01*
X187402655Y-93613881D01*
X187281130Y-93499020D01*
X187119133Y-93389620D01*
X186982026Y-93379263D01*
X186834397Y-93458252D01*
X186781457Y-93510911D01*
X186729612Y-93700693D01*
X186788153Y-93976958D01*
X186957093Y-94339747D01*
X187236443Y-94789099D01*
X187276505Y-94871231D01*
X187248875Y-94960762D01*
X187120219Y-95080260D01*
X187094500Y-95101146D01*
X186995887Y-95194117D01*
X186949341Y-95292337D01*
X186943522Y-95440443D01*
X186967089Y-95683077D01*
X186973459Y-95748272D01*
X186973220Y-96113593D01*
X186917820Y-96449779D01*
X186817301Y-96734611D01*
X186681705Y-96945865D01*
X186521073Y-97061319D01*
X186345448Y-97058751D01*
X186334023Y-97053656D01*
X186275101Y-96982875D01*
X186244333Y-96828920D01*
X186235466Y-96563651D01*
X186233904Y-96430401D01*
X186214059Y-96204974D01*
X186160607Y-96045898D01*
X186060052Y-95902287D01*
X186032748Y-95868520D01*
X185927330Y-95706892D01*
X185884637Y-95585565D01*
X185845937Y-95491990D01*
X185732646Y-95329327D01*
X185570878Y-95139616D01*
X185467377Y-95022470D01*
X185307367Y-94789533D01*
X185255132Y-94601246D01*
X185245210Y-94515941D01*
X185175186Y-94291945D01*
X185057271Y-94037181D01*
X184914240Y-93792719D01*
X184768867Y-93599630D01*
X184643925Y-93498985D01*
X184486719Y-93462608D01*
X184323168Y-93502045D01*
X184241406Y-93628710D01*
X184252637Y-93820078D01*
X184368064Y-94053623D01*
X184450964Y-94201833D01*
X184576735Y-94544509D01*
X184690524Y-95006122D01*
X184797663Y-95453717D01*
X184921180Y-95804245D01*
X185070444Y-96070192D01*
X185258064Y-96279853D01*
X185413987Y-96458961D01*
X185551174Y-96710753D01*
X185603974Y-96945077D01*
X185601308Y-96999959D01*
X185568184Y-97058847D01*
X185468233Y-97071526D01*
X185265761Y-97048961D01*
X185090234Y-97031284D01*
X184932076Y-97045882D01*
X184836917Y-97111649D01*
X184822352Y-97130300D01*
X184777830Y-97277339D01*
X184868807Y-97404260D01*
X185091563Y-97505313D01*
X185109809Y-97511035D01*
X185349506Y-97618393D01*
X185559739Y-97758671D01*
X185587915Y-97785168D01*
X185634126Y-97828626D01*
X185719306Y-97952435D01*
G37*
G36*
X151996791Y-123885641D02*
G01*
X152103644Y-123942229D01*
X152140952Y-124064822D01*
X152088745Y-124189066D01*
X152075491Y-124198571D01*
X151986576Y-124182696D01*
X151895831Y-124095610D01*
X151854250Y-123982281D01*
X151880773Y-123925902D01*
X151994582Y-123885624D01*
X151996791Y-123885641D01*
G37*
G36*
X148259257Y-90874754D02*
G01*
X148242892Y-90974365D01*
X148219546Y-90999993D01*
X148124504Y-91006197D01*
X148093644Y-90974867D01*
X148128183Y-90886940D01*
X148191383Y-90847925D01*
X148259257Y-90874754D01*
G37*
G36*
X197953145Y-124201369D02*
G01*
X197918063Y-124236452D01*
X197882980Y-124201369D01*
X197918063Y-124166287D01*
X197953145Y-124201369D01*
G37*
G36*
X151356369Y-125821664D02*
G01*
X151399266Y-125900367D01*
X151455014Y-126066893D01*
X151501748Y-126259912D01*
X151527046Y-126426433D01*
X151518492Y-126513463D01*
X151411635Y-126552972D01*
X151302196Y-126460921D01*
X151199874Y-126240118D01*
X151181905Y-126186623D01*
X151133759Y-126012235D01*
X151138677Y-125912700D01*
X151196252Y-125843147D01*
X151260972Y-125805524D01*
X151356369Y-125821664D01*
G37*
G36*
X192831046Y-129112972D02*
G01*
X192795963Y-129148055D01*
X192760880Y-129112972D01*
X192795963Y-129077889D01*
X192831046Y-129112972D01*
G37*
G36*
X198374140Y-122447226D02*
G01*
X198339057Y-122482309D01*
X198303974Y-122447226D01*
X198339057Y-122412143D01*
X198374140Y-122447226D01*
G37*
G36*
X175557894Y-110256790D02*
G01*
X175627081Y-110361176D01*
X175615267Y-110448454D01*
X175500107Y-110483966D01*
X175397541Y-110460633D01*
X175373133Y-110361176D01*
X175401034Y-110296716D01*
X175500107Y-110238386D01*
X175557894Y-110256790D01*
G37*
G36*
X183597792Y-70021744D02*
G01*
X183737416Y-70160313D01*
X183745195Y-70173474D01*
X183770747Y-70286483D01*
X183679196Y-70387877D01*
X183668395Y-70396557D01*
X183566122Y-70552288D01*
X183503782Y-70784138D01*
X183474468Y-70940793D01*
X183408589Y-71067104D01*
X183288505Y-71128448D01*
X183238558Y-71141402D01*
X182961076Y-71180784D01*
X182730479Y-71162034D01*
X182588235Y-71087572D01*
X182570387Y-71062410D01*
X182556294Y-70975752D01*
X182611790Y-70848717D01*
X182748680Y-70649036D01*
X182960939Y-70380367D01*
X183212213Y-70130456D01*
X183423611Y-70011354D01*
X183597792Y-70021744D01*
G37*
G36*
X170352512Y-93049025D02*
G01*
X170358804Y-93057930D01*
X170437577Y-93266101D01*
X170449675Y-93519425D01*
X170399211Y-93759721D01*
X170290300Y-93928810D01*
X170157153Y-94018950D01*
X170036031Y-94062847D01*
X169997547Y-94039872D01*
X169964928Y-93917510D01*
X169965714Y-93724201D01*
X169996026Y-93499309D01*
X170051985Y-93282201D01*
X170129710Y-93112243D01*
X170131886Y-93108923D01*
X170221897Y-92985107D01*
X170281507Y-92969094D01*
X170352512Y-93049025D01*
G37*
G36*
X141223957Y-79977706D02*
G01*
X141259223Y-80058524D01*
X141273590Y-80119911D01*
X141360535Y-80239263D01*
X141365486Y-80243808D01*
X141413930Y-80367848D01*
X141428013Y-80569286D01*
X141411438Y-80794422D01*
X141367908Y-80989555D01*
X141301124Y-81100986D01*
X141218468Y-81144935D01*
X141044439Y-81152516D01*
X140903349Y-81036339D01*
X140804428Y-80807018D01*
X140756906Y-80475168D01*
X140751003Y-80347937D01*
X140749092Y-80141650D01*
X140772819Y-80029612D01*
X140833757Y-79979915D01*
X140943477Y-79960648D01*
X141100223Y-79951124D01*
X141223957Y-79977706D01*
G37*
G36*
X188449741Y-128660052D02*
G01*
X188515853Y-128727060D01*
X188528922Y-128751902D01*
X188524135Y-128797226D01*
X188511798Y-128794069D01*
X188445687Y-128727060D01*
X188432618Y-128702218D01*
X188437405Y-128656894D01*
X188449741Y-128660052D01*
G37*
G36*
X196050108Y-84209558D02*
G01*
X196211756Y-84230051D01*
X196246377Y-84240365D01*
X196488076Y-84300023D01*
X196742419Y-84348427D01*
X196817218Y-84361747D01*
X196991003Y-84408361D01*
X197078576Y-84456523D01*
X197082392Y-84463601D01*
X197075583Y-84501915D01*
X197005527Y-84539145D01*
X196853322Y-84580648D01*
X196600070Y-84631781D01*
X196226869Y-84697899D01*
X196207098Y-84701230D01*
X195886034Y-84741926D01*
X195571065Y-84761182D01*
X195327715Y-84754848D01*
X195120038Y-84732964D01*
X194804697Y-84701702D01*
X194491376Y-84672312D01*
X194340841Y-84655166D01*
X194101597Y-84604716D01*
X193976993Y-84540112D01*
X193975569Y-84467537D01*
X194105868Y-84393176D01*
X194180946Y-84370635D01*
X194419651Y-84323909D01*
X194735453Y-84281419D01*
X195092375Y-84245952D01*
X195454442Y-84220295D01*
X195785678Y-84207235D01*
X196050108Y-84209558D01*
G37*
G36*
X137057197Y-70399178D02*
G01*
X137088089Y-70444348D01*
X137088139Y-70553543D01*
X137048064Y-70607668D01*
X136996370Y-70609541D01*
X136979112Y-70475458D01*
X136979118Y-70472244D01*
X136997009Y-70372973D01*
X137057197Y-70399178D01*
G37*
G36*
X147737648Y-89521625D02*
G01*
X147859553Y-89653615D01*
X147901265Y-89773370D01*
X147864635Y-89966927D01*
X147859981Y-89976427D01*
X147740981Y-90123034D01*
X147519814Y-90318954D01*
X147216848Y-90549451D01*
X146852450Y-90799786D01*
X146446989Y-91055224D01*
X146020832Y-91301026D01*
X145800476Y-91422211D01*
X145411079Y-91636812D01*
X145029056Y-91847814D01*
X144712248Y-92023291D01*
X144571238Y-92106215D01*
X144227540Y-92333833D01*
X143869296Y-92598267D01*
X143554514Y-92857709D01*
X143385968Y-93001754D01*
X143089397Y-93234379D01*
X142807215Y-93433471D01*
X142582909Y-93567271D01*
X142398184Y-93662926D01*
X142175301Y-93786423D01*
X142023512Y-93880130D01*
X141842202Y-93978160D01*
X141721741Y-93972115D01*
X141680217Y-93854018D01*
X141682350Y-93826000D01*
X141715928Y-93745028D01*
X141803401Y-93648767D01*
X141961578Y-93523328D01*
X142207271Y-93354823D01*
X142557289Y-93129363D01*
X142707676Y-93024736D01*
X142879169Y-92878415D01*
X142971327Y-92763364D01*
X142985391Y-92737810D01*
X143113012Y-92597010D01*
X143337499Y-92408255D01*
X143637336Y-92186306D01*
X143991013Y-91945923D01*
X144377014Y-91701865D01*
X144773828Y-91468894D01*
X145159940Y-91261768D01*
X145296933Y-91192155D01*
X145884268Y-90888307D01*
X146378271Y-90623335D01*
X146770346Y-90402059D01*
X147051897Y-90229299D01*
X147214330Y-90109874D01*
X147217204Y-90107222D01*
X147340492Y-89945097D01*
X147436609Y-89741504D01*
X147482616Y-89636887D01*
X147602662Y-89517990D01*
X147737648Y-89521625D01*
G37*
G36*
X151581297Y-119402803D02*
G01*
X151685994Y-119495815D01*
X151755805Y-119644579D01*
X151756607Y-119786410D01*
X151747819Y-119806090D01*
X151652101Y-119881278D01*
X151532845Y-119852278D01*
X151440215Y-119728303D01*
X151408230Y-119595687D01*
X151435191Y-119450206D01*
X151543543Y-119395016D01*
X151581297Y-119402803D01*
G37*
G36*
X168285413Y-89822936D02*
G01*
X168294080Y-89960486D01*
X168274765Y-90156851D01*
X168235270Y-90601703D01*
X168214924Y-90935858D01*
X168214258Y-91180075D01*
X168233805Y-91355109D01*
X168274099Y-91481720D01*
X168335672Y-91580664D01*
X168488795Y-91775327D01*
X168311566Y-91920393D01*
X168201601Y-92045679D01*
X168111446Y-92248342D01*
X168034015Y-92556618D01*
X167978894Y-92861206D01*
X167899587Y-93444214D01*
X167836755Y-94096305D01*
X167794337Y-94773548D01*
X167776270Y-95432015D01*
X167771319Y-95760978D01*
X167762216Y-96040669D01*
X167750281Y-96239057D01*
X167736815Y-96326628D01*
X167710542Y-96358440D01*
X167611994Y-96364863D01*
X167470082Y-96244688D01*
X167449421Y-96220154D01*
X167398880Y-96126612D01*
X167372610Y-95989277D01*
X167366881Y-95776172D01*
X167377959Y-95455323D01*
X167383465Y-95357977D01*
X167419075Y-94950015D01*
X167472578Y-94507390D01*
X167534655Y-94110107D01*
X167548233Y-94034547D01*
X167600773Y-93703972D01*
X167622115Y-93458579D01*
X167614032Y-93255354D01*
X167578296Y-93051286D01*
X167544609Y-92876634D01*
X167533840Y-92659559D01*
X167578540Y-92480118D01*
X167611965Y-92347109D01*
X167649349Y-92100682D01*
X167683244Y-91784110D01*
X167709085Y-91433966D01*
X167733372Y-91068455D01*
X167763873Y-90785653D01*
X167807091Y-90568607D01*
X167870736Y-90379137D01*
X167962520Y-90179061D01*
X168006823Y-90093589D01*
X168130425Y-89896976D01*
X168227075Y-89804262D01*
X168285413Y-89822936D01*
G37*
G36*
X184411156Y-124622364D02*
G01*
X184376074Y-124657447D01*
X184340991Y-124622364D01*
X184376074Y-124587281D01*
X184411156Y-124622364D01*
G37*
G36*
X162912494Y-69956554D02*
G01*
X163058448Y-70035229D01*
X163163883Y-70131843D01*
X163183051Y-70213629D01*
X163150317Y-70247107D01*
X163017073Y-70274463D01*
X162854738Y-70234929D01*
X162717557Y-70147444D01*
X162659775Y-70030945D01*
X162679534Y-69975601D01*
X162784494Y-69928165D01*
X162912494Y-69956554D01*
G37*
G36*
X186489394Y-76120010D02*
G01*
X186443524Y-76364224D01*
X186416294Y-76515457D01*
X186413136Y-76756174D01*
X186478607Y-77007991D01*
X186484836Y-77025661D01*
X186555794Y-77238675D01*
X186578120Y-77365956D01*
X186551604Y-77450709D01*
X186476034Y-77536137D01*
X186358385Y-77614324D01*
X186149874Y-77636303D01*
X185954413Y-77540796D01*
X185920835Y-77518330D01*
X185757085Y-77450736D01*
X185510107Y-77376254D01*
X185219093Y-77307327D01*
X185127207Y-77287797D01*
X184806129Y-77205542D01*
X184597015Y-77121492D01*
X184477020Y-77027017D01*
X184368732Y-76935572D01*
X184158169Y-76874574D01*
X183969874Y-76825963D01*
X183765229Y-76685329D01*
X183740805Y-76662086D01*
X183608401Y-76555924D01*
X183492030Y-76535326D01*
X183322854Y-76584622D01*
X183255313Y-76607365D01*
X183051984Y-76637272D01*
X182836479Y-76585822D01*
X182775522Y-76565409D01*
X182615245Y-76536552D01*
X182431704Y-76552712D01*
X182170964Y-76616364D01*
X182040910Y-76651102D01*
X181670785Y-76725268D01*
X181406546Y-76726508D01*
X181234616Y-76650054D01*
X181141416Y-76491138D01*
X181123614Y-76334925D01*
X183859251Y-76334925D01*
X183895485Y-76455677D01*
X183957923Y-76502100D01*
X184162035Y-76551363D01*
X184403360Y-76516449D01*
X184646403Y-76415069D01*
X184855669Y-76264931D01*
X184995662Y-76083744D01*
X185030887Y-75889216D01*
X184973960Y-75740032D01*
X184834447Y-75672045D01*
X184615725Y-75719035D01*
X184317160Y-75880996D01*
X184166334Y-75985201D01*
X183951146Y-76175902D01*
X183859251Y-76334925D01*
X181123614Y-76334925D01*
X181113366Y-76244993D01*
X181113359Y-76224766D01*
X181106283Y-76035135D01*
X181065460Y-75916646D01*
X180960881Y-75823542D01*
X180762538Y-75710067D01*
X180615969Y-75622629D01*
X180468727Y-75512228D01*
X180411709Y-75435805D01*
X180389941Y-75327546D01*
X180287153Y-75110107D01*
X180120505Y-74859261D01*
X179912842Y-74612702D01*
X179799554Y-74489528D01*
X179684472Y-74352203D01*
X179639886Y-74280758D01*
X179657199Y-74235475D01*
X179732254Y-74097662D01*
X179846556Y-73909865D01*
X179971004Y-73688317D01*
X180021497Y-73509357D01*
X180012234Y-73317261D01*
X179994555Y-73216242D01*
X179925799Y-73011599D01*
X179804161Y-72896607D01*
X179597752Y-72834091D01*
X179538303Y-72820929D01*
X179403707Y-72754852D01*
X179367198Y-72641048D01*
X179428481Y-72461687D01*
X179587261Y-72198940D01*
X179724327Y-72012837D01*
X179881328Y-71869573D01*
X180001791Y-71860851D01*
X180088471Y-71986913D01*
X180144123Y-72248002D01*
X180145591Y-72259558D01*
X180266560Y-72807116D01*
X180477305Y-73350299D01*
X180756907Y-73844664D01*
X181084445Y-74245766D01*
X181149247Y-74309874D01*
X181292892Y-74464769D01*
X181364732Y-74593799D01*
X181386360Y-74751678D01*
X181379368Y-74993123D01*
X181377094Y-75042673D01*
X181372279Y-75262812D01*
X181391698Y-75387228D01*
X181448551Y-75453826D01*
X181556034Y-75500510D01*
X181595002Y-75513391D01*
X181739976Y-75525181D01*
X181828238Y-75445403D01*
X181868386Y-75258950D01*
X181869019Y-74950719D01*
X181866026Y-74762831D01*
X181887475Y-74578782D01*
X181942782Y-74504824D01*
X181987401Y-74483497D01*
X182078941Y-74352770D01*
X182086391Y-74283131D01*
X183010064Y-74283131D01*
X183040533Y-74390714D01*
X183143560Y-74486470D01*
X183308402Y-74547377D01*
X183443663Y-74550562D01*
X183499002Y-74492917D01*
X183476481Y-74441268D01*
X183369252Y-74338630D01*
X183224014Y-74247565D01*
X183097478Y-74208276D01*
X183060489Y-74214050D01*
X183010064Y-74283131D01*
X182086391Y-74283131D01*
X182103949Y-74119021D01*
X182061959Y-73777371D01*
X181952504Y-73322944D01*
X181775119Y-72750859D01*
X181657115Y-72342560D01*
X181608101Y-72040434D01*
X181624322Y-71850877D01*
X181701298Y-71778101D01*
X181834544Y-71826321D01*
X182019579Y-71999750D01*
X182251921Y-72302603D01*
X182461987Y-72607152D01*
X182934887Y-72559661D01*
X183072426Y-72546236D01*
X183275712Y-72535802D01*
X183412278Y-72559604D01*
X183531170Y-72631033D01*
X183681433Y-72763478D01*
X183802297Y-72865935D01*
X184017053Y-72984535D01*
X184249630Y-73007540D01*
X184550609Y-72945544D01*
X184562513Y-72942169D01*
X184677622Y-72918173D01*
X184778701Y-72926945D01*
X184880370Y-72982929D01*
X184997246Y-73100568D01*
X185143949Y-73294306D01*
X185335097Y-73578588D01*
X185585309Y-73967857D01*
X185659266Y-74084081D01*
X185915535Y-74492917D01*
X185951451Y-74550216D01*
X186173807Y-74924514D01*
X186333511Y-75227019D01*
X186437744Y-75477777D01*
X186493682Y-75696831D01*
X186507433Y-75889216D01*
X186508506Y-75904228D01*
X186489394Y-76120010D01*
G37*
G36*
X152510488Y-112690411D02*
G01*
X152559834Y-112814997D01*
X152617016Y-113044448D01*
X152687665Y-113395845D01*
X152724599Y-113586222D01*
X152773735Y-113827593D01*
X152810028Y-113992253D01*
X152833151Y-114094604D01*
X152821709Y-114119916D01*
X152745485Y-114024269D01*
X152704381Y-113962831D01*
X152597390Y-113743454D01*
X152505579Y-113478094D01*
X152436682Y-113201865D01*
X152398432Y-112949880D01*
X152398564Y-112757255D01*
X152444812Y-112659104D01*
X152463347Y-112653609D01*
X152510488Y-112690411D01*
G37*
G36*
X146000271Y-78159971D02*
G01*
X146134346Y-78230205D01*
X146172524Y-78325970D01*
X146093342Y-78424227D01*
X146054969Y-78446005D01*
X145849790Y-78479413D01*
X145623937Y-78378337D01*
X145545922Y-78313296D01*
X145509249Y-78218861D01*
X145604065Y-78158683D01*
X145826339Y-78137557D01*
X146000271Y-78159971D01*
G37*
G36*
X151169364Y-85787663D02*
G01*
X151222759Y-85855789D01*
X151220720Y-85872561D01*
X151152593Y-85925955D01*
X151135822Y-85923916D01*
X151082427Y-85855789D01*
X151084466Y-85839018D01*
X151152593Y-85785624D01*
X151169364Y-85787663D01*
G37*
G36*
X188803216Y-115244396D02*
G01*
X188781556Y-115275565D01*
X188722209Y-115325403D01*
X188712400Y-115324720D01*
X188696948Y-115284103D01*
X188772274Y-115213454D01*
X188811486Y-115196382D01*
X188803216Y-115244396D01*
G37*
G36*
X157321763Y-78346307D02*
G01*
X157505797Y-78515594D01*
X157738802Y-78720104D01*
X158033162Y-78936206D01*
X158344665Y-79134357D01*
X158633059Y-79288991D01*
X158858096Y-79374542D01*
X158867229Y-79376812D01*
X159059057Y-79453587D01*
X159256737Y-79570719D01*
X159285893Y-79591230D01*
X159468968Y-79711260D01*
X159717851Y-79866100D01*
X159987437Y-80027550D01*
X160002562Y-80036488D01*
X160314851Y-80243703D01*
X160636290Y-80491240D01*
X160899591Y-80727469D01*
X161030516Y-80852866D01*
X161391774Y-81156573D01*
X161796723Y-81452461D01*
X162199572Y-81708310D01*
X162554527Y-81891901D01*
X162738968Y-81972556D01*
X163114326Y-82144451D01*
X163374667Y-82278149D01*
X163532184Y-82380250D01*
X163599071Y-82457356D01*
X163601446Y-82463927D01*
X163589239Y-82627096D01*
X163466833Y-82796602D01*
X163257375Y-82939767D01*
X163122078Y-82986581D01*
X162855308Y-82996599D01*
X162624692Y-82910260D01*
X162595877Y-82893259D01*
X162454434Y-82826671D01*
X162259306Y-82746282D01*
X162203259Y-82724197D01*
X161927332Y-82609776D01*
X161662897Y-82493229D01*
X161494597Y-82428298D01*
X161202751Y-82342991D01*
X160905632Y-82279628D01*
X160784835Y-82256482D01*
X160478192Y-82174778D01*
X160173767Y-82067381D01*
X159905215Y-81948493D01*
X159706191Y-81832314D01*
X159610350Y-81733048D01*
X159605508Y-81682689D01*
X159637532Y-81519613D01*
X159712468Y-81314539D01*
X159756007Y-81209754D01*
X159825664Y-81006028D01*
X159853145Y-80867571D01*
X159849548Y-80827962D01*
X159765425Y-80695911D01*
X159600777Y-80634907D01*
X159397094Y-80663514D01*
X159170927Y-80727686D01*
X158979099Y-80725756D01*
X158885944Y-80648595D01*
X158903412Y-80507960D01*
X159043451Y-80315606D01*
X159142853Y-80199588D01*
X159175396Y-80092290D01*
X159127310Y-79960938D01*
X159118411Y-79943730D01*
X159059411Y-79857918D01*
X158973200Y-79813255D01*
X158822185Y-79799281D01*
X158568773Y-79805536D01*
X158460636Y-79809732D01*
X158255243Y-79811908D01*
X158146264Y-79792623D01*
X158101870Y-79741375D01*
X158090231Y-79647663D01*
X158082070Y-79507763D01*
X158061467Y-79364758D01*
X158018110Y-79299394D01*
X157935908Y-79272561D01*
X157826488Y-79283439D01*
X157677208Y-79366181D01*
X157666639Y-79375580D01*
X157558089Y-79441320D01*
X157461016Y-79417884D01*
X157355244Y-79291171D01*
X157220596Y-79047079D01*
X157087808Y-78726737D01*
X157052548Y-78468399D01*
X157126468Y-78296169D01*
X157127167Y-78295476D01*
X157202352Y-78276867D01*
X157321763Y-78346307D01*
G37*
G36*
X143464011Y-100047881D02*
G01*
X143504527Y-100153989D01*
X143483973Y-100258469D01*
X143369954Y-100477572D01*
X143175521Y-100731091D01*
X142922938Y-100991462D01*
X142634469Y-101231123D01*
X142542921Y-101296069D01*
X142387522Y-101394024D01*
X142298713Y-101432585D01*
X142264656Y-101409751D01*
X142290142Y-101323718D01*
X142389271Y-101166290D01*
X142567580Y-100929677D01*
X142830608Y-100606092D01*
X143183893Y-100187746D01*
X143221070Y-100147149D01*
X143360505Y-100046550D01*
X143464011Y-100047881D01*
G37*
G36*
X155092977Y-76523942D02*
G01*
X155204558Y-76589579D01*
X155267395Y-76745177D01*
X155278924Y-76950342D01*
X155236583Y-77164681D01*
X155137808Y-77347800D01*
X155056374Y-77402655D01*
X154915417Y-77433090D01*
X154787084Y-77419082D01*
X154731046Y-77358992D01*
X154740348Y-77296158D01*
X154780380Y-77125268D01*
X154841273Y-76902914D01*
X154914671Y-76687009D01*
X154993132Y-76560287D01*
X155085517Y-76523745D01*
X155092977Y-76523942D01*
G37*
G36*
X166316669Y-78376676D02*
G01*
X166341872Y-78491413D01*
X166386707Y-78698249D01*
X166444023Y-78964235D01*
X166568932Y-79545332D01*
X166368497Y-79713987D01*
X166338966Y-79739650D01*
X166217376Y-79866908D01*
X166168063Y-79957337D01*
X166165106Y-79978162D01*
X166093756Y-80032032D01*
X166071177Y-80028608D01*
X166056510Y-79972067D01*
X166052770Y-79904947D01*
X165998355Y-79744117D01*
X165902778Y-79534480D01*
X165857123Y-79449766D01*
X165696514Y-79230003D01*
X165545081Y-79125614D01*
X165419517Y-79137257D01*
X165336517Y-79265587D01*
X165312774Y-79511262D01*
X165301459Y-79702701D01*
X165223217Y-79953678D01*
X165087531Y-80118665D01*
X165078711Y-80124216D01*
X164927307Y-80167356D01*
X164761956Y-80156815D01*
X164655901Y-80096376D01*
X164582865Y-80027846D01*
X164422692Y-79909787D01*
X164213224Y-79771361D01*
X164010147Y-79638531D01*
X163691313Y-79397553D01*
X163497173Y-79195691D01*
X163431598Y-79036585D01*
X163441521Y-78967344D01*
X163503923Y-78919079D01*
X163644653Y-78934586D01*
X163887676Y-79012606D01*
X164046289Y-79063311D01*
X164379202Y-79118254D01*
X164635888Y-79081183D01*
X164800610Y-78953121D01*
X164887443Y-78860009D01*
X165062790Y-78772065D01*
X165344286Y-78700898D01*
X165541688Y-78654998D01*
X165824836Y-78569144D01*
X166043547Y-78480318D01*
X166113276Y-78445508D01*
X166254907Y-78380930D01*
X166313754Y-78364170D01*
X166316669Y-78376676D01*
G37*
G36*
X167748590Y-87972455D02*
G01*
X167773086Y-88025045D01*
X167747847Y-88141717D01*
X167667993Y-88342675D01*
X167528641Y-88648122D01*
X167500541Y-88709082D01*
X167349640Y-89060246D01*
X167193197Y-89455426D01*
X167060930Y-89820154D01*
X166967739Y-90109254D01*
X166903838Y-90360712D01*
X166866060Y-90610360D01*
X166847323Y-90905550D01*
X166840545Y-91293635D01*
X166842153Y-91614504D01*
X166851803Y-91937367D01*
X166868049Y-92193862D01*
X166889182Y-92347024D01*
X166905394Y-92540001D01*
X166819016Y-92714393D01*
X166713952Y-92815491D01*
X166624140Y-92848116D01*
X166610534Y-92838850D01*
X166562843Y-92724164D01*
X166522153Y-92504010D01*
X166490810Y-92205863D01*
X166471162Y-91857199D01*
X166465557Y-91485493D01*
X166476342Y-91118220D01*
X166491518Y-90907601D01*
X166546430Y-90470036D01*
X166625601Y-90092204D01*
X166722661Y-89800939D01*
X166831241Y-89623077D01*
X166996572Y-89418334D01*
X167159885Y-89083540D01*
X167220286Y-88745514D01*
X167251238Y-88474059D01*
X167351931Y-88212901D01*
X167505438Y-88032862D01*
X167694168Y-87962993D01*
X167748590Y-87972455D01*
G37*
G36*
X169999122Y-94785559D02*
G01*
X170012022Y-94813291D01*
X169986276Y-94916588D01*
X169940420Y-94969688D01*
X169901775Y-94916871D01*
X169893175Y-94851618D01*
X169929758Y-94774037D01*
X169999122Y-94785559D01*
G37*
G36*
X189922646Y-84803325D02*
G01*
X190364721Y-84810470D01*
X190667895Y-84831367D01*
X190833008Y-84867384D01*
X190860901Y-84919891D01*
X190752414Y-84990258D01*
X190508389Y-85079852D01*
X190129665Y-85190045D01*
X189848516Y-85248820D01*
X189540346Y-85282265D01*
X189256803Y-85286061D01*
X189035311Y-85259809D01*
X188913292Y-85203105D01*
X188876250Y-85118731D01*
X188877801Y-84957525D01*
X188882499Y-84940319D01*
X188907638Y-84884103D01*
X188959833Y-84845831D01*
X189061739Y-84822059D01*
X189236010Y-84809343D01*
X189505302Y-84804239D01*
X189892268Y-84803303D01*
X189922646Y-84803325D01*
G37*
G36*
X173631753Y-81445595D02*
G01*
X173663452Y-81601917D01*
X173675797Y-81820388D01*
X173687883Y-82034851D01*
X173757331Y-82258891D01*
X173899841Y-82380815D01*
X174128328Y-82417668D01*
X174307090Y-82389757D01*
X174474744Y-82259795D01*
X174549300Y-82164408D01*
X174607697Y-82147786D01*
X174676258Y-82236097D01*
X174835618Y-82445308D01*
X175026370Y-82586002D01*
X175247020Y-82628165D01*
X175310029Y-82629255D01*
X175433669Y-82651895D01*
X175511011Y-82726388D01*
X175562366Y-82881971D01*
X175608044Y-83147882D01*
X175610035Y-83160701D01*
X175711542Y-83479779D01*
X175923341Y-83797226D01*
X176026674Y-83937249D01*
X176175616Y-84194515D01*
X176266556Y-84425117D01*
X176321804Y-84601685D01*
X176404460Y-84717732D01*
X176535771Y-84769650D01*
X176776733Y-84823930D01*
X176955076Y-84892007D01*
X177088104Y-84999348D01*
X177211138Y-85175049D01*
X177359499Y-85448203D01*
X177402572Y-85529673D01*
X177547168Y-85788166D01*
X177676981Y-85999951D01*
X177768186Y-86125542D01*
X177840737Y-86230584D01*
X177867395Y-86376158D01*
X177846330Y-86603838D01*
X177843280Y-86624533D01*
X177792701Y-86925725D01*
X177736337Y-87112235D01*
X177654730Y-87207614D01*
X177528421Y-87235416D01*
X177337951Y-87219194D01*
X177320323Y-87216873D01*
X177132562Y-87200442D01*
X176995091Y-87223516D01*
X176856738Y-87304613D01*
X176666331Y-87462254D01*
X176622802Y-87499487D01*
X176416452Y-87654341D01*
X176243265Y-87730167D01*
X176053681Y-87750265D01*
X176024906Y-87750784D01*
X175780141Y-87784823D01*
X175569801Y-87855757D01*
X175361725Y-87974643D01*
X175026749Y-88193430D01*
X174668260Y-88450635D01*
X174331499Y-88713456D01*
X174061709Y-88949094D01*
X173831979Y-89146277D01*
X173560863Y-89308310D01*
X173219720Y-89435568D01*
X172829997Y-89562490D01*
X172536889Y-89678630D01*
X172356965Y-89785604D01*
X172277859Y-89893942D01*
X172287205Y-90014174D01*
X172372634Y-90156830D01*
X172382156Y-90168955D01*
X172467755Y-90236374D01*
X172601057Y-90255989D01*
X172826480Y-90235498D01*
X173184637Y-90187987D01*
X173183805Y-90460148D01*
X173183331Y-90483406D01*
X173157718Y-90719274D01*
X173098082Y-91057285D01*
X173011391Y-91469572D01*
X172904613Y-91928264D01*
X172784713Y-92405493D01*
X172658661Y-92873389D01*
X172533422Y-93304084D01*
X172415965Y-93669708D01*
X172313255Y-93942392D01*
X172247854Y-94080044D01*
X172157690Y-94185946D01*
X172062698Y-94162050D01*
X171940552Y-94012557D01*
X171881373Y-93921403D01*
X171742796Y-93656462D01*
X171633288Y-93344862D01*
X171535176Y-92939838D01*
X171478975Y-92700549D01*
X171389885Y-92379461D01*
X171302559Y-92116177D01*
X171272686Y-92035721D01*
X171215435Y-91840923D01*
X171213381Y-91696763D01*
X171262458Y-91545370D01*
X171276201Y-91509630D01*
X171314036Y-91268353D01*
X171273029Y-91039352D01*
X171166777Y-90863558D01*
X171008875Y-90781905D01*
X170976460Y-90779336D01*
X170832664Y-90819065D01*
X170709879Y-90969484D01*
X170673012Y-91024545D01*
X170498533Y-91176974D01*
X170219343Y-91296665D01*
X170085228Y-91341754D01*
X169830906Y-91434636D01*
X169635594Y-91514901D01*
X169555428Y-91563118D01*
X169374470Y-91752007D01*
X169238692Y-91996643D01*
X169185190Y-92237514D01*
X169169940Y-92381322D01*
X169117132Y-92530326D01*
X169046122Y-92591701D01*
X169042451Y-92591212D01*
X168992770Y-92521072D01*
X168947547Y-92368266D01*
X168884956Y-92178945D01*
X168788761Y-92018754D01*
X168772251Y-92000039D01*
X168713560Y-91889983D01*
X168763103Y-91786111D01*
X168825332Y-91728955D01*
X168945732Y-91679546D01*
X168973269Y-91676541D01*
X169085101Y-91585216D01*
X169158692Y-91382637D01*
X169185190Y-91090578D01*
X169201421Y-90915846D01*
X169265361Y-90748370D01*
X169394880Y-90576530D01*
X169607796Y-90377006D01*
X169921930Y-90126482D01*
X169950129Y-90104604D01*
X170097086Y-89981146D01*
X170183977Y-89892739D01*
X170188566Y-89885992D01*
X170235917Y-89704845D01*
X170202627Y-89480538D01*
X170097344Y-89274765D01*
X170095656Y-89272612D01*
X169997759Y-89120021D01*
X169957280Y-89002181D01*
X169957285Y-89001770D01*
X170010303Y-88913676D01*
X170147594Y-88774041D01*
X170339650Y-88612903D01*
X170553543Y-88425562D01*
X170758040Y-88147704D01*
X170835833Y-87852482D01*
X170794650Y-87521350D01*
X170787252Y-87496969D01*
X170647816Y-87252269D01*
X170420197Y-87033559D01*
X170149969Y-86885771D01*
X170094986Y-86862220D01*
X170034164Y-86784273D01*
X170110742Y-86687570D01*
X170325383Y-86570917D01*
X170407619Y-86532852D01*
X170658991Y-86383574D01*
X170810400Y-86208230D01*
X170884576Y-85969947D01*
X170904250Y-85631850D01*
X170904211Y-85595602D01*
X170897762Y-85343861D01*
X170871367Y-85184692D01*
X170812259Y-85075300D01*
X170707673Y-84972892D01*
X170695593Y-84962828D01*
X170481188Y-84836796D01*
X170243729Y-84761050D01*
X170203851Y-84754270D01*
X170013958Y-84711338D01*
X169894146Y-84667483D01*
X169877264Y-84654682D01*
X169845697Y-84550927D01*
X169903758Y-84430574D01*
X170029157Y-84346598D01*
X170083682Y-84317301D01*
X170227680Y-84200839D01*
X170408706Y-84027521D01*
X170598573Y-83827581D01*
X170769092Y-83631253D01*
X170892075Y-83468771D01*
X170939333Y-83370368D01*
X170909783Y-83276205D01*
X170797792Y-83101003D01*
X170628678Y-82899928D01*
X170430659Y-82709635D01*
X170411719Y-82693321D01*
X170274883Y-82540080D01*
X170247799Y-82385573D01*
X170319104Y-82175389D01*
X170347471Y-82123993D01*
X170499688Y-82011265D01*
X170726757Y-82015234D01*
X171026035Y-82136045D01*
X171068712Y-82158150D01*
X171255083Y-82224985D01*
X171428281Y-82215423D01*
X171624685Y-82120800D01*
X171880673Y-81932449D01*
X171974571Y-81860323D01*
X172230428Y-81710067D01*
X172485748Y-81652413D01*
X172800443Y-81670283D01*
X172997081Y-81685362D01*
X173157322Y-81647836D01*
X173320275Y-81533779D01*
X173364773Y-81498506D01*
X173510238Y-81412131D01*
X173604195Y-81399377D01*
X173631753Y-81445595D01*
G37*
G36*
X184411156Y-120622916D02*
G01*
X184376074Y-120657999D01*
X184340991Y-120622916D01*
X184376074Y-120587834D01*
X184411156Y-120622916D01*
G37*
G36*
X145376551Y-99981624D02*
G01*
X145363465Y-100081894D01*
X145336789Y-100150715D01*
X145277609Y-100327474D01*
X145243435Y-100392201D01*
X145139391Y-100450265D01*
X145093823Y-100443977D01*
X145062119Y-100397640D01*
X145117316Y-100285774D01*
X145222369Y-100088598D01*
X145294024Y-99987554D01*
X145347606Y-99959104D01*
X145376551Y-99981624D01*
G37*
G36*
X190024416Y-120903579D02*
G01*
X189989333Y-120938662D01*
X189954250Y-120903579D01*
X189989333Y-120868497D01*
X190024416Y-120903579D01*
G37*
G36*
X190305079Y-115079823D02*
G01*
X190269996Y-115114905D01*
X190234913Y-115079823D01*
X190269996Y-115044740D01*
X190305079Y-115079823D01*
G37*
G36*
X167881582Y-97092037D02*
G01*
X167928388Y-97228556D01*
X167982808Y-97439529D01*
X168037649Y-97691699D01*
X168085717Y-97951811D01*
X168119818Y-98186607D01*
X168132758Y-98362834D01*
X168131438Y-98397587D01*
X168092318Y-98524343D01*
X168023012Y-98554353D01*
X167956275Y-98468082D01*
X167928822Y-98345449D01*
X167899507Y-98130181D01*
X167872970Y-97864913D01*
X167852039Y-97587506D01*
X167839542Y-97335822D01*
X167838308Y-97147723D01*
X167851165Y-97061070D01*
X167881582Y-97092037D01*
G37*
G36*
X196760328Y-124482032D02*
G01*
X196725245Y-124517115D01*
X196690162Y-124482032D01*
X196725245Y-124446950D01*
X196760328Y-124482032D01*
G37*
G36*
X142059679Y-77383419D02*
G01*
X142061618Y-77537811D01*
X142034970Y-77752980D01*
X141985807Y-77985058D01*
X141920202Y-78190182D01*
X141915174Y-78202224D01*
X141816776Y-78356996D01*
X141709107Y-78418220D01*
X141687711Y-78417247D01*
X141629998Y-78384596D01*
X141613737Y-78280891D01*
X141631421Y-78072749D01*
X141654163Y-77928383D01*
X141727795Y-77663165D01*
X141826044Y-77458451D01*
X141934452Y-77340431D01*
X142038559Y-77335294D01*
X142059679Y-77383419D01*
G37*
%TO.C,D16*%
X126032800Y-80873600D02*
X127937800Y-80873600D01*
%TO.C,D33*%
X108165650Y-114799900D02*
X110070650Y-114799900D01*
%TO.C,D32*%
X96121700Y-110604050D02*
X96121700Y-112509050D01*
%TO.C,D10*%
X198168800Y-63855600D02*
X200073800Y-63855600D01*
%TO.C,D13*%
X72184800Y-80873600D02*
X74089800Y-80873600D01*
%TO.C,D21*%
X36116800Y-97891600D02*
X38021800Y-97891600D01*
%TO.C,D12*%
X54150800Y-80873600D02*
X56055800Y-80873600D01*
%TD*%
D12*
%TO.C,U1*%
X22453600Y-128879600D03*
D13*
X24993600Y-128879600D03*
X27533600Y-128879600D03*
X30073600Y-128879600D03*
X32613600Y-128879600D03*
X35153600Y-128879600D03*
X37693600Y-128879600D03*
X40233600Y-128879600D03*
X42773600Y-128879600D03*
X45313600Y-128879600D03*
X47853600Y-128879600D03*
X50393600Y-128879600D03*
X50393600Y-113639600D03*
X47853600Y-113639600D03*
X45313600Y-113639600D03*
X42773600Y-113639600D03*
X40233600Y-113639600D03*
X37693600Y-113639600D03*
X35153600Y-113639600D03*
X32613600Y-113639600D03*
X30073600Y-113639600D03*
X27533600Y-113639600D03*
X24993600Y-113639600D03*
X22453600Y-113639600D03*
%TD*%
D14*
%TO.C,D27*%
X144968500Y-99314000D03*
D15*
X144968500Y-106934000D03*
%TD*%
D14*
%TO.C,D17*%
X144968500Y-82296000D03*
D15*
X144968500Y-89916000D03*
%TD*%
D14*
%TO.C,D28*%
X163002500Y-99314000D03*
D15*
X163002500Y-106934000D03*
%TD*%
D14*
%TO.C,D4*%
X91120500Y-65278000D03*
D15*
X91120500Y-72898000D03*
%TD*%
D14*
%TO.C,D6*%
X127000000Y-65278000D03*
D15*
X127000000Y-72898000D03*
%TD*%
D14*
%TO.C,D1*%
X37018500Y-65278000D03*
D15*
X37018500Y-72898000D03*
%TD*%
D14*
%TO.C,D25*%
X109154500Y-99314000D03*
D15*
X109154500Y-106934000D03*
%TD*%
D14*
%TO.C,D11*%
X37018500Y-82296000D03*
D15*
X37018500Y-89916000D03*
%TD*%
D14*
%TO.C,D7*%
X144968500Y-65278000D03*
D15*
X144968500Y-72898000D03*
%TD*%
D14*
%TO.C,D23*%
X73086500Y-99314000D03*
D15*
X73086500Y-106934000D03*
%TD*%
D14*
%TO.C,D14*%
X91120500Y-82296000D03*
D15*
X91120500Y-89916000D03*
%TD*%
D14*
%TO.C,D20*%
X198816500Y-82296000D03*
D15*
X198816500Y-89916000D03*
%TD*%
D14*
%TO.C,D15*%
X109154500Y-82296000D03*
D15*
X109154500Y-89916000D03*
%TD*%
D14*
%TO.C,D36*%
X163002500Y-116332000D03*
D15*
X163002500Y-123952000D03*
%TD*%
D14*
%TO.C,D9*%
X181036500Y-65278000D03*
D15*
X181036500Y-72898000D03*
%TD*%
D14*
%TO.C,D31*%
X73086500Y-116332000D03*
D15*
X73086500Y-123952000D03*
%TD*%
D14*
%TO.C,D24*%
X90866500Y-99314000D03*
D15*
X90866500Y-106934000D03*
%TD*%
D14*
%TO.C,D2*%
X55052500Y-65278000D03*
D15*
X55052500Y-72898000D03*
%TD*%
D14*
%TO.C,D19*%
X181036500Y-82296000D03*
D15*
X181036500Y-89916000D03*
%TD*%
D14*
%TO.C,D26*%
X126934500Y-99314000D03*
D15*
X126934500Y-106934000D03*
%TD*%
D14*
%TO.C,D30*%
X199070500Y-99314000D03*
D15*
X199070500Y-106934000D03*
%TD*%
D14*
%TO.C,D22*%
X55052500Y-99314000D03*
D15*
X55052500Y-106934000D03*
%TD*%
D14*
%TO.C,D5*%
X108900500Y-65278000D03*
D15*
X108900500Y-72898000D03*
%TD*%
D14*
%TO.C,D3*%
X73086500Y-65278000D03*
D15*
X73086500Y-72898000D03*
%TD*%
D14*
%TO.C,D18*%
X163002500Y-82296000D03*
D15*
X163002500Y-89916000D03*
%TD*%
D14*
%TO.C,D35*%
X144968500Y-116332000D03*
D15*
X144968500Y-123952000D03*
%TD*%
D14*
%TO.C,D29*%
X181036500Y-99314000D03*
D15*
X181036500Y-106934000D03*
%TD*%
D14*
%TO.C,D34*%
X130462500Y-111556550D03*
D15*
X122842500Y-111556550D03*
%TD*%
D14*
%TO.C,D8*%
X163002500Y-65278000D03*
D15*
X163002500Y-72898000D03*
%TD*%
D14*
%TO.C,D16*%
X126934500Y-82296000D03*
D15*
X126934500Y-89916000D03*
%TD*%
D14*
%TO.C,D33*%
X109067350Y-116222300D03*
D15*
X109067350Y-123842300D03*
%TD*%
D14*
%TO.C,D32*%
X94699300Y-111505750D03*
D15*
X87079300Y-111505750D03*
%TD*%
D14*
%TO.C,D10*%
X199070500Y-65278000D03*
D15*
X199070500Y-72898000D03*
%TD*%
D14*
%TO.C,D13*%
X73086500Y-82296000D03*
D15*
X73086500Y-89916000D03*
%TD*%
D14*
%TO.C,D21*%
X37018500Y-99314000D03*
D15*
X37018500Y-106934000D03*
%TD*%
D14*
%TO.C,D12*%
X55052500Y-82296000D03*
D15*
X55052500Y-89916000D03*
%TD*%
M02*
