%TF.GenerationSoftware,KiCad,Pcbnew,(5.99.0-9795-gc3c3649211)*%
%TF.CreationDate,2021-06-20T23:13:27-05:00*%
%TF.ProjectId,_autosave-free10u,5f617574-6f73-4617-9665-2d6672656531,rev?*%
%TF.SameCoordinates,Original*%
%TF.FileFunction,Legend,Top*%
%TF.FilePolarity,Positive*%
%FSLAX46Y46*%
G04 Gerber Fmt 4.6, Leading zero omitted, Abs format (unit mm)*
G04 Created by KiCad (PCBNEW (5.99.0-9795-gc3c3649211)) date 2021-06-20 23:13:27*
%MOMM*%
%LPD*%
G01*
G04 APERTURE LIST*
%ADD10C,0.150000*%
%ADD11R,1.752600X1.752600*%
%ADD12C,1.752600*%
%ADD13R,1.778000X1.778000*%
%ADD14C,1.778000*%
G04 APERTURE END LIST*
D10*
%TO.C,U1*%
X21975980Y-126997695D02*
X21975980Y-126426266D01*
X22975980Y-126711980D02*
X21975980Y-126711980D01*
X21975980Y-126188171D02*
X22975980Y-125521504D01*
X21975980Y-125521504D02*
X22975980Y-126188171D01*
X21975980Y-124950076D02*
X21975980Y-124854838D01*
X22023600Y-124759600D01*
X22071219Y-124711980D01*
X22166457Y-124664361D01*
X22356933Y-124616742D01*
X22595028Y-124616742D01*
X22785504Y-124664361D01*
X22880742Y-124711980D01*
X22928361Y-124759600D01*
X22975980Y-124854838D01*
X22975980Y-124950076D01*
X22928361Y-125045314D01*
X22880742Y-125092933D01*
X22785504Y-125140552D01*
X22595028Y-125188171D01*
X22356933Y-125188171D01*
X22166457Y-125140552D01*
X22071219Y-125092933D01*
X22023600Y-125045314D01*
X21975980Y-124950076D01*
X22975980Y-117350076D02*
X22499790Y-117683409D01*
X22975980Y-117921504D02*
X21975980Y-117921504D01*
X21975980Y-117540552D01*
X22023600Y-117445314D01*
X22071219Y-117397695D01*
X22166457Y-117350076D01*
X22309314Y-117350076D01*
X22404552Y-117397695D01*
X22452171Y-117445314D01*
X22499790Y-117540552D01*
X22499790Y-117921504D01*
X22690266Y-116969123D02*
X22690266Y-116492933D01*
X22975980Y-117064361D02*
X21975980Y-116731028D01*
X22975980Y-116397695D01*
X21975980Y-116159600D02*
X22975980Y-115921504D01*
X22261695Y-115731028D01*
X22975980Y-115540552D01*
X21975980Y-115302457D01*
%TO.C,G\u002A\u002A\u002A*%
G36*
X191693162Y-118916450D02*
G01*
X191736571Y-119072269D01*
X191791676Y-119287929D01*
X191851184Y-119533118D01*
X191907801Y-119777520D01*
X191954233Y-119990824D01*
X191983186Y-120142717D01*
X191988096Y-120178085D01*
X191972106Y-120258930D01*
X191884222Y-120283106D01*
X191739714Y-120266408D01*
X191661288Y-120195811D01*
X191595229Y-120033948D01*
X191546509Y-119812634D01*
X191520100Y-119563685D01*
X191520976Y-119318912D01*
X191554110Y-119110132D01*
X191557288Y-119099260D01*
X191611255Y-118943786D01*
X191655032Y-118857505D01*
X191668742Y-118850784D01*
X191693162Y-118916450D01*
G37*
G36*
X198060687Y-118997000D02*
G01*
X198255528Y-121037662D01*
X197946793Y-121064672D01*
X197780223Y-119160780D01*
X197732352Y-118620912D01*
X197692499Y-118191839D01*
X197659010Y-117861437D01*
X197630231Y-117617581D01*
X197604508Y-117448146D01*
X197580185Y-117341007D01*
X197555608Y-117284038D01*
X197529124Y-117265115D01*
X197521530Y-117264947D01*
X197436899Y-117238935D01*
X197424034Y-117211592D01*
X197361647Y-117197198D01*
X197181167Y-117196778D01*
X196886979Y-117210102D01*
X196483468Y-117236943D01*
X195975023Y-117277069D01*
X195668308Y-117303311D01*
X195127669Y-117351937D01*
X194700460Y-117393562D01*
X194377087Y-117429437D01*
X194147955Y-117460806D01*
X194003470Y-117488920D01*
X193934038Y-117515026D01*
X193924403Y-117530147D01*
X193907674Y-117573487D01*
X193855193Y-117540362D01*
X193803841Y-117432551D01*
X193808299Y-117376524D01*
X193827112Y-117347987D01*
X193874161Y-117322619D01*
X193961707Y-117298857D01*
X194102011Y-117275143D01*
X194307335Y-117249911D01*
X194589941Y-117221601D01*
X194962089Y-117188651D01*
X195436043Y-117149498D01*
X195851455Y-117116254D01*
X197865846Y-116956337D01*
X198060687Y-118997000D01*
G37*
G36*
X191128792Y-119524123D02*
G01*
X191171592Y-119679406D01*
X191226162Y-119894540D01*
X191285247Y-120139221D01*
X191341594Y-120383139D01*
X191387947Y-120595987D01*
X191417055Y-120747457D01*
X191422295Y-120784560D01*
X191423055Y-120844578D01*
X191392599Y-120877251D01*
X191305702Y-120887243D01*
X191137139Y-120879220D01*
X190976743Y-120866941D01*
X190797923Y-120849775D01*
X190678831Y-120832672D01*
X190653472Y-120825145D01*
X190663064Y-120763175D01*
X190704930Y-120607924D01*
X190772280Y-120383060D01*
X190855204Y-120121841D01*
X190944279Y-119856325D01*
X191021185Y-119642671D01*
X191077604Y-119502941D01*
X191105017Y-119459001D01*
X191128792Y-119524123D01*
G37*
G36*
X165240954Y-120367619D02*
G01*
X165871697Y-120294769D01*
X166174147Y-120255604D01*
X166372048Y-120218359D01*
X166483974Y-120178347D01*
X166528497Y-120130885D01*
X166529084Y-120128954D01*
X166595610Y-120050532D01*
X166697900Y-120027830D01*
X166780153Y-120065273D01*
X166796312Y-120107770D01*
X166814473Y-120139091D01*
X166872766Y-120158264D01*
X166986719Y-120165174D01*
X167171853Y-120159699D01*
X167443694Y-120141724D01*
X167817766Y-120111127D01*
X167958991Y-120098878D01*
X168408075Y-120056876D01*
X168744919Y-120018811D01*
X168980457Y-119983037D01*
X169125626Y-119947912D01*
X169189602Y-119913856D01*
X169240356Y-119869505D01*
X169231220Y-119905939D01*
X169238760Y-119994913D01*
X169262638Y-120015143D01*
X169289456Y-120087492D01*
X169322765Y-120277277D01*
X169361865Y-120578844D01*
X169406048Y-120986538D01*
X169454616Y-121494703D01*
X169474802Y-121721288D01*
X169524287Y-122267224D01*
X169567471Y-122698938D01*
X169605509Y-123025284D01*
X169639551Y-123255112D01*
X169670752Y-123397278D01*
X169700262Y-123460634D01*
X169701320Y-123461568D01*
X169749372Y-123518686D01*
X169707768Y-123535267D01*
X169663074Y-123597315D01*
X169654361Y-123761701D01*
X169658248Y-123818086D01*
X169682427Y-124094458D01*
X165565908Y-124454607D01*
X165556135Y-124331690D01*
X165553208Y-124294872D01*
X165976968Y-124294872D01*
X166565299Y-124243400D01*
X166838077Y-124217528D01*
X167010014Y-124193428D01*
X167103293Y-124164604D01*
X167140099Y-124124557D01*
X167143323Y-124074119D01*
X167149319Y-123918194D01*
X167161796Y-123855901D01*
X167160542Y-123806066D01*
X167105623Y-123781217D01*
X166974763Y-123778343D01*
X166745682Y-123794433D01*
X166722215Y-123796469D01*
X166485912Y-123815283D01*
X166347823Y-123816718D01*
X166283438Y-123795322D01*
X166268247Y-123745641D01*
X166273018Y-123696526D01*
X166276953Y-123654566D01*
X166279251Y-123630056D01*
X166557110Y-123630056D01*
X166600783Y-123667521D01*
X166719264Y-123671493D01*
X166848811Y-123661621D01*
X166993349Y-123647922D01*
X167091070Y-123622647D01*
X167152585Y-123564519D01*
X167188506Y-123452264D01*
X167209445Y-123264607D01*
X167226014Y-122980272D01*
X167230455Y-122896484D01*
X167248467Y-122668414D01*
X167272828Y-122503204D01*
X167299312Y-122426004D01*
X167309573Y-122425418D01*
X167359157Y-122491194D01*
X167462050Y-122641993D01*
X167605538Y-122858709D01*
X167776903Y-123122233D01*
X167876842Y-123277722D01*
X168392672Y-124083525D01*
X168940053Y-124035636D01*
X169181874Y-124010948D01*
X169368350Y-123985181D01*
X169472091Y-123962443D01*
X169484480Y-123953988D01*
X169452611Y-123883752D01*
X169379113Y-123758568D01*
X169371973Y-123747230D01*
X169296994Y-123647396D01*
X169210082Y-123600578D01*
X169069702Y-123593268D01*
X168929552Y-123603352D01*
X168596684Y-123632474D01*
X168193446Y-123016469D01*
X168021838Y-122751177D01*
X167908044Y-122561459D01*
X167840958Y-122420648D01*
X167809480Y-122302074D01*
X167802505Y-122179071D01*
X167805789Y-122085376D01*
X167823486Y-121917874D01*
X167852300Y-121824390D01*
X167874091Y-121817866D01*
X167924131Y-121884035D01*
X168027434Y-122035199D01*
X168171247Y-122252218D01*
X168342816Y-122515950D01*
X168442642Y-122671247D01*
X168656469Y-122998692D01*
X168818599Y-123230338D01*
X168938163Y-123377643D01*
X169024285Y-123452063D01*
X169076502Y-123466724D01*
X169121481Y-123451131D01*
X169128082Y-123403419D01*
X169089167Y-123305967D01*
X168997605Y-123141156D01*
X168846257Y-122891365D01*
X168838252Y-122878374D01*
X168481973Y-122300349D01*
X168898679Y-121807103D01*
X169315384Y-121313855D01*
X169265548Y-120744221D01*
X169240263Y-120477123D01*
X169216554Y-120310395D01*
X169187379Y-120221405D01*
X169145695Y-120187522D01*
X169091691Y-120185437D01*
X169006998Y-120235796D01*
X168853518Y-120372498D01*
X168640451Y-120586392D01*
X168377000Y-120868320D01*
X168140156Y-121132161D01*
X167889662Y-121414290D01*
X167668468Y-121661195D01*
X167488886Y-121859312D01*
X167363238Y-121995077D01*
X167303835Y-122054926D01*
X167300836Y-122056525D01*
X167300743Y-121994403D01*
X167308607Y-121831777D01*
X167323137Y-121591098D01*
X167343050Y-121294815D01*
X167350580Y-121188698D01*
X167412130Y-120332380D01*
X166782154Y-120387496D01*
X166680769Y-121897102D01*
X166651730Y-122323208D01*
X166624274Y-122714369D01*
X166599784Y-123051825D01*
X166579639Y-123316814D01*
X166565220Y-123490577D01*
X166559298Y-123547707D01*
X166557110Y-123630056D01*
X166279251Y-123630056D01*
X166282418Y-123596284D01*
X166298283Y-123392381D01*
X166319220Y-123104208D01*
X166343840Y-122751155D01*
X166370751Y-122352610D01*
X166385829Y-122124035D01*
X166413358Y-121708921D01*
X166439274Y-121328775D01*
X166462198Y-121002985D01*
X166480752Y-120750939D01*
X166493559Y-120592026D01*
X166497615Y-120551634D01*
X166488040Y-120444712D01*
X166403196Y-120420781D01*
X166392921Y-120421549D01*
X166352813Y-120424310D01*
X166320545Y-120433326D01*
X166294314Y-120461414D01*
X166272314Y-120521391D01*
X166252744Y-120626072D01*
X166233797Y-120788272D01*
X166213671Y-121020809D01*
X166190562Y-121336499D01*
X166162665Y-121748158D01*
X166128177Y-122268600D01*
X166123933Y-122332605D01*
X166094219Y-122775710D01*
X166066131Y-123185785D01*
X166040975Y-123544418D01*
X166020062Y-123833197D01*
X166004697Y-124033713D01*
X165996756Y-124122954D01*
X165976968Y-124294872D01*
X165553208Y-124294872D01*
X165403430Y-122411113D01*
X165240954Y-120367619D01*
G37*
G36*
X181793578Y-120340848D02*
G01*
X181836378Y-120496131D01*
X181890947Y-120711266D01*
X181950032Y-120955946D01*
X182006379Y-121199864D01*
X182052733Y-121412712D01*
X182081840Y-121564183D01*
X182087080Y-121601285D01*
X182087840Y-121661304D01*
X182057384Y-121693976D01*
X181970487Y-121703969D01*
X181801925Y-121695945D01*
X181641528Y-121683666D01*
X181462709Y-121666500D01*
X181343616Y-121649398D01*
X181318257Y-121641870D01*
X181327849Y-121579900D01*
X181369716Y-121424650D01*
X181437066Y-121199785D01*
X181519990Y-120938567D01*
X181609064Y-120673050D01*
X181685970Y-120459396D01*
X181742390Y-120319666D01*
X181769803Y-120275727D01*
X181793578Y-120340848D01*
G37*
G36*
X174855106Y-123188855D02*
G01*
X174814088Y-123109975D01*
X174739573Y-123095068D01*
X174735379Y-123095408D01*
X174638114Y-123065418D01*
X174611708Y-122966985D01*
X174604894Y-122871345D01*
X174587939Y-122669928D01*
X174562362Y-122379708D01*
X174555738Y-122306327D01*
X174912612Y-122306327D01*
X174963737Y-122905243D01*
X175014864Y-123504159D01*
X177765139Y-123263541D01*
X177777717Y-122829238D01*
X175460915Y-123031932D01*
X175380126Y-121666565D01*
X175146369Y-121986447D01*
X174912612Y-122306327D01*
X174555738Y-122306327D01*
X174529682Y-122017656D01*
X174497034Y-121661940D01*
X174491418Y-121600745D01*
X174452105Y-121178361D01*
X174449088Y-121145947D01*
X174441347Y-121063424D01*
X174441138Y-121061196D01*
X175791307Y-121061196D01*
X175822790Y-121076965D01*
X175897533Y-120990927D01*
X175914599Y-120965474D01*
X175961349Y-120888080D01*
X175930880Y-120906113D01*
X175889383Y-120944314D01*
X175810952Y-121027519D01*
X175791307Y-121061196D01*
X174441138Y-121061196D01*
X174410116Y-120730861D01*
X174395963Y-120580161D01*
X176132626Y-120580161D01*
X176136542Y-120620139D01*
X176147407Y-120620205D01*
X176195002Y-120573749D01*
X176245482Y-120503323D01*
X176292232Y-120425930D01*
X176261763Y-120443963D01*
X176220266Y-120482164D01*
X176132626Y-120580161D01*
X174395963Y-120580161D01*
X174360738Y-120205084D01*
X174345873Y-120046793D01*
X174842403Y-120046793D01*
X174848614Y-120162401D01*
X174897697Y-120232407D01*
X175008986Y-120268203D01*
X175201813Y-120281180D01*
X175495509Y-120282726D01*
X175553009Y-120282675D01*
X175837825Y-120282834D01*
X176078945Y-120283600D01*
X176248559Y-120284843D01*
X176316105Y-120286200D01*
X176396913Y-120244798D01*
X176501958Y-120138958D01*
X176508725Y-120130488D01*
X176634428Y-119970816D01*
X176457565Y-119952953D01*
X176314785Y-119945532D01*
X176090127Y-119941468D01*
X175824985Y-119941376D01*
X175739828Y-119942265D01*
X175480691Y-119943873D01*
X175320249Y-119936129D01*
X175233931Y-119912784D01*
X175197169Y-119867592D01*
X175186003Y-119801414D01*
X175147807Y-119689247D01*
X175038921Y-119665251D01*
X175027189Y-119666149D01*
X174917860Y-119704803D01*
X174867704Y-119818422D01*
X174859733Y-119874193D01*
X174842403Y-120046793D01*
X174345873Y-120046793D01*
X174308758Y-119651586D01*
X175389496Y-119651586D01*
X176112311Y-119657439D01*
X176398412Y-119661993D01*
X176636975Y-119670010D01*
X176802389Y-119680341D01*
X176868562Y-119691346D01*
X176848454Y-119749460D01*
X176767402Y-119884660D01*
X176640117Y-120076674D01*
X176481315Y-120305227D01*
X176305706Y-120550047D01*
X176128005Y-120790860D01*
X175962923Y-121007392D01*
X175825175Y-121179369D01*
X175729471Y-121286518D01*
X175692612Y-121311747D01*
X175625303Y-121337648D01*
X175538155Y-121433070D01*
X175434432Y-121579929D01*
X175562382Y-121450842D01*
X175658300Y-121376538D01*
X175693723Y-121390091D01*
X175663738Y-121469294D01*
X175587971Y-121566496D01*
X175536274Y-121638425D01*
X175507960Y-121734154D01*
X175500768Y-121881004D01*
X175512432Y-122106294D01*
X175527764Y-122293043D01*
X175580663Y-122897683D01*
X177791635Y-122704248D01*
X177778532Y-122554472D01*
X177771374Y-122494660D01*
X177750116Y-122451571D01*
X177696924Y-122422149D01*
X177593958Y-122403338D01*
X177423384Y-122392077D01*
X177167365Y-122385311D01*
X176808063Y-122379982D01*
X176756522Y-122379286D01*
X176275300Y-122372766D01*
X177028882Y-121323779D01*
X177782465Y-120274794D01*
X177775744Y-119850532D01*
X177769024Y-119426269D01*
X176579260Y-119538928D01*
X175389496Y-119651586D01*
X174308758Y-119651586D01*
X174275618Y-119298701D01*
X174033579Y-119319877D01*
X173868795Y-119319908D01*
X173760872Y-119293620D01*
X173748209Y-119282958D01*
X173672959Y-119262744D01*
X173509452Y-119257767D01*
X173286854Y-119265441D01*
X173034329Y-119283182D01*
X172781041Y-119308404D01*
X172556157Y-119338523D01*
X172388838Y-119370953D01*
X172308251Y-119403110D01*
X172305080Y-119410870D01*
X172246864Y-119442582D01*
X172069520Y-119474756D01*
X171777218Y-119506810D01*
X171403225Y-119536186D01*
X171051788Y-119559402D01*
X170804670Y-119571991D01*
X170643246Y-119572728D01*
X170548894Y-119560381D01*
X170502988Y-119533724D01*
X170486905Y-119491526D01*
X170485108Y-119475613D01*
X170485531Y-119441875D01*
X170501462Y-119413527D01*
X170545174Y-119388743D01*
X170628938Y-119365697D01*
X170765026Y-119342561D01*
X170965708Y-119317507D01*
X171243256Y-119288710D01*
X171609943Y-119254341D01*
X172078039Y-119212574D01*
X172501086Y-119175466D01*
X174527810Y-118998150D01*
X174569531Y-119257515D01*
X174611253Y-119516881D01*
X174877522Y-119493585D01*
X175080014Y-119454487D01*
X175169003Y-119381367D01*
X175171083Y-119375073D01*
X175235468Y-119292328D01*
X175326600Y-119275844D01*
X175389635Y-119330669D01*
X175394447Y-119354504D01*
X175411749Y-119381267D01*
X175466941Y-119398858D01*
X175573156Y-119407004D01*
X175743527Y-119405434D01*
X175991188Y-119393875D01*
X176329272Y-119372056D01*
X176770912Y-119339704D01*
X177016018Y-119320935D01*
X178629617Y-119196262D01*
X178824458Y-121236925D01*
X179019298Y-123277588D01*
X174902778Y-123637737D01*
X174892032Y-123514905D01*
X174878599Y-123361365D01*
X174855106Y-123188855D01*
G37*
G36*
X179523059Y-122780995D02*
G01*
X179482541Y-122702245D01*
X179408028Y-122686711D01*
X179399194Y-122687377D01*
X179364493Y-122686885D01*
X179335540Y-122670284D01*
X179310402Y-122624917D01*
X179287142Y-122538130D01*
X179263826Y-122397266D01*
X179238522Y-122189671D01*
X179209291Y-121902687D01*
X179174202Y-121523661D01*
X179131319Y-121039935D01*
X179109794Y-120794231D01*
X178943225Y-118890339D01*
X178670478Y-118914201D01*
X178495790Y-118916667D01*
X178376424Y-118894832D01*
X178354401Y-118879968D01*
X178279396Y-118864192D01*
X178103031Y-118862075D01*
X177846258Y-118871688D01*
X177530028Y-118891100D01*
X177175293Y-118918380D01*
X176803005Y-118951595D01*
X176434116Y-118988817D01*
X176089575Y-119028113D01*
X175790337Y-119067552D01*
X175557351Y-119105204D01*
X175411570Y-119139138D01*
X175377639Y-119154322D01*
X175250651Y-119198585D01*
X175155992Y-119150691D01*
X175132351Y-119033931D01*
X175137870Y-119009975D01*
X175156683Y-118981438D01*
X175203731Y-118956070D01*
X175291278Y-118932308D01*
X175431582Y-118908594D01*
X175636906Y-118883362D01*
X175919511Y-118855052D01*
X176291660Y-118822102D01*
X176765613Y-118782949D01*
X177181025Y-118749705D01*
X179195417Y-118589788D01*
X179278859Y-119108518D01*
X180312828Y-119018058D01*
X180701277Y-118982452D01*
X180983201Y-118951959D01*
X181175120Y-118923692D01*
X181293550Y-118894758D01*
X181355010Y-118862268D01*
X181374087Y-118832380D01*
X181451543Y-118743713D01*
X181502001Y-118728361D01*
X181576739Y-118759259D01*
X181575826Y-118813047D01*
X181581539Y-118849214D01*
X181634848Y-118871182D01*
X181752618Y-118879635D01*
X181951710Y-118875249D01*
X182248986Y-118858708D01*
X182423127Y-118847219D01*
X183297225Y-118787900D01*
X183479988Y-120523218D01*
X183528156Y-120989548D01*
X183571953Y-121430759D01*
X183609608Y-121827593D01*
X183639344Y-122160790D01*
X183659387Y-122411089D01*
X183667962Y-122559232D01*
X183668073Y-122564472D01*
X183673395Y-122870407D01*
X179570385Y-123229374D01*
X179559639Y-123106542D01*
X179558701Y-123095827D01*
X179682119Y-123095827D01*
X180826623Y-122995696D01*
X180910322Y-122771772D01*
X180994020Y-122547848D01*
X180565103Y-122585373D01*
X180340649Y-122602779D01*
X180211261Y-122600874D01*
X180149284Y-122572281D01*
X180127063Y-122509625D01*
X180122789Y-122469356D01*
X180122575Y-122467340D01*
X180124157Y-122458135D01*
X180251042Y-122458135D01*
X180716052Y-122435627D01*
X180956360Y-122428305D01*
X181094919Y-122437416D01*
X181152584Y-122466287D01*
X181154565Y-122505563D01*
X181173991Y-122578730D01*
X181246464Y-122587648D01*
X181363950Y-122586208D01*
X181563602Y-122592042D01*
X181804573Y-122603903D01*
X181832132Y-122605539D01*
X182086423Y-122627519D01*
X182242237Y-122660276D01*
X182324332Y-122710588D01*
X182346226Y-122746220D01*
X182383346Y-122800174D01*
X182455618Y-122828766D01*
X182588910Y-122835005D01*
X182809090Y-122821896D01*
X182918107Y-122812715D01*
X183171181Y-122789164D01*
X183323290Y-122767355D01*
X183396353Y-122738955D01*
X183412293Y-122695633D01*
X183394044Y-122631832D01*
X183351361Y-122491657D01*
X183337366Y-122420189D01*
X183280883Y-122376585D01*
X183118054Y-122366103D01*
X182961317Y-122375732D01*
X182766268Y-122384757D01*
X182630929Y-122375701D01*
X182588211Y-122355277D01*
X182529023Y-122329363D01*
X182374271Y-122303955D01*
X182151639Y-122282975D01*
X182024249Y-122275407D01*
X181778506Y-122260483D01*
X181587148Y-122243191D01*
X181477716Y-122226299D01*
X181462330Y-122218882D01*
X181492647Y-122096239D01*
X181576481Y-121991105D01*
X181673101Y-121954118D01*
X181675037Y-121954448D01*
X181782753Y-121966233D01*
X181978092Y-121980530D01*
X182225478Y-121994858D01*
X182322782Y-121999655D01*
X182594732Y-122017078D01*
X182767453Y-122042213D01*
X182865003Y-122080738D01*
X182911437Y-122138331D01*
X182911556Y-122138615D01*
X183009167Y-122228223D01*
X183108248Y-122239105D01*
X183162340Y-122233637D01*
X183202332Y-122219170D01*
X183226436Y-122182720D01*
X183232860Y-122111308D01*
X183219813Y-121991947D01*
X183185508Y-121811655D01*
X183128152Y-121557449D01*
X183045957Y-121216347D01*
X182937130Y-120775364D01*
X182867962Y-120496377D01*
X182507586Y-119042642D01*
X181467808Y-119098372D01*
X180251042Y-122458135D01*
X180124157Y-122458135D01*
X180139496Y-122368885D01*
X180194185Y-122172201D01*
X180281090Y-121894497D01*
X180394658Y-121552983D01*
X180529337Y-121164869D01*
X180661929Y-120795646D01*
X180811565Y-120385033D01*
X180947807Y-120010539D01*
X181064768Y-119688396D01*
X181156562Y-119434833D01*
X181217302Y-119266083D01*
X181240630Y-119199901D01*
X181218317Y-119134077D01*
X181183183Y-119129383D01*
X181146506Y-119186718D01*
X181074316Y-119344676D01*
X180972523Y-119587742D01*
X180847038Y-119900405D01*
X180703768Y-120267150D01*
X180548623Y-120672465D01*
X180387512Y-121100836D01*
X180226344Y-121536752D01*
X180071029Y-121964697D01*
X179927475Y-122369159D01*
X179801591Y-122734626D01*
X179743342Y-122909385D01*
X179682119Y-123095827D01*
X179558701Y-123095827D01*
X179546205Y-122953002D01*
X179523059Y-122780995D01*
G37*
G36*
X170187844Y-123597720D02*
G01*
X170147327Y-123518971D01*
X170072813Y-123503436D01*
X170063980Y-123504102D01*
X169959982Y-123483564D01*
X169939052Y-123423940D01*
X169999473Y-123372702D01*
X170034784Y-123321284D01*
X169985945Y-123218082D01*
X169946375Y-123099671D01*
X169904068Y-122865027D01*
X169860038Y-122521159D01*
X169815306Y-122075077D01*
X169807830Y-121991010D01*
X169773850Y-121583303D01*
X169753380Y-121281441D01*
X169746265Y-121068726D01*
X169752352Y-120928462D01*
X169771485Y-120843949D01*
X169796851Y-120804490D01*
X169836996Y-120728781D01*
X169853903Y-120590436D01*
X169848683Y-120367907D01*
X169831289Y-120137073D01*
X169780292Y-119554172D01*
X169584630Y-119616671D01*
X169412138Y-119659869D01*
X169178683Y-119702524D01*
X168911254Y-119741687D01*
X168636835Y-119774412D01*
X168382414Y-119797749D01*
X168174979Y-119808753D01*
X168041516Y-119804476D01*
X168006149Y-119789069D01*
X167947559Y-119763648D01*
X167799104Y-119755548D01*
X167592578Y-119762008D01*
X167359774Y-119780269D01*
X167132480Y-119807573D01*
X166942492Y-119841161D01*
X166821598Y-119878273D01*
X166799444Y-119893798D01*
X166709671Y-119932403D01*
X166528514Y-119964728D01*
X166287890Y-119985102D01*
X166284510Y-119985264D01*
X166049196Y-119993051D01*
X165910625Y-119985023D01*
X165842655Y-119955509D01*
X165819147Y-119898839D01*
X165817500Y-119883976D01*
X165817923Y-119850238D01*
X165833855Y-119821890D01*
X165877567Y-119797106D01*
X165961331Y-119774060D01*
X166097418Y-119750924D01*
X166298100Y-119725870D01*
X166575649Y-119697073D01*
X166942336Y-119662704D01*
X167410432Y-119620937D01*
X167833478Y-119583829D01*
X169860202Y-119406513D01*
X169901923Y-119665878D01*
X169943645Y-119925244D01*
X170977613Y-119834783D01*
X171366062Y-119799177D01*
X171647987Y-119768685D01*
X171839905Y-119740417D01*
X171958335Y-119711483D01*
X172019795Y-119678993D01*
X172038872Y-119649106D01*
X172116329Y-119560439D01*
X172166786Y-119545087D01*
X172241524Y-119575984D01*
X172240612Y-119629772D01*
X172246324Y-119665939D01*
X172299633Y-119687908D01*
X172417403Y-119696360D01*
X172616496Y-119691975D01*
X172913772Y-119675433D01*
X173087912Y-119663944D01*
X173962010Y-119604625D01*
X174144773Y-121339944D01*
X174192941Y-121806273D01*
X174236738Y-122247485D01*
X174274393Y-122644318D01*
X174304129Y-122977515D01*
X174324172Y-123227815D01*
X174332747Y-123375957D01*
X174332859Y-123381197D01*
X174338180Y-123687133D01*
X170235171Y-124046100D01*
X170224425Y-123923268D01*
X170223487Y-123912552D01*
X170346904Y-123912552D01*
X171491408Y-123812421D01*
X171575107Y-123588497D01*
X171658805Y-123364573D01*
X171229888Y-123402099D01*
X171005434Y-123419504D01*
X170876046Y-123417599D01*
X170814069Y-123389007D01*
X170791848Y-123326350D01*
X170787575Y-123286081D01*
X170787361Y-123284065D01*
X170788943Y-123274861D01*
X170915828Y-123274861D01*
X171380837Y-123252353D01*
X171621145Y-123245031D01*
X171759705Y-123254141D01*
X171817369Y-123283012D01*
X171819350Y-123322288D01*
X171838776Y-123395455D01*
X171911249Y-123404374D01*
X172028736Y-123402934D01*
X172228387Y-123408767D01*
X172469358Y-123420628D01*
X172496918Y-123422265D01*
X172751208Y-123444244D01*
X172907022Y-123477002D01*
X172989117Y-123527313D01*
X173011011Y-123562946D01*
X173048132Y-123616900D01*
X173120403Y-123645492D01*
X173253695Y-123651730D01*
X173473875Y-123638621D01*
X173582892Y-123629440D01*
X173835967Y-123605889D01*
X173988075Y-123584080D01*
X174061138Y-123555680D01*
X174077079Y-123512358D01*
X174058829Y-123448557D01*
X174016146Y-123308383D01*
X174002152Y-123236914D01*
X173945668Y-123193310D01*
X173782839Y-123182829D01*
X173626102Y-123192457D01*
X173431053Y-123201482D01*
X173295714Y-123192426D01*
X173252996Y-123172003D01*
X173193809Y-123146088D01*
X173039056Y-123120680D01*
X172816425Y-123099700D01*
X172689035Y-123092132D01*
X172443291Y-123077208D01*
X172251933Y-123059917D01*
X172142501Y-123043025D01*
X172127115Y-123035608D01*
X172157432Y-122912965D01*
X172241266Y-122807831D01*
X172337886Y-122770843D01*
X172339822Y-122771174D01*
X172447538Y-122782959D01*
X172642877Y-122797256D01*
X172890263Y-122811583D01*
X172987568Y-122816380D01*
X173259517Y-122833803D01*
X173432238Y-122858938D01*
X173529788Y-122897464D01*
X173576222Y-122955056D01*
X173576341Y-122955341D01*
X173673952Y-123044948D01*
X173773034Y-123055830D01*
X173827125Y-123050362D01*
X173867118Y-123035895D01*
X173891221Y-122999446D01*
X173897645Y-122928033D01*
X173884599Y-122808672D01*
X173850293Y-122628380D01*
X173792937Y-122374175D01*
X173710742Y-122033072D01*
X173601915Y-121592089D01*
X173532747Y-121313102D01*
X173172371Y-119859368D01*
X172652482Y-119887232D01*
X172132593Y-119915098D01*
X171524210Y-121594979D01*
X170915828Y-123274861D01*
X170788943Y-123274861D01*
X170804281Y-123185611D01*
X170858970Y-122988926D01*
X170945875Y-122711222D01*
X171059443Y-122369708D01*
X171194122Y-121981594D01*
X171326714Y-121612371D01*
X171476351Y-121201758D01*
X171612592Y-120827265D01*
X171729554Y-120505121D01*
X171821347Y-120251559D01*
X171882087Y-120082809D01*
X171905415Y-120016627D01*
X171883102Y-119950802D01*
X171847968Y-119946108D01*
X171811291Y-120003443D01*
X171739101Y-120161401D01*
X171637309Y-120404468D01*
X171511823Y-120717130D01*
X171368554Y-121083876D01*
X171213408Y-121489191D01*
X171052297Y-121917562D01*
X170891129Y-122353477D01*
X170735814Y-122781422D01*
X170592260Y-123185885D01*
X170466377Y-123551351D01*
X170408127Y-123726111D01*
X170346904Y-123912552D01*
X170223487Y-123912552D01*
X170210991Y-123769727D01*
X170187844Y-123597720D01*
G37*
G36*
X192704009Y-117686426D02*
G01*
X192539225Y-117686457D01*
X192431301Y-117660169D01*
X192418639Y-117649507D01*
X192343388Y-117629293D01*
X192179882Y-117624316D01*
X191957284Y-117631990D01*
X191704759Y-117649731D01*
X191451471Y-117674953D01*
X191226587Y-117705072D01*
X191059267Y-117737502D01*
X190978681Y-117769659D01*
X190975510Y-117777419D01*
X190917293Y-117809131D01*
X190739949Y-117841305D01*
X190447647Y-117873359D01*
X190073655Y-117902735D01*
X189722218Y-117925951D01*
X189475100Y-117938540D01*
X189313676Y-117939277D01*
X189219323Y-117926930D01*
X189173417Y-117900273D01*
X189157335Y-117858075D01*
X189155537Y-117842162D01*
X189155960Y-117808424D01*
X189171892Y-117780077D01*
X189215604Y-117755292D01*
X189299368Y-117732246D01*
X189435455Y-117709110D01*
X189636137Y-117684057D01*
X189913686Y-117655259D01*
X190280372Y-117620890D01*
X190748468Y-117579123D01*
X191171515Y-117542015D01*
X193198239Y-117364700D01*
X193239961Y-117624064D01*
X193281682Y-117883430D01*
X193532397Y-117861495D01*
X193754731Y-117808965D01*
X193855298Y-117724945D01*
X193911506Y-117645989D01*
X193932876Y-117670493D01*
X193938751Y-117716649D01*
X193950190Y-117747674D01*
X193986006Y-117769796D01*
X194059717Y-117782826D01*
X194184838Y-117786572D01*
X194374884Y-117780845D01*
X194643371Y-117765453D01*
X195003813Y-117740207D01*
X195469728Y-117704917D01*
X195625034Y-117692890D01*
X197300046Y-117562811D01*
X197689728Y-121644137D01*
X193573207Y-122004286D01*
X193549028Y-121727914D01*
X193525535Y-121555404D01*
X193484517Y-121476525D01*
X193410002Y-121461617D01*
X193405808Y-121461957D01*
X193308544Y-121431967D01*
X193282138Y-121333534D01*
X193275323Y-121237894D01*
X193258368Y-121036477D01*
X193232792Y-120746257D01*
X193200111Y-120384206D01*
X193161848Y-119967294D01*
X193119518Y-119512496D01*
X193111777Y-119429973D01*
X192986399Y-118094921D01*
X192983394Y-118062922D01*
X193352155Y-118062922D01*
X193384292Y-118430248D01*
X193402515Y-118612540D01*
X193434377Y-118729641D01*
X193503275Y-118795310D01*
X193632605Y-118823304D01*
X193845762Y-118827382D01*
X194052953Y-118823465D01*
X194249059Y-118823295D01*
X194388657Y-118830403D01*
X194433840Y-118839777D01*
X194441409Y-118905772D01*
X194447556Y-119076176D01*
X194451978Y-119332102D01*
X194454372Y-119654661D01*
X194454433Y-120024968D01*
X194454145Y-120101577D01*
X194453322Y-120496108D01*
X194454251Y-120862730D01*
X194456743Y-121178167D01*
X194460604Y-121419146D01*
X194465646Y-121562389D01*
X194466198Y-121570314D01*
X194483699Y-121800856D01*
X195036443Y-121752498D01*
X195321454Y-121722009D01*
X195496686Y-121688746D01*
X195575658Y-121649611D01*
X195583307Y-121627295D01*
X195588790Y-121507425D01*
X195602373Y-121409026D01*
X195608843Y-121336244D01*
X195579287Y-121297213D01*
X195488786Y-121285696D01*
X195312426Y-121295455D01*
X195190241Y-121305839D01*
X194753167Y-121344078D01*
X194737241Y-121113400D01*
X194732246Y-120979387D01*
X194727976Y-120746097D01*
X194724688Y-120437554D01*
X194722639Y-120077778D01*
X194722083Y-119697009D01*
X194722849Y-118511298D01*
X194504319Y-118494494D01*
X194286648Y-118487560D01*
X194086128Y-118494477D01*
X193957477Y-118496742D01*
X193896339Y-118452497D01*
X193870901Y-118328812D01*
X193864975Y-118265600D01*
X193851439Y-118110891D01*
X193850260Y-118097411D01*
X193974121Y-118097411D01*
X193974271Y-118100145D01*
X194003808Y-118160267D01*
X194092633Y-118197700D01*
X194260133Y-118215960D01*
X194525695Y-118218559D01*
X194618754Y-118216991D01*
X194814859Y-118216819D01*
X194954458Y-118223928D01*
X194999640Y-118233301D01*
X195007209Y-118299297D01*
X195013356Y-118469702D01*
X195017778Y-118725627D01*
X195020173Y-119048187D01*
X195020233Y-119418493D01*
X195019945Y-119495102D01*
X195019121Y-119889633D01*
X195020051Y-120256255D01*
X195022543Y-120571693D01*
X195026404Y-120812671D01*
X195031446Y-120955915D01*
X195031998Y-120963840D01*
X195049499Y-121194381D01*
X195325871Y-121170201D01*
X195489992Y-121146618D01*
X195586948Y-121114796D01*
X195598463Y-121099938D01*
X195597491Y-121025526D01*
X195597245Y-120849701D01*
X195597697Y-120594350D01*
X195598817Y-120281360D01*
X195599859Y-120063226D01*
X195601054Y-119718212D01*
X195600984Y-119410379D01*
X195599743Y-119163672D01*
X195597424Y-119002038D01*
X195595566Y-118956011D01*
X195599102Y-118903902D01*
X195634141Y-118869340D01*
X195722139Y-118847917D01*
X195884552Y-118835225D01*
X196142834Y-118826853D01*
X196234613Y-118824697D01*
X196883128Y-118809970D01*
X196869912Y-118658911D01*
X196850280Y-118571652D01*
X196790283Y-118524321D01*
X196658872Y-118502587D01*
X196515217Y-118495202D01*
X196312076Y-118479605D01*
X196204643Y-118445598D01*
X196165627Y-118383444D01*
X196163878Y-118369860D01*
X196177754Y-118302242D01*
X196251468Y-118257101D01*
X196411361Y-118221947D01*
X196505548Y-118207855D01*
X196703249Y-118176911D01*
X196808300Y-118141330D01*
X196850266Y-118080143D01*
X196858713Y-117972379D01*
X196858860Y-117957255D01*
X196860643Y-117755969D01*
X195413478Y-117882580D01*
X194948720Y-117924182D01*
X194593203Y-117958691D01*
X194333211Y-117988179D01*
X194155024Y-118014722D01*
X194044925Y-118040392D01*
X193989197Y-118067265D01*
X193974121Y-118097411D01*
X193850260Y-118097411D01*
X193843482Y-118019936D01*
X193352155Y-118062922D01*
X192983394Y-118062922D01*
X192946047Y-117665250D01*
X192704009Y-117686426D01*
G37*
G36*
X182357947Y-119733175D02*
G01*
X182401356Y-119888995D01*
X182456462Y-120104655D01*
X182515969Y-120349843D01*
X182572586Y-120594246D01*
X182619018Y-120807550D01*
X182647972Y-120959442D01*
X182652881Y-120994811D01*
X182636891Y-121075655D01*
X182549008Y-121099832D01*
X182404499Y-121083134D01*
X182326074Y-121012536D01*
X182260014Y-120850674D01*
X182211294Y-120629360D01*
X182184886Y-120380410D01*
X182185762Y-120135637D01*
X182218895Y-119926857D01*
X182222073Y-119915986D01*
X182276040Y-119760512D01*
X182319817Y-119674230D01*
X182333528Y-119667509D01*
X182357947Y-119733175D01*
G37*
G36*
X173022733Y-120549901D02*
G01*
X173066141Y-120705720D01*
X173121247Y-120921380D01*
X173180755Y-121166569D01*
X173237372Y-121410971D01*
X173283803Y-121624275D01*
X173312757Y-121776167D01*
X173317666Y-121811536D01*
X173301676Y-121892381D01*
X173213793Y-121916557D01*
X173069284Y-121899859D01*
X172990859Y-121829262D01*
X172924799Y-121667399D01*
X172876079Y-121446085D01*
X172849671Y-121197136D01*
X172850547Y-120952363D01*
X172883680Y-120743583D01*
X172886858Y-120732711D01*
X172940825Y-120577237D01*
X172984603Y-120490955D01*
X172998313Y-120484235D01*
X173022733Y-120549901D01*
G37*
G36*
X172458363Y-121157574D02*
G01*
X172501163Y-121312857D01*
X172555732Y-121527991D01*
X172614818Y-121772672D01*
X172671164Y-122016590D01*
X172717518Y-122229438D01*
X172746625Y-122380908D01*
X172751866Y-122418011D01*
X172752625Y-122478029D01*
X172722169Y-122510702D01*
X172635272Y-122520694D01*
X172466710Y-122512671D01*
X172306313Y-122500392D01*
X172127494Y-122483226D01*
X172008402Y-122466123D01*
X171983042Y-122458596D01*
X171992634Y-122396626D01*
X172034501Y-122241375D01*
X172101851Y-122016511D01*
X172184775Y-121755292D01*
X172273850Y-121489775D01*
X172350755Y-121276122D01*
X172407175Y-121136392D01*
X172434588Y-121092452D01*
X172458363Y-121157574D01*
G37*
G36*
X183368794Y-118503151D02*
G01*
X183204010Y-118503182D01*
X183096086Y-118476894D01*
X183083424Y-118466232D01*
X183008174Y-118446018D01*
X182844667Y-118441042D01*
X182622069Y-118448716D01*
X182369544Y-118466456D01*
X182116256Y-118491679D01*
X181891372Y-118521797D01*
X181724053Y-118554227D01*
X181643466Y-118586384D01*
X181640295Y-118594144D01*
X181582078Y-118625857D01*
X181404735Y-118658031D01*
X181112433Y-118690085D01*
X180738440Y-118719461D01*
X180387003Y-118742676D01*
X180139885Y-118755266D01*
X179978461Y-118756003D01*
X179884108Y-118743656D01*
X179838203Y-118716998D01*
X179822120Y-118674801D01*
X179820323Y-118658888D01*
X179820745Y-118625149D01*
X179836677Y-118596802D01*
X179880389Y-118572018D01*
X179964153Y-118548972D01*
X180100241Y-118525836D01*
X180300923Y-118500782D01*
X180578471Y-118471984D01*
X180945158Y-118437616D01*
X181413254Y-118395849D01*
X181836301Y-118358740D01*
X183863025Y-118181425D01*
X183904746Y-118440790D01*
X183946467Y-118700156D01*
X184197183Y-118678221D01*
X184419516Y-118625690D01*
X184520083Y-118541671D01*
X184576291Y-118462714D01*
X184597662Y-118487219D01*
X184603536Y-118533374D01*
X184614975Y-118564400D01*
X184650791Y-118586521D01*
X184724502Y-118599551D01*
X184849624Y-118603298D01*
X185039670Y-118597570D01*
X185308156Y-118582179D01*
X185668598Y-118556933D01*
X186134513Y-118521642D01*
X186289819Y-118509616D01*
X187964832Y-118379537D01*
X188159672Y-120420200D01*
X188354513Y-122460863D01*
X184237992Y-122821011D01*
X184213813Y-122544639D01*
X184190321Y-122372129D01*
X184149302Y-122293250D01*
X184074787Y-122278343D01*
X184070593Y-122278683D01*
X183973329Y-122248693D01*
X183946923Y-122150259D01*
X183940108Y-122054619D01*
X183923153Y-121853203D01*
X183897577Y-121562982D01*
X183864896Y-121200931D01*
X183826633Y-120784019D01*
X183784303Y-120329221D01*
X183776562Y-120246699D01*
X183651184Y-118911647D01*
X183648179Y-118879647D01*
X184016940Y-118879647D01*
X184049077Y-119246973D01*
X184067300Y-119429266D01*
X184099162Y-119546366D01*
X184168060Y-119612035D01*
X184297390Y-119640029D01*
X184510547Y-119644108D01*
X184717738Y-119640191D01*
X184913844Y-119640021D01*
X185053443Y-119647129D01*
X185098626Y-119656502D01*
X185106194Y-119722498D01*
X185112341Y-119892902D01*
X185116764Y-120148827D01*
X185119157Y-120471387D01*
X185119218Y-120841694D01*
X185118930Y-120918302D01*
X185118107Y-121312833D01*
X185119036Y-121679456D01*
X185121528Y-121994893D01*
X185125390Y-122235871D01*
X185130432Y-122379115D01*
X185130983Y-122387040D01*
X185148485Y-122617582D01*
X185701228Y-122569223D01*
X185986239Y-122538735D01*
X186161471Y-122505472D01*
X186240443Y-122466337D01*
X186248092Y-122444020D01*
X186253575Y-122324150D01*
X186267158Y-122225752D01*
X186273629Y-122152969D01*
X186244072Y-122113939D01*
X186153572Y-122102421D01*
X185977211Y-122112180D01*
X185855026Y-122122565D01*
X185417952Y-122160804D01*
X185402027Y-121930125D01*
X185397031Y-121796113D01*
X185392761Y-121562823D01*
X185389473Y-121254279D01*
X185387424Y-120894504D01*
X185386868Y-120513735D01*
X185387634Y-119328024D01*
X185169104Y-119311220D01*
X184951433Y-119304286D01*
X184750913Y-119311203D01*
X184622262Y-119313468D01*
X184561125Y-119269222D01*
X184535687Y-119145537D01*
X184529760Y-119082325D01*
X184516224Y-118927616D01*
X184515045Y-118914137D01*
X184638907Y-118914137D01*
X184639056Y-118916870D01*
X184668594Y-118976992D01*
X184757418Y-119014425D01*
X184924919Y-119032685D01*
X185190480Y-119035285D01*
X185283539Y-119033716D01*
X185479644Y-119033545D01*
X185619244Y-119040653D01*
X185664426Y-119050027D01*
X185671994Y-119116022D01*
X185678141Y-119286427D01*
X185682563Y-119542353D01*
X185684958Y-119864912D01*
X185685018Y-120235218D01*
X185684730Y-120311828D01*
X185683907Y-120706359D01*
X185684836Y-121072981D01*
X185687328Y-121388418D01*
X185691190Y-121629396D01*
X185696232Y-121772640D01*
X185696784Y-121780565D01*
X185714284Y-122011106D01*
X185990657Y-121986927D01*
X186154778Y-121963343D01*
X186251734Y-121931522D01*
X186263248Y-121916664D01*
X186262276Y-121842251D01*
X186262031Y-121666426D01*
X186262482Y-121411075D01*
X186263603Y-121098086D01*
X186264644Y-120879952D01*
X186265839Y-120534938D01*
X186265769Y-120227105D01*
X186264528Y-119980398D01*
X186262209Y-119818764D01*
X186260351Y-119772737D01*
X186263887Y-119720627D01*
X186298927Y-119686066D01*
X186386925Y-119664643D01*
X186549337Y-119651950D01*
X186807619Y-119643579D01*
X186899398Y-119641422D01*
X187547913Y-119626696D01*
X187534697Y-119475637D01*
X187515066Y-119388377D01*
X187455068Y-119341047D01*
X187323657Y-119319312D01*
X187180002Y-119311927D01*
X186976861Y-119296331D01*
X186869428Y-119262324D01*
X186830412Y-119200170D01*
X186828663Y-119186586D01*
X186842539Y-119118968D01*
X186916253Y-119073826D01*
X187076146Y-119038672D01*
X187170333Y-119024581D01*
X187368034Y-118993636D01*
X187473085Y-118958056D01*
X187515052Y-118896868D01*
X187523498Y-118789104D01*
X187523645Y-118773981D01*
X187525428Y-118572694D01*
X186078264Y-118699305D01*
X185613505Y-118740908D01*
X185257988Y-118775416D01*
X184997996Y-118804904D01*
X184819809Y-118831447D01*
X184709710Y-118857118D01*
X184653982Y-118883990D01*
X184638907Y-118914137D01*
X184515045Y-118914137D01*
X184508267Y-118836662D01*
X184016940Y-118879647D01*
X183648179Y-118879647D01*
X183610832Y-118481976D01*
X183368794Y-118503151D01*
G37*
G36*
X188858274Y-121964269D02*
G01*
X188817756Y-121885520D01*
X188743243Y-121869985D01*
X188734409Y-121870652D01*
X188699708Y-121870159D01*
X188670755Y-121853558D01*
X188645617Y-121808192D01*
X188622357Y-121721405D01*
X188599041Y-121580541D01*
X188573736Y-121372945D01*
X188544506Y-121085962D01*
X188509417Y-120706936D01*
X188466533Y-120223209D01*
X188445009Y-119977505D01*
X188397137Y-119437637D01*
X188357284Y-119008564D01*
X188323795Y-118678163D01*
X188295016Y-118434307D01*
X188269293Y-118264871D01*
X188244970Y-118157732D01*
X188220394Y-118100763D01*
X188193909Y-118081841D01*
X188186316Y-118081673D01*
X188101684Y-118055661D01*
X188088819Y-118028317D01*
X188026432Y-118013924D01*
X187845952Y-118013503D01*
X187551764Y-118026828D01*
X187148254Y-118053668D01*
X186639808Y-118093795D01*
X186333093Y-118120037D01*
X185792454Y-118168663D01*
X185365245Y-118210288D01*
X185041872Y-118246162D01*
X184812740Y-118277532D01*
X184668256Y-118305645D01*
X184598823Y-118331751D01*
X184589188Y-118346872D01*
X184572459Y-118390212D01*
X184519979Y-118357087D01*
X184468626Y-118249277D01*
X184473084Y-118193250D01*
X184491898Y-118164712D01*
X184538946Y-118139344D01*
X184626493Y-118115583D01*
X184766797Y-118091868D01*
X184972120Y-118066636D01*
X185254726Y-118038327D01*
X185626874Y-118005376D01*
X186100828Y-117966224D01*
X186516240Y-117932980D01*
X188530631Y-117773062D01*
X188572353Y-118032427D01*
X188614074Y-118291793D01*
X189648043Y-118201332D01*
X190036491Y-118165726D01*
X190318416Y-118135234D01*
X190510334Y-118106966D01*
X190628765Y-118078032D01*
X190690225Y-118045542D01*
X190709302Y-118015655D01*
X190786758Y-117926988D01*
X190837215Y-117911636D01*
X190911953Y-117942533D01*
X190911041Y-117996322D01*
X190916754Y-118032488D01*
X190970063Y-118054457D01*
X191087833Y-118062909D01*
X191286925Y-118058524D01*
X191584201Y-118041983D01*
X191758341Y-118030494D01*
X192632440Y-117971174D01*
X192815203Y-119706493D01*
X192863370Y-120172822D01*
X192907168Y-120614034D01*
X192944823Y-121010867D01*
X192974558Y-121344064D01*
X192994602Y-121594364D01*
X193003177Y-121742506D01*
X193003288Y-121747747D01*
X193008610Y-122053682D01*
X188905600Y-122412649D01*
X188894854Y-122289817D01*
X188893916Y-122279101D01*
X189017334Y-122279101D01*
X190161838Y-122178970D01*
X190245536Y-121955046D01*
X190329235Y-121731122D01*
X189900318Y-121768648D01*
X189675864Y-121786053D01*
X189546476Y-121784148D01*
X189484499Y-121755556D01*
X189462277Y-121692899D01*
X189458004Y-121652630D01*
X189457790Y-121650614D01*
X189459372Y-121641410D01*
X189586257Y-121641410D01*
X190051267Y-121618902D01*
X190291575Y-121611580D01*
X190430134Y-121620690D01*
X190487798Y-121649561D01*
X190489779Y-121688837D01*
X190509206Y-121762004D01*
X190581678Y-121770923D01*
X190699165Y-121769483D01*
X190898817Y-121775316D01*
X191139788Y-121787177D01*
X191167347Y-121788814D01*
X191421638Y-121810793D01*
X191577452Y-121843551D01*
X191659547Y-121893862D01*
X191681441Y-121929495D01*
X191718561Y-121983449D01*
X191790833Y-122012041D01*
X191924124Y-122018279D01*
X192144305Y-122005170D01*
X192253322Y-121995989D01*
X192506396Y-121972439D01*
X192658504Y-121950629D01*
X192731568Y-121922229D01*
X192747508Y-121878907D01*
X192729259Y-121815106D01*
X192686576Y-121674932D01*
X192672581Y-121603463D01*
X192616098Y-121559859D01*
X192453268Y-121549378D01*
X192296531Y-121559006D01*
X192101483Y-121568031D01*
X191966143Y-121558975D01*
X191923425Y-121538552D01*
X191864238Y-121512638D01*
X191709485Y-121487230D01*
X191486854Y-121466249D01*
X191359464Y-121458681D01*
X191113721Y-121443757D01*
X190922363Y-121426466D01*
X190812930Y-121409574D01*
X190797545Y-121402157D01*
X190827861Y-121279514D01*
X190911696Y-121174380D01*
X191008316Y-121137392D01*
X191010252Y-121137723D01*
X191117968Y-121149508D01*
X191313307Y-121163805D01*
X191560692Y-121178132D01*
X191657997Y-121182929D01*
X191929947Y-121200352D01*
X192102668Y-121225487D01*
X192200217Y-121264013D01*
X192246652Y-121321605D01*
X192246771Y-121321890D01*
X192344381Y-121411497D01*
X192443463Y-121422379D01*
X192497555Y-121416911D01*
X192537547Y-121402445D01*
X192561650Y-121365995D01*
X192568075Y-121294582D01*
X192555028Y-121175221D01*
X192520722Y-120994929D01*
X192463366Y-120740724D01*
X192381172Y-120399622D01*
X192272345Y-119958638D01*
X192203177Y-119679651D01*
X191842801Y-118225917D01*
X191322911Y-118253781D01*
X190803023Y-118281647D01*
X189586257Y-121641410D01*
X189459372Y-121641410D01*
X189474711Y-121552160D01*
X189529400Y-121355475D01*
X189616305Y-121077771D01*
X189729872Y-120736257D01*
X189864552Y-120348144D01*
X189997144Y-119978920D01*
X190146780Y-119568307D01*
X190283022Y-119193814D01*
X190399983Y-118871670D01*
X190491777Y-118618108D01*
X190552517Y-118449358D01*
X190575844Y-118383176D01*
X190553532Y-118317351D01*
X190518398Y-118312657D01*
X190481720Y-118369992D01*
X190409531Y-118527950D01*
X190307738Y-118771017D01*
X190182253Y-119083679D01*
X190038983Y-119450425D01*
X189883838Y-119855740D01*
X189722727Y-120284111D01*
X189561559Y-120720026D01*
X189406244Y-121147971D01*
X189262689Y-121552434D01*
X189136806Y-121917900D01*
X189078556Y-122092660D01*
X189017334Y-122279101D01*
X188893916Y-122279101D01*
X188881420Y-122136276D01*
X188858274Y-121964269D01*
G37*
%TD*%
D11*
%TO.C,U1*%
X22453600Y-128879600D03*
D12*
X24993600Y-128879600D03*
X27533600Y-128879600D03*
X30073600Y-128879600D03*
X32613600Y-128879600D03*
X35153600Y-128879600D03*
X37693600Y-128879600D03*
X40233600Y-128879600D03*
X42773600Y-128879600D03*
X45313600Y-128879600D03*
X47853600Y-128879600D03*
X50393600Y-128879600D03*
X50393600Y-113639600D03*
X47853600Y-113639600D03*
X45313600Y-113639600D03*
X42773600Y-113639600D03*
X40233600Y-113639600D03*
X37693600Y-113639600D03*
X35153600Y-113639600D03*
X32613600Y-113639600D03*
X30073600Y-113639600D03*
X27533600Y-113639600D03*
X24993600Y-113639600D03*
X22453600Y-113639600D03*
%TD*%
D13*
%TO.C,D27*%
X144968500Y-99314000D03*
D14*
X144968500Y-106934000D03*
%TD*%
D13*
%TO.C,D17*%
X144968500Y-82296000D03*
D14*
X144968500Y-89916000D03*
%TD*%
D13*
%TO.C,D28*%
X163002500Y-99314000D03*
D14*
X163002500Y-106934000D03*
%TD*%
D13*
%TO.C,D4*%
X91120500Y-65278000D03*
D14*
X91120500Y-72898000D03*
%TD*%
D13*
%TO.C,D6*%
X127000000Y-65278000D03*
D14*
X127000000Y-72898000D03*
%TD*%
D13*
%TO.C,D1*%
X37018500Y-65278000D03*
D14*
X37018500Y-72898000D03*
%TD*%
D13*
%TO.C,D25*%
X109154500Y-99314000D03*
D14*
X109154500Y-106934000D03*
%TD*%
D13*
%TO.C,D11*%
X37018500Y-82296000D03*
D14*
X37018500Y-89916000D03*
%TD*%
D13*
%TO.C,D7*%
X144968500Y-65278000D03*
D14*
X144968500Y-72898000D03*
%TD*%
D13*
%TO.C,D23*%
X73086500Y-99314000D03*
D14*
X73086500Y-106934000D03*
%TD*%
D13*
%TO.C,D14*%
X91120500Y-82296000D03*
D14*
X91120500Y-89916000D03*
%TD*%
D13*
%TO.C,D20*%
X198816500Y-82296000D03*
D14*
X198816500Y-89916000D03*
%TD*%
D13*
%TO.C,D15*%
X109154500Y-82296000D03*
D14*
X109154500Y-89916000D03*
%TD*%
D13*
%TO.C,D36*%
X163002500Y-116332000D03*
D14*
X163002500Y-123952000D03*
%TD*%
D13*
%TO.C,D9*%
X181036500Y-65278000D03*
D14*
X181036500Y-72898000D03*
%TD*%
D13*
%TO.C,D31*%
X73086500Y-116332000D03*
D14*
X73086500Y-123952000D03*
%TD*%
D13*
%TO.C,D24*%
X90866500Y-99314000D03*
D14*
X90866500Y-106934000D03*
%TD*%
D13*
%TO.C,D2*%
X55052500Y-65278000D03*
D14*
X55052500Y-72898000D03*
%TD*%
D13*
%TO.C,D19*%
X181036500Y-82296000D03*
D14*
X181036500Y-89916000D03*
%TD*%
D13*
%TO.C,D26*%
X126934500Y-99314000D03*
D14*
X126934500Y-106934000D03*
%TD*%
D13*
%TO.C,D30*%
X199070500Y-99314000D03*
D14*
X199070500Y-106934000D03*
%TD*%
D13*
%TO.C,D22*%
X55052500Y-99314000D03*
D14*
X55052500Y-106934000D03*
%TD*%
D13*
%TO.C,D5*%
X108900500Y-65278000D03*
D14*
X108900500Y-72898000D03*
%TD*%
D13*
%TO.C,D3*%
X73086500Y-65278000D03*
D14*
X73086500Y-72898000D03*
%TD*%
D13*
%TO.C,D18*%
X163002500Y-82296000D03*
D14*
X163002500Y-89916000D03*
%TD*%
D13*
%TO.C,D35*%
X144968500Y-116332000D03*
D14*
X144968500Y-123952000D03*
%TD*%
D13*
%TO.C,D29*%
X181036500Y-99314000D03*
D14*
X181036500Y-106934000D03*
%TD*%
D13*
%TO.C,D34*%
X130462500Y-111556550D03*
D14*
X122842500Y-111556550D03*
%TD*%
D13*
%TO.C,D8*%
X163002500Y-65278000D03*
D14*
X163002500Y-72898000D03*
%TD*%
D13*
%TO.C,D16*%
X126934500Y-82296000D03*
D14*
X126934500Y-89916000D03*
%TD*%
D13*
%TO.C,D33*%
X109067350Y-116222300D03*
D14*
X109067350Y-123842300D03*
%TD*%
D13*
%TO.C,D32*%
X94699300Y-111505750D03*
D14*
X87079300Y-111505750D03*
%TD*%
D13*
%TO.C,D10*%
X199070500Y-65278000D03*
D14*
X199070500Y-72898000D03*
%TD*%
D13*
%TO.C,D13*%
X73086500Y-82296000D03*
D14*
X73086500Y-89916000D03*
%TD*%
D13*
%TO.C,D21*%
X37018500Y-99314000D03*
D14*
X37018500Y-106934000D03*
%TD*%
D13*
%TO.C,D12*%
X55052500Y-82296000D03*
D14*
X55052500Y-89916000D03*
%TD*%
M02*
